<svg width="182" height="64" viewBox="0 0 182 64" fill="none" xmlns="http://www.w3.org/2000/svg">
<g filter="url(#filter0_d)">
<rect width="178" height="60" rx="8" transform="matrix(-1 0 0 1 180 0)" fill="white"/>
</g>
<path d="M35.836 37C35.716 37 35.614 36.958 35.53 36.874C35.446 36.79 35.404 36.688 35.404 36.568V24.85C35.404 24.718 35.44 24.61 35.512 24.526C35.596 24.442 35.704 24.4 35.836 24.4H41.056C42.46 24.4 43.504 24.712 44.188 25.336C44.884 25.948 45.232 26.788 45.232 27.856C45.232 28.48 45.076 29.014 44.764 29.458C44.464 29.89 44.11 30.202 43.702 30.394C44.206 30.622 44.626 30.994 44.962 31.51C45.31 32.026 45.484 32.614 45.484 33.274C45.484 34.39 45.106 35.29 44.35 35.974C43.606 36.658 42.556 37 41.2 37H35.836ZM40.732 29.566C41.356 29.566 41.83 29.416 42.154 29.116C42.478 28.816 42.64 28.414 42.64 27.91C42.64 27.394 42.478 26.998 42.154 26.722C41.83 26.434 41.356 26.29 40.732 26.29H37.906V29.566H40.732ZM40.912 35.092C41.536 35.092 42.022 34.924 42.37 34.588C42.718 34.24 42.892 33.802 42.892 33.274C42.892 32.734 42.718 32.296 42.37 31.96C42.022 31.612 41.536 31.438 40.912 31.438H37.906V35.092H40.912ZM51.0738 37.18C50.1738 37.18 49.4178 37.048 48.8058 36.784C48.1938 36.508 47.7378 36.19 47.4378 35.83C47.1498 35.458 47.0058 35.14 47.0058 34.876C47.0058 34.756 47.0478 34.66 47.1318 34.588C47.2158 34.516 47.3118 34.48 47.4198 34.48H48.8418C48.9498 34.48 49.0398 34.522 49.1118 34.606C49.1598 34.642 49.2858 34.75 49.4898 34.93C49.6938 35.122 49.9338 35.272 50.2098 35.38C50.4858 35.488 50.7918 35.542 51.1278 35.542C51.6078 35.542 52.0038 35.446 52.3158 35.254C52.6278 35.062 52.7838 34.798 52.7838 34.462C52.7838 34.21 52.7118 34.006 52.5678 33.85C52.4358 33.694 52.1898 33.556 51.8298 33.436C51.4698 33.304 50.9358 33.166 50.2278 33.022C49.2078 32.806 48.4518 32.476 47.9598 32.032C47.4798 31.588 47.2398 31 47.2398 30.268C47.2398 29.788 47.3838 29.338 47.6718 28.918C47.9598 28.486 48.3858 28.138 48.9498 27.874C49.5258 27.598 50.2098 27.46 51.0018 27.46C51.8058 27.46 52.5018 27.592 53.0898 27.856C53.6778 28.108 54.1218 28.414 54.4218 28.774C54.7338 29.122 54.8898 29.434 54.8898 29.71C54.8898 29.818 54.8478 29.914 54.7638 29.998C54.6918 30.07 54.6018 30.106 54.4938 30.106H53.1618C53.0658 30.106 52.9638 30.064 52.8558 29.98C52.7718 29.92 52.6398 29.806 52.4598 29.638C52.2798 29.47 52.0698 29.338 51.8298 29.242C51.5898 29.146 51.3078 29.098 50.9838 29.098C50.5398 29.098 50.1918 29.194 49.9398 29.386C49.6998 29.578 49.5798 29.83 49.5798 30.142C49.5798 30.37 49.6398 30.556 49.7598 30.7C49.8798 30.844 50.1138 30.982 50.4618 31.114C50.8098 31.246 51.3318 31.378 52.0278 31.51C53.1798 31.738 54.0018 32.092 54.4938 32.572C54.9978 33.052 55.2498 33.64 55.2498 34.336C55.2498 35.176 54.8838 35.86 54.1518 36.388C53.4198 36.916 52.3938 37.18 51.0738 37.18ZM61.1579 37.18C59.8379 37.18 58.7819 36.814 57.9899 36.082C57.2099 35.35 56.7959 34.336 56.7479 33.04L56.7299 32.32L56.7479 31.6C56.7959 30.304 57.2099 29.29 57.9899 28.558C58.7819 27.826 59.8379 27.46 61.1579 27.46C62.0939 27.46 62.8859 27.628 63.5339 27.964C64.1939 28.3 64.6799 28.714 64.9919 29.206C65.3159 29.686 65.4899 30.142 65.5139 30.574C65.5259 30.694 65.4839 30.796 65.3879 30.88C65.3039 30.964 65.2019 31.006 65.0819 31.006H63.4979C63.3779 31.006 63.2819 30.982 63.2099 30.934C63.1499 30.874 63.0899 30.778 63.0299 30.646C62.8499 30.178 62.6099 29.842 62.3099 29.638C62.0219 29.434 61.6499 29.332 61.1939 29.332C60.5819 29.332 60.1019 29.53 59.7539 29.926C59.4059 30.31 59.2199 30.898 59.1959 31.69L59.1779 32.356L59.1959 32.95C59.2439 34.522 59.9099 35.308 61.1939 35.308C61.6619 35.308 62.0399 35.206 62.3279 35.002C62.6159 34.798 62.8499 34.462 63.0299 33.994C63.0899 33.862 63.1499 33.772 63.2099 33.724C63.2819 33.664 63.3779 33.634 63.4979 33.634H65.0819C65.2019 33.634 65.3039 33.676 65.3879 33.76C65.4839 33.844 65.5259 33.946 65.5139 34.066C65.4899 34.486 65.3219 34.936 65.0099 35.416C64.6979 35.896 64.2179 36.31 63.5699 36.658C62.9219 37.006 62.1179 37.18 61.1579 37.18ZM70.9371 37.18C70.0371 37.18 69.2811 37.048 68.6691 36.784C68.0571 36.508 67.6011 36.19 67.3011 35.83C67.0131 35.458 66.8691 35.14 66.8691 34.876C66.8691 34.756 66.9111 34.66 66.9951 34.588C67.0791 34.516 67.1751 34.48 67.2831 34.48H68.7051C68.8131 34.48 68.9031 34.522 68.9751 34.606C69.0231 34.642 69.1491 34.75 69.3531 34.93C69.5571 35.122 69.7971 35.272 70.0731 35.38C70.3491 35.488 70.6551 35.542 70.9911 35.542C71.4711 35.542 71.8671 35.446 72.1791 35.254C72.4911 35.062 72.6471 34.798 72.6471 34.462C72.6471 34.21 72.5751 34.006 72.4311 33.85C72.2991 33.694 72.0531 33.556 71.6931 33.436C71.3331 33.304 70.7991 33.166 70.0911 33.022C69.0711 32.806 68.3151 32.476 67.8231 32.032C67.3431 31.588 67.1031 31 67.1031 30.268C67.1031 29.788 67.2471 29.338 67.5351 28.918C67.8231 28.486 68.2491 28.138 68.8131 27.874C69.3891 27.598 70.0731 27.46 70.8651 27.46C71.6691 27.46 72.3651 27.592 72.9531 27.856C73.5411 28.108 73.9851 28.414 74.2851 28.774C74.5971 29.122 74.7531 29.434 74.7531 29.71C74.7531 29.818 74.7111 29.914 74.6271 29.998C74.5551 30.07 74.4651 30.106 74.3571 30.106H73.0251C72.9291 30.106 72.8271 30.064 72.7191 29.98C72.6351 29.92 72.5031 29.806 72.3231 29.638C72.1431 29.47 71.9331 29.338 71.6931 29.242C71.4531 29.146 71.1711 29.098 70.8471 29.098C70.4031 29.098 70.0551 29.194 69.8031 29.386C69.5631 29.578 69.4431 29.83 69.4431 30.142C69.4431 30.37 69.5031 30.556 69.6231 30.7C69.7431 30.844 69.9771 30.982 70.3251 31.114C70.6731 31.246 71.1951 31.378 71.8911 31.51C73.0431 31.738 73.8651 32.092 74.3571 32.572C74.8611 33.052 75.1131 33.64 75.1131 34.336C75.1131 35.176 74.7471 35.86 74.0151 36.388C73.2831 36.916 72.2571 37.18 70.9371 37.18ZM81.0212 37.18C79.7012 37.18 78.6452 36.814 77.8532 36.082C77.0732 35.35 76.6592 34.336 76.6112 33.04L76.5932 32.32L76.6112 31.6C76.6592 30.304 77.0732 29.29 77.8532 28.558C78.6452 27.826 79.7012 27.46 81.0212 27.46C81.9572 27.46 82.7492 27.628 83.3972 27.964C84.0572 28.3 84.5432 28.714 84.8552 29.206C85.1792 29.686 85.3532 30.142 85.3772 30.574C85.3892 30.694 85.3472 30.796 85.2512 30.88C85.1672 30.964 85.0652 31.006 84.9452 31.006H83.3612C83.2412 31.006 83.1452 30.982 83.0732 30.934C83.0132 30.874 82.9532 30.778 82.8932 30.646C82.7132 30.178 82.4732 29.842 82.1732 29.638C81.8852 29.434 81.5132 29.332 81.0572 29.332C80.4452 29.332 79.9652 29.53 79.6172 29.926C79.2692 30.31 79.0832 30.898 79.0592 31.69L79.0412 32.356L79.0592 32.95C79.1072 34.522 79.7732 35.308 81.0572 35.308C81.5252 35.308 81.9032 35.206 82.1912 35.002C82.4792 34.798 82.7132 34.462 82.8932 33.994C82.9532 33.862 83.0132 33.772 83.0732 33.724C83.1452 33.664 83.2412 33.634 83.3612 33.634H84.9452C85.0652 33.634 85.1672 33.676 85.2512 33.76C85.3472 33.844 85.3892 33.946 85.3772 34.066C85.3532 34.486 85.1852 34.936 84.8732 35.416C84.5612 35.896 84.0812 36.31 83.4332 36.658C82.7852 37.006 81.9812 37.18 81.0212 37.18ZM89.9724 37.18C89.3604 37.18 88.7964 37.06 88.2804 36.82C87.7764 36.568 87.3744 36.232 87.0744 35.812C86.7864 35.392 86.6424 34.93 86.6424 34.426C86.6424 33.61 86.9724 32.95 87.6324 32.446C88.2924 31.942 89.1984 31.6 90.3504 31.42L92.8164 31.06V30.682C92.8164 30.154 92.6844 29.758 92.4204 29.494C92.1564 29.23 91.7304 29.098 91.1424 29.098C90.7464 29.098 90.4224 29.176 90.1704 29.332C89.9304 29.476 89.7384 29.62 89.5944 29.764C89.4504 29.92 89.3544 30.022 89.3064 30.07C89.2584 30.214 89.1684 30.286 89.0364 30.286H87.6504C87.5424 30.286 87.4464 30.25 87.3624 30.178C87.2904 30.106 87.2544 30.01 87.2544 29.89C87.2664 29.59 87.4104 29.248 87.6864 28.864C87.9744 28.48 88.4124 28.15 89.0004 27.874C89.5884 27.598 90.3084 27.46 91.1604 27.46C92.5764 27.46 93.6084 27.778 94.2564 28.414C94.9044 29.05 95.2284 29.884 95.2284 30.916V36.568C95.2284 36.688 95.1864 36.79 95.1024 36.874C95.0304 36.958 94.9284 37 94.7964 37H93.3384C93.2184 37 93.1164 36.958 93.0324 36.874C92.9484 36.79 92.9064 36.688 92.9064 36.568V35.866C92.6424 36.25 92.2644 36.568 91.7724 36.82C91.2924 37.06 90.6924 37.18 89.9724 37.18ZM90.5844 35.47C91.2444 35.47 91.7844 35.254 92.2044 34.822C92.6244 34.39 92.8344 33.76 92.8344 32.932V32.554L91.0344 32.842C90.3384 32.95 89.8104 33.124 89.4504 33.364C89.1024 33.604 88.9284 33.898 88.9284 34.246C88.9284 34.63 89.0904 34.93 89.4144 35.146C89.7384 35.362 90.1284 35.47 90.5844 35.47ZM97.9696 37C97.8496 37 97.7476 36.958 97.6636 36.874C97.5796 36.79 97.5376 36.688 97.5376 36.568V28.072C97.5376 27.952 97.5796 27.85 97.6636 27.766C97.7476 27.682 97.8496 27.64 97.9696 27.64H99.4456C99.5656 27.64 99.6676 27.682 99.7516 27.766C99.8356 27.85 99.8776 27.952 99.8776 28.072V28.81C100.586 27.91 101.588 27.46 102.884 27.46C103.988 27.46 104.864 27.826 105.512 28.558C106.16 29.278 106.484 30.262 106.484 31.51V36.568C106.484 36.688 106.442 36.79 106.358 36.874C106.286 36.958 106.184 37 106.052 37H104.468C104.348 37 104.246 36.958 104.162 36.874C104.078 36.79 104.036 36.688 104.036 36.568V31.618C104.036 30.91 103.862 30.364 103.514 29.98C103.178 29.584 102.686 29.386 102.038 29.386C101.402 29.386 100.898 29.584 100.526 29.98C100.166 30.376 99.9856 30.922 99.9856 31.618V36.568C99.9856 36.688 99.9436 36.79 99.8596 36.874C99.7876 36.958 99.6856 37 99.5536 37H97.9696Z" fill="black"/>
<g clip-path="url(#clip0)">
<path d="M129.347 29.3419C129.347 29.2085 129.373 29.0764 129.424 28.9532C129.476 28.83 129.551 28.7181 129.645 28.624C129.74 28.5298 129.852 28.4553 129.976 28.4047C130.099 28.3541 130.231 28.3283 130.365 28.3289L132.052 28.3345C132.321 28.3345 132.58 28.4414 132.77 28.6316C132.96 28.8219 133.067 29.08 133.067 29.349V35.7308C133.257 35.6744 133.5 35.6144 133.768 35.5513C133.953 35.5077 134.119 35.4027 134.237 35.2534C134.355 35.104 134.42 34.9191 134.42 34.7286V26.8131C134.42 26.544 134.527 26.2859 134.717 26.0956C134.907 25.9053 135.165 25.7984 135.434 25.7983H137.127C137.396 25.7984 137.654 25.9053 137.844 26.0956C138.035 26.2859 138.142 26.544 138.142 26.8131V34.16C138.142 34.16 138.565 33.9886 138.977 33.8145C139.131 33.7497 139.261 33.6412 139.353 33.5026C139.445 33.364 139.494 33.2014 139.494 33.0351V24.2766C139.494 24.0075 139.601 23.7495 139.791 23.5592C139.982 23.3689 140.24 23.262 140.509 23.262H142.2C142.469 23.2622 142.726 23.3692 142.916 23.5595C143.107 23.7497 143.213 24.0076 143.213 24.2766V31.4889C144.679 30.4264 146.165 29.1485 147.344 27.612C147.515 27.3889 147.628 27.127 147.674 26.8496C147.719 26.5722 147.695 26.2879 147.603 26.0221C147.058 24.4519 146.19 23.0129 145.056 21.7972C143.922 20.5816 142.547 19.616 141.019 18.9623C139.49 18.3085 137.842 17.9811 136.18 18.0008C134.518 18.0206 132.878 18.3871 131.366 19.077C129.853 19.7669 128.501 20.7649 127.397 22.0071C126.292 23.2494 125.459 24.7086 124.951 26.2913C124.443 27.8741 124.27 29.5455 124.445 31.1986C124.62 32.8517 125.138 34.4502 125.966 35.8917C126.11 36.1404 126.322 36.3427 126.577 36.4749C126.832 36.6072 127.12 36.6638 127.407 36.6382C127.726 36.61 128.125 36.5702 128.598 36.5147C128.804 36.4912 128.995 36.3928 129.133 36.2382C129.271 36.0835 129.347 35.8834 129.348 35.676V29.3419" fill="#12161C"/>
<path d="M129.311 39.5767C131.093 40.8733 133.2 41.6516 135.397 41.8255C137.594 41.9993 139.797 41.562 141.761 40.5617C143.725 39.5615 145.374 38.0374 146.526 36.158C147.677 34.2787 148.287 32.1174 148.286 29.9133C148.286 29.6375 148.274 29.3661 148.255 29.0955C143.89 35.6062 135.83 38.6499 129.311 39.5767" fill="#F0B90B"/>
</g>
<defs>
<filter id="filter0_d" x="0" y="0" width="182" height="64" filterUnits="userSpaceOnUse" color-interpolation-filters="sRGB">
<feFlood flood-opacity="0" result="BackgroundImageFix"/>
<feColorMatrix in="SourceAlpha" type="matrix" values="0 0 0 0 0 0 0 0 0 0 0 0 0 0 0 0 0 0 127 0"/>
<feOffset dy="2"/>
<feGaussianBlur stdDeviation="1"/>
<feColorMatrix type="matrix" values="0 0 0 0 0 0 0 0 0 0 0 0 0 0 0 0 0 0 0.15 0"/>
<feBlend mode="normal" in2="BackgroundImageFix" result="effect1_dropShadow"/>
<feBlend mode="normal" in="SourceGraphic" in2="effect1_dropShadow" result="shape"/>
</filter>
<clipPath id="clip0">
<rect width="24" height="24" fill="white" transform="translate(124 18)"/>
</clipPath>
</defs>
</svg>
