<svg width="24" height="24" viewBox="0 0 24 24" fill="none" xmlns="http://www.w3.org/2000/svg">
<g clip-path="url(#clip0)">
<path d="M5.34683 11.3419C5.34686 11.2085 5.37324 11.0764 5.42446 10.9532C5.47569 10.83 5.55075 10.7181 5.64533 10.624C5.73991 10.5298 5.85216 10.4553 5.97562 10.4047C6.09908 10.3541 6.23132 10.3283 6.36476 10.3289L8.05237 10.3345C8.32145 10.3345 8.57951 10.4414 8.76978 10.6316C8.96005 10.8219 9.06694 11.08 9.06694 11.349V17.7308C9.25702 17.6744 9.50027 17.6144 9.76795 17.5513C9.9534 17.5077 10.1187 17.4027 10.237 17.2534C10.3553 17.104 10.4197 16.9191 10.4197 16.7286V8.81309C10.4197 8.54399 10.5266 8.28591 10.7169 8.09561C10.9071 7.90531 11.1652 7.79837 11.4343 7.79832H13.127C13.3961 7.79837 13.6542 7.90531 13.8444 8.09561C14.0347 8.28591 14.1416 8.54399 14.1416 8.81309V16.16C14.1416 16.16 14.5651 15.9886 14.9773 15.8145C15.1305 15.7497 15.2612 15.6412 15.3532 15.5026C15.4451 15.364 15.4942 15.2014 15.4944 15.0351V6.27655C15.4944 6.0075 15.6012 5.74947 15.7915 5.55921C15.9817 5.36894 16.2397 5.26203 16.5087 5.26198H18.1997C18.4686 5.26224 18.7264 5.36925 18.9165 5.55949C19.1065 5.74973 19.2133 6.00764 19.2133 6.27655V13.4889C20.6793 12.4264 22.165 11.1485 23.3441 9.61199C23.5151 9.38895 23.6283 9.12704 23.6736 8.84962C23.7188 8.5722 23.6947 8.28789 23.6033 8.02207C23.0575 6.45188 22.19 5.01291 21.0561 3.79724C19.9223 2.58158 18.5472 1.61599 17.0188 0.962268C15.4904 0.308546 13.8423 -0.0189142 12.1801 0.000843702C10.5179 0.0206016 8.87809 0.387141 7.36565 1.07701C5.85321 1.76687 4.50144 2.76488 3.39684 4.00715C2.29223 5.24942 1.45912 6.7086 0.950821 8.29133C0.442518 9.87405 0.270216 11.5455 0.444939 13.1986C0.619663 14.8517 1.13756 16.4502 1.9655 17.8917C2.10975 18.1404 2.32197 18.3427 2.57722 18.4749C2.83248 18.6072 3.12018 18.6638 3.40651 18.6382C3.72638 18.61 4.12465 18.5702 4.59816 18.5147C4.80424 18.4912 4.9945 18.3928 5.13271 18.2382C5.27091 18.0835 5.3474 17.8834 5.34762 17.676V11.3419" fill="#12161C"/>
<path d="M5.31079 21.5765C7.09319 22.8732 9.19954 23.6515 11.3968 23.8254C13.5941 23.9992 15.7967 23.5618 17.7608 22.5616C19.7249 21.5614 21.374 20.0373 22.5257 18.1579C23.6774 16.2786 24.2868 14.1173 24.2864 11.9132C24.2864 11.6374 24.2736 11.366 24.2553 11.0954C19.8899 17.6061 11.8296 20.6498 5.31079 21.5765Z" fill="#F0B90B"/>
</g>
<defs>
<clipPath id="clip0">
<rect width="24" height="24" fill="white"/>
</clipPath>
</defs>
</svg>
