<svg width="158" height="64" viewBox="0 0 158 64" fill="none" xmlns="http://www.w3.org/2000/svg">
<g filter="url(#filter0_d)">
<rect width="154" height="60" rx="8" transform="matrix(-1 0 0 1 156 0)" fill="white"/>
</g>
<path d="M40.264 37.18C38.608 37.18 37.324 36.754 36.412 35.902C35.512 35.05 35.032 33.85 34.972 32.302C34.96 31.978 34.954 31.45 34.954 30.718C34.954 29.974 34.96 29.434 34.972 29.098C35.032 27.562 35.518 26.368 36.43 25.516C37.354 24.652 38.632 24.22 40.264 24.22C41.332 24.22 42.262 24.406 43.054 24.778C43.846 25.138 44.458 25.636 44.89 26.272C45.322 26.896 45.55 27.604 45.574 28.396V28.432C45.574 28.528 45.532 28.612 45.448 28.684C45.376 28.744 45.292 28.774 45.196 28.774H43.486C43.342 28.774 43.234 28.744 43.162 28.684C43.09 28.624 43.03 28.51 42.982 28.342C42.79 27.586 42.472 27.058 42.028 26.758C41.584 26.446 40.99 26.29 40.246 26.29C38.518 26.29 37.618 27.256 37.546 29.188C37.534 29.512 37.528 30.01 37.528 30.682C37.528 31.354 37.534 31.864 37.546 32.212C37.618 34.144 38.518 35.11 40.246 35.11C40.99 35.11 41.584 34.954 42.028 34.642C42.484 34.33 42.802 33.802 42.982 33.058C43.018 32.89 43.072 32.776 43.144 32.716C43.228 32.656 43.342 32.626 43.486 32.626H45.196C45.304 32.626 45.394 32.662 45.466 32.734C45.55 32.806 45.586 32.896 45.574 33.004C45.55 33.796 45.322 34.51 44.89 35.146C44.458 35.77 43.846 36.268 43.054 36.64C42.262 37 41.332 37.18 40.264 37.18ZM47.9427 37C47.8227 37 47.7207 36.958 47.6367 36.874C47.5527 36.79 47.5107 36.688 47.5107 36.568V24.652C47.5107 24.52 47.5527 24.418 47.6367 24.346C47.7207 24.262 47.8227 24.22 47.9427 24.22H49.5447C49.6767 24.22 49.7787 24.262 49.8507 24.346C49.9347 24.418 49.9767 24.52 49.9767 24.652V28.756C50.6967 27.892 51.6687 27.46 52.8927 27.46C53.9967 27.46 54.8787 27.826 55.5387 28.558C56.1987 29.278 56.5287 30.262 56.5287 31.51V36.568C56.5287 36.688 56.4867 36.79 56.4027 36.874C56.3307 36.958 56.2287 37 56.0967 37H54.4767C54.3567 37 54.2547 36.958 54.1707 36.874C54.0867 36.79 54.0447 36.688 54.0447 36.568V31.618C54.0447 30.91 53.8707 30.364 53.5227 29.98C53.1867 29.584 52.6947 29.386 52.0467 29.386C51.4107 29.386 50.9067 29.584 50.5347 29.98C50.1627 30.376 49.9767 30.922 49.9767 31.618V36.568C49.9767 36.688 49.9347 36.79 49.8507 36.874C49.7787 36.958 49.6767 37 49.5447 37H47.9427ZM61.531 37.18C60.919 37.18 60.355 37.06 59.839 36.82C59.335 36.568 58.933 36.232 58.633 35.812C58.345 35.392 58.201 34.93 58.201 34.426C58.201 33.61 58.531 32.95 59.191 32.446C59.851 31.942 60.757 31.6 61.909 31.42L64.375 31.06V30.682C64.375 30.154 64.243 29.758 63.979 29.494C63.715 29.23 63.289 29.098 62.701 29.098C62.305 29.098 61.981 29.176 61.729 29.332C61.489 29.476 61.297 29.62 61.153 29.764C61.009 29.92 60.913 30.022 60.865 30.07C60.817 30.214 60.727 30.286 60.595 30.286H59.209C59.101 30.286 59.005 30.25 58.921 30.178C58.849 30.106 58.813 30.01 58.813 29.89C58.825 29.59 58.969 29.248 59.245 28.864C59.533 28.48 59.971 28.15 60.559 27.874C61.147 27.598 61.867 27.46 62.719 27.46C64.135 27.46 65.167 27.778 65.815 28.414C66.463 29.05 66.787 29.884 66.787 30.916V36.568C66.787 36.688 66.745 36.79 66.661 36.874C66.589 36.958 66.487 37 66.355 37H64.897C64.777 37 64.675 36.958 64.591 36.874C64.507 36.79 64.465 36.688 64.465 36.568V35.866C64.201 36.25 63.823 36.568 63.331 36.82C62.851 37.06 62.251 37.18 61.531 37.18ZM62.143 35.47C62.803 35.47 63.343 35.254 63.763 34.822C64.183 34.39 64.393 33.76 64.393 32.932V32.554L62.593 32.842C61.897 32.95 61.369 33.124 61.009 33.364C60.661 33.604 60.487 33.898 60.487 34.246C60.487 34.63 60.649 34.93 60.973 35.146C61.297 35.362 61.687 35.47 62.143 35.47ZM69.5282 37C69.4082 37 69.3062 36.958 69.2222 36.874C69.1382 36.79 69.0962 36.688 69.0962 36.568V28.09C69.0962 27.97 69.1382 27.868 69.2222 27.784C69.3062 27.688 69.4082 27.64 69.5282 27.64H70.9862C71.1182 27.64 71.2262 27.682 71.3102 27.766C71.3942 27.85 71.4362 27.958 71.4362 28.09V28.828C71.7242 28.444 72.0842 28.15 72.5162 27.946C72.9602 27.742 73.4642 27.64 74.0282 27.64H74.7662C74.8982 27.64 75.0002 27.682 75.0722 27.766C75.1562 27.838 75.1982 27.94 75.1982 28.072V29.368C75.1982 29.488 75.1562 29.59 75.0722 29.674C75.0002 29.758 74.8982 29.8 74.7662 29.8H73.3622C72.7982 29.8 72.3542 29.962 72.0302 30.286C71.7062 30.61 71.5442 31.054 71.5442 31.618V36.568C71.5442 36.688 71.5022 36.79 71.4182 36.874C71.3342 36.958 71.2262 37 71.0942 37H69.5282ZM80.8321 37C79.7401 37 78.9181 36.718 78.3661 36.154C77.8261 35.578 77.5561 34.738 77.5561 33.634V29.548H76.1341C76.0141 29.548 75.9121 29.506 75.8281 29.422C75.7441 29.326 75.7021 29.218 75.7021 29.098V28.072C75.7021 27.952 75.7441 27.85 75.8281 27.766C75.9121 27.682 76.0141 27.64 76.1341 27.64H77.5561V24.652C77.5561 24.52 77.5981 24.418 77.6821 24.346C77.7661 24.262 77.8681 24.22 77.9881 24.22H79.4461C79.5781 24.22 79.6801 24.262 79.7521 24.346C79.8361 24.418 79.8781 24.52 79.8781 24.652V27.64H82.1281C82.2601 27.64 82.3621 27.682 82.4341 27.766C82.5181 27.838 82.5601 27.94 82.5601 28.072V29.098C82.5601 29.23 82.5181 29.338 82.4341 29.422C82.3501 29.506 82.2481 29.548 82.1281 29.548H79.8781V33.454C79.8781 33.97 79.9681 34.36 80.1481 34.624C80.3281 34.888 80.6281 35.02 81.0481 35.02H82.2901C82.4101 35.02 82.5121 35.062 82.5961 35.146C82.6801 35.23 82.7221 35.332 82.7221 35.452V36.568C82.7221 36.688 82.6801 36.79 82.5961 36.874C82.5241 36.958 82.4221 37 82.2901 37H80.8321Z" fill="black"/>
<path d="M105.89 26.757C106.214 21.2669 112.415 19.5794 115.475 19.4219C112.213 22.6619 115.475 25.767 117.253 26.5095C119.031 27.252 120.448 28.4671 119.976 30.4471C119.598 32.0311 118.003 31.9771 117.253 31.7521C119.908 32.5697 123.598 35.4647 121.933 38.0073C119.18 42.2111 108.725 41.9899 103.663 40.1448C98.6001 38.2998 101.57 34.4522 102.83 33.2822C101.705 27.7696 103.618 27.7246 105.89 26.757Z" fill="#825C3C"/>
<path d="M108.208 27.6122C108.1 24.2642 111.793 21.0571 113.653 19.8721C109.063 20.7271 106.543 23.8997 106.183 27.2072C105.403 27.1472 103.668 27.5222 102.966 29.5023C102.264 31.4823 103.348 32.6523 103.978 32.9899C99.928 34.8799 101.45 38.1575 102.718 39.56L109.648 41.18C107.713 40.685 103.843 39.083 103.843 36.6349C103.843 34.1869 105.643 33.3949 106.543 33.3049L105.351 32.9899C103.641 29.3223 106.611 28.1747 108.208 27.6122Z" fill="#926747"/>
<path d="M113.365 25.0247C112.303 22.9186 113.058 20.7421 113.568 19.9171C114.325 19.6921 115.764 19.3771 115.458 19.9171C113.343 23.8096 115.323 25.5197 118.428 27.4097C121.533 29.2998 118.518 31.7073 119.418 32.3148C120.318 32.9223 122.275 34.0474 121.915 36.9499C121.627 39.272 118.405 40.6625 116.83 41.0675C117.768 40.3775 119.643 38.4755 119.643 36.3874C119.643 34.2994 118.083 32.8023 117.303 32.3148C117.483 32.3073 117.87 32.1303 117.978 31.4823C118.563 28.4672 114.693 27.6572 113.365 25.0247Z" fill="#6B4B32"/>
<path d="M109.408 33.1923C109.93 33.1923 110.353 32.6986 110.353 32.0897C110.353 31.4808 109.93 30.9872 109.408 30.9872C108.886 30.9872 108.463 31.4808 108.463 32.0897C108.463 32.6986 108.886 33.1923 109.408 33.1923Z" fill="black"/>
<path d="M114.673 32.0897C114.673 32.6986 114.25 33.1923 113.728 33.1923C113.206 33.1923 112.783 32.6986 112.783 32.0897C112.783 31.4808 113.206 30.9872 113.728 30.9872C114.25 30.9872 114.673 31.4808 114.673 32.0897Z" fill="black"/>
<path d="M114.028 36.3191C114.326 36.1161 114.403 35.7102 114.2 35.4124C113.997 35.1146 113.591 35.0376 113.293 35.2406C111.943 36.1601 110.461 35.7 109.907 35.3591C109.6 35.1702 109.199 35.2659 109.01 35.5728C108.821 35.8797 108.917 36.2817 109.223 36.4705C110.034 36.9696 112.102 37.6315 114.028 36.3191Z" fill="black"/>
<path fill-rule="evenodd" clip-rule="evenodd" d="M116.558 18.6416C115.699 18.394 114.552 18.4807 113.398 18.7566C112.215 19.0392 110.913 19.5471 109.695 20.2538C107.423 21.5714 105.242 23.7079 104.941 26.5493C104.477 26.6377 104.021 26.7893 103.598 27.0173C102.719 27.4918 102.011 28.2864 101.715 29.4376C101.459 30.4323 101.525 31.6306 101.955 33.0403C101.559 33.2823 101.196 33.6011 100.898 34.0151C100.404 34.7008 100.138 35.5814 100.138 36.6573C100.138 38.0942 100.744 39.1881 101.688 39.9745C102.599 40.7341 103.801 41.1894 105.014 41.4731C107.265 41.9995 109.844 41.9939 111.409 41.9904C111.528 41.9902 111.641 41.9899 111.748 41.9899C113.306 41.9899 116.036 41.8896 118.384 41.2459C119.554 40.9249 120.703 40.4497 121.564 39.7251C122.454 38.9767 123.041 37.9519 122.998 36.6299C122.922 34.3333 121.778 32.9307 120.512 32.0962C120.732 31.7241 120.893 31.2761 120.972 30.8119C121.124 29.9196 121.002 28.8352 120.321 27.7884C119.947 27.2125 119.384 26.8763 118.9 26.5996C118.827 26.5579 118.754 26.5165 118.68 26.4749C118.233 26.2222 117.768 25.9598 117.254 25.56C115.281 24.0252 115.031 22.8388 115.17 22.0971C115.326 21.2677 116.034 20.5646 116.732 20.1777C117.026 20.0152 117.186 19.6999 117.161 19.3813C117.136 19.0516 116.912 18.7432 116.558 18.6416ZM106.69 32.5885C105.867 32.3767 104.672 32.2364 103.518 32.4566C103.177 31.2963 103.173 30.4507 103.327 29.853C103.5 29.1837 103.887 28.7534 104.389 28.4826C104.912 28.2006 105.582 28.0823 106.272 28.1242C106.964 28.1662 107.605 28.3648 108.051 28.6373C108.443 28.8773 108.956 28.7538 109.196 28.3615C109.435 27.9693 109.312 27.4568 108.92 27.2169C108.273 26.8212 107.461 26.5684 106.629 26.4832C106.948 24.5172 108.527 22.8559 110.53 21.6941C111.611 21.0674 112.762 20.6205 113.785 20.376C113.917 20.3444 114.046 20.3165 114.17 20.2922C113.873 20.7239 113.64 21.2244 113.534 21.7902C113.234 23.3904 114.001 25.1392 116.232 26.8743C116.85 27.355 117.425 27.6789 117.873 27.9313C117.943 27.9709 118.01 28.0088 118.074 28.0452C118.575 28.3318 118.796 28.4971 118.925 28.6959C119.355 29.3575 119.42 30.0103 119.331 30.5328C119.286 30.7981 119.202 31.0245 119.11 31.1941C119.077 31.2551 119.044 31.3059 119.015 31.3467C118.393 31.1128 117.843 30.983 117.515 30.9056C117.434 30.8864 117.366 30.8704 117.314 30.8569C116.869 30.7404 116.414 31.0065 116.298 31.4513C116.181 31.8961 116.447 32.3511 116.892 32.4676C116.971 32.4882 117.061 32.5099 117.161 32.5339C117.743 32.6744 118.648 32.8927 119.497 33.4231C120.44 34.012 121.277 34.9665 121.334 36.6848C121.358 37.4103 121.062 37.9717 120.492 38.4511C119.894 38.9541 119.008 39.3481 117.943 39.6402C115.819 40.2227 113.272 40.3249 111.748 40.3249C111.645 40.3249 111.538 40.3251 111.427 40.3253C109.839 40.3278 107.445 40.3317 105.393 39.8518C104.296 39.5954 103.381 39.2182 102.754 38.6953C102.158 38.1991 101.803 37.5605 101.803 36.6573C101.803 35.8612 101.996 35.3389 102.249 34.9881C102.503 34.6352 102.865 34.389 103.315 34.2296C104.25 33.8987 105.444 33.9873 106.275 34.201C106.721 34.3156 107.175 34.0474 107.289 33.6021C107.404 33.1568 107.135 32.703 106.69 32.5885Z" fill="black"/>
<defs>
<filter id="filter0_d" x="0" y="0" width="158" height="64" filterUnits="userSpaceOnUse" color-interpolation-filters="sRGB">
<feFlood flood-opacity="0" result="BackgroundImageFix"/>
<feColorMatrix in="SourceAlpha" type="matrix" values="0 0 0 0 0 0 0 0 0 0 0 0 0 0 0 0 0 0 127 0"/>
<feOffset dy="2"/>
<feGaussianBlur stdDeviation="1"/>
<feColorMatrix type="matrix" values="0 0 0 0 0 0 0 0 0 0 0 0 0 0 0 0 0 0 0.15 0"/>
<feBlend mode="normal" in2="BackgroundImageFix" result="effect1_dropShadow"/>
<feBlend mode="normal" in="SourceGraphic" in2="effect1_dropShadow" result="shape"/>
</filter>
</defs>
</svg>
