<svg width="359" height="362" viewBox="0 0 359 362" fill="none" xmlns="http://www.w3.org/2000/svg">
<g filter="url(#filter0_d)">
<rect x="14" y="14" width="330" height="334" rx="20" fill="#2E0066"/>
<path d="M73.4946 297.88C72.9135 296.593 71.0865 296.593 70.5054 297.88L66.2661 307.266L56.8798 311.505C55.5932 312.086 55.5932 313.914 56.8798 314.495L66.2661 318.734L70.5054 328.12C71.0865 329.407 72.9135 329.407 73.4946 328.12L77.7339 318.734L87.1202 314.495C88.4068 313.914 88.4068 312.086 87.1202 311.505L77.7339 307.266L73.4946 297.88Z" stroke="white" stroke-width="2"/>
<path d="M71.4167 298.291C71.6435 297.789 72.3565 297.789 72.5833 298.291L76.8785 307.802C76.9426 307.944 77.0564 308.057 77.1984 308.121L86.7086 312.417C87.2107 312.643 87.2107 313.357 86.7086 313.583L77.1984 317.879C77.0564 317.943 76.9426 318.056 76.8785 318.198L72.5833 327.709C72.3565 328.211 71.6435 328.211 71.4167 327.709L67.1215 318.198C67.0574 318.056 66.9436 317.943 66.8016 317.879L57.2914 313.583C56.7893 313.357 56.7893 312.643 57.2914 312.417L66.8016 308.121C66.9436 308.057 67.0574 307.944 67.1215 307.802L71.4167 298.291Z" fill="#F7D057"/>
<path d="M70.407 310.041L71.9999 298.6L67.1999 308.36L57.4399 313L69.0402 311.405C69.7498 311.307 70.3082 310.75 70.407 310.041Z" fill="#F0B90B"/>
<path d="M70.407 310.041L71.9999 298.6L67.1999 308.36L57.4399 313L69.0402 311.405C69.7498 311.307 70.3082 310.75 70.407 310.041Z" fill="#F0B90B"/>
<path d="M74.1706 315.396L72 326.741L77.2883 317.237L87.2709 313.098L75.6048 314.103C74.8911 314.164 74.3052 314.693 74.1706 315.396Z" fill="#FFE591"/>
<path d="M68.0328 308.213L72 299.429L75.9672 308.213C76.1315 308.577 76.4229 308.869 76.7867 309.033L85.5705 313L76.7867 316.967C76.4229 317.131 76.1315 317.423 75.9672 317.787L72 326.571L68.0328 317.787C67.8685 317.423 67.5771 317.131 67.2133 316.967L58.4295 313L67.2133 309.033C67.5771 308.869 67.8685 308.577 68.0328 308.213ZM71.6719 327.297C71.672 327.297 71.6721 327.296 71.6723 327.296L71.6719 327.297Z" stroke="#2E0066" stroke-width="2"/>
<circle cx="251" cy="240" r="2" fill="#F6D057"/>
<circle cx="65" cy="213" r="2" fill="#F6D057"/>
<circle cx="137" cy="297" r="2" fill="#F6D057"/>
<circle cx="86" cy="74" r="2" fill="#F6D057"/>
<circle cx="281" cy="292" r="3" fill="#F6D057"/>
<circle cx="327" cy="55" r="3" fill="#F6D057"/>
<circle cx="103" cy="137" r="3" fill="#F6D057"/>
<circle cx="176" cy="286" r="3" fill="#F6D057"/>
<path d="M94.528 109.36C91.216 109.36 88.648 108.508 86.824 106.804C85.024 105.1 84.064 102.7 83.944 99.604C83.92 98.956 83.908 97.9 83.908 96.436C83.908 94.948 83.92 93.868 83.944 93.196C84.064 90.124 85.036 87.736 86.86 86.032C88.708 84.304 91.264 83.44 94.528 83.44C96.664 83.44 98.524 83.812 100.108 84.556C101.692 85.276 102.916 86.272 103.78 87.544C104.644 88.792 105.1 90.208 105.148 91.792V91.864C105.148 92.056 105.064 92.224 104.896 92.368C104.752 92.488 104.584 92.548 104.392 92.548H100.972C100.684 92.548 100.468 92.488 100.324 92.368C100.18 92.248 100.06 92.02 99.964 91.684C99.58 90.172 98.944 89.116 98.056 88.516C97.168 87.892 95.98 87.58 94.492 87.58C91.036 87.58 89.236 89.512 89.092 93.376C89.068 94.024 89.056 95.02 89.056 96.364C89.056 97.708 89.068 98.728 89.092 99.424C89.236 103.288 91.036 105.22 94.492 105.22C95.98 105.22 97.168 104.908 98.056 104.284C98.968 103.66 99.604 102.604 99.964 101.116C100.036 100.78 100.144 100.552 100.288 100.432C100.456 100.312 100.684 100.252 100.972 100.252H104.392C104.608 100.252 104.788 100.324 104.932 100.468C105.1 100.612 105.172 100.792 105.148 101.008C105.1 102.592 104.644 104.02 103.78 105.292C102.916 106.54 101.692 107.536 100.108 108.28C98.524 109 96.664 109.36 94.528 109.36ZM117.265 109.36C114.457 109.36 112.285 108.64 110.749 107.2C109.213 105.736 108.385 103.744 108.265 101.224L108.229 99.64L108.265 98.056C108.385 95.56 109.225 93.58 110.785 92.116C112.345 90.652 114.505 89.92 117.265 89.92C120.025 89.92 122.185 90.652 123.745 92.116C125.305 93.58 126.145 95.56 126.265 98.056C126.289 98.344 126.301 98.872 126.301 99.64C126.301 100.408 126.289 100.936 126.265 101.224C126.145 103.744 125.317 105.736 123.781 107.2C122.245 108.64 120.073 109.36 117.265 109.36ZM117.265 105.796C118.537 105.796 119.521 105.4 120.217 104.608C120.913 103.792 121.297 102.604 121.369 101.044C121.393 100.804 121.405 100.336 121.405 99.64C121.405 98.944 121.393 98.476 121.369 98.236C121.297 96.676 120.913 95.5 120.217 94.708C119.521 93.892 118.537 93.484 117.265 93.484C115.993 93.484 115.009 93.892 114.313 94.708C113.617 95.5 113.233 96.676 113.161 98.236L113.125 99.64L113.161 101.044C113.233 102.604 113.617 103.792 114.313 104.608C115.009 105.4 115.993 105.796 117.265 105.796ZM131.154 109C130.914 109 130.71 108.916 130.542 108.748C130.374 108.58 130.29 108.376 130.29 108.136V91.144C130.29 90.904 130.374 90.7 130.542 90.532C130.71 90.364 130.914 90.28 131.154 90.28H134.106C134.346 90.28 134.55 90.364 134.718 90.532C134.886 90.7 134.97 90.904 134.97 91.144V92.62C136.386 90.82 138.39 89.92 140.982 89.92C143.19 89.92 144.942 90.652 146.238 92.116C147.534 93.556 148.182 95.524 148.182 98.02V108.136C148.182 108.376 148.098 108.58 147.93 108.748C147.786 108.916 147.582 109 147.318 109H144.15C143.91 109 143.706 108.916 143.538 108.748C143.37 108.58 143.286 108.376 143.286 108.136V98.236C143.286 96.82 142.938 95.728 142.242 94.96C141.57 94.168 140.586 93.772 139.29 93.772C138.018 93.772 137.01 94.168 136.266 94.96C135.546 95.752 135.186 96.844 135.186 98.236V108.136C135.186 108.376 135.102 108.58 134.934 108.748C134.79 108.916 134.586 109 134.322 109H131.154ZM161.004 109C158.82 109 157.176 108.436 156.072 107.308C154.992 106.156 154.452 104.476 154.452 102.268V94.096H151.608C151.368 94.096 151.164 94.012 150.996 93.844C150.828 93.652 150.744 93.436 150.744 93.196V91.144C150.744 90.904 150.828 90.7 150.996 90.532C151.164 90.364 151.368 90.28 151.608 90.28H154.452V84.304C154.452 84.04 154.536 83.836 154.704 83.692C154.872 83.524 155.076 83.44 155.316 83.44H158.232C158.496 83.44 158.7 83.524 158.844 83.692C159.012 83.836 159.096 84.04 159.096 84.304V90.28H163.596C163.86 90.28 164.064 90.364 164.208 90.532C164.376 90.676 164.46 90.88 164.46 91.144V93.196C164.46 93.46 164.376 93.676 164.208 93.844C164.04 94.012 163.836 94.096 163.596 94.096H159.096V101.908C159.096 102.94 159.276 103.72 159.636 104.248C159.996 104.776 160.596 105.04 161.436 105.04H163.92C164.16 105.04 164.364 105.124 164.532 105.292C164.7 105.46 164.784 105.664 164.784 105.904V108.136C164.784 108.376 164.7 108.58 164.532 108.748C164.388 108.916 164.184 109 163.92 109H161.004ZM173.414 109.36C172.19 109.36 171.062 109.12 170.03 108.64C169.022 108.136 168.218 107.464 167.618 106.624C167.042 105.784 166.754 104.86 166.754 103.852C166.754 102.22 167.414 100.9 168.734 99.892C170.054 98.884 171.866 98.2 174.17 97.84L179.102 97.12V96.364C179.102 95.308 178.838 94.516 178.31 93.988C177.782 93.46 176.93 93.196 175.754 93.196C174.962 93.196 174.314 93.352 173.81 93.664C173.33 93.952 172.946 94.24 172.658 94.528C172.37 94.84 172.178 95.044 172.082 95.14C171.986 95.428 171.806 95.572 171.542 95.572H168.77C168.554 95.572 168.362 95.5 168.194 95.356C168.05 95.212 167.978 95.02 167.978 94.78C168.002 94.18 168.29 93.496 168.842 92.728C169.418 91.96 170.294 91.3 171.47 90.748C172.646 90.196 174.086 89.92 175.79 89.92C178.622 89.92 180.686 90.556 181.982 91.828C183.278 93.1 183.926 94.768 183.926 96.832V108.136C183.926 108.376 183.842 108.58 183.674 108.748C183.53 108.916 183.326 109 183.062 109H180.146C179.906 109 179.702 108.916 179.534 108.748C179.366 108.58 179.282 108.376 179.282 108.136V106.732C178.754 107.5 177.998 108.136 177.014 108.64C176.054 109.12 174.854 109.36 173.414 109.36ZM174.638 105.94C175.958 105.94 177.038 105.508 177.878 104.644C178.718 103.78 179.138 102.52 179.138 100.864V100.108L175.538 100.684C174.146 100.9 173.09 101.248 172.37 101.728C171.674 102.208 171.326 102.796 171.326 103.492C171.326 104.26 171.65 104.86 172.298 105.292C172.946 105.724 173.726 105.94 174.638 105.94ZM196.644 109.36C194.004 109.36 191.892 108.628 190.308 107.164C188.748 105.7 187.92 103.672 187.824 101.08L187.788 99.64L187.824 98.2C187.92 95.608 188.748 93.58 190.308 92.116C191.892 90.652 194.004 89.92 196.644 89.92C198.516 89.92 200.1 90.256 201.396 90.928C202.716 91.6 203.688 92.428 204.312 93.412C204.96 94.372 205.308 95.284 205.356 96.148C205.38 96.388 205.296 96.592 205.104 96.76C204.936 96.928 204.732 97.012 204.492 97.012H201.324C201.084 97.012 200.892 96.964 200.748 96.868C200.628 96.748 200.508 96.556 200.388 96.292C200.028 95.356 199.548 94.684 198.948 94.276C198.372 93.868 197.628 93.664 196.716 93.664C195.492 93.664 194.532 94.06 193.836 94.852C193.14 95.62 192.768 96.796 192.72 98.38L192.684 99.712L192.72 100.9C192.816 104.044 194.148 105.616 196.716 105.616C197.652 105.616 198.408 105.412 198.984 105.004C199.56 104.596 200.028 103.924 200.388 102.988C200.508 102.724 200.628 102.544 200.748 102.448C200.892 102.328 201.084 102.268 201.324 102.268H204.492C204.732 102.268 204.936 102.352 205.104 102.52C205.296 102.688 205.38 102.892 205.356 103.132C205.308 103.972 204.972 104.872 204.348 105.832C203.724 106.792 202.764 107.62 201.468 108.316C200.172 109.012 198.564 109.36 196.644 109.36ZM217.57 109C215.386 109 213.742 108.436 212.638 107.308C211.558 106.156 211.018 104.476 211.018 102.268V94.096H208.174C207.934 94.096 207.73 94.012 207.562 93.844C207.394 93.652 207.31 93.436 207.31 93.196V91.144C207.31 90.904 207.394 90.7 207.562 90.532C207.73 90.364 207.934 90.28 208.174 90.28H211.018V84.304C211.018 84.04 211.102 83.836 211.27 83.692C211.438 83.524 211.642 83.44 211.882 83.44H214.798C215.062 83.44 215.266 83.524 215.41 83.692C215.578 83.836 215.662 84.04 215.662 84.304V90.28H220.162C220.426 90.28 220.63 90.364 220.774 90.532C220.942 90.676 221.026 90.88 221.026 91.144V93.196C221.026 93.46 220.942 93.676 220.774 93.844C220.606 94.012 220.402 94.096 220.162 94.096H215.662V101.908C215.662 102.94 215.842 103.72 216.202 104.248C216.562 104.776 217.162 105.04 218.002 105.04H220.486C220.726 105.04 220.93 105.124 221.098 105.292C221.266 105.46 221.35 105.664 221.35 105.904V108.136C221.35 108.376 221.266 108.58 221.098 108.748C220.954 108.916 220.75 109 220.486 109H217.57ZM243.247 109.36C240.007 109.36 237.487 108.532 235.687 106.876C233.887 105.22 232.987 102.712 232.987 99.352V84.7C232.987 84.436 233.059 84.22 233.203 84.052C233.371 83.884 233.587 83.8 233.851 83.8H237.127C237.391 83.8 237.595 83.884 237.739 84.052C237.907 84.22 237.991 84.436 237.991 84.7V99.352C237.991 101.272 238.447 102.724 239.359 103.708C240.271 104.668 241.567 105.148 243.247 105.148C244.927 105.148 246.211 104.668 247.099 103.708C248.011 102.724 248.467 101.272 248.467 99.352V84.7C248.467 84.436 248.551 84.22 248.719 84.052C248.887 83.884 249.103 83.8 249.367 83.8H252.607C252.871 83.8 253.075 83.884 253.219 84.052C253.387 84.22 253.471 84.436 253.471 84.7V99.352C253.471 102.712 252.571 105.22 250.771 106.876C248.995 108.532 246.487 109.36 243.247 109.36ZM265.421 109.36C263.621 109.36 262.109 109.096 260.885 108.568C259.661 108.016 258.749 107.38 258.149 106.66C257.573 105.916 257.285 105.28 257.285 104.752C257.285 104.512 257.369 104.32 257.537 104.176C257.705 104.032 257.897 103.96 258.113 103.96H260.957C261.173 103.96 261.353 104.044 261.497 104.212C261.593 104.284 261.845 104.5 262.253 104.86C262.661 105.244 263.141 105.544 263.693 105.76C264.245 105.976 264.857 106.084 265.529 106.084C266.489 106.084 267.281 105.892 267.905 105.508C268.529 105.124 268.841 104.596 268.841 103.924C268.841 103.42 268.697 103.012 268.409 102.7C268.145 102.388 267.653 102.112 266.933 101.872C266.213 101.608 265.145 101.332 263.729 101.044C261.689 100.612 260.177 99.952 259.193 99.064C258.233 98.176 257.753 97 257.753 95.536C257.753 94.576 258.041 93.676 258.617 92.836C259.193 91.972 260.045 91.276 261.173 90.748C262.325 90.196 263.693 89.92 265.277 89.92C266.885 89.92 268.277 90.184 269.453 90.712C270.629 91.216 271.517 91.828 272.117 92.548C272.741 93.244 273.053 93.868 273.053 94.42C273.053 94.636 272.969 94.828 272.801 94.996C272.657 95.14 272.477 95.212 272.261 95.212H269.597C269.405 95.212 269.201 95.128 268.985 94.96C268.817 94.84 268.553 94.612 268.193 94.276C267.833 93.94 267.413 93.676 266.933 93.484C266.453 93.292 265.889 93.196 265.241 93.196C264.353 93.196 263.657 93.388 263.153 93.772C262.673 94.156 262.433 94.66 262.433 95.284C262.433 95.74 262.553 96.112 262.793 96.4C263.033 96.688 263.501 96.964 264.197 97.228C264.893 97.492 265.937 97.756 267.329 98.02C269.633 98.476 271.277 99.184 272.261 100.144C273.269 101.104 273.773 102.28 273.773 103.672C273.773 105.352 273.041 106.72 271.577 107.776C270.113 108.832 268.061 109.36 265.421 109.36Z" fill="white"/>
<rect width="207" height="60" rx="8" transform="matrix(-1 0 0 1 283 150)" fill="#259BE2"/>
<rect width="207" height="60" rx="8" transform="matrix(-1 0 0 1 283 150)" fill="url(#paint0_linear)"/>
<path d="M132.144 188C131.984 188 131.848 187.944 131.736 187.832C131.624 187.72 131.568 187.584 131.568 187.424V174.152H127.128C126.968 174.152 126.832 174.096 126.72 173.984C126.608 173.872 126.552 173.736 126.552 173.576V171.8C126.552 171.624 126.6 171.48 126.696 171.368C126.808 171.256 126.952 171.2 127.128 171.2H139.368C139.544 171.2 139.688 171.256 139.8 171.368C139.912 171.48 139.968 171.624 139.968 171.8V173.576C139.968 173.736 139.912 173.872 139.8 173.984C139.688 174.096 139.544 174.152 139.368 174.152H134.952V187.424C134.952 187.584 134.896 187.72 134.784 187.832C134.672 187.944 134.528 188 134.352 188H132.144ZM145.288 188.24C143.512 188.24 142.096 187.728 141.04 186.704C140 185.664 139.448 184.208 139.384 182.336L139.36 181.736L139.384 181.136C139.464 179.312 140.024 177.88 141.064 176.84C142.12 175.8 143.528 175.28 145.288 175.28C147.176 175.28 148.632 175.856 149.656 177.008C150.696 178.16 151.216 179.696 151.216 181.616V182.12C151.216 182.28 151.16 182.416 151.048 182.528C150.936 182.64 150.792 182.696 150.616 182.696H142.648V182.888C142.68 183.768 142.92 184.512 143.368 185.12C143.832 185.712 144.464 186.008 145.264 186.008C146.208 186.008 146.968 185.64 147.544 184.904C147.688 184.728 147.8 184.616 147.88 184.568C147.976 184.52 148.112 184.496 148.288 184.496H150.352C150.496 184.496 150.616 184.544 150.712 184.64C150.824 184.72 150.88 184.824 150.88 184.952C150.88 185.336 150.648 185.792 150.184 186.32C149.736 186.832 149.088 187.28 148.24 187.664C147.392 188.048 146.408 188.24 145.288 188.24ZM147.952 180.68V180.608C147.952 179.664 147.712 178.904 147.232 178.328C146.768 177.752 146.12 177.464 145.288 177.464C144.456 177.464 143.808 177.752 143.344 178.328C142.88 178.904 142.648 179.664 142.648 180.608V180.68H147.952ZM154.364 188C154.204 188 154.068 187.944 153.956 187.832C153.844 187.72 153.788 187.584 153.788 187.424V171.536C153.788 171.36 153.844 171.224 153.956 171.128C154.068 171.016 154.204 170.96 154.364 170.96H156.356C156.532 170.96 156.668 171.016 156.764 171.128C156.876 171.224 156.932 171.36 156.932 171.536V187.424C156.932 187.584 156.876 187.72 156.764 187.832C156.668 187.944 156.532 188 156.356 188H154.364ZM165.491 188.24C163.715 188.24 162.299 187.728 161.243 186.704C160.203 185.664 159.651 184.208 159.587 182.336L159.563 181.736L159.587 181.136C159.667 179.312 160.227 177.88 161.267 176.84C162.323 175.8 163.731 175.28 165.491 175.28C167.379 175.28 168.835 175.856 169.859 177.008C170.899 178.16 171.419 179.696 171.419 181.616V182.12C171.419 182.28 171.363 182.416 171.251 182.528C171.139 182.64 170.995 182.696 170.819 182.696H162.851V182.888C162.883 183.768 163.123 184.512 163.571 185.12C164.035 185.712 164.667 186.008 165.467 186.008C166.411 186.008 167.171 185.64 167.747 184.904C167.891 184.728 168.003 184.616 168.083 184.568C168.179 184.52 168.315 184.496 168.491 184.496H170.555C170.699 184.496 170.819 184.544 170.915 184.64C171.027 184.72 171.083 184.824 171.083 184.952C171.083 185.336 170.851 185.792 170.387 186.32C169.939 186.832 169.291 187.28 168.443 187.664C167.595 188.048 166.611 188.24 165.491 188.24ZM168.155 180.68V180.608C168.155 179.664 167.915 178.904 167.435 178.328C166.971 177.752 166.323 177.464 165.491 177.464C164.659 177.464 164.011 177.752 163.547 178.328C163.083 178.904 162.851 179.664 162.851 180.608V180.68H168.155ZM179.607 193.28C178.183 193.28 177.031 193.04 176.151 192.56C175.271 192.096 174.647 191.56 174.279 190.952C173.911 190.344 173.727 189.824 173.727 189.392C173.727 189.248 173.783 189.12 173.895 189.008C174.023 188.896 174.159 188.84 174.303 188.84H176.391C176.535 188.84 176.655 188.872 176.751 188.936C176.863 189.016 176.951 189.152 177.015 189.344C177.175 189.776 177.431 190.136 177.783 190.424C178.151 190.728 178.719 190.88 179.487 190.88C180.447 190.88 181.151 190.664 181.599 190.232C182.063 189.8 182.295 189.056 182.295 188V186.368C181.415 187.408 180.183 187.928 178.599 187.928C176.935 187.928 175.679 187.416 174.831 186.392C173.999 185.368 173.551 183.992 173.487 182.264L173.463 181.616L173.487 180.968C173.551 179.272 174.007 177.904 174.855 176.864C175.703 175.808 176.951 175.28 178.599 175.28C179.447 175.28 180.191 175.44 180.831 175.76C181.471 176.08 182.007 176.52 182.439 177.08V176.12C182.439 175.944 182.495 175.8 182.607 175.688C182.719 175.576 182.855 175.52 183.015 175.52H184.959C185.119 175.52 185.255 175.584 185.367 175.712C185.479 175.824 185.535 175.96 185.535 176.12L185.559 187.688C185.559 189.464 185.063 190.84 184.071 191.816C183.079 192.792 181.591 193.28 179.607 193.28ZM179.487 185.384C180.399 185.384 181.079 185.096 181.527 184.52C181.991 183.944 182.247 183.24 182.295 182.408C182.311 182.28 182.319 182.016 182.319 181.616C182.319 181.232 182.311 180.976 182.295 180.848C182.247 180 181.991 179.288 181.527 178.712C181.079 178.136 180.399 177.848 179.487 177.848C177.759 177.848 176.847 178.912 176.751 181.04L176.727 181.616C176.727 182.752 176.927 183.664 177.327 184.352C177.743 185.04 178.463 185.384 179.487 185.384ZM189.332 188C189.172 188 189.036 187.944 188.924 187.832C188.812 187.72 188.756 187.584 188.756 187.424V176.12C188.756 175.96 188.812 175.824 188.924 175.712C189.036 175.584 189.172 175.52 189.332 175.52H191.276C191.452 175.52 191.596 175.576 191.708 175.688C191.82 175.8 191.876 175.944 191.876 176.12V177.104C192.26 176.592 192.74 176.2 193.316 175.928C193.908 175.656 194.58 175.52 195.332 175.52H196.316C196.492 175.52 196.628 175.576 196.724 175.688C196.836 175.784 196.892 175.92 196.892 176.096V177.824C196.892 177.984 196.836 178.12 196.724 178.232C196.628 178.344 196.492 178.4 196.316 178.4H194.444C193.692 178.4 193.1 178.616 192.668 179.048C192.236 179.48 192.02 180.072 192.02 180.824V187.424C192.02 187.584 191.964 187.72 191.852 187.832C191.74 187.944 191.596 188 191.42 188H189.332ZM202.2 188.24C201.384 188.24 200.632 188.08 199.944 187.76C199.272 187.424 198.736 186.976 198.336 186.416C197.952 185.856 197.76 185.24 197.76 184.568C197.76 183.48 198.2 182.6 199.08 181.928C199.96 181.256 201.168 180.8 202.704 180.56L205.992 180.08V179.576C205.992 178.872 205.816 178.344 205.464 177.992C205.112 177.64 204.544 177.464 203.76 177.464C203.232 177.464 202.8 177.568 202.464 177.776C202.144 177.968 201.888 178.16 201.696 178.352C201.504 178.56 201.376 178.696 201.312 178.76C201.248 178.952 201.128 179.048 200.952 179.048H199.104C198.96 179.048 198.832 179 198.72 178.904C198.624 178.808 198.576 178.68 198.576 178.52C198.592 178.12 198.784 177.664 199.152 177.152C199.536 176.64 200.12 176.2 200.904 175.832C201.688 175.464 202.648 175.28 203.784 175.28C205.672 175.28 207.048 175.704 207.912 176.552C208.776 177.4 209.208 178.512 209.208 179.888V187.424C209.208 187.584 209.152 187.72 209.04 187.832C208.944 187.944 208.808 188 208.632 188H206.688C206.528 188 206.392 187.944 206.28 187.832C206.168 187.72 206.112 187.584 206.112 187.424V186.488C205.76 187 205.256 187.424 204.6 187.76C203.96 188.08 203.16 188.24 202.2 188.24ZM203.016 185.96C203.896 185.96 204.616 185.672 205.176 185.096C205.736 184.52 206.016 183.68 206.016 182.576V182.072L203.616 182.456C202.688 182.6 201.984 182.832 201.504 183.152C201.04 183.472 200.808 183.864 200.808 184.328C200.808 184.84 201.024 185.24 201.456 185.528C201.888 185.816 202.408 185.96 203.016 185.96ZM212.863 188C212.703 188 212.567 187.944 212.455 187.832C212.343 187.72 212.287 187.584 212.287 187.424V176.096C212.287 175.936 212.343 175.8 212.455 175.688C212.567 175.576 212.703 175.52 212.863 175.52H214.735C214.895 175.52 215.031 175.576 215.143 175.688C215.255 175.8 215.311 175.936 215.311 176.096V176.912C216.143 175.824 217.303 175.28 218.791 175.28C220.567 175.28 221.807 175.992 222.511 177.416C222.895 176.776 223.439 176.264 224.143 175.88C224.847 175.48 225.607 175.28 226.423 175.28C227.735 175.28 228.807 175.728 229.639 176.624C230.471 177.52 230.887 178.824 230.887 180.536V187.424C230.887 187.584 230.831 187.72 230.719 187.832C230.623 187.944 230.487 188 230.311 188H228.343C228.183 188 228.047 187.944 227.935 187.832C227.823 187.72 227.767 187.584 227.767 187.424V180.728C227.767 179.72 227.551 178.992 227.119 178.544C226.703 178.08 226.143 177.848 225.439 177.848C224.815 177.848 224.279 178.08 223.831 178.544C223.399 179.008 223.183 179.736 223.183 180.728V187.424C223.183 187.584 223.127 187.72 223.015 187.832C222.903 187.944 222.767 188 222.607 188H220.639C220.479 188 220.343 187.944 220.231 187.832C220.119 187.72 220.063 187.584 220.063 187.424V180.728C220.063 179.72 219.839 178.992 219.391 178.544C218.959 178.08 218.407 177.848 217.735 177.848C217.095 177.848 216.551 178.08 216.103 178.544C215.671 179.008 215.455 179.736 215.455 180.728V187.424C215.455 187.584 215.399 187.72 215.287 187.832C215.175 187.944 215.039 188 214.879 188H212.863Z" fill="white"/>
<rect width="207" height="60" rx="8" transform="matrix(-1 0 0 1 283 226)" fill="#259BE2"/>
<rect width="207" height="60" rx="8" transform="matrix(-1 0 0 1 283 226)" fill="url(#paint1_linear)"/>
<path d="M144.144 264C143.984 264 143.848 263.944 143.736 263.832C143.624 263.72 143.568 263.584 143.568 263.424V250.152H139.128C138.968 250.152 138.832 250.096 138.72 249.984C138.608 249.872 138.552 249.736 138.552 249.576V247.8C138.552 247.624 138.6 247.48 138.696 247.368C138.808 247.256 138.952 247.2 139.128 247.2H151.368C151.544 247.2 151.688 247.256 151.8 247.368C151.912 247.48 151.968 247.624 151.968 247.8V249.576C151.968 249.736 151.912 249.872 151.8 249.984C151.688 250.096 151.544 250.152 151.368 250.152H146.952V263.424C146.952 263.584 146.896 263.72 146.784 263.832C146.672 263.944 146.528 264 146.352 264H144.144ZM156.187 264C155.979 264 155.811 263.952 155.683 263.856C155.571 263.744 155.475 263.592 155.395 263.4L151.963 252.264C151.947 252.216 151.939 252.144 151.939 252.048C151.939 251.904 151.987 251.784 152.083 251.688C152.195 251.576 152.315 251.52 152.443 251.52H154.219C154.395 251.52 154.539 251.568 154.651 251.664C154.763 251.76 154.835 251.864 154.867 251.976L157.219 259.92L159.715 252.048C159.763 251.904 159.843 251.784 159.955 251.688C160.083 251.576 160.243 251.52 160.435 251.52H161.635C161.827 251.52 161.979 251.576 162.091 251.688C162.219 251.784 162.307 251.904 162.355 252.048L164.851 259.92L167.203 251.976C167.219 251.864 167.283 251.76 167.395 251.664C167.523 251.568 167.667 251.52 167.827 251.52H169.603C169.747 251.52 169.867 251.576 169.963 251.688C170.075 251.784 170.131 251.904 170.131 252.048L170.083 252.264L166.651 263.4C166.587 263.592 166.491 263.744 166.363 263.856C166.251 263.952 166.091 264 165.883 264H164.323C163.907 264 163.643 263.8 163.531 263.4L161.035 255.816L158.539 263.4C158.411 263.8 158.139 264 157.723 264H156.187ZM172.947 249.456C172.787 249.456 172.651 249.4 172.539 249.288C172.427 249.176 172.371 249.04 172.371 248.88V247.152C172.371 246.992 172.427 246.856 172.539 246.744C172.651 246.632 172.787 246.576 172.947 246.576H175.131C175.291 246.576 175.427 246.632 175.539 246.744C175.667 246.856 175.731 246.992 175.731 247.152V248.88C175.731 249.04 175.675 249.176 175.563 249.288C175.451 249.4 175.307 249.456 175.131 249.456H172.947ZM173.043 264C172.883 264 172.747 263.944 172.635 263.832C172.523 263.72 172.467 263.584 172.467 263.424V252.096C172.467 251.936 172.523 251.8 172.635 251.688C172.747 251.576 172.883 251.52 173.043 251.52H175.035C175.211 251.52 175.347 251.576 175.443 251.688C175.555 251.784 175.611 251.92 175.611 252.096V263.424C175.611 263.584 175.555 263.72 175.443 263.832C175.347 263.944 175.211 264 175.035 264H173.043ZM184.435 264C182.979 264 181.883 263.624 181.147 262.872C180.427 262.104 180.067 260.984 180.067 259.512V254.064H178.171C178.011 254.064 177.875 254.008 177.763 253.896C177.651 253.768 177.595 253.624 177.595 253.464V252.096C177.595 251.936 177.651 251.8 177.763 251.688C177.875 251.576 178.011 251.52 178.171 251.52H180.067V247.536C180.067 247.36 180.123 247.224 180.235 247.128C180.347 247.016 180.483 246.96 180.643 246.96H182.587C182.763 246.96 182.899 247.016 182.995 247.128C183.107 247.224 183.163 247.36 183.163 247.536V251.52H186.163C186.339 251.52 186.475 251.576 186.571 251.688C186.683 251.784 186.739 251.92 186.739 252.096V253.464C186.739 253.64 186.683 253.784 186.571 253.896C186.459 254.008 186.323 254.064 186.163 254.064H183.163V259.272C183.163 259.96 183.283 260.48 183.523 260.832C183.763 261.184 184.163 261.36 184.723 261.36H186.379C186.539 261.36 186.675 261.416 186.787 261.528C186.899 261.64 186.955 261.776 186.955 261.936V263.424C186.955 263.584 186.899 263.72 186.787 263.832C186.691 263.944 186.555 264 186.379 264H184.435ZM194.724 264C193.268 264 192.172 263.624 191.436 262.872C190.716 262.104 190.356 260.984 190.356 259.512V254.064H188.46C188.3 254.064 188.164 254.008 188.052 253.896C187.94 253.768 187.884 253.624 187.884 253.464V252.096C187.884 251.936 187.94 251.8 188.052 251.688C188.164 251.576 188.3 251.52 188.46 251.52H190.356V247.536C190.356 247.36 190.412 247.224 190.524 247.128C190.636 247.016 190.772 246.96 190.932 246.96H192.876C193.052 246.96 193.188 247.016 193.284 247.128C193.396 247.224 193.452 247.36 193.452 247.536V251.52H196.452C196.628 251.52 196.764 251.576 196.86 251.688C196.972 251.784 197.028 251.92 197.028 252.096V253.464C197.028 253.64 196.972 253.784 196.86 253.896C196.748 254.008 196.612 254.064 196.452 254.064H193.452V259.272C193.452 259.96 193.572 260.48 193.812 260.832C194.052 261.184 194.452 261.36 195.012 261.36H196.668C196.828 261.36 196.964 261.416 197.076 261.528C197.188 261.64 197.244 261.776 197.244 261.936V263.424C197.244 263.584 197.188 263.72 197.076 263.832C196.98 263.944 196.844 264 196.668 264H194.724ZM204.749 264.24C202.973 264.24 201.557 263.728 200.501 262.704C199.461 261.664 198.909 260.208 198.845 258.336L198.821 257.736L198.845 257.136C198.925 255.312 199.485 253.88 200.525 252.84C201.581 251.8 202.989 251.28 204.749 251.28C206.637 251.28 208.093 251.856 209.117 253.008C210.157 254.16 210.677 255.696 210.677 257.616V258.12C210.677 258.28 210.621 258.416 210.509 258.528C210.397 258.64 210.253 258.696 210.077 258.696H202.109V258.888C202.141 259.768 202.381 260.512 202.829 261.12C203.293 261.712 203.925 262.008 204.725 262.008C205.669 262.008 206.429 261.64 207.005 260.904C207.149 260.728 207.261 260.616 207.341 260.568C207.437 260.52 207.573 260.496 207.749 260.496H209.813C209.957 260.496 210.077 260.544 210.173 260.64C210.285 260.72 210.341 260.824 210.341 260.952C210.341 261.336 210.109 261.792 209.645 262.32C209.197 262.832 208.549 263.28 207.701 263.664C206.853 264.048 205.869 264.24 204.749 264.24ZM207.413 256.68V256.608C207.413 255.664 207.173 254.904 206.693 254.328C206.229 253.752 205.581 253.464 204.749 253.464C203.917 253.464 203.269 253.752 202.805 254.328C202.341 254.904 202.109 255.664 202.109 256.608V256.68H207.413ZM213.801 264C213.641 264 213.505 263.944 213.393 263.832C213.281 263.72 213.225 263.584 213.225 263.424V252.12C213.225 251.96 213.281 251.824 213.393 251.712C213.505 251.584 213.641 251.52 213.801 251.52H215.745C215.921 251.52 216.065 251.576 216.177 251.688C216.289 251.8 216.345 251.944 216.345 252.12V253.104C216.729 252.592 217.209 252.2 217.785 251.928C218.377 251.656 219.049 251.52 219.801 251.52H220.785C220.961 251.52 221.097 251.576 221.193 251.688C221.305 251.784 221.361 251.92 221.361 252.096V253.824C221.361 253.984 221.305 254.12 221.193 254.232C221.097 254.344 220.961 254.4 220.785 254.4H218.913C218.161 254.4 217.569 254.616 217.137 255.048C216.705 255.48 216.489 256.072 216.489 256.824V263.424C216.489 263.584 216.433 263.72 216.321 263.832C216.209 263.944 216.065 264 215.889 264H213.801Z" fill="white"/>
</g>
<defs>
<filter id="filter0_d" x="0" y="0" width="1262.09" height="362" filterUnits="userSpaceOnUse" color-interpolation-filters="sRGB">
<feFlood flood-opacity="0" result="BackgroundImageFix"/>
<feColorMatrix in="SourceAlpha" type="matrix" values="0 0 0 0 0 0 0 0 0 0 0 0 0 0 0 0 0 0 127 0"/>
<feOffset/>
<feGaussianBlur stdDeviation="7"/>
<feColorMatrix type="matrix" values="0 0 0 0 0 0 0 0 0 0 0 0 0 0 0 0 0 0 0.2 0"/>
<feBlend mode="normal" in2="BackgroundImageFix" result="effect1_dropShadow"/>
<feBlend mode="normal" in="SourceGraphic" in2="effect1_dropShadow" result="shape"/>
</filter>
<linearGradient id="paint0_linear" x1="128" y1="-81" x2="128" y2="30" gradientUnits="userSpaceOnUse">
<stop stop-color="white"/>
<stop offset="1" stop-color="white" stop-opacity="0"/>
</linearGradient>
<linearGradient id="paint1_linear" x1="128" y1="-81" x2="128" y2="30" gradientUnits="userSpaceOnUse">
<stop stop-color="white"/>
<stop offset="1" stop-color="white" stop-opacity="0"/>
</linearGradient>
</defs>
</svg>
