<svg width="1280" height="334" viewBox="0 0 1280 334" fill="none" xmlns="http://www.w3.org/2000/svg">
<rect width="1280" height="334" rx="20" fill="#2E0066"/>
<path d="M674.036 91.411C674.216 91.1914 674.57 91.2865 674.616 91.5664L676.839 105.129C676.852 105.208 676.893 105.279 676.955 105.33L687.589 114.036C687.809 114.216 687.713 114.57 687.434 114.616L673.871 116.839C673.792 116.852 673.721 116.893 673.67 116.955L664.964 127.589C664.784 127.808 664.43 127.713 664.384 127.433L662.161 113.871C662.148 113.792 662.107 113.72 662.045 113.67L651.411 104.964C651.192 104.784 651.287 104.43 651.567 104.384L665.129 102.161C665.208 102.148 665.279 102.107 665.33 102.045L674.036 91.411Z" fill="#F7D057"/>
<path d="M668.241 106.324L673.998 92.7116L665.353 102.591L652.525 104.951L667.379 106.82C667.745 106.866 668.097 106.664 668.241 106.324Z" fill="#F0B90B"/>
<path d="M668.241 106.324L673.998 92.7116L665.353 102.591L652.525 104.951L667.379 106.82C667.745 106.866 668.097 106.664 668.241 106.324Z" fill="#F0B90B"/>
<path d="M671.647 112.217L665.207 125.52L674.342 116.092L687.273 114.384L672.533 111.765C672.17 111.701 671.808 111.885 671.647 112.217Z" fill="#FFE591"/>
<path d="M674.174 92.0548L676.33 105.212C676.364 105.415 676.47 105.598 676.629 105.729L686.945 114.174L673.788 116.33C673.585 116.364 673.401 116.47 673.271 116.629L664.826 126.945L662.67 113.788C662.636 113.585 662.53 113.401 662.371 113.271L652.055 104.826L665.212 102.67C665.415 102.636 665.599 102.53 665.729 102.371L674.174 92.0548Z" stroke="#2E0066" stroke-width="1.02996"/>
<path d="M673.925 117.164L674.068 117.281L674.068 117.281C674.068 117.281 674.068 117.281 674.068 117.281L673.925 117.164ZM673.925 117.164L673.955 117.347C673.955 117.347 673.955 117.347 673.955 117.347L673.955 117.347L673.925 117.164ZM674.024 117.335L687.517 115.124C688.234 115.007 688.478 114.098 687.915 113.637L677.335 104.976L675.124 91.4832C675.007 90.7657 674.098 90.5222 673.637 91.0847L664.976 101.664L651.483 103.876C650.766 103.993 650.522 104.902 651.085 105.362L661.665 114.024L663.876 127.517C663.993 128.234 664.902 128.478 665.363 127.915L674.024 117.335ZM661.719 114.068C661.719 114.068 661.719 114.068 661.718 114.068L661.719 114.068L661.836 113.925L661.719 114.068Z" stroke="white" stroke-width="1.02996"/>
<path d="M1194.92 27.2914C1195.14 26.7893 1195.86 26.7893 1196.08 27.2914L1207.07 51.6124C1207.13 51.7544 1207.25 51.8681 1207.39 51.9322L1231.71 62.9167C1232.21 63.1435 1232.21 63.8565 1231.71 64.0833L1207.39 75.0678C1207.25 75.1319 1207.13 75.2456 1207.07 75.3876L1196.08 99.7086C1195.86 100.211 1195.14 100.211 1194.92 99.7086L1183.93 75.3876C1183.87 75.2456 1183.75 75.1319 1183.61 75.0678L1159.29 64.0833C1158.79 63.8565 1158.79 63.1435 1159.29 62.9167L1183.61 51.9322C1183.75 51.8681 1183.87 51.7544 1183.93 51.6124L1194.92 27.2914Z" fill="#F7D057"/>
<path d="M1191.54 58.1755L1195.5 29.75L1184.25 52.625L1161.38 63.5L1190.18 59.54C1190.88 59.4424 1191.44 58.885 1191.54 58.1755Z" fill="#F0B90B"/>
<path d="M1191.54 58.1755L1195.5 29.75L1184.25 52.625L1161.38 63.5L1190.18 59.54C1190.88 59.4424 1191.44 58.885 1191.54 58.1755Z" fill="#F0B90B"/>
<path d="M1200.89 67.5182L1195.5 95.7066L1207.89 73.4311L1231.29 63.7291L1202.33 66.2247C1201.61 66.2862 1201.03 66.8146 1200.89 67.5182Z" fill="#FFE591"/>
<path d="M1184.84 52.024L1195.5 28.4295L1206.16 52.024C1206.32 52.3879 1206.61 52.6793 1206.98 52.8436L1230.57 63.5L1206.98 74.1564C1206.61 74.3207 1206.32 74.6121 1206.16 74.976L1195.5 98.5705L1184.84 74.976C1184.68 74.6121 1184.39 74.3207 1184.02 74.1564L1160.43 63.5L1184.02 52.8436C1184.39 52.6793 1184.68 52.3879 1184.84 52.024Z" stroke="#2E0066" stroke-width="2"/>
<path d="M1196.99 26.8798C1196.41 25.5932 1194.59 25.5932 1194.01 26.8798L1183.08 51.0769L1158.88 62.0054C1157.59 62.5865 1157.59 64.4135 1158.88 64.9946L1183.08 75.9231L1194.01 100.12C1194.59 101.407 1196.41 101.407 1196.99 100.12L1207.92 75.9231L1232.12 64.9946C1233.41 64.4135 1233.41 62.5865 1232.12 62.0054L1207.92 51.0769L1196.99 26.8798ZM1207.98 75.7992C1207.98 75.7996 1207.98 75.7999 1207.98 75.8003L1207.98 75.7992ZM1207.8 75.9786C1207.8 75.9788 1207.8 75.979 1207.8 75.9791L1207.8 75.9786Z" stroke="white" stroke-width="2"/>
<path d="M389.495 40.8798C388.914 39.5932 387.086 39.5932 386.505 40.8798L382.266 50.2661L372.88 54.5054C371.593 55.0865 371.593 56.9135 372.88 57.4946L382.266 61.7339L386.505 71.1202C387.086 72.4068 388.914 72.4068 389.495 71.1202L393.734 61.7339L403.12 57.4946C404.407 56.9135 404.407 55.0865 403.12 54.5054L393.734 50.2661L389.495 40.8798Z" stroke="white" stroke-width="2"/>
<path d="M387.417 41.2914C387.643 40.7893 388.357 40.7893 388.583 41.2914L392.879 50.8016C392.943 50.9436 393.056 51.0574 393.198 51.1215L402.709 55.4167C403.211 55.6435 403.211 56.3565 402.709 56.5833L393.198 60.8785C393.056 60.9426 392.943 61.0564 392.879 61.1984L388.583 70.7086C388.357 71.2107 387.643 71.2107 387.417 70.7086L383.121 61.1984C383.057 61.0564 382.944 60.9426 382.802 60.8785L373.291 56.5833C372.789 56.3565 372.789 55.6435 373.291 55.4167L382.802 51.1215C382.944 51.0574 383.057 50.9436 383.121 50.8016L387.417 41.2914Z" fill="#F7D057"/>
<path d="M386.407 53.0405L388 41.6L383.2 51.36L373.44 56L385.04 54.4049C385.75 54.3074 386.308 53.75 386.407 53.0405Z" fill="#F0B90B"/>
<path d="M386.407 53.0405L388 41.6L383.2 51.36L373.44 56L385.04 54.4049C385.75 54.3074 386.308 53.75 386.407 53.0405Z" fill="#F0B90B"/>
<path d="M390.171 58.3964L388 69.7415L393.288 60.2372L403.271 56.0977L391.605 57.1029C390.891 57.1644 390.305 57.6928 390.171 58.3964Z" fill="#FFE591"/>
<path d="M384.033 51.2133L388 42.4295L391.967 51.2133C392.131 51.5771 392.423 51.8685 392.787 52.0328L401.571 56L392.787 59.9672C392.423 60.1315 392.131 60.4229 391.967 60.7867L388 69.5705L384.033 60.7867C383.869 60.4229 383.577 60.1315 383.213 59.9672L374.429 56L383.213 52.0328C383.577 51.8685 383.869 51.5771 384.033 51.2133ZM387.672 70.297C387.672 70.2967 387.672 70.2965 387.672 70.2962L387.672 70.297Z" stroke="#2E0066" stroke-width="2"/>
<path d="M721.654 271.385C721.4 270.822 720.6 270.822 720.346 271.385L718.491 275.491L714.385 277.346C713.822 277.6 713.822 278.4 714.385 278.654L718.491 280.509L720.346 284.615C720.6 285.178 721.4 285.178 721.654 284.615L723.509 280.509L727.615 278.654C728.178 278.4 728.178 277.6 727.615 277.346L723.509 275.491L721.654 271.385Z" stroke="white" stroke-width="0.875"/>
<path d="M720.745 271.565C720.844 271.345 721.156 271.345 721.255 271.565L723.134 275.726C723.162 275.788 723.212 275.838 723.274 275.866L727.435 277.745C727.655 277.844 727.655 278.156 727.435 278.255L723.274 280.134C723.212 280.162 723.162 280.212 723.134 280.274L721.255 284.435C721.156 284.655 720.844 284.655 720.745 284.435L718.866 280.274C718.838 280.212 718.788 280.162 718.726 280.134L714.565 278.255C714.345 278.156 714.345 277.844 714.565 277.745L718.726 275.866C718.788 275.838 718.838 275.788 718.866 275.726L720.745 271.565Z" fill="#F7D057"/>
<path d="M720.303 276.705L721 271.7L718.9 275.97L714.63 278L719.705 277.302C720.016 277.259 720.26 277.016 720.303 276.705Z" fill="#F0B90B"/>
<path d="M720.303 276.705L721 271.7L718.9 275.97L714.63 278L719.705 277.302C720.016 277.259 720.26 277.016 720.303 276.705Z" fill="#F0B90B"/>
<path d="M721.95 279.048L721 284.012L723.314 279.854L727.681 278.043L722.577 278.483C722.265 278.509 722.009 278.741 721.95 279.048Z" fill="#FFE591"/>
<path d="M721 272.063L722.736 275.906C722.808 276.065 722.935 276.192 723.094 276.264L726.937 278L723.094 279.736C722.935 279.808 722.808 279.935 722.736 280.094L723.134 280.274L722.736 280.094L721 283.937L719.264 280.094C719.192 279.935 719.065 279.808 718.906 279.736L718.726 280.134L718.906 279.736L715.063 278L718.906 276.264C719.065 276.192 719.192 276.065 719.264 275.906L721 272.063Z" stroke="#2E0066" stroke-width="0.875"/>
<path d="M1197.49 248.88C1196.91 247.593 1195.09 247.593 1194.51 248.88L1190.27 258.266L1180.88 262.505C1179.59 263.086 1179.59 264.914 1180.88 265.495L1190.27 269.734L1194.51 279.12C1195.09 280.407 1196.91 280.407 1197.49 279.12L1201.73 269.734L1211.12 265.495C1212.41 264.914 1212.41 263.086 1211.12 262.505L1201.73 258.266L1197.49 248.88Z" stroke="white" stroke-width="2"/>
<path d="M1195.42 249.291C1195.64 248.789 1196.36 248.789 1196.58 249.291L1200.88 258.802C1200.94 258.944 1201.06 259.057 1201.2 259.121L1210.71 263.417C1211.21 263.643 1211.21 264.357 1210.71 264.583L1201.2 268.879C1201.06 268.943 1200.94 269.056 1200.88 269.198L1196.58 278.709C1196.36 279.211 1195.64 279.211 1195.42 278.709L1191.12 269.198C1191.06 269.056 1190.94 268.943 1190.8 268.879L1181.29 264.583C1180.79 264.357 1180.79 263.643 1181.29 263.417L1190.8 259.121C1190.94 259.057 1191.06 258.944 1191.12 258.802L1195.42 249.291Z" fill="#F7D057"/>
<path d="M1194.41 261.041L1196 249.6L1191.2 259.36L1181.44 264L1193.04 262.405C1193.75 262.307 1194.31 261.75 1194.41 261.041Z" fill="#F0B90B"/>
<path d="M1194.41 261.041L1196 249.6L1191.2 259.36L1181.44 264L1193.04 262.405C1193.75 262.307 1194.31 261.75 1194.41 261.041Z" fill="#F0B90B"/>
<path d="M1198.17 266.396L1196 277.741L1201.29 268.237L1211.27 264.098L1199.6 265.103C1198.89 265.164 1198.31 265.693 1198.17 266.396Z" fill="#FFE591"/>
<path d="M1192.03 259.213L1196 250.429L1199.97 259.213C1200.13 259.577 1200.42 259.869 1200.79 260.033L1209.57 264L1200.79 267.967C1200.42 268.131 1200.13 268.423 1199.97 268.787L1196 277.571L1192.03 268.787C1191.87 268.423 1191.58 268.131 1191.21 267.967L1182.43 264L1191.21 260.033C1191.58 259.869 1191.87 259.577 1192.03 259.213ZM1195.67 278.297C1195.67 278.297 1195.67 278.296 1195.67 278.296L1195.67 278.297Z" stroke="#2E0066" stroke-width="2"/>
<path d="M59.4946 283.88C58.9135 282.593 57.0865 282.593 56.5054 283.88L52.2661 293.266L42.8798 297.505C41.5932 298.086 41.5932 299.914 42.8798 300.495L52.2661 304.734L56.5054 314.12C57.0865 315.407 58.9135 315.407 59.4946 314.12L63.7339 304.734L73.1202 300.495C74.4068 299.914 74.4068 298.086 73.1202 297.505L63.7339 293.266L59.4946 283.88Z" stroke="white" stroke-width="2"/>
<path d="M57.4167 284.291C57.6435 283.789 58.3565 283.789 58.5833 284.291L62.8785 293.802C62.9426 293.944 63.0564 294.057 63.1984 294.121L72.7086 298.417C73.2107 298.643 73.2107 299.357 72.7086 299.583L63.1984 303.879C63.0564 303.943 62.9426 304.056 62.8785 304.198L58.5833 313.709C58.3565 314.211 57.6435 314.211 57.4167 313.709L53.1215 304.198C53.0574 304.056 52.9436 303.943 52.8016 303.879L43.2914 299.583C42.7893 299.357 42.7893 298.643 43.2914 298.417L52.8016 294.121C52.9436 294.057 53.0574 293.944 53.1215 293.802L57.4167 284.291Z" fill="#F7D057"/>
<path d="M56.407 296.041L57.9999 284.6L53.1999 294.36L43.4399 299L55.0402 297.405C55.7498 297.307 56.3082 296.75 56.407 296.041Z" fill="#F0B90B"/>
<path d="M56.407 296.041L57.9999 284.6L53.1999 294.36L43.4399 299L55.0402 297.405C55.7498 297.307 56.3082 296.75 56.407 296.041Z" fill="#F0B90B"/>
<path d="M60.1706 301.396L58 312.741L63.2883 303.237L73.2709 299.098L61.6048 300.103C60.8911 300.164 60.3052 300.693 60.1706 301.396Z" fill="#FFE591"/>
<path d="M54.0328 294.213L58 285.429L61.9672 294.213C62.1315 294.577 62.4229 294.869 62.7867 295.033L71.5705 299L62.7867 302.967C62.4229 303.131 62.1315 303.423 61.9672 303.787L58 312.571L54.0328 303.787C53.8685 303.423 53.5771 303.131 53.2133 302.967L44.4295 299L53.2133 295.033C53.5771 294.869 53.8685 294.577 54.0328 294.213ZM57.6719 313.297C57.672 313.297 57.6721 313.296 57.6723 313.296L57.6719 313.297Z" stroke="#2E0066" stroke-width="2"/>
<circle cx="51" cy="199" r="2" fill="#F6D057"/>
<circle cx="123" cy="283" r="2" fill="#F6D057"/>
<circle cx="408" cy="139" r="2" fill="#F6D057"/>
<circle cx="72" cy="60" r="2" fill="#F6D057"/>
<circle cx="1178" cy="178" r="2" fill="#F6D057"/>
<circle cx="452" cy="293" r="2" fill="#F6D057"/>
<circle cx="599" cy="65" r="2" fill="#F6D057"/>
<circle cx="675" cy="297" r="2" fill="#F6D057"/>
<circle cx="721" cy="159" r="2" fill="#F6D057"/>
<circle cx="817" cy="285" r="2" fill="#F6D057"/>
<circle cx="880" cy="128" r="2" fill="#F6D057"/>
<circle cx="767" cy="39" r="2" fill="#F6D057"/>
<circle cx="1084" cy="26" r="2" fill="#F6D057"/>
<circle cx="967" cy="186" r="2" fill="#F6D057"/>
<circle cx="1119" cy="218" r="3" fill="#F6D057"/>
<circle cx="1228" cy="129" r="3" fill="#F6D057"/>
<circle cx="866" cy="238" r="3" fill="#F6D057"/>
<circle cx="565" cy="190" r="3" fill="#F6D057"/>
<circle cx="267" cy="278" r="3" fill="#F6D057"/>
<circle cx="313" cy="41" r="3" fill="#F6D057"/>
<circle cx="162" cy="272" r="3" fill="#F6D057"/>
<circle cx="466" cy="56" r="3" fill="#F6D057"/>
</svg>
