<svg width="549" height="437" viewBox="0 0 549 437" fill="none" xmlns="http://www.w3.org/2000/svg">
<g filter="url(#filter0_d)">
<ellipse cx="274.5" cy="218.5" rx="204.5" ry="204.5" transform="rotate(-180 274.5 218.5)" fill="white"/>
<ellipse cx="274.5" cy="218.5" rx="185.5" ry="185.5" transform="rotate(-180 274.5 218.5)" fill="#2E0066"/>
<path d="M370 254.923C370 309.581 325.677 353.892 271 353.892C216.323 353.892 172 309.581 172 254.923C172 200.264 216.323 155.954 271 155.954C325.677 155.954 370 200.264 370 254.923Z" stroke="white" stroke-width="4"/>
<path d="M315.771 336.897C270.256 362.177 212.871 345.788 187.584 300.287C183.203 292.397 180.072 284.16 178.131 275.793C177.286 272.152 176.667 268.486 176.262 264.82C172.25 228.246 190.013 191.136 224.205 172.152C240.242 163.226 257.779 159.489 274.863 160.393C306.199 162.048 336.01 179.293 352.38 208.739C357.535 218.01 360.952 227.77 362.75 237.648C369.774 276.281 352.011 316.771 315.771 336.897Z" fill="#FFA726"/>
<g opacity="0.35">
<path opacity="0.35" d="M315.771 336.897C270.256 362.176 212.871 345.787 187.584 300.287C183.203 292.396 180.072 284.16 178.131 275.793C177.631 273.662 177.214 271.508 176.869 269.354C194.692 291.348 220.348 304.631 247.433 307.38L247.005 306.928C246.278 304 246.35 300.906 247.385 297.954C250.386 289.325 257.398 283.374 270.994 288.111C278.745 290.813 283.828 297.502 284.209 304.536C292.519 302.369 300.698 299.12 308.556 294.752C308.973 294.526 309.377 294.288 309.782 294.05C308.401 288.587 309.913 282.041 314.294 276.804C320.533 269.342 330.403 267.152 337.141 271.437C348.451 258.238 356.154 242.515 359.809 225.841C361.059 229.745 362.035 233.684 362.762 237.635C369.786 276.281 352.011 316.771 315.771 336.897Z" fill="#371A45"/>
</g>
<g opacity="0.4">
<path opacity="0.4" d="M365.19 237.886C363.285 231.983 360.785 226.174 357.666 220.557C339.177 187.303 303.865 169.307 268.256 171.307V171.319C269.625 176.758 263.875 182.887 255.434 185.018C246.981 187.136 239.016 184.447 237.659 179.007C237.599 178.758 237.54 178.496 237.516 178.234C233.968 179.674 230.48 181.34 227.051 183.256C190.061 203.799 171.952 245.122 179.179 284.517C165.428 241.79 183.274 193.909 224.015 171.271C270.387 145.516 328.867 162.202 354.642 208.572C359.869 217.962 363.357 227.864 365.19 237.886Z" fill="white"/>
</g>
<path d="M270.613 350.893C261.72 350.893 252.767 349.655 243.969 347.144C219.193 340.074 198.644 323.769 186.132 301.251C160.285 254.75 177.095 195.92 223.61 170.081C270.113 144.242 328.974 161.047 354.821 207.548C367.345 230.066 370.334 256.119 363.262 280.887C356.19 305.666 339.879 326.197 317.354 338.718C302.806 346.787 286.793 350.893 270.613 350.893ZM270.315 162.392C255.196 162.392 239.885 166.117 225.765 173.961C181.393 198.609 165.357 254.738 190.013 299.097C201.954 320.579 221.551 336.123 245.195 342.871C268.839 349.62 293.686 346.763 315.187 334.826C336.677 322.888 352.237 303.298 358.988 279.661C365.738 256.024 362.881 231.173 350.939 209.69C334.129 179.471 302.687 162.392 270.315 162.392Z" fill="#371A45"/>
<path d="M283.912 298.525C284.376 299.454 284.769 300.43 285.066 301.453C285.352 302.477 285.543 303.524 285.626 304.595C285.709 305.666 285.674 306.749 285.531 307.821C285.388 308.868 285.197 309.891 284.924 310.927C284.376 312.974 283.519 314.997 282.257 316.83C280.983 318.651 279.28 320.234 277.316 321.365C275.351 322.496 273.161 323.162 270.994 323.448C268.827 323.757 266.66 323.721 264.553 323.531C263.494 323.4 262.482 323.257 261.422 323.043C260.351 322.841 259.303 322.531 258.267 322.174C257.231 321.817 256.231 321.377 255.255 320.865C254.279 320.353 253.338 319.782 252.469 319.115C250.707 317.794 249.124 316.223 247.838 314.414C246.552 312.617 245.54 310.582 244.981 308.416C243.79 304.095 244.35 299.299 246.576 295.455C248.743 291.563 252.398 288.754 256.386 287.314C260.386 285.874 264.756 285.731 268.708 286.814C269.065 286.909 269.268 287.278 269.173 287.635C269.089 287.956 268.78 288.159 268.458 288.123C264.625 287.718 260.779 288.29 257.446 289.885C254.112 291.444 251.35 294.038 249.814 297.18C248.29 300.322 247.981 303.988 249.028 307.273C250.04 310.57 252.231 313.522 255.1 315.569C256.541 316.58 258.089 317.449 259.767 318.044C260.601 318.342 261.458 318.592 262.327 318.77C263.208 318.961 264.16 319.104 265.065 319.223C266.899 319.449 268.72 319.532 270.482 319.342C272.244 319.163 273.923 318.687 275.447 317.937C278.495 316.426 280.721 313.486 281.947 310.011C282.257 309.142 282.531 308.237 282.745 307.344C282.959 306.464 283.078 305.571 283.126 304.655C283.221 302.834 282.959 300.965 282.411 299.168V299.156C282.28 298.728 282.519 298.263 282.959 298.132C283.328 297.978 283.733 298.168 283.912 298.525Z" fill="#371A45"/>
<g opacity="0.4">
<path opacity="0.4" d="M292.686 249.311C288.162 251.537 283.042 251.192 278.983 248.835C281.268 249.585 283.792 249.728 286.293 249.097C293.329 247.324 297.603 240.194 295.829 233.148C294.067 226.115 286.924 221.842 279.887 223.615C279.471 223.722 279.078 223.841 278.685 223.984C279.078 223.746 279.471 223.52 279.887 223.318C287.066 219.783 295.757 222.734 299.293 229.911C302.817 237.1 299.865 245.788 292.686 249.311Z" fill="white"/>
</g>
<g opacity="0.35">
<path opacity="0.35" d="M224.314 275.462C234.932 272.795 241.377 262.028 238.709 251.413C236.041 240.798 225.271 234.355 214.652 237.022C204.034 239.689 197.589 250.456 200.257 261.071C202.925 271.686 213.696 278.129 224.314 275.462Z" fill="#371A45"/>
</g>
<g opacity="0.4">
<path opacity="0.4" d="M247.016 248.371C251.398 261.011 244.695 274.817 232.039 279.197C219.384 283.576 205.585 276.876 201.204 264.224C201.121 263.974 201.037 263.724 200.954 263.474C205.121 272.734 215.741 277.435 225.515 274.055C235.861 270.473 241.349 259.19 237.766 248.847C234.182 238.504 222.896 233.018 212.55 236.6C209.728 237.576 207.276 239.123 205.252 241.075C208.002 237.659 211.717 234.946 216.181 233.398C228.837 229.03 242.635 235.731 247.016 248.371Z" fill="white"/>
</g>
<path d="M204.407 240.849C207.526 237.302 212.014 234.886 216.824 234.148C221.634 233.351 226.741 234.315 231.051 236.731C233.206 237.957 235.147 239.552 236.801 241.42L237.409 242.134L237.706 242.491L237.98 242.872C238.337 243.384 238.706 243.884 239.04 244.408L239.956 246.038C240.254 246.586 240.48 247.169 240.73 247.74C241.635 250.061 242.242 252.513 242.373 255.024C242.492 257.523 242.242 260.047 241.54 262.451C240.873 264.867 239.754 267.14 238.325 269.187C236.897 271.234 235.147 273.055 233.123 274.519C231.099 275.983 228.825 277.078 226.468 277.804C225.872 277.959 225.289 278.173 224.682 278.292L222.86 278.613C221.634 278.721 220.396 278.84 219.169 278.756C216.717 278.649 214.264 278.197 211.99 277.28C209.728 276.364 207.621 275.114 205.776 273.543C202.061 270.437 199.609 266.021 198.74 261.439C198.668 261.082 198.906 260.737 199.263 260.666C199.597 260.606 199.906 260.796 200.013 261.106V261.118C201.442 265.26 203.99 268.949 207.478 271.377C209.193 272.603 211.086 273.579 213.074 274.21C215.074 274.829 217.146 275.126 219.205 275.102C220.241 275.126 221.265 274.96 222.277 274.817L223.777 274.472C224.277 274.365 224.753 274.162 225.241 274.019C227.17 273.341 229.003 272.389 230.611 271.151C233.777 268.628 236.254 265.164 237.278 261.237C237.79 259.285 238.052 257.262 237.956 255.25C237.861 253.227 237.385 251.227 236.671 249.347C235.278 245.526 232.468 242.313 229.039 240.087C227.301 238.992 225.372 238.207 223.372 237.707C221.372 237.207 219.265 236.993 217.181 237.195C212.979 237.457 208.871 239.195 205.55 241.992C205.204 242.289 204.68 242.241 204.383 241.896C204.121 241.611 204.133 241.147 204.407 240.849Z" fill="#371A45"/>
<path d="M332.474 268.985C333.462 269.092 334.45 269.27 335.427 269.568C336.391 269.877 337.332 270.282 338.236 270.782C340.034 271.794 341.606 273.234 342.832 274.936C344.046 276.65 344.88 278.625 345.344 280.672C345.796 282.731 345.844 284.85 345.57 286.909C345.308 288.98 344.713 290.991 343.856 292.884C342.975 294.764 341.879 296.526 340.582 298.132C339.224 299.692 337.724 301.12 336.046 302.334C334.343 303.524 332.51 304.536 330.545 305.25C328.581 305.952 326.498 306.368 324.378 306.476C322.271 306.571 320.104 306.357 318.057 305.642C316.009 304.952 314.092 303.857 312.485 302.417C310.877 300.977 309.58 299.192 308.746 297.228C307.044 293.288 307.092 288.897 308.294 285.052C308.925 283.136 309.782 281.315 310.877 279.661C311.997 278.018 313.33 276.566 314.782 275.281C315.056 275.043 315.473 275.067 315.723 275.34C315.937 275.59 315.937 275.947 315.735 276.197L315.723 276.221C314.556 277.649 313.544 279.161 312.711 280.744C311.937 282.362 311.318 284.029 310.961 285.755C310.235 289.182 310.592 292.753 312.044 295.681C313.544 298.597 316.211 300.751 319.307 301.655C322.414 302.56 325.878 302.274 329.01 301.12C330.569 300.501 332.081 299.727 333.474 298.763C334.855 297.775 336.105 296.609 337.236 295.335C338.332 294.038 339.296 292.634 340.07 291.11C340.82 289.587 341.344 287.968 341.677 286.314C341.737 285.897 341.844 285.481 341.868 285.064L341.963 283.815L341.939 282.565C341.939 282.148 341.844 281.744 341.808 281.327C341.582 279.673 341.058 278.078 340.213 276.626C338.593 273.674 335.617 271.532 332.165 270.592H332.153C331.712 270.473 331.45 270.02 331.569 269.58C331.7 269.187 332.081 268.937 332.474 268.985Z" fill="#371A45"/>
<g opacity="0.35">
<path opacity="0.35" d="M286.3 249.106C293.341 247.337 297.614 240.198 295.845 233.16C294.076 226.121 286.935 221.849 279.894 223.618C272.854 225.386 268.58 232.525 270.349 239.564C272.118 246.602 279.26 250.874 286.3 249.106Z" fill="#371A45"/>
</g>
<path d="M271.899 244.527C269.982 242.218 268.946 239.123 269.006 235.993C269.018 234.422 269.351 232.851 269.899 231.363C270.47 229.876 271.28 228.471 272.316 227.233C274.387 224.782 277.328 222.984 280.554 222.377C282.162 222.08 283.804 221.997 285.436 222.223C287.055 222.461 288.65 222.949 290.102 223.71C293.031 225.186 295.377 227.709 296.746 230.661C297.424 232.149 297.817 233.744 297.972 235.338C298.139 236.945 297.984 238.564 297.591 240.111C297.198 241.658 296.579 243.146 295.698 244.455C294.805 245.753 293.734 246.919 292.495 247.847C290.031 249.74 286.936 250.644 283.983 250.501C283.614 250.478 283.328 250.168 283.352 249.811C283.364 249.502 283.602 249.24 283.888 249.192H283.912C286.531 248.704 288.936 247.55 290.686 245.753C291.567 244.872 292.317 243.872 292.876 242.789C293.424 241.694 293.817 240.54 294.007 239.361C294.127 238.778 294.127 238.171 294.162 237.576L294.115 236.683C294.103 236.386 294.043 236.1 294.007 235.803C293.817 234.636 293.472 233.506 292.948 232.47C291.865 230.411 290.174 228.662 288.09 227.65C287.055 227.15 285.947 226.781 284.805 226.603C283.662 226.436 282.483 226.46 281.34 226.65C279.042 226.995 276.911 228.185 275.221 229.84C274.387 230.685 273.709 231.685 273.173 232.756C272.637 233.827 272.232 234.993 272.089 236.219C271.685 238.659 272.125 241.266 273.28 243.622V243.634C273.482 244.039 273.316 244.539 272.899 244.741C272.554 244.907 272.137 244.812 271.899 244.527Z" fill="#371A45"/>
<g opacity="0.3">
<path opacity="0.3" d="M341.832 228.162C340.058 230.292 337.415 230.637 334.855 229.423C336.165 229.697 337.462 229.507 338.581 228.757C341.713 226.662 342.248 221.021 339.772 216.153C337.307 211.297 332.76 209.047 329.628 211.142C329.45 211.261 329.271 211.404 329.105 211.547C329.247 211.333 329.39 211.13 329.557 210.928C332.367 207.548 337.391 208.655 340.772 213.415C344.165 218.176 344.641 224.782 341.832 228.162Z" fill="white"/>
<path opacity="0.3" d="M337.76 230.375C336.796 230.375 335.772 230.137 334.748 229.649L332.903 228.769L334.915 229.185C336.212 229.459 337.427 229.245 338.451 228.554C341.475 226.531 341.975 221.021 339.57 216.272C338.129 213.439 335.891 211.392 333.593 210.785C332.2 210.416 330.879 210.618 329.783 211.344C329.617 211.463 329.45 211.582 329.283 211.725L327.95 212.915L328.914 211.416C329.057 211.19 329.212 210.987 329.39 210.773C330.557 209.369 332.093 208.666 333.879 208.726C336.415 208.821 339.01 210.476 340.998 213.272C344.439 218.105 344.915 224.865 342.046 228.316C340.891 229.673 339.403 230.375 337.76 230.375ZM336.558 229.757C338.522 230.173 340.355 229.566 341.641 228.019C344.379 224.722 343.903 218.236 340.57 213.57C338.665 210.904 336.212 209.321 333.831 209.226C332.474 209.178 331.283 209.619 330.307 210.499C331.343 210.059 332.498 209.999 333.7 210.309C336.141 210.94 338.486 213.094 339.998 216.046C342.522 221.009 341.951 226.805 338.724 228.959C338.058 229.399 337.331 229.661 336.558 229.757Z" fill="#371A45"/>
</g>
<g opacity="0.35">
<path opacity="0.35" d="M339.772 216.153C342.248 221.021 341.713 226.662 338.57 228.757C335.438 230.851 330.891 228.614 328.426 223.746C325.95 218.878 326.486 213.237 329.629 211.142C332.76 209.047 337.296 211.297 339.772 216.153Z" fill="#371A45"/>
</g>
<g opacity="0.4">
<path opacity="0.4" d="M342.26 228.293C340.891 229.209 339.272 229.376 337.641 228.923C337.724 228.876 337.82 228.816 337.903 228.769C341.034 226.674 341.57 221.032 339.093 216.177C337.022 212.094 333.498 209.869 330.569 210.487C331.022 209.761 331.605 209.143 332.283 208.69C335.772 206.357 340.832 208.857 343.594 214.272C346.344 219.676 345.749 225.96 342.26 228.293Z" fill="white"/>
</g>
<path d="M329.95 227.269C328.438 226.007 327.295 224.317 326.509 222.473C325.724 220.616 325.307 218.545 325.486 216.391C325.569 215.308 325.807 214.201 326.295 213.13C326.783 212.058 327.533 210.999 328.605 210.202C329.676 209.404 331.022 208.94 332.343 208.904C333.665 208.869 334.915 209.19 335.974 209.702C338.105 210.737 339.641 212.356 340.772 214.129C341.915 215.903 342.606 217.878 342.927 219.914C343.225 221.949 343.094 224.079 342.344 226.055C341.951 227.031 341.403 227.983 340.606 228.745C339.832 229.507 338.82 230.054 337.772 230.209C337.403 230.256 337.07 230.006 337.01 229.638C336.974 229.352 337.105 229.09 337.343 228.959L337.379 228.947C338.76 228.174 339.463 226.781 339.689 225.27C339.808 224.52 339.832 223.734 339.772 222.961C339.701 222.187 339.546 221.413 339.332 220.652C338.891 219.14 338.189 217.7 337.296 216.474C336.403 215.248 335.272 214.237 334.117 213.713C332.938 213.177 331.95 213.213 331.165 213.737C330.355 214.248 329.653 215.462 329.391 216.903C329.093 218.343 329.153 219.949 329.474 221.544C329.76 223.151 330.379 224.71 331.212 226.21L331.224 226.234C331.45 226.638 331.307 227.138 330.903 227.364C330.581 227.531 330.212 227.483 329.95 227.269Z" fill="#371A45"/>
<g opacity="0.4">
<path opacity="0.4" d="M283.269 199.633C279.792 201.347 275.851 201.073 272.732 199.264C274.482 199.847 276.423 199.954 278.352 199.466C283.769 198.11 287.043 192.623 285.685 187.207C284.328 181.804 278.84 178.519 273.423 179.876C273.101 179.959 272.792 180.054 272.494 180.162C272.792 179.983 273.101 179.805 273.423 179.65C278.947 176.936 285.626 179.198 288.34 184.72C291.067 190.242 288.793 196.919 283.269 199.633Z" fill="white"/>
</g>
<g opacity="0.35">
<path opacity="0.35" d="M278.368 199.47C283.782 198.11 287.068 192.62 285.708 187.207C284.347 181.795 278.855 178.509 273.441 179.869C268.027 181.229 264.74 186.72 266.101 192.132C267.461 197.545 272.953 200.83 278.368 199.47Z" fill="#371A45"/>
</g>
<path d="M267.137 196.051C265.565 194.289 264.708 191.837 264.708 189.362C264.708 186.862 265.625 184.327 267.268 182.34C268.911 180.364 271.268 178.912 273.851 178.412C275.137 178.174 276.459 178.091 277.768 178.281C279.066 178.472 280.352 178.864 281.519 179.471C283.876 180.661 285.757 182.685 286.84 185.065C287.376 186.255 287.686 187.541 287.805 188.826C287.936 190.112 287.805 191.409 287.483 192.647C287.15 193.873 286.638 195.063 285.924 196.086C285.209 197.11 284.34 198.026 283.34 198.752C281.364 200.216 278.899 200.895 276.602 200.704C276.233 200.68 275.959 200.359 275.994 199.99C276.018 199.681 276.244 199.443 276.53 199.383H276.542C280.53 198.586 283.471 195.384 283.888 191.885C284.162 190.159 283.804 188.386 283.054 186.886C282.257 185.41 281.03 184.161 279.518 183.423C278.768 183.066 277.971 182.804 277.149 182.673C276.328 182.554 275.482 182.566 274.649 182.697C272.982 182.935 271.435 183.768 270.196 184.958C269.589 185.565 269.065 186.279 268.661 187.053C268.244 187.826 267.934 188.683 267.803 189.576C267.446 191.373 267.72 193.313 268.518 195.134L268.53 195.146C268.708 195.563 268.518 196.051 268.101 196.241C267.756 196.408 267.375 196.312 267.137 196.051Z" fill="#371A45"/>
<path d="M223.122 191.195C222.67 188.553 226.015 184.054 231.206 182.09C236.397 180.126 240.968 181.567 241.921 184.078" fill="#FFA726"/>
<path d="M222.372 191.325C222.146 190.683 222.122 190.016 222.182 189.397C222.241 188.767 222.42 188.183 222.634 187.612C223.063 186.493 223.705 185.494 224.432 184.589C225.92 182.804 227.837 181.411 229.98 180.495C232.111 179.59 234.504 179.15 236.909 179.483C238.099 179.662 239.302 180.019 240.373 180.697C240.909 181.042 241.421 181.459 241.838 181.971C242.04 182.233 242.23 182.518 242.385 182.816C242.528 183.125 242.647 183.447 242.707 183.78C242.79 184.244 242.48 184.684 242.016 184.756C241.707 184.803 241.421 184.696 241.23 184.47L241.147 184.375C240.647 183.792 239.956 183.435 239.159 183.208C238.373 182.994 237.516 182.899 236.647 182.923C234.909 182.959 233.147 183.387 231.468 184.065C229.801 184.744 228.218 185.708 226.825 186.886C226.134 187.481 225.491 188.124 224.956 188.838C224.42 189.54 223.991 190.302 223.86 191.064L223.836 191.195C223.765 191.611 223.36 191.897 222.944 191.825C222.682 191.778 222.455 191.575 222.372 191.325Z" fill="#371A45"/>
<g opacity="0.35">
<path opacity="0.35" d="M234.717 192.657C240.202 190.155 243.658 185.955 242.435 183.276C241.213 180.597 235.774 180.453 230.289 182.955C224.803 185.457 221.347 189.657 222.57 192.337C223.793 195.016 229.231 195.159 234.717 192.657Z" fill="#371A45"/>
</g>
<path d="M310.661 211.451C311.355 212.193 311.95 213.113 312.423 214.208C312.637 213.618 312.878 213.023 313.148 212.433C314.582 209.3 316.913 206.13 320.566 204.454C323.81 202.965 326.074 201.863 327.582 201.093C327.923 200.919 328.222 200.764 328.482 200.626C325.784 197.949 322.151 193.268 320.073 187.437C319.214 185.028 318.616 182.41 318.466 179.647C318.109 173.072 319.852 168.475 322.766 166.122C325.761 163.704 329.642 163.942 332.67 166.358C334.048 167.458 334.922 168.563 335.545 169.795C336.135 170.964 336.479 172.216 336.836 173.514L336.855 173.584C337.242 174.993 337.676 176.569 338.473 178.503C339.232 180.348 340.331 182.54 342.046 185.198L343.646 183.311C335.97 171.394 333.673 156.169 338.725 141.732C347.414 116.905 374.547 103.805 399.332 112.48C424.117 121.154 437.16 148.314 428.471 173.141C424.355 184.903 416.097 194.034 405.913 199.462C407.377 200.707 408.36 201.797 408.984 202.737C409.448 202.539 409.955 202.31 410.509 202.06L410.631 202.005C413.07 200.902 416.329 199.429 419.418 199.37C421.039 199.339 422.681 199.692 424.152 200.722C425.618 201.747 426.793 203.357 427.641 205.621L427.671 205.699L427.69 205.78C428.711 210.054 428.073 213.724 425.967 216.883C423.9 219.983 420.501 222.471 416.222 224.62C412.23 226.624 407.367 228.383 401.879 230.067C401.718 230.457 401.5 230.95 401.245 231.507C400.764 232.555 400.102 233.933 399.294 235.519C397.681 238.689 395.476 242.714 392.973 246.613C390.48 250.498 387.65 254.322 384.776 257.046C383.339 258.408 381.843 259.541 380.328 260.256C378.806 260.975 377.188 261.306 375.579 260.934L375.507 260.917L375.438 260.893C373.832 260.331 372.416 259.201 371.333 258.112C370.673 257.448 370.101 256.762 369.649 256.155C368.404 256.781 366.637 257.482 364.554 257.974L364.245 256.667L364.554 257.974C362.819 258.384 360.841 258.655 358.74 258.607C357.965 259.274 356.53 260.463 354.711 261.336C352.721 262.292 350.132 262.933 347.381 261.97C346.197 261.556 344.16 260.405 342.09 258.676C340.002 256.933 337.777 254.517 336.317 251.508C336.193 251.253 336.073 250.995 335.958 250.736C333.299 249.086 327.524 245.193 322.475 240.793C320.92 240.908 317.119 240.995 312.927 239.548C307.94 237.826 302.452 233.943 299.555 225.581C296.691 217.313 299.455 211.072 304.033 209.593C306.318 208.855 308.803 209.461 310.661 211.451Z" fill="white" stroke="white" stroke-width="2.68674"/>
<circle r="46.0285" transform="matrix(-0.943867 -0.330327 -0.330327 0.943867 382.641 158.707)" fill="#D3F1FD"/>
<path d="M405.221 222.647C423.938 217.482 423.994 206.767 423.786 203.405C425.659 204.483 427.753 209.525 424.365 215.438C420.332 222.476 406.621 227.33 400.27 228.878L398.926 231.235C398.074 231.361 395.976 231.715 394.399 232.133C393.245 232.438 391.653 236.187 389.067 240.77C387.234 244.02 384.753 247.666 382.232 250.901C376.155 258.701 371.168 253.493 369.657 254.349C368.145 255.205 360.14 257.136 358.13 256.779C357.233 258.023 351.079 261.756 347.071 260.18C343.865 258.919 338.712 252.349 336.536 249.221L322.628 239.16C320.85 240.558 312.852 239.721 307.4 234.523C299.72 227.203 299.683 219.03 300.772 215.698C303.744 228.973 311.6 232.415 312.975 231.454C314.351 230.492 313.967 228.454 314.122 227.353C315.129 219.857 317.43 215.757 316.926 217.196C316.422 218.636 318.53 227.453 322.446 230.613C326.361 233.772 332.039 235.355 335.919 231.692C339.022 228.761 342.901 228.615 344.453 228.908C344.852 229.086 344.589 228.551 340.342 224.988C335.034 220.533 326.435 216.081 324.867 213.8C323.612 211.976 326.546 208.617 328.17 207.165C327.576 209.247 329.3 214.786 340.946 220.294C352.593 225.801 359.42 220.276 361.378 216.825C361.678 217.123 362.451 217.916 363.142 218.712C364.005 219.707 362.422 221.923 360.425 223.013C358.827 223.885 356.072 226.434 354.895 227.599C356.851 225.859 361.865 223.217 366.281 226.563C371.8 230.745 370.528 236.359 370.139 234.665C369.751 232.971 365.545 228.498 361.255 227.401C357.823 226.523 354.034 230.279 352.569 232.267C353.377 233.531 355.255 236.728 356.304 239.404C357.615 242.748 355.181 250.033 355.579 246.421C355.978 242.81 354.42 239.841 351.543 235.198C348.666 230.555 338.916 230.548 337.749 234.872C336.582 239.196 337.294 249.198 346.366 253.123C355.438 257.049 355.983 255.162 356.644 252.45C357.304 249.738 358.811 251.534 359.803 251.997C360.795 252.46 370.716 253.796 374.083 245.164C377.45 236.532 374.556 231.94 375.083 227.796L375.092 227.721C375.613 223.623 375.922 221.196 373.244 215.899C370.622 211.519 365.519 211.753 355.676 206.404C341.779 197.962 342.221 189.114 341.604 188.898C341.11 188.725 340.471 189.386 340.213 189.739C339.143 190.653 336.724 193.146 335.609 195.803C334.495 198.46 332.567 200.317 331.743 200.913L330.419 200.739C320.609 190.842 320.164 181.395 319.712 177.081C320.242 174.631 321.218 170.337 320.879 172.757C320.113 183.685 328.136 190.937 329.9 191.669C331.663 192.402 334.334 192.356 335.974 190.967C337.286 189.857 339.275 189.122 340.105 188.893L342.061 188.25C343.313 190.939 348.711 197.71 360.288 203.285C374.758 210.254 385.205 207.447 387.917 206.953C390.087 206.558 390.33 204.238 390.18 203.128L393.732 198.254L398.57 197.292C398.745 197.507 399.806 198.279 402.652 199.644C405.499 201.01 407.12 203.478 407.575 204.541C405.798 205.112 401.814 206.392 400.097 206.945C395.131 211.901 390.63 220.31 393.193 222.881C395.756 225.451 400.45 223.747 405.221 222.647Z" fill="#BBA6D4"/>
<path d="M378.844 147.625C383.895 147.176 389.355 149.803 391.453 151.172C407.44 138.473 413.926 140.223 416.137 140.997C418.347 141.77 420.343 148.932 416.798 159.061C413.253 169.189 405.51 173.174 404.747 173.542C403.983 173.909 404.801 176.85 404.603 179.724C404.405 182.598 405.616 185.734 407.444 187.932C409.272 190.13 407.518 191.017 404.878 191.305C402.238 191.593 406.408 193.86 405.177 194.41C365.373 211.182 345.485 179.291 343.681 176.697C342.245 174.634 344.497 173.808 345.823 173.649C345.832 173.647 345.835 173.636 345.828 173.629C339.997 167.79 344.489 168.955 348.112 167.168C351.014 165.736 353.931 160.875 355.027 158.623C348.557 148.913 355.042 127.579 362.268 124.741C369.494 121.903 376.852 141.445 378.844 147.625Z" fill="#F99F44"/>
<path d="M400.357 189.549C402.956 189.905 403.722 191.42 403.781 192.133C404.106 192.247 404.884 192.773 405.39 193.966C406.022 195.457 384.578 202.149 369.563 197.067C354.547 191.985 345.809 179.52 344.048 177.461C342.64 175.814 343.713 174.516 344.426 174.073L346.727 173.435C351.609 173.008 355.732 180.19 363.084 180.949C368.932 181.553 370.945 175.967 373.05 169.951C375.39 163.267 376.672 159.273 382.122 161.18C384.363 161.964 385.09 163.647 384.909 166.08C384.649 169.562 382.697 174.396 382.084 178.768C381.457 183.239 382.169 186.935 387.105 188.663C392.04 190.39 397.107 189.105 400.357 189.549Z" fill="white"/>
<path d="M414.553 143.213C417.309 144.177 417.935 149.436 417.903 151.945C419.088 146.416 418.402 141.616 416.499 140.95C407.502 137.802 393.911 149.262 391.443 150.707C387.369 148.496 381.521 147.561 379.106 147.37C377.951 144.35 374.777 136.852 371.322 131.026C367.003 123.744 363.705 124.263 361.751 124.733C369.145 128.013 374.438 141.581 375.235 144.746C376.433 148.743 376.639 149.969 378.284 150.545C379.929 151.121 381.258 150.951 384.857 152.211C388.456 153.47 389.358 154.19 390.944 154.11C392.531 154.031 394.122 152.452 396.199 150.64C402.602 145.205 411.109 142.007 414.553 143.213Z" fill="white"/>
<path d="M411.937 156.956C416.353 146.151 412.977 146.066 412.258 145.814L406.335 147.897L401.073 161.118L403.405 166.493C405.493 165.473 410.123 162.138 411.937 156.956Z" fill="#FF8283"/>
<path d="M402.991 166.521C400.497 160.455 396.144 158.181 396.723 154.748C397.303 151.315 403.351 148.012 408.147 146.511C409.936 145.951 412.485 145.319 412.725 145.631C412.725 145.631 412.726 145.632 412.726 145.633C412.813 145.844 408.704 147.055 406.587 148.331C405.011 156.956 403.032 159.149 401.569 161.349C404.79 167.151 403.129 166.858 402.991 166.521Z" fill="black"/>
<path d="M358.606 140.603C361.069 129.193 363.902 131.031 364.638 131.23L368.347 136.295L365.216 150.176L360.254 153.293C359.108 151.271 357.173 145.903 358.606 140.603Z" fill="#FF8283"/>
<path d="M360.58 153.55C366.066 149.954 370.942 150.539 372.404 147.379C373.866 144.22 370.744 138.077 367.635 134.128C366.476 132.655 364.73 130.693 364.356 130.815C364.355 130.815 364.355 130.815 364.354 130.815C364.163 130.94 366.868 134.262 367.894 136.511C364.319 144.517 364.713 147.444 364.676 150.086C358.739 153.052 360.275 153.75 360.58 153.55Z" fill="black"/>
<path d="M361.197 170.016C360.193 172.884 361.083 175.805 363.184 176.54C365.286 177.276 367.803 175.547 368.806 172.679C369.81 169.811 368.92 166.89 366.819 166.155C364.718 165.419 362.201 167.148 361.197 170.016Z" fill="black"/>
<path d="M394.013 180.029C393.395 183.003 391.126 185.047 388.946 184.594C386.767 184.14 385.502 181.361 386.121 178.386C386.74 175.412 389.008 173.368 391.188 173.821C393.367 174.275 394.632 177.054 394.013 180.029Z" fill="black"/>
<path d="M364.594 170.697C364.266 171.634 364.529 172.579 365.183 172.807C365.836 173.036 366.631 172.461 366.959 171.524C367.287 170.587 367.023 169.642 366.37 169.414C365.717 169.185 364.922 169.76 364.594 170.697Z" fill="white"/>
<path d="M390.819 179.27C390.617 180.242 389.904 180.916 389.227 180.775C388.549 180.634 388.164 179.732 388.366 178.76C388.568 177.788 389.282 177.114 389.959 177.255C390.636 177.396 391.022 178.298 390.819 179.27Z" fill="white"/>
<path d="M379.285 182.81C378.68 184.537 376.106 184.967 374.894 184.967C374.857 185.127 374.769 185.488 374.712 185.653C375.15 186.776 376.437 187.43 377.025 187.617C380.213 188.732 379.835 186.349 380.915 186.727C381.069 186.781 381.565 187.013 381.133 188.247C380.269 190.714 377.172 191.65 376.761 191.506C376.336 192.224 374.103 195.308 371.069 194.247C368.642 193.398 368.171 190.27 368.239 188.812C365.506 187.221 366.151 182.08 367.488 182.548C368.105 182.764 367.999 183.342 367.868 183.604C367.954 184.019 368.475 184.971 369.874 185.46C371.272 185.95 372.79 185.481 373.375 185.185L373.609 184.517C371.336 183.26 370.156 181.519 370.693 180.149C371.231 178.779 373.938 179.784 375.67 180.275C377.403 180.766 379.699 181.627 379.285 182.81Z" fill="black"/>
<path d="M372.218 191.129C372.624 191.27 373.129 189.952 373.34 189.246C373.343 189.236 373.357 189.236 373.361 189.246C373.755 190.222 374.641 190.845 375.178 191.108C375.283 191.159 375.336 191.28 375.274 191.379C374.845 192.056 373.241 193.564 371.57 192.979C369.912 192.399 369.535 190.276 369.565 189.581C369.57 189.475 369.667 189.415 369.773 189.427C370.94 189.566 371.982 189.155 372.398 188.908C372.407 188.902 372.417 188.911 372.414 188.921C372.174 189.616 371.812 190.987 372.218 191.129Z" fill="#ED3580"/>
<path d="M353.859 216.214C354.554 218.581 352.793 221.073 351.826 222.023C351.113 222.409 348.756 223.373 346.327 222.234C343.898 221.095 343.072 216.363 345.987 213.805C348.902 211.247 352.99 213.255 353.859 216.214Z" fill="#89C3E8"/>
<path d="M353.915 217.041C352.488 215.349 348.608 212.748 344.509 215.885C345.507 213.695 350.283 208.787 353.915 217.041Z" fill="#A8DBF0"/>
<path d="M354.263 217.666C352.629 219.698 348.176 222.685 343.432 218.38C344.596 221.237 350.132 227.842 354.263 217.666Z" fill="#326AC2"/>
<path fill-rule="evenodd" clip-rule="evenodd" d="M344.256 214.549C346.154 211.876 349.57 210.962 352.36 213.07C353.732 214.106 354.703 215.842 354.768 217.673C354.836 219.549 353.949 221.462 351.735 222.765L351.692 222.79L351.646 222.809C349.551 223.676 347.416 223.507 345.493 222.452C344.372 221.837 343.613 220.491 343.344 219.069C343.07 217.622 343.27 215.938 344.256 214.549ZM351.507 214.2C349.459 212.653 346.926 213.235 345.411 215.369C344.69 216.384 344.518 217.658 344.735 218.806C344.958 219.98 345.552 220.869 346.174 221.21C347.723 222.059 349.392 222.194 351.059 221.519C352.809 220.472 353.401 219.051 353.353 217.724C353.303 216.339 352.554 214.992 351.507 214.2Z" fill="#2E0066"/>
<path fill-rule="evenodd" clip-rule="evenodd" d="M340.292 200.253C339.342 199.897 338.449 199.67 337.766 199.75C337.347 199.799 336.833 200 336.306 200.257C335.759 200.524 335.126 200.888 334.446 201.321C333.085 202.188 331.5 203.356 329.982 204.643C328.465 205.929 326.995 207.35 325.876 208.727C324.782 210.071 323.925 211.488 323.814 212.752C323.703 214.03 324.414 214.927 325.446 215.718C326.2 216.297 327.243 216.908 328.488 217.636L328.489 217.637L328.499 217.643C328.912 217.884 329.346 218.138 329.799 218.409C331.872 219.645 334.457 221.282 337.47 223.704C340.002 225.892 342.43 227.837 344.41 229.248C345.4 229.953 346.289 230.533 347.031 230.944C347.401 231.15 347.746 231.319 348.055 231.441C348.354 231.559 348.665 231.651 348.956 231.664C349.42 231.685 349.979 231.494 350.513 231.258C351.081 231.008 351.742 230.649 352.453 230.218C353.878 229.357 355.554 228.178 357.17 226.919C358.787 225.661 360.36 224.31 361.575 223.101C362.181 222.498 362.709 221.919 363.11 221.397C363.495 220.896 363.821 220.375 363.936 219.895L363.98 219.708L363.925 219.525C363.388 217.755 360.942 213.491 355.368 209.56C351.431 206.553 347.125 203.699 343.707 201.858C342.437 201.173 341.276 200.621 340.292 200.253ZM341.931 202.53C340.621 203.337 339.037 204.34 337.682 205.256C336.807 205.848 336.013 206.413 335.447 206.87C335.167 207.096 334.92 207.314 334.744 207.509C334.659 207.603 334.563 207.721 334.493 207.854C334.441 207.953 334.3 208.252 334.442 208.593C334.534 208.812 334.685 208.978 334.813 209.095C334.948 209.218 335.101 209.326 335.251 209.421C335.532 209.598 335.867 209.769 336.162 209.919L336.162 209.919L336.208 209.943C336.444 210.063 336.648 210.169 336.814 210.266C336.7 210.363 336.561 210.475 336.397 210.604C336.2 210.759 335.969 210.937 335.715 211.133L335.714 211.133L335.713 211.134C335.254 211.488 334.719 211.899 334.176 212.339C332.686 213.544 330.927 215.115 329.891 216.817C329.625 216.66 329.37 216.511 329.127 216.369L329.126 216.368C327.916 215.659 326.986 215.115 326.308 214.595C325.415 213.909 325.177 213.428 325.225 212.875C325.296 212.068 325.902 210.938 326.974 209.62C328.021 208.334 329.421 206.975 330.897 205.723C332.372 204.473 333.905 203.345 335.207 202.515C335.858 202.1 336.443 201.766 336.927 201.53C337.431 201.284 337.763 201.176 337.931 201.156C338.248 201.119 338.862 201.23 339.796 201.579C340.419 201.812 341.137 202.133 341.931 202.53ZM331.107 217.543C331.992 216.092 333.566 214.654 335.067 213.44C335.603 213.006 336.102 212.622 336.55 212.278C336.81 212.078 337.052 211.891 337.274 211.716C337.563 211.488 337.823 211.276 338.012 211.095C338.105 211.005 338.202 210.904 338.281 210.797C338.333 210.726 338.492 210.505 338.479 210.206C338.465 209.897 338.305 209.671 338.187 209.541C338.063 209.403 337.913 209.289 337.777 209.197C337.505 209.015 337.157 208.837 336.852 208.681L336.833 208.672C336.524 208.514 336.247 208.373 336.026 208.235C336.112 208.158 336.215 208.07 336.337 207.972C336.855 207.553 337.609 207.015 338.475 206.429C340.067 205.354 341.987 204.15 343.39 203.298C346.671 205.101 350.757 207.82 354.519 210.694L354.53 210.702L354.541 210.71C359.678 214.33 361.935 218.163 362.5 219.729C362.418 219.914 362.257 220.182 361.987 220.534C361.638 220.988 361.158 221.518 360.576 222.097C359.413 223.254 357.887 224.567 356.3 225.801C354.714 227.036 353.085 228.181 351.72 229.007C351.037 229.42 350.433 229.746 349.941 229.963C349.417 230.194 349.124 230.254 349.02 230.249C348.958 230.246 348.816 230.219 348.574 230.123C348.341 230.032 348.055 229.893 347.717 229.706C347.041 229.331 346.2 228.784 345.232 228.094C343.297 226.716 340.902 224.798 338.386 222.624L338.377 222.616L338.367 222.608C335.559 220.35 333.114 218.759 331.107 217.543Z" fill="#2E0066"/>
<path fill-rule="evenodd" clip-rule="evenodd" d="M404.068 199.776C414.513 194.506 423.009 185.342 427.179 173.428C435.725 149.008 422.857 122.284 398.437 113.738C374.017 105.192 347.293 118.06 338.747 142.479C333.755 156.742 336.069 171.792 343.723 183.546C343.316 184.201 342.514 185.455 341.84 186.413C339.944 183.532 338.753 181.174 337.942 179.197C337.138 177.24 336.715 175.691 336.338 174.311L336.338 174.311C336.159 173.658 335.991 173.044 335.798 172.442C335.198 170.57 334.396 169.019 332.4 167.425C329.604 165.191 326.091 165.005 323.385 167.194C320.722 169.349 319.014 173.662 319.357 180.07C319.5 182.738 320.074 185.27 320.904 187.607C323.081 193.734 327.029 198.559 329.668 201.013C329.278 201.23 328.736 201.52 328.015 201.889C326.514 202.657 324.267 203.753 321.054 205.232C317.625 206.81 315.406 209.805 314.022 212.83C313.491 213.992 313.077 215.17 312.763 216.292C312.272 214.469 311.503 213.051 310.548 212.027C308.87 210.227 306.661 209.703 304.639 210.359C300.594 211.67 297.828 217.369 300.599 225.394C303.387 233.47 308.652 237.184 313.426 238.832C317.718 240.314 321.59 240.121 322.872 240.006C327.979 244.494 333.913 248.479 336.472 250.055C336.606 250.365 336.747 250.672 336.893 250.975C338.286 253.851 340.418 256.176 342.435 257.863C344.444 259.543 346.393 260.635 347.472 261.013C350.117 261.939 352.62 261.246 354.55 260.255C356.271 259.372 357.612 258.21 358.275 257.634C360.379 257.705 362.365 257.439 364.103 257.027C366.401 256.481 368.29 255.674 369.472 255.026C369.934 255.694 370.592 256.525 371.385 257.324C372.425 258.372 373.746 259.416 375.207 259.927L375.243 259.94L375.281 259.949C376.697 260.276 378.151 259.991 379.572 259.319C380.99 258.648 382.415 257.572 383.809 256.248C386.598 253.6 389.366 249.861 391.824 246.028C394.286 242.188 396.458 238.22 398.049 235.093C398.845 233.529 399.497 232.171 399.968 231.142C400.294 230.432 400.545 229.853 400.696 229.467C406.226 227.773 411.094 226.014 415.064 224.016C419.253 221.907 422.506 219.5 424.464 216.56C426.443 213.588 427.057 210.135 426.087 206.056L426.077 206.013L426.061 205.972C425.093 203.379 423.708 201.773 422.028 200.927C420.36 200.088 418.511 200.053 416.719 200.38C414.928 200.707 413.129 201.407 411.516 202.109C410.956 202.353 410.425 202.594 409.923 202.821C409.234 203.133 408.6 203.421 408.022 203.656C407.753 202.994 407.311 202.406 406.794 201.881C406.072 201.147 405.154 200.485 404.215 199.871C404.166 199.839 404.117 199.807 404.068 199.776ZM340.392 143.055C336.636 153.788 337.176 164.983 341.11 174.765C341.127 174.746 341.145 174.728 341.163 174.709C341.192 174.678 341.221 174.647 341.251 174.615C341.792 174.037 342.43 173.356 343.358 173.497C343.561 173.356 343.779 173.237 344.003 173.136C343.181 172.226 342.626 171.468 342.326 170.819C342.109 170.35 341.979 169.842 342.066 169.326C342.159 168.781 342.466 168.384 342.821 168.107C343.155 167.846 343.556 167.67 343.927 167.536C344.306 167.399 344.731 167.28 345.144 167.166L345.167 167.16C346.014 166.924 346.876 166.684 347.678 166.289C348.905 165.683 350.244 164.277 351.456 162.623C352.481 161.226 353.345 159.751 353.901 158.679C352.365 156.136 351.617 152.987 351.434 149.686C351.238 146.162 351.683 142.397 352.56 138.869C353.437 135.342 354.755 132.012 356.336 129.365C357.897 126.751 359.798 124.658 361.909 123.829C364.216 122.923 366.417 123.879 368.274 125.514C370.134 127.152 371.858 129.635 373.373 132.319C376.193 137.319 378.43 143.279 379.54 146.601C381.997 146.522 384.466 147.069 386.573 147.789C388.532 148.458 390.229 149.294 391.385 149.977C399.153 143.882 404.725 141.161 408.705 140.085C412.827 138.971 415.205 139.632 416.461 140.071C417.386 140.395 418.076 141.282 418.558 142.303C419.059 143.366 419.426 144.763 419.601 146.418C419.95 149.734 419.537 154.203 417.723 159.385C414.28 169.222 407.011 173.473 405.411 174.305C405.409 174.318 405.408 174.332 405.407 174.347C405.381 174.628 405.398 175.043 405.441 175.621C405.453 175.786 405.467 175.961 405.482 176.144C405.565 177.182 405.671 178.495 405.581 179.792C405.404 182.373 406.503 185.267 408.198 187.305C408.709 187.92 409.072 188.559 409.158 189.22C409.252 189.946 408.994 190.57 408.525 191.033C408.096 191.457 407.516 191.723 406.942 191.902C406.454 192.054 405.91 192.161 405.341 192.237C405.36 192.258 405.379 192.281 405.4 192.304L405.417 192.325C405.508 192.429 405.61 192.548 405.712 192.673C406.501 193.43 407.149 194.697 405.876 196.04C404.955 197.012 403.134 197.668 401.374 198.08L401.379 198.084C401.688 198.284 402.007 198.484 402.331 198.686C412.821 193.697 421.393 184.683 425.533 172.852C433.762 149.341 421.372 123.611 397.861 115.383C374.35 107.155 348.62 119.544 340.392 143.055ZM397.93 198.626L398.699 200.223C399.401 199.961 400.097 199.682 400.785 199.386C400.726 199.348 400.667 199.31 400.609 199.272C400.2 199.007 399.797 198.735 399.416 198.453C398.849 198.538 398.339 198.595 397.93 198.626ZM383.134 201.077C384.796 200.778 387.055 200.372 389.508 199.812C377.057 201.45 367.126 198.199 359.669 193.653C356.63 191.801 354.007 189.738 351.795 187.713C354.505 190.662 357.763 193.636 361.48 196.085C361.352 196.617 372.162 201.843 380.347 201.707C380.353 201.577 381.428 201.383 383.134 201.077ZM344.943 174.867C348.587 179.901 356.385 190.493 370.637 195.481C381.991 199.454 397.098 195.683 403.58 193.182C403.481 193.054 403.382 192.916 403.296 192.773C403.174 192.569 403.005 192.235 403.004 191.836C403.003 191.34 403.258 190.928 403.654 190.674C403.985 190.461 404.387 190.372 404.772 190.33C405.396 190.262 405.933 190.162 406.358 190.03C406.798 189.893 407.038 189.746 407.148 189.637C407.219 189.567 407.222 189.54 407.213 189.472C407.196 189.339 407.093 189.044 406.69 188.559C404.729 186.202 403.407 182.824 403.625 179.657C403.703 178.519 403.612 177.374 403.529 176.331C403.514 176.139 403.499 175.95 403.485 175.765C403.443 175.203 403.412 174.634 403.454 174.17C403.475 173.937 403.519 173.668 403.626 173.414C403.737 173.152 403.944 172.84 404.321 172.658C404.979 172.342 412.451 168.512 415.872 158.737C417.604 153.79 417.965 149.614 417.65 146.623C417.493 145.125 417.168 143.953 416.784 143.14C416.381 142.284 415.992 141.985 415.813 141.922C414.857 141.588 412.888 140.986 409.217 141.978C405.497 142.984 399.998 145.636 392.063 151.94L391.51 152.38L390.918 151.993C389.937 151.353 388.121 150.39 385.939 149.645C383.753 148.898 381.27 148.394 378.931 148.602L378.151 148.671L377.911 147.926C376.923 144.862 374.609 138.503 371.665 133.283C370.187 130.664 368.592 128.407 366.978 126.986C365.361 125.562 363.933 125.141 362.626 125.654C361.124 126.244 359.506 127.881 358.02 130.37C356.555 132.824 355.302 135.967 354.463 139.342C353.624 142.715 353.209 146.282 353.392 149.578C353.575 152.881 354.355 155.846 355.843 158.079L356.155 158.547L355.909 159.052C355.339 160.223 354.306 162.053 353.038 163.783C351.792 165.481 350.221 167.221 348.546 168.047C347.576 168.526 346.561 168.807 345.75 169.033L345.669 169.055C345.242 169.174 344.889 169.274 344.592 169.381C344.289 169.49 344.118 169.582 344.029 169.652C344.017 169.661 344.007 169.669 344.001 169.675C344.005 169.717 344.023 169.817 344.106 169.996C344.368 170.564 345.067 171.479 346.522 172.937C346.79 173.205 346.861 173.574 346.781 173.886C346.696 174.216 346.408 174.566 345.94 174.622C345.604 174.662 345.248 174.748 344.943 174.867ZM402.567 200.5C402.862 200.685 403.154 200.87 403.44 201.056C404.357 201.656 405.171 202.251 405.784 202.874C406.201 203.298 406.502 203.712 406.683 204.125C406.298 204.237 405.816 204.369 405.262 204.52L405.258 204.521L405.257 204.522L405.229 204.529C404.928 204.611 404.606 204.699 404.267 204.793C402.987 205.147 401.506 205.573 400.139 206.053C399.802 205.9 399.34 205.757 398.813 205.657C398.293 205.558 397.675 205.493 396.989 205.506L397.789 202.393C399.416 201.849 401.011 201.217 402.567 200.5ZM396.198 202.894L395.371 206.112L395.044 207.486C394.475 208.08 393.321 208.825 391.423 209.429C389.411 210.07 386.611 210.536 382.91 210.51C378.675 210.479 373.272 209.804 366.539 208.015C360.934 206.526 354.895 203.041 350.255 199.069C347.938 197.086 345.991 195 344.628 193.006C343.326 191.1 342.601 189.343 342.527 187.877C343.156 187.046 344.021 185.724 344.589 184.829C350.021 192.6 357.856 198.799 367.488 202.17C377.119 205.54 387.107 205.58 396.198 202.894ZM404.945 191.703C404.945 191.703 404.946 191.704 404.947 191.707C404.946 191.704 404.945 191.703 404.945 191.703ZM341.274 189.136C341.601 190.641 342.382 192.228 343.459 193.805C344.91 195.927 346.95 198.104 349.334 200.145C354.098 204.222 360.322 207.828 366.175 209.384C372.449 211.05 377.621 211.774 381.813 211.905C374.25 228.812 377.076 239.386 379.797 244.41C378.804 245.788 375.656 249.147 369.306 253.483C368.498 253.995 366.882 254.785 364.777 255.387C365.089 252.403 364.953 248.141 363.653 243.872C362.223 239.176 359.37 234.427 354.115 231.404C355.331 230.155 356.786 229.071 358.387 228.503C359.856 227.981 361.449 227.892 363.126 228.506C364.814 229.124 367.682 230.804 370.535 235.843C370.535 235.843 370.584 233.725 369.665 232.083C368.746 230.441 365.623 227.912 363.613 227.176C361.592 226.436 359.657 226.548 357.913 227.168C354.805 228.272 352.303 230.976 350.786 233.335C349.262 232.034 347.423 231.035 345.413 230.885L345.381 230.883L345.348 230.884C342.536 230.935 340.31 231.619 338.623 232.795C336.933 233.973 335.834 235.61 335.219 237.477C334.198 240.582 334.508 244.338 335.639 247.846C332.66 245.901 327.82 242.496 323.609 238.767C318.145 232.674 316.729 226.014 317.17 220.144C317.607 214.348 319.857 209.329 321.823 206.437C324.955 204.993 327.165 203.914 328.66 203.15C329.943 202.493 330.725 202.055 331.109 201.81C331.272 201.78 331.424 201.725 331.553 201.668C331.761 201.575 331.977 201.448 332.19 201.303C332.618 201.012 333.085 200.613 333.534 200.162C334.417 199.275 335.328 198.09 335.712 196.993C336.291 195.338 337.489 193.524 338.791 191.905C339.647 190.841 340.53 189.882 341.274 189.136ZM331.04 200.344C328.703 198.291 324.888 193.861 322.615 188.132C330.576 188.345 335.261 184.19 337.221 181.089C338.07 182.936 339.231 185.058 340.885 187.536C340.005 188.371 338.824 189.605 337.688 191.018C336.35 192.681 335.034 194.643 334.375 196.525C334.093 197.331 333.352 198.338 332.531 199.162C332.127 199.567 331.728 199.904 331.393 200.132C331.255 200.226 331.137 200.296 331.04 200.344ZM334.939 174.574L334.939 174.574C334.769 173.951 334.613 173.385 334.45 172.874C333.913 171.199 333.244 169.912 331.516 168.531C329.171 166.657 326.4 166.577 324.276 168.295C322.109 170.048 320.44 173.817 320.771 179.994C320.897 182.342 321.379 184.591 322.087 186.693C330.717 187.155 335.211 182.173 336.516 179.451C335.752 177.541 335.309 175.923 334.939 174.574ZM319.203 208.076C317.588 211.159 316.111 215.355 315.758 220.038C315.408 224.687 316.168 229.82 319.001 234.806C318.068 233.828 317.192 232.889 316.582 232.196C317.451 234.519 319.229 236.608 321.045 237.891C321.241 238.148 321.443 238.404 321.651 238.658C319.966 238.707 317.045 238.583 313.888 237.494C309.471 235.969 304.566 232.545 301.938 224.932C299.292 217.269 302.123 212.663 305.076 211.706C306.553 211.227 308.194 211.578 309.513 212.993C310.85 214.427 311.505 215.751 311.55 219.759C311.55 219.759 311.702 220.88 312.05 221.896C312.397 222.912 313.039 223.685 313.039 223.685C313.248 220.122 314.008 216.267 315.31 213.419C316.224 211.422 317.49 209.515 319.203 208.076ZM351.835 234.326C352.21 233.722 352.652 233.097 353.151 232.486C358.18 235.277 360.92 239.757 362.298 244.285C363.615 248.61 363.674 252.936 363.308 255.755C361.837 256.071 360.207 256.265 358.498 256.224C358.543 255.207 358.414 253.722 358.171 252.869C358.108 253.625 357.814 255.213 357.12 256.76C356.422 257.359 355.3 258.278 353.903 258.996C352.157 259.892 350.076 260.424 347.94 259.676C347.07 259.372 345.268 258.386 343.344 256.777C341.429 255.176 339.448 253.002 338.168 250.358C337.999 250.008 337.838 249.653 337.686 249.293C336.059 245.441 335.491 241.183 336.565 237.92C337.097 236.303 338.028 234.937 339.433 233.957C340.836 232.979 342.761 232.353 345.34 232.3C347.179 232.448 348.952 233.497 350.452 234.945C352.286 236.716 353.589 238.966 354.015 240.505C354.015 240.506 354.014 240.506 354.014 240.506C354.135 240.833 354.262 241.159 354.39 241.483C354.99 243.007 355.281 243.748 355.446 247.298C355.906 246.367 356.491 243.628 355.379 240.161L355.389 240.159C354.926 238.457 353.625 236.187 351.835 234.326ZM370.667 254.265C376.103 250.492 379.205 247.424 380.578 245.717C381.142 246.574 381.652 247.17 381.998 247.514L383.103 248.612L383.204 247.058C383.264 246.128 383.414 244.98 383.575 243.831C383.612 243.572 383.649 243.314 383.685 243.058L383.685 243.057C383.798 242.273 383.906 241.515 383.98 240.877C385.261 239.221 386.575 236.863 387.574 234.72C388.092 233.609 388.533 232.54 388.845 231.639C389.024 231.125 389.172 230.632 389.263 230.204C392.252 230.493 394.665 230.471 396.495 230.315C397.468 230.232 398.285 230.11 398.942 229.974C398.864 230.15 398.777 230.343 398.681 230.552C398.218 231.562 397.574 232.902 396.786 234.451C395.21 237.549 393.062 241.474 390.632 245.263C388.197 249.06 385.501 252.689 382.834 255.221C381.501 256.487 380.2 257.455 378.966 258.039C377.751 258.614 376.642 258.799 375.638 258.577C374.479 258.162 373.351 257.294 372.39 256.326C371.676 255.606 371.082 254.859 370.667 254.265ZM384.356 237.783C385.615 228.57 387.767 222.553 390.4 218.167C393.275 213.379 396.752 210.481 400.437 207.449C401.801 206.963 403.314 206.526 404.645 206.158C404.966 206.069 405.28 205.983 405.579 205.902L405.58 205.901L405.583 205.901C406.071 205.768 406.521 205.645 406.905 205.535C407.067 207.532 407.54 210.391 408.504 213.436C409.54 216.711 411.158 220.245 413.603 223.156C409.808 224.978 405.199 226.616 399.943 228.216L399.906 228.228L399.87 228.243C399.416 228.438 398.262 228.742 396.375 228.904C394.765 229.041 392.649 229.072 390.033 228.851C389.174 228.779 388.318 228.919 387.484 229.135C387.042 229.25 386.342 229.429 386.342 229.429L387.871 230.137C387.872 230.279 387.855 230.316 387.794 230.449C387.739 230.568 387.65 230.763 387.507 231.175C387.215 232.02 386.794 233.042 386.29 234.121C385.719 235.347 385.05 236.625 384.356 237.783ZM414.909 222.504C418.756 220.51 421.593 218.316 423.285 215.775C425.019 213.17 425.593 210.14 424.719 206.426C423.842 204.099 422.664 202.834 421.391 202.192C420.098 201.541 418.594 201.478 416.973 201.773C415.349 202.07 413.673 202.715 412.081 203.408C411.578 203.627 411.076 203.854 410.588 204.075L410.586 204.076L410.586 204.076C409.769 204.446 408.987 204.8 408.291 205.074C408.415 206.962 408.863 209.878 409.854 213.009C410.889 216.279 412.501 219.738 414.909 222.504ZM398.668 207.072C395.281 209.877 391.962 212.815 389.186 217.438C386.148 222.497 383.791 229.519 382.595 240.522C382.524 241.173 382.409 241.975 382.286 242.838L382.286 242.839L382.285 242.842C382.248 243.101 382.211 243.366 382.173 243.633C382.098 244.164 382.024 244.706 381.96 245.233C381.734 244.907 381.49 244.527 381.241 244.091C378.678 239.613 375.443 229.236 383.358 211.927C386.957 211.914 389.761 211.445 391.853 210.779C394.016 210.09 395.47 209.174 396.229 208.288L396.34 208.158L396.631 206.938C397.368 206.889 398.023 206.948 398.548 207.048C398.589 207.056 398.629 207.064 398.668 207.072Z" fill="#2E0066"/>
<path d="M374.355 217.673C374.831 218.128 374.242 219.48 373.599 219.833C372.507 220.316 371.946 219.774 372.201 218.881C372.455 217.989 373.879 217.218 374.355 217.673Z" fill="#FF8283"/>
<path d="M373.324 214.023C373.908 214.169 374.342 215.072 373.877 216.236C373.463 217.419 372.813 217.133 372.556 217.043C372.298 216.953 371.512 216.563 371.73 215.774C371.949 214.984 372.741 213.876 373.324 214.023Z" fill="#FF8283"/>
<path d="M371.481 212.858C371.91 212.951 372.039 213.573 371.681 214.429C371.376 215.303 370.316 215.856 369.923 215.66C369.53 215.465 369.067 215.303 369.463 214.172C369.859 213.041 371.052 212.766 371.481 212.858Z" fill="#FF8283"/>
<path d="M368.054 213.91C368.671 214.126 368.779 214.972 368.44 215.776C368.049 216.563 367.753 216.748 367.273 216.637C366.792 216.527 366.527 215.799 366.743 215.182C366.959 214.565 367.437 213.694 368.054 213.91Z" fill="#FF8283"/>
<path d="M371.121 218.504C371.021 219.45 371.404 220.334 371.152 221.054C370.972 221.568 370.602 221.8 370.006 221.691C368.975 221.504 369.101 221.144 368.299 220.632C367.497 220.121 366.021 219.72 366.35 218.45C366.487 217.922 367.173 217.583 367.949 217.509C368.725 217.434 369.509 216.843 370.023 217.023C370.538 217.203 371.221 217.558 371.121 218.504Z" fill="#FF8283"/>
<path opacity="0.5" d="M344.089 147.192C369.551 121.765 386.967 125.263 387.437 122.6C393.69 118.915 381.401 111.484 362.461 122.4C343.52 133.315 340.945 150.074 344.089 147.192Z" fill="white"/>
<path d="M82.906 103.468L81.1073 104.281L82.906 103.468C81.9706 101.397 79.0294 101.397 78.094 103.468L79.9167 104.291L78.094 103.468L67.321 127.321L43.4682 138.094L44.2806 139.893L43.4682 138.094C41.3971 139.029 41.3971 141.971 43.4682 142.906L44.2914 141.083L43.4682 142.906L67.321 153.679L78.094 177.532C79.0294 179.603 81.9706 179.603 82.906 177.532L93.679 153.679L117.532 142.906C119.603 141.971 119.603 139.029 117.532 138.094L93.679 127.321L82.906 103.468Z" stroke="white" stroke-width="4"/>
<path d="M79.9167 104.291C80.1435 103.789 80.8565 103.789 81.0833 104.291L92.0678 128.612C92.1319 128.754 92.2456 128.868 92.3876 128.932L116.709 139.917C117.211 140.143 117.211 140.857 116.709 141.083L92.3876 152.068C92.2456 152.132 92.1319 152.246 92.0678 152.388L81.0833 176.709C80.8565 177.211 80.1435 177.211 79.9167 176.709L68.9322 152.388C68.8681 152.246 68.7544 152.132 68.6124 152.068L44.2914 141.083C43.7893 140.857 43.7893 140.143 44.2914 139.917L68.6124 128.932C68.7544 128.868 68.8681 128.754 68.9322 128.612L79.9167 104.291Z" fill="#F7D057"/>
<path d="M76.542 135.176L80.5 106.75L69.25 129.625L46.375 140.5L75.1753 136.54C75.8849 136.442 76.4432 135.885 76.542 135.176Z" fill="#F0B90B"/>
<path d="M76.542 135.176L80.5 106.75L69.25 129.625L46.375 140.5L75.1753 136.54C75.8849 136.442 76.4432 135.885 76.542 135.176Z" fill="#F0B90B"/>
<path d="M85.8932 144.518L80.4999 172.707L92.8945 150.431L116.291 140.729L87.3273 143.225C86.6136 143.286 86.0278 143.815 85.8932 144.518Z" fill="#FFE591"/>
<path d="M69.8436 129.024L80.5 105.429L91.1564 129.024C91.3207 129.388 91.6121 129.679 91.976 129.844L115.571 140.5L91.976 151.156C91.6121 151.321 91.3207 151.612 91.1564 151.976L80.5 175.571L69.8436 151.976C69.6793 151.612 69.3879 151.321 69.024 151.156L45.4295 140.5L69.024 129.844C69.3879 129.679 69.6793 129.388 69.8436 129.024Z" stroke="#2E0066" stroke-width="2"/>
<path d="M226.495 87.8798C225.914 86.5932 224.086 86.5932 223.505 87.8798L219.266 97.2661L209.88 101.505C208.593 102.086 208.593 103.914 209.88 104.495L219.266 108.734L223.505 118.12C224.086 119.407 225.914 119.407 226.495 118.12L230.734 108.734L240.12 104.495C241.407 103.914 241.407 102.086 240.12 101.505L230.734 97.2661L226.495 87.8798Z" stroke="white" stroke-width="2"/>
<path d="M224.417 88.2914C224.643 87.7893 225.357 87.7893 225.583 88.2914L229.879 97.8016C229.943 97.9436 230.056 98.0574 230.198 98.1215L239.709 102.417C240.211 102.643 240.211 103.357 239.709 103.583L230.198 107.879C230.056 107.943 229.943 108.056 229.879 108.198L225.583 117.709C225.357 118.211 224.643 118.211 224.417 117.709L220.121 108.198C220.057 108.056 219.944 107.943 219.802 107.879L210.291 103.583C209.789 103.357 209.789 102.643 210.291 102.417L219.802 98.1215C219.944 98.0574 220.057 97.9436 220.121 97.8016L224.417 88.2914Z" fill="#F7D057"/>
<path d="M223.407 100.041L225 88.6L220.2 98.36L210.44 103L222.04 101.405C222.75 101.307 223.308 100.75 223.407 100.041Z" fill="#F0B90B"/>
<path d="M223.407 100.041L225 88.6L220.2 98.36L210.44 103L222.04 101.405C222.75 101.307 223.308 100.75 223.407 100.041Z" fill="#F0B90B"/>
<path d="M227.171 105.396L225 116.742L230.288 107.237L240.271 103.098L228.605 104.103C227.891 104.164 227.305 104.693 227.171 105.396Z" fill="#FFE591"/>
<path d="M221.033 98.2133L225 89.4295L228.967 98.2133C229.131 98.5771 229.423 98.8685 229.787 99.0328L238.571 103L229.787 106.967C229.423 107.131 229.131 107.423 228.967 107.787L225 116.571L221.033 107.787C220.869 107.423 220.577 107.131 220.213 106.967L211.429 103L220.213 99.0328C220.577 98.8685 220.869 98.5771 221.033 98.2133ZM224.672 117.297C224.672 117.297 224.672 117.296 224.672 117.296L224.672 117.297Z" stroke="#2E0066" stroke-width="2"/>
<path d="M453.917 250.291C454.143 249.789 454.857 249.789 455.083 250.291L466.068 274.612C466.132 274.754 466.246 274.868 466.388 274.932L490.709 285.917C491.211 286.143 491.211 286.857 490.709 287.083L466.388 298.068C466.246 298.132 466.132 298.246 466.068 298.388L455.083 322.709C454.857 323.211 454.143 323.211 453.917 322.709L442.932 298.388C442.868 298.246 442.754 298.132 442.612 298.068L418.291 287.083C417.789 286.857 417.789 286.143 418.291 285.917L442.612 274.932C442.754 274.868 442.868 274.754 442.932 274.612L453.917 250.291Z" fill="#F7D057"/>
<path d="M450.542 281.176L454.5 252.75L443.25 275.625L420.375 286.5L449.175 282.54C449.885 282.442 450.443 281.885 450.542 281.176Z" fill="#F0B90B"/>
<path d="M450.542 281.176L454.5 252.75L443.25 275.625L420.375 286.5L449.175 282.54C449.885 282.442 450.443 281.885 450.542 281.176Z" fill="#F0B90B"/>
<path d="M459.893 290.518L454.5 318.707L466.895 296.431L490.291 286.729L461.327 289.225C460.614 289.286 460.028 289.815 459.893 290.518Z" fill="#FFE591"/>
<path d="M443.844 275.024L454.5 251.429L465.156 275.024C465.321 275.388 465.612 275.679 465.976 275.844L489.571 286.5L465.976 297.156C465.612 297.321 465.321 297.612 465.156 297.976L454.5 321.571L443.844 297.976C443.679 297.612 443.388 297.321 443.024 297.156L419.429 286.5L443.024 275.844C443.388 275.679 443.679 275.388 443.844 275.024Z" stroke="#2E0066" stroke-width="2"/>
<path d="M456.906 249.468L455.107 250.281L456.906 249.468C455.971 247.397 453.029 247.397 452.094 249.468L453.917 250.291L452.094 249.468L441.321 273.321L417.468 284.094L418.281 285.893L417.468 284.094C415.397 285.029 415.397 287.971 417.468 288.906L418.291 287.083L417.468 288.906L441.321 299.679L452.094 323.532C453.029 325.603 455.971 325.603 456.906 323.532L467.679 299.679L491.532 288.906C493.603 287.971 493.603 285.029 491.532 284.094L467.679 273.321L456.906 249.468Z" stroke="white" stroke-width="4"/>
<path d="M261.495 382.88C260.914 381.593 259.086 381.593 258.505 382.88L254.266 392.266L244.88 396.505C243.593 397.086 243.593 398.914 244.88 399.495L254.266 403.734L258.505 413.12C259.086 414.407 260.914 414.407 261.495 413.12L265.734 403.734L275.12 399.495C276.407 398.914 276.407 397.086 275.12 396.505L265.734 392.266L261.495 382.88Z" stroke="white" stroke-width="2"/>
<path d="M259.417 383.291C259.643 382.789 260.357 382.789 260.583 383.291L264.879 392.802C264.943 392.944 265.056 393.057 265.198 393.121L274.709 397.417C275.211 397.643 275.211 398.357 274.709 398.583L265.198 402.879C265.056 402.943 264.943 403.056 264.879 403.198L260.583 412.709C260.357 413.211 259.643 413.211 259.417 412.709L255.121 403.198C255.057 403.056 254.944 402.943 254.802 402.879L245.291 398.583C244.789 398.357 244.789 397.643 245.291 397.417L254.802 393.121C254.944 393.057 255.057 392.944 255.121 392.802L259.417 383.291Z" fill="#F7D057"/>
<path d="M258.407 395.041L260 383.6L255.2 393.36L245.44 398L257.04 396.405C257.75 396.307 258.308 395.75 258.407 395.041Z" fill="#F0B90B"/>
<path d="M258.407 395.041L260 383.6L255.2 393.36L245.44 398L257.04 396.405C257.75 396.307 258.308 395.75 258.407 395.041Z" fill="#F0B90B"/>
<path d="M262.171 400.396L260 411.742L265.288 402.237L275.271 398.098L263.605 399.103C262.891 399.164 262.305 399.693 262.171 400.396Z" fill="#FFE591"/>
<path d="M256.033 393.213L260 384.429L263.967 393.213C264.131 393.577 264.423 393.869 264.787 394.033L273.571 398L264.787 401.967C264.423 402.131 264.131 402.423 263.967 402.787L260 411.571L256.033 402.787C255.869 402.423 255.577 402.131 255.213 401.967L246.429 398L255.213 394.033C255.577 393.869 255.869 393.577 256.033 393.213ZM259.672 412.297C259.672 412.297 259.672 412.296 259.672 412.296L259.672 412.297Z" stroke="#2E0066" stroke-width="2"/>
<circle cx="276" cy="131" r="3" fill="#F6D057"/>
<circle cx="156" cy="112" r="3" fill="#F6D057"/>
<circle cx="335" cy="382" r="3" fill="#F6D057"/>
<circle cx="433" cy="259" r="3" fill="#F6D057"/>
<circle cx="330" cy="77" r="3" fill="#F6D057"/>
<circle cx="162.5" cy="175.5" r="1.5" fill="#F6D057"/>
<circle cx="379.5" cy="319.5" r="1.5" fill="#F6D057"/>
<circle cx="293.5" cy="372.5" r="1.5" fill="#F6D057"/>
<circle cx="270.5" cy="57.5" r="1.5" fill="#F6D057"/>
</g>
<defs>
<filter id="filter0_d" x="-14" y="-9" width="577" height="455" filterUnits="userSpaceOnUse" color-interpolation-filters="sRGB">
<feFlood flood-opacity="0" result="BackgroundImageFix"/>
<feColorMatrix in="SourceAlpha" type="matrix" values="0 0 0 0 0 0 0 0 0 0 0 0 0 0 0 0 0 0 127 0"/>
<feOffset/>
<feGaussianBlur stdDeviation="7"/>
<feColorMatrix type="matrix" values="0 0 0 0 0 0 0 0 0 0 0 0 0 0 0 0 0 0 0.2 0"/>
<feBlend mode="normal" in2="BackgroundImageFix" result="effect1_dropShadow"/>
<feBlend mode="normal" in="SourceGraphic" in2="effect1_dropShadow" result="shape"/>
</filter>
</defs>
</svg>
