<svg width="244" height="278" viewBox="0 0 244 278" fill="none" xmlns="http://www.w3.org/2000/svg">
<path d="M213.85 174.827C212.817 175.932 211.932 177.302 211.227 178.932C210.908 178.054 210.55 177.168 210.147 176.289C208.013 171.625 204.543 166.906 199.104 164.41C194.274 162.193 190.904 160.553 188.658 159.407C188.151 159.148 187.706 158.917 187.318 158.712C191.335 154.726 196.744 147.757 199.838 139.075C201.116 135.489 202.006 131.591 202.229 127.478C202.761 117.688 200.167 110.845 195.829 107.342C191.37 103.742 185.592 104.096 181.083 107.694C179.032 109.33 177.731 110.976 176.804 112.811C175.924 114.551 175.412 116.414 174.882 118.346L174.853 118.451C174.276 120.548 173.63 122.895 172.444 125.774C171.313 128.521 169.677 131.784 167.124 135.742L164.742 132.933C176.171 115.19 179.59 92.5232 172.068 71.0304C159.133 34.0685 118.737 14.5654 81.8374 27.4793C44.9376 40.3932 25.5192 80.8295 38.4548 117.791C44.5833 135.303 56.8776 148.896 72.039 156.979C69.8606 158.831 68.396 160.455 67.4669 161.853C66.7767 161.559 66.0215 161.218 65.1973 160.846L65.016 160.764C61.3849 159.123 56.5324 156.929 51.9339 156.842C49.5198 156.796 47.0759 157.321 44.8847 158.853C42.7023 160.38 40.9538 162.776 39.6905 166.148L39.647 166.264L39.6181 166.385C38.0977 172.748 39.0479 178.212 42.184 182.915C45.26 187.529 50.3211 191.235 56.6918 194.433C62.6346 197.417 69.8742 200.036 78.0456 202.543C78.2854 203.124 78.6096 203.858 78.9895 204.686C79.7049 206.246 80.6911 208.298 81.8933 210.659C84.296 215.379 87.578 221.371 91.3039 227.176C95.0166 232.96 99.2298 238.654 103.508 242.709C105.648 244.737 107.874 246.423 110.131 247.488C112.397 248.558 114.806 249.051 117.201 248.497L117.308 248.472L117.411 248.436C119.802 247.599 121.91 245.917 123.522 244.295C124.505 243.307 125.356 242.286 126.03 241.382C127.883 242.314 130.513 243.358 133.615 244.091L134.075 242.144L133.615 244.091C136.197 244.701 139.142 245.104 142.27 245.033C143.424 246.026 145.561 247.797 148.268 249.096C151.232 250.519 155.086 251.474 159.181 250.04C160.944 249.424 163.977 247.709 167.059 245.136C170.167 242.54 173.48 238.943 175.654 234.463C175.838 234.084 176.016 233.701 176.188 233.314C180.147 230.858 188.745 225.062 196.261 218.512C198.577 218.683 204.235 218.812 210.476 216.657C217.902 214.094 226.072 208.314 230.385 195.863C234.649 183.554 230.533 174.264 223.718 172.062C220.316 170.963 216.616 171.865 213.85 174.827Z" fill="white" stroke="white" stroke-width="4"/>
<circle cx="106.686" cy="96.3024" r="68.5269" transform="rotate(-19.2886 106.686 96.3024)" fill="#D3F1FD"/>
<path d="M73.0696 191.495C45.204 183.806 45.1202 167.854 45.4303 162.848C42.6415 164.454 39.5245 171.96 44.5688 180.763C50.5726 191.241 70.9849 198.469 80.4406 200.773L82.4421 204.282C83.7102 204.469 86.8335 204.997 89.1818 205.618C90.8994 206.073 93.2695 211.655 97.1191 218.478C99.8487 223.316 103.542 228.743 107.295 233.561C116.342 245.173 123.767 237.419 126.018 238.694C128.268 239.968 140.186 242.843 143.179 242.311C144.514 244.163 153.677 249.721 159.643 247.375C164.417 245.498 172.088 235.716 175.328 231.06L196.033 216.081C198.68 218.161 210.588 216.915 218.706 209.177C230.138 198.278 230.194 186.111 228.573 181.151C224.148 200.914 212.452 206.038 210.405 204.607C208.357 203.176 208.927 200.141 208.698 198.503C207.198 187.342 203.773 181.238 204.523 183.381C205.273 185.524 202.134 198.652 196.305 203.355C190.476 208.059 182.022 210.416 176.247 204.962C171.627 200.599 165.851 200.381 163.541 200.817C162.946 201.082 163.338 200.286 169.66 194.981C177.564 188.348 190.366 181.72 192.701 178.325C194.568 175.609 190.2 170.608 187.783 168.447C188.667 171.546 186.1 179.793 168.761 187.992C151.422 196.191 141.258 187.966 138.343 182.828C137.896 183.271 136.746 184.453 135.717 185.638C134.431 187.119 136.789 190.418 139.762 192.041C142.141 193.339 146.242 197.133 147.995 198.868C145.083 196.279 137.618 192.344 131.044 197.326C122.827 203.552 124.721 211.911 125.299 209.389C125.877 206.867 132.138 200.208 138.526 198.574C143.636 197.266 149.277 202.859 151.458 205.819C150.255 207.7 147.458 212.46 145.897 216.443C143.945 221.422 147.569 232.268 146.976 226.891C146.383 221.514 148.702 217.094 152.985 210.182C157.268 203.27 171.784 203.259 173.522 209.696C175.259 216.134 174.199 231.025 160.692 236.869C147.186 242.713 146.375 239.904 145.391 235.866C144.408 231.828 142.165 234.503 140.688 235.192C139.21 235.881 124.441 237.871 119.428 225.019C114.414 212.167 118.724 205.332 117.94 199.162L117.925 199.05C117.149 192.949 116.69 189.336 120.676 181.45C124.58 174.929 132.177 175.277 146.832 167.313C167.522 154.745 166.864 141.572 167.783 141.25C168.517 140.993 169.469 141.978 169.853 142.502C171.446 143.863 175.048 147.575 176.707 151.531C178.367 155.486 181.236 158.251 182.463 159.139L184.434 158.879C199.039 144.145 199.702 130.08 200.375 123.658C199.586 120.01 198.133 113.617 198.638 117.22C199.778 133.49 187.833 144.286 185.208 145.377C182.582 146.467 178.606 146.398 176.164 144.332C174.211 142.678 171.25 141.584 170.014 141.243L167.101 140.286C165.237 144.289 157.201 154.371 139.966 162.671C118.422 173.046 102.869 168.866 98.8311 168.131C95.601 167.543 95.24 164.089 95.4633 162.436L90.1743 155.18L82.9716 153.748C82.7113 154.068 81.1314 155.217 76.8939 157.25C72.6564 159.283 70.2421 162.957 69.5646 164.54C72.2105 165.39 78.1413 167.295 80.6978 168.119C88.0918 175.498 94.7929 188.017 90.9771 191.844C87.1613 195.671 80.1729 193.134 73.0696 191.495Z" fill="#BBA6D4"/>
<path d="M112.339 79.8034C104.82 79.1358 96.6912 83.0459 93.5669 85.0845C69.766 66.1775 60.1099 68.7836 56.8185 69.9355C53.5271 71.0874 50.5569 81.7499 55.8342 96.8292C61.1116 111.909 72.6389 117.841 73.7756 118.388C74.9123 118.936 73.6951 123.314 73.9897 127.593C74.2843 131.872 72.4816 136.541 69.7603 139.813C67.0391 143.085 69.6492 144.405 73.5798 144.834C77.5103 145.263 71.3025 148.638 73.1357 149.457C132.395 174.428 162.004 126.948 164.691 123.087C166.828 120.014 163.475 118.784 161.501 118.547C161.487 118.546 161.483 118.528 161.493 118.519C170.174 109.825 163.488 111.56 158.093 108.899C153.773 106.768 149.43 99.5297 147.798 96.1771C157.431 81.722 147.776 49.9598 137.018 45.7343C126.26 41.5088 115.306 70.6029 112.339 79.8034Z" fill="#F99F44"/>
<path d="M80.3119 142.22C76.4419 142.75 75.3008 145.005 75.214 146.067C74.7292 146.236 73.5713 147.02 72.8181 148.795C71.8766 151.015 103.803 160.978 126.158 153.412C148.513 145.847 161.522 127.289 164.143 124.223C166.241 121.771 164.642 119.839 163.581 119.179L160.156 118.23C152.888 117.594 146.749 128.286 135.803 129.416C127.096 130.315 124.099 121.999 120.965 113.043C117.483 103.092 115.573 97.1446 107.459 99.9842C104.122 101.152 103.041 103.657 103.31 107.279C103.697 112.463 106.604 119.66 107.516 126.17C108.449 132.826 107.389 138.329 100.041 140.901C92.6929 143.472 85.1495 141.558 80.3119 142.22Z" fill="white"/>
<path d="M59.176 73.2346C55.0732 74.6705 54.1417 82.5002 54.1888 86.2355C52.4247 78.0032 53.4467 70.8578 56.2789 69.8666C69.6742 65.1787 89.9082 82.2408 93.5822 84.3918C99.6476 81.1005 108.354 79.7089 111.949 79.4245C113.669 74.9276 118.394 63.7653 123.538 55.0915C129.968 44.2492 134.879 45.0224 137.787 45.7229C126.78 50.6061 118.899 70.8059 117.713 75.5171C115.929 81.4684 115.623 83.2939 113.174 84.1512C110.724 85.0084 108.746 84.7557 103.387 86.6309C98.0293 88.5061 96.6859 89.5777 94.3246 89.459C91.9632 89.3403 89.5942 86.9904 86.5019 84.2921C76.9685 76.2012 64.3045 71.4398 59.176 73.2346Z" fill="white"/>
<path d="M63.0715 93.6949C56.4968 77.6091 61.5219 77.4829 62.5936 77.1079L71.4114 80.2081L79.2451 99.8916L75.7737 107.894C72.6647 106.376 65.7718 101.411 63.0715 93.6949Z" fill="#FF8283"/>
<path d="M76.39 107.936C80.1026 98.9042 86.5839 95.5189 85.7211 90.4079C84.8583 85.2969 75.8543 80.3792 68.7133 78.1451C66.0505 77.3121 62.2558 76.3708 61.898 76.8349C61.8974 76.8357 61.8969 76.8365 61.8965 76.8375C61.7661 77.1515 67.8837 78.9555 71.0364 80.8548C73.3821 93.6952 76.329 96.9598 78.5066 100.236C73.7109 108.874 76.1837 108.438 76.39 107.936Z" fill="black"/>
<path d="M142.47 69.3486C138.803 52.3624 134.586 55.0984 133.49 55.3946L127.968 62.9359L132.63 83.6016L140.016 88.2415C141.723 85.2319 144.603 77.24 142.47 69.3486Z" fill="#FF8283"/>
<path d="M139.532 88.6245C131.364 83.2716 124.104 84.142 121.927 79.438C119.75 74.7339 124.399 65.5881 129.027 59.7091C130.753 57.5169 133.352 54.5956 133.909 54.7763C133.91 54.7767 133.911 54.777 133.912 54.7776C134.197 54.963 130.17 59.9087 128.642 63.2575C133.964 75.1761 133.378 79.5349 133.433 83.4683C142.272 87.8839 139.985 88.9219 139.532 88.6245Z" fill="black"/>
<path d="M97.1903 123.426C94.1291 122.442 91.1461 123.289 89.3213 124.208C88.8987 124.421 89.0744 124.97 89.5475 124.97C94.2663 124.977 96.4988 125.911 97.416 126.526C93.9763 128.085 92.5087 129.721 92.1323 131.009C92.052 131.283 92.3771 131.433 92.6053 131.261C94.0344 130.181 96.4402 129.284 98.1929 128.745C100.21 128.125 101.641 129.515 102.441 128.118C103.241 126.721 100.965 124.638 97.1903 123.426Z" fill="black"/>
<path d="M138.612 113.139C140.107 117.409 138.782 121.758 135.654 122.852C132.525 123.947 128.778 121.373 127.284 117.104C125.789 112.834 127.114 108.485 130.242 107.39C133.371 106.296 137.118 108.869 138.612 113.139Z" fill="black"/>
<path d="M132.68 114.356C133.168 115.751 132.776 117.158 131.804 117.498C130.831 117.838 129.647 116.983 129.159 115.588C128.671 114.193 129.063 112.786 130.036 112.446C131.008 112.106 132.192 112.961 132.68 114.356Z" fill="white"/>
<path d="M111.684 132.186C112.584 134.758 116.416 135.399 118.22 135.398C118.275 135.636 118.406 136.174 118.492 136.419C117.84 138.091 115.924 139.065 115.048 139.343C110.302 141.004 110.864 137.456 109.257 138.019C109.027 138.099 108.289 138.444 108.932 140.281C110.217 143.955 114.829 145.348 115.442 145.134C116.073 146.202 119.399 150.794 123.915 149.214C127.528 147.949 128.23 143.293 128.129 141.123C132.197 138.754 131.237 131.1 129.247 131.796C128.328 132.118 128.486 132.979 128.68 133.369C128.553 133.987 127.777 135.404 125.695 136.133C123.613 136.861 121.352 136.163 120.482 135.723L120.134 134.728C123.517 132.856 125.274 130.265 124.474 128.226C123.674 126.186 119.644 127.682 117.065 128.413C114.485 129.144 111.067 130.426 111.684 132.186Z" fill="black"/>
<path d="M122.204 144.571C121.601 144.783 120.848 142.819 120.534 141.769C120.529 141.754 120.509 141.754 120.503 141.768C119.917 143.222 118.597 144.15 117.798 144.54C117.641 144.617 117.562 144.797 117.655 144.944C118.293 145.952 120.681 148.198 123.169 147.327C125.637 146.463 126.198 143.303 126.154 142.268C126.147 142.11 126.002 142.02 125.845 142.038C124.108 142.245 122.556 141.634 121.937 141.265C121.924 141.257 121.908 141.27 121.913 141.284C122.27 142.319 122.808 144.36 122.204 144.571Z" fill="#ED3580"/>
<path d="M149.537 181.918C148.502 185.442 151.124 189.153 152.565 190.567C153.625 191.141 157.134 192.577 160.751 190.881C164.368 189.186 165.596 182.14 161.256 178.332C156.916 174.524 150.831 177.513 149.537 181.918Z" fill="#89C3E8"/>
<path d="M149.453 183.15C151.579 180.631 157.355 176.759 163.457 181.428C161.972 178.168 154.861 170.861 149.453 183.15Z" fill="#A8DBF0"/>
<path d="M148.936 184.081C151.368 187.105 157.998 191.552 165.06 185.143C163.328 189.397 155.086 199.23 148.936 184.081Z" fill="#326AC2"/>
<path fill-rule="evenodd" clip-rule="evenodd" d="M163.834 179.44C161.008 175.461 155.922 174.1 151.768 177.238C149.727 178.781 148.281 181.365 148.183 184.09C148.083 186.884 149.402 189.731 152.699 191.671L152.763 191.709L152.831 191.737C155.952 193.028 159.129 192.776 161.993 191.205C163.661 190.289 164.792 188.286 165.192 186.17C165.6 184.015 165.303 181.508 163.834 179.44ZM153.039 178.92C156.089 176.617 159.859 177.483 162.115 180.661C163.188 182.172 163.444 184.068 163.12 185.778C162.79 187.525 161.905 188.848 160.978 189.356C158.673 190.621 156.188 190.821 153.705 189.816C151.1 188.258 150.219 186.142 150.29 184.166C150.365 182.105 151.479 180.099 153.039 178.92Z" fill="#2E0066"/>
<path fill-rule="evenodd" clip-rule="evenodd" d="M169.735 158.156C171.15 157.626 172.48 157.288 173.496 157.407C174.121 157.48 174.885 157.779 175.67 158.162C176.484 158.559 177.427 159.101 178.439 159.746C180.465 161.037 182.824 162.775 185.086 164.692C187.344 166.607 189.532 168.722 191.199 170.771C192.827 172.773 194.103 174.883 194.267 176.764C194.434 178.668 193.375 180.002 191.839 181.181C190.716 182.043 189.163 182.951 187.31 184.036L187.308 184.037L187.292 184.046C186.679 184.405 186.032 184.784 185.358 185.186C182.271 187.027 178.423 189.463 173.937 193.069C170.167 196.327 166.553 199.223 163.605 201.323C162.132 202.373 160.807 203.237 159.703 203.849C159.152 204.155 158.639 204.407 158.179 204.588C157.733 204.764 157.27 204.901 156.837 204.92C156.146 204.951 155.313 204.668 154.518 204.317C153.673 203.944 152.689 203.409 151.63 202.768C149.509 201.485 147.014 199.73 144.607 197.856C142.2 195.983 139.858 193.972 138.05 192.172C137.147 191.274 136.361 190.412 135.765 189.635C135.191 188.889 134.706 188.113 134.535 187.399L134.468 187.121L134.551 186.847C135.35 184.212 138.992 177.865 147.291 172.013C153.153 167.536 159.563 163.286 164.651 160.545C166.542 159.526 168.271 158.704 169.735 158.156ZM167.295 161.546C169.247 162.748 171.604 164.24 173.621 165.605C174.924 166.485 176.106 167.326 176.949 168.008C177.365 168.344 177.734 168.669 177.995 168.958C178.123 169.099 178.265 169.274 178.369 169.472C178.447 169.62 178.657 170.065 178.445 170.572C178.309 170.898 178.084 171.145 177.892 171.32C177.692 171.502 177.463 171.664 177.241 171.804C176.823 172.069 176.323 172.323 175.885 172.547L175.885 172.547L175.816 172.582C175.465 172.761 175.161 172.918 174.913 173.063C175.084 173.207 175.291 173.374 175.534 173.566C175.827 173.797 176.171 174.062 176.55 174.353L176.551 174.354L176.552 174.355C177.236 174.882 178.033 175.495 178.841 176.149C181.059 177.944 183.678 180.283 185.22 182.817C185.616 182.583 185.996 182.361 186.358 182.149L186.359 182.148C188.162 181.093 189.545 180.283 190.555 179.508C191.885 178.487 192.239 177.771 192.167 176.947C192.062 175.746 191.16 174.064 189.563 172.102C188.005 170.187 185.92 168.164 183.722 166.3C181.527 164.439 179.244 162.759 177.306 161.524C176.337 160.906 175.466 160.409 174.745 160.057C173.994 159.69 173.5 159.53 173.251 159.501C172.778 159.446 171.865 159.61 170.475 160.13C169.547 160.478 168.478 160.955 167.295 161.546ZM183.41 183.897C182.092 181.736 179.749 179.596 177.515 177.788C176.717 177.143 175.974 176.571 175.307 176.058C174.92 175.76 174.559 175.483 174.229 175.222C173.798 174.882 173.412 174.566 173.13 174.297C172.991 174.164 172.847 174.013 172.73 173.854C172.652 173.748 172.415 173.419 172.435 172.974C172.455 172.514 172.694 172.178 172.869 171.983C173.054 171.778 173.277 171.609 173.48 171.472C173.885 171.2 174.404 170.935 174.858 170.704L174.885 170.69C175.346 170.455 175.758 170.245 176.087 170.039C175.959 169.924 175.805 169.794 175.624 169.648C174.852 169.024 173.729 168.223 172.44 167.351C170.071 165.75 167.212 163.958 165.123 162.689C160.239 165.373 154.155 169.422 148.555 173.7L148.539 173.713L148.522 173.725C140.874 179.113 137.514 184.82 136.672 187.151C136.794 187.427 137.034 187.826 137.437 188.351C137.956 189.027 138.671 189.816 139.537 190.678C141.268 192.4 143.541 194.354 145.902 196.192C148.264 198.031 150.69 199.735 152.721 200.964C153.739 201.58 154.638 202.065 155.37 202.388C156.151 202.733 156.586 202.821 156.742 202.814C156.834 202.81 157.044 202.769 157.405 202.627C157.752 202.49 158.178 202.284 158.681 202.005C159.688 201.447 160.94 200.633 162.382 199.606C165.261 197.554 168.827 194.698 172.573 191.462L172.587 191.45L172.601 191.438C176.782 188.076 180.423 185.707 183.41 183.897Z" fill="#2E0066"/>
<path fill-rule="evenodd" clip-rule="evenodd" d="M74.7864 157.445C59.2365 149.6 46.5871 135.956 40.3795 118.219C27.6559 81.8631 46.8138 42.0762 83.1698 29.3526C119.526 16.629 159.313 35.7869 172.036 72.1429C179.468 93.3776 176.023 115.783 164.628 133.282C165.234 134.259 166.427 136.124 167.431 137.551C170.253 133.261 172.026 129.751 173.234 126.808C174.431 123.895 175.061 121.588 175.623 119.533L175.623 119.533C175.888 118.562 176.139 117.647 176.426 116.751C177.319 113.964 178.513 111.656 181.485 109.281C185.648 105.956 190.878 105.679 194.907 108.938C198.872 112.146 201.415 118.567 200.904 128.108C200.691 132.079 199.835 135.85 198.6 139.328C195.36 148.45 189.482 155.634 185.552 159.287C186.133 159.61 186.939 160.041 188.014 160.591C190.248 161.735 193.593 163.367 198.377 165.568C203.482 167.918 206.786 172.377 208.846 176.881C209.637 178.611 210.253 180.364 210.72 182.034C211.451 179.321 212.597 177.209 214.018 175.685C216.517 173.005 219.805 172.225 222.815 173.201C228.838 175.154 232.956 183.638 228.83 195.586C224.679 207.609 216.841 213.139 209.734 215.593C203.344 217.799 197.58 217.512 195.67 217.34C188.067 224.022 179.233 229.955 175.423 232.301C175.223 232.762 175.014 233.219 174.795 233.67C172.723 237.953 169.548 241.414 166.544 243.926C163.554 246.426 160.652 248.053 159.046 248.615C155.108 249.993 151.382 248.962 148.509 247.487C145.947 246.172 143.95 244.442 142.962 243.584C139.83 243.691 136.873 243.294 134.285 242.68C130.864 241.868 128.052 240.666 126.293 239.702C125.605 240.696 124.624 241.933 123.444 243.123C121.897 244.683 119.93 246.237 117.755 246.999L117.7 247.018L117.644 247.031C115.536 247.518 113.371 247.094 111.255 246.093C109.145 245.093 107.024 243.493 104.947 241.521C100.795 237.579 96.6738 232.011 93.0151 226.305C89.3494 220.588 86.1163 214.681 83.7477 210.025C82.563 207.696 81.5923 205.676 80.8899 204.143C80.4054 203.086 80.0311 202.224 79.8069 201.65C71.5737 199.128 64.3256 196.509 58.4152 193.533C52.1786 190.394 47.3366 186.811 44.4213 182.434C41.4747 178.009 40.56 172.868 42.0049 166.795L42.02 166.731L42.0429 166.67C43.4845 162.81 45.5471 160.419 48.0479 159.16C50.5309 157.91 53.2835 157.858 55.9521 158.345C58.6175 158.832 61.2957 159.874 63.6985 160.919C64.5321 161.282 65.3227 161.641 66.0698 161.979C67.0956 162.444 68.0393 162.872 68.8989 163.223C69.3008 162.237 69.9586 161.362 70.7283 160.579C71.8032 159.486 73.1697 158.502 74.5679 157.587C74.6405 157.54 74.7134 157.492 74.7864 157.445ZM169.587 73.0001C175.179 88.9792 174.375 105.647 168.518 120.209C168.492 120.182 168.466 120.154 168.439 120.126C168.396 120.08 168.352 120.033 168.308 119.986C167.502 119.125 166.552 118.111 165.172 118.322C164.869 118.112 164.544 117.934 164.211 117.785C165.434 116.43 166.261 115.301 166.708 114.335C167.031 113.636 167.224 112.88 167.094 112.112C166.956 111.301 166.499 110.71 165.97 110.297C165.473 109.908 164.877 109.646 164.323 109.447C163.76 109.244 163.126 109.067 162.512 108.896L162.478 108.887C161.216 108.536 159.933 108.179 158.739 107.59C156.912 106.689 154.92 104.595 153.114 102.133C151.589 100.053 150.302 97.8571 149.474 96.2602C151.762 92.4754 152.876 87.7868 153.148 82.8722C153.439 77.6254 152.777 72.0205 151.472 66.7675C150.166 61.5162 148.203 56.5597 145.849 52.6176C143.526 48.7269 140.695 45.6101 137.552 44.3756C134.118 43.0269 130.84 44.4514 128.076 46.8856C125.306 49.3243 122.74 53.0205 120.485 57.0169C116.287 64.4597 112.957 73.3328 111.304 78.2794C107.645 78.1612 103.97 78.9759 100.833 80.0478C97.9162 81.0444 95.3895 82.289 93.6687 83.3051C82.1035 74.2309 73.8083 70.1805 67.8825 68.5788C61.7464 66.9202 58.2051 67.9037 56.3363 68.5578C54.958 69.0401 53.9306 70.3603 53.2137 71.8805C52.4674 73.4631 51.9207 75.5435 51.6614 78.0068C51.1415 82.9441 51.7565 89.5969 54.4564 97.3114C59.5821 111.957 70.4055 118.287 72.787 119.525C72.7892 119.544 72.7913 119.565 72.7934 119.588C72.8313 120.005 72.8062 120.623 72.7427 121.484C72.7245 121.729 72.7036 121.989 72.6817 122.263C72.5575 123.807 72.4005 125.762 72.5334 127.693C72.798 131.536 71.1616 135.845 68.638 138.88C67.8771 139.794 67.3362 140.746 67.2087 141.73C67.0687 142.811 67.4518 143.74 68.1506 144.429C68.7901 145.06 69.6526 145.456 70.5079 145.723C71.2335 145.949 72.0445 146.109 72.8904 146.221C72.8627 146.254 72.8338 146.287 72.8037 146.322L72.7772 146.353C72.6432 146.508 72.4903 146.685 72.3383 146.871C71.1645 147.998 70.1994 149.885 72.0946 151.884C73.4663 153.331 76.1771 154.307 78.7971 154.921L78.7891 154.926C78.329 155.225 77.8553 155.522 77.3726 155.823C61.7544 148.396 48.993 134.975 42.8289 117.362C30.5787 82.3586 49.0238 44.0522 84.027 31.802C119.03 19.5519 157.337 37.9969 169.587 73.0001ZM83.9244 155.734L82.7798 158.111C81.734 157.721 80.6984 157.306 79.6739 156.865C79.7618 156.808 79.8493 156.752 79.9365 156.695C80.5447 156.301 81.1446 155.896 81.7127 155.477C82.5563 155.603 83.316 155.687 83.9244 155.734ZM105.952 159.382C103.479 158.938 100.115 158.333 96.4634 157.5C115 159.938 129.785 155.098 140.888 148.33C145.412 145.573 149.316 142.501 152.61 139.486C148.576 143.877 143.725 148.304 138.19 151.951C138.382 152.743 122.288 160.523 110.102 160.32C110.094 160.127 108.492 159.839 105.952 159.382ZM162.811 120.362C157.386 127.855 145.777 143.625 124.558 151.051C107.655 156.966 85.1638 151.352 75.5123 147.628C75.6598 147.438 75.8081 147.232 75.9355 147.019C76.1176 146.715 76.3696 146.218 76.3705 145.625C76.3717 144.886 75.9915 144.272 75.4031 143.894C74.9106 143.578 74.311 143.446 73.7381 143.383C72.8093 143.282 72.0099 143.133 71.3763 142.935C70.7218 142.731 70.3649 142.513 70.2007 142.351C70.0958 142.247 70.091 142.206 70.104 142.105C70.1296 141.908 70.283 141.467 70.8827 140.746C73.8016 137.236 75.7706 132.207 75.446 127.492C75.3294 125.799 75.4652 124.093 75.5887 122.542C75.6115 122.255 75.6339 121.974 75.6542 121.699C75.7161 120.861 75.7637 120.015 75.7009 119.324C75.6694 118.977 75.6034 118.576 75.4442 118.198C75.2794 117.808 74.9702 117.343 74.4089 117.073C73.4302 116.602 62.3053 110.901 57.212 96.3471C54.6346 88.9824 54.0961 82.7642 54.5648 78.3125C54.7997 76.0813 55.2829 74.3375 55.8543 73.1257C56.4552 71.8515 57.0333 71.4069 57.3007 71.3134C58.7233 70.8155 61.6558 69.92 67.1208 71.3971C72.6594 72.8942 80.8451 76.8429 92.6589 86.2275L93.4831 86.8822L94.3646 86.307C95.8249 85.3542 98.5287 83.9203 101.777 82.8105C105.032 81.6985 108.727 80.9482 112.21 81.2575L113.371 81.3605L113.729 80.2514C115.199 75.6907 118.644 66.223 123.028 58.4514C125.228 54.5524 127.603 51.1923 130.005 49.0768C132.413 46.9567 134.539 46.329 136.484 47.093C138.721 47.9714 141.13 50.4094 143.342 54.1142C145.524 57.7677 147.389 62.4474 148.638 67.4718C149.887 72.4943 150.505 77.8044 150.233 82.7106C149.96 87.6295 148.799 92.0426 146.583 95.3676L146.119 96.0637L146.485 96.8159C147.334 98.5599 148.872 101.285 150.76 103.859C152.614 106.388 154.953 108.978 157.447 110.208C158.891 110.92 160.402 111.34 161.61 111.675L161.73 111.709C162.365 111.885 162.892 112.034 163.334 112.193C163.785 112.356 164.039 112.493 164.172 112.597C164.191 112.611 164.204 112.622 164.214 112.631C164.208 112.693 164.181 112.842 164.058 113.109C163.667 113.954 162.626 115.318 160.46 117.487C160.062 117.886 159.955 118.436 160.075 118.9C160.201 119.392 160.63 119.913 161.327 119.997C161.827 120.057 162.357 120.184 162.811 120.362ZM77.0214 158.524C76.5811 158.799 76.1466 159.074 75.7218 159.352C74.3564 160.245 73.1436 161.13 72.2315 162.058C71.6106 162.689 71.1628 163.306 70.8932 163.921C71.466 164.087 72.1836 164.283 73.008 164.509L73.0142 164.51L73.0164 164.511L73.0584 164.522C73.5064 164.645 73.9854 164.776 74.4894 164.915C76.3951 165.442 78.6005 166.076 80.6362 166.79C81.1382 166.563 81.825 166.351 82.6106 166.201C83.3843 166.054 84.3041 165.958 85.3248 165.976L84.1344 161.343C81.7122 160.533 79.3375 159.591 77.0214 158.524ZM86.503 162.088L87.7338 166.879L88.2206 168.925C89.0679 169.808 90.7861 170.917 93.6121 171.817C96.608 172.771 100.776 173.465 106.287 173.426C112.591 173.381 120.635 172.375 130.659 169.712C139.003 167.494 147.994 162.306 154.902 156.394C158.352 153.441 161.251 150.335 163.28 147.366C165.219 144.529 166.298 141.914 166.409 139.731C165.471 138.493 164.184 136.525 163.338 135.193C155.251 146.761 143.586 155.991 129.246 161.009C114.908 166.027 100.037 166.087 86.503 162.088ZM73.48 145.426C73.48 145.426 73.4793 145.428 73.4771 145.433C73.4788 145.429 73.48 145.426 73.48 145.426ZM168.273 141.605C167.786 143.846 166.625 146.209 165.021 148.556C162.861 151.716 159.824 154.957 156.273 157.996C149.181 164.066 139.915 169.434 131.2 171.749C121.861 174.231 114.16 175.309 107.919 175.503C119.179 200.674 114.972 216.416 110.92 223.896C112.399 225.948 117.086 230.949 126.54 237.404C127.743 238.166 130.149 239.343 133.283 240.239C132.818 235.797 133.021 229.452 134.956 223.096C137.084 216.104 141.332 209.035 149.156 204.533C147.346 202.674 145.18 201.06 142.797 200.214C140.609 199.437 138.238 199.304 135.741 200.219C133.227 201.139 128.958 203.641 124.709 211.142C124.709 211.142 124.637 207.988 126.005 205.544C127.373 203.099 132.023 199.334 135.016 198.239C138.025 197.137 140.905 197.304 143.502 198.227C148.128 199.87 151.854 203.897 154.113 207.409C156.381 205.471 159.119 203.985 162.111 203.761L162.16 203.758L162.209 203.758C166.395 203.836 169.708 204.854 172.22 206.604C174.736 208.358 176.373 210.795 177.288 213.575C178.808 218.198 178.346 223.789 176.663 229.012C181.098 226.116 188.304 221.047 194.573 215.496C202.708 206.424 204.817 196.508 204.159 187.769C203.509 179.141 200.159 171.668 197.232 167.362C192.569 165.213 189.279 163.607 187.053 162.468C185.144 161.491 183.98 160.839 183.407 160.474C183.164 160.43 182.939 160.347 182.747 160.262C182.436 160.124 182.115 159.935 181.797 159.719C181.161 159.286 180.466 158.692 179.797 158.02C178.482 156.7 177.126 154.935 176.554 153.303C175.692 150.838 173.908 148.138 171.97 145.728C170.695 144.143 169.381 142.716 168.273 141.605ZM183.51 158.291C186.989 155.235 192.669 148.639 196.054 140.11C184.2 140.428 177.225 134.241 174.307 129.625C173.043 132.374 171.315 135.533 168.852 139.223C170.163 140.467 171.922 142.304 173.613 144.407C175.604 146.883 177.564 149.804 178.544 152.606C178.964 153.806 180.068 155.304 181.291 156.532C181.891 157.135 182.485 157.636 182.984 157.976C183.189 158.116 183.366 158.22 183.51 158.291ZM177.704 119.926L177.705 119.926C177.959 118.998 178.19 118.155 178.434 117.395C179.233 114.901 180.228 112.984 182.801 110.929C186.293 108.139 190.418 108.02 193.581 110.578C196.807 113.188 199.291 118.798 198.798 127.995C198.611 131.491 197.894 134.838 196.839 137.968C183.991 138.656 177.3 131.238 175.357 127.186C176.494 124.342 177.154 121.934 177.704 119.926ZM201.132 169.802C203.537 174.393 205.737 180.64 206.261 187.611C206.782 194.534 205.651 202.176 201.434 209.598C202.822 208.142 204.127 206.745 205.035 205.713C203.741 209.171 201.094 212.281 198.39 214.191C198.099 214.573 197.798 214.954 197.488 215.334C199.996 215.406 204.346 215.222 209.045 213.599C215.621 211.329 222.924 206.232 226.837 194.898C230.776 183.489 226.561 176.632 222.165 175.207C219.966 174.494 217.524 175.017 215.56 177.123C213.568 179.259 212.594 181.229 212.527 187.196C212.527 187.196 212.3 188.865 211.783 190.378C211.265 191.891 210.309 193.041 210.309 193.041C209.999 187.737 208.867 181.997 206.928 177.758C205.569 174.785 203.682 171.945 201.132 169.802ZM152.551 208.884C151.993 207.984 151.335 207.053 150.591 206.144C143.104 210.299 139.025 216.969 136.973 223.71C135.013 230.149 134.924 236.591 135.47 240.786C137.659 241.257 140.087 241.547 142.63 241.485C142.564 239.971 142.755 237.76 143.118 236.49C143.211 237.616 143.649 239.981 144.682 242.283C145.721 243.175 147.392 244.543 149.472 245.611C152.072 246.946 155.169 247.738 158.35 246.625C159.644 246.172 162.327 244.704 165.192 242.308C168.042 239.925 170.992 236.689 172.897 232.751C173.149 232.231 173.389 231.702 173.615 231.167C176.038 225.432 176.883 219.092 175.285 214.234C174.493 211.827 173.107 209.793 171.014 208.334C168.926 206.879 166.06 205.946 162.22 205.868C159.483 206.088 156.843 207.649 154.609 209.806C151.879 212.441 149.939 215.792 149.305 218.083C149.305 218.084 149.306 218.084 149.307 218.085C149.127 218.57 148.937 219.056 148.747 219.538C147.853 221.808 147.419 222.91 147.175 228.196C146.49 226.811 145.618 222.733 147.274 217.571L147.26 217.567C147.949 215.034 149.885 211.654 152.551 208.884ZM124.513 238.568C116.42 232.951 111.802 228.383 109.758 225.843C108.919 227.118 108.16 228.006 107.644 228.519L105.998 230.153L105.849 227.838C105.76 226.455 105.536 224.745 105.296 223.034C105.242 222.649 105.186 222.264 105.132 221.883L105.132 221.882C104.965 220.714 104.803 219.586 104.693 218.637C102.786 216.171 100.83 212.66 99.3425 209.47C98.571 207.816 97.9145 206.225 97.4495 204.883C97.1841 204.118 96.9631 203.384 96.8281 202.746C92.3776 203.177 88.785 203.144 86.0609 202.912C84.6128 202.788 83.3955 202.607 82.4177 202.404C82.5345 202.667 82.6641 202.954 82.8067 203.265C83.496 204.769 84.454 206.763 85.627 209.069C87.9739 213.683 91.1724 219.525 94.79 225.167C98.4146 230.82 102.429 236.222 106.399 239.992C108.384 241.877 110.321 243.317 112.158 244.187C113.966 245.043 115.618 245.319 117.113 244.989C118.838 244.371 120.518 243.079 121.948 241.638C123.011 240.565 123.895 239.453 124.513 238.568ZM104.133 214.03C102.259 200.313 99.0557 191.356 95.1346 184.826C90.8548 177.698 85.6781 173.383 80.1923 168.87C78.1619 168.145 75.909 167.495 73.9274 166.947C73.4489 166.815 72.9822 166.687 72.5367 166.566L72.5346 166.565L72.5315 166.564C71.8047 166.366 71.1345 166.183 70.5622 166.019C70.3212 168.993 69.6167 173.25 68.1821 177.783C66.6391 182.659 64.2313 187.92 60.5907 192.253C66.2401 194.966 73.102 197.405 80.9274 199.787L80.9833 199.804L81.037 199.827C81.7123 200.118 83.4304 200.571 86.2402 200.811C88.637 201.015 91.7861 201.061 95.6812 200.733C96.9602 200.625 98.2346 200.834 99.477 201.156C100.135 201.327 101.176 201.592 101.176 201.592L98.9006 202.646C98.8993 202.859 98.9241 202.913 99.0153 203.112C99.0961 203.289 99.2289 203.579 99.4417 204.192C99.8776 205.45 100.504 206.973 101.253 208.579C102.104 210.403 103.099 212.306 104.133 214.03ZM58.6458 191.284C52.9191 188.314 48.6959 185.048 46.1763 181.265C43.5939 177.387 42.7403 172.875 44.041 167.347C45.3471 163.882 47.1 161.998 48.9961 161.043C50.921 160.074 53.1596 159.979 55.5735 160.42C57.9906 160.861 60.4863 161.821 62.857 162.853C63.606 163.179 64.3523 163.517 65.0798 163.846L65.0821 163.847L65.0828 163.848C66.2993 164.399 67.4631 164.926 68.4984 165.333C68.3148 168.145 67.6469 172.486 66.1718 177.147C64.6313 182.015 62.2318 187.165 58.6458 191.284ZM82.8257 168.308C87.8681 172.483 92.8101 176.858 96.9423 183.74C101.465 191.273 104.975 201.727 106.755 218.108C106.861 219.077 107.031 220.271 107.215 221.557L107.215 221.557L107.216 221.561C107.271 221.947 107.327 222.342 107.384 222.74C107.495 223.531 107.605 224.337 107.7 225.122C108.037 224.637 108.4 224.07 108.771 223.421C112.587 216.754 117.404 201.306 105.62 175.536C100.26 175.517 96.087 174.818 92.9724 173.826C89.7513 172.801 87.5874 171.437 86.457 170.118L86.291 169.924L85.8589 168.108C84.7619 168.035 83.7856 168.124 83.0047 168.272C82.9434 168.284 82.8838 168.296 82.8257 168.308Z" fill="#2E0066"/>
<path d="M119.023 184.091C118.315 184.768 119.191 186.782 120.148 187.306C121.775 188.025 122.609 187.218 122.23 185.89C121.851 184.562 119.731 183.414 119.023 184.091Z" fill="#FF8283"/>
<path d="M120.558 178.656C119.689 178.875 119.042 180.218 119.735 181.952C120.351 183.712 121.319 183.287 121.702 183.153C122.085 183.019 123.256 182.438 122.931 181.263C122.605 180.088 121.427 178.438 120.558 178.656Z" fill="#FF8283"/>
<path d="M123.302 176.923C122.663 177.061 122.471 177.987 123.003 179.261C123.459 180.562 125.035 181.385 125.621 181.094C126.207 180.804 126.896 180.563 126.306 178.879C125.717 177.195 123.941 176.785 123.302 176.923Z" fill="#FF8283"/>
<path d="M128.403 178.488C127.485 178.81 127.324 180.069 127.829 181.267C128.411 182.438 128.851 182.713 129.567 182.549C130.283 182.384 130.677 181.301 130.355 180.383C130.034 179.464 129.322 178.167 128.403 178.488Z" fill="#FF8283"/>
<path d="M123.837 185.327C123.987 186.736 123.416 188.052 123.791 189.124C124.059 189.889 124.61 190.235 125.498 190.073C127.033 189.794 126.846 189.258 128.04 188.496C129.234 187.735 131.431 187.138 130.941 185.247C130.737 184.462 129.716 183.957 128.56 183.846C127.404 183.735 126.237 182.855 125.472 183.123C124.706 183.391 123.688 183.919 123.837 185.327Z" fill="#FF8283"/>
<path opacity="0.5" d="M164.083 79.1586C126.176 41.3029 100.246 46.511 99.5461 42.546C90.2369 37.0598 108.533 25.9974 136.731 42.2484C164.93 58.4994 168.764 83.4491 164.083 79.1586Z" fill="white"/>
</svg>
