<svg width="410" height="410" viewBox="0 0 410 410" fill="none" xmlns="http://www.w3.org/2000/svg">
<g filter="url(#filter0_d)">
<path fill-rule="evenodd" clip-rule="evenodd" d="M205 396C310.486 396 396 310.486 396 205C396 99.5137 310.486 14 205 14C99.5136 14 14 99.5137 14 205C14 310.486 99.5136 396 205 396ZM205 304C259.676 304 304 259.676 304 205C304 150.324 259.676 106 205 106C150.324 106 106 150.324 106 205C106 259.676 150.324 304 205 304Z" fill="white"/>
</g>
<path d="M255.869 372.444C223.199 382.368 188.34 382.52 155.586 372.879C122.832 363.238 93.6134 344.226 71.5303 318.185C49.4471 292.144 35.4641 260.212 31.3039 226.323C27.1437 192.434 32.988 158.068 48.1168 127.459L98.5852 152.403C88.3232 173.165 84.359 196.476 87.1809 219.463C90.0028 242.451 99.4876 264.11 114.467 281.774C129.446 299.438 149.265 312.334 171.482 318.873C193.7 325.413 217.345 325.31 239.505 318.578L255.869 372.444Z" fill="#259BE2"/>
<path d="M48.1963 127.298C53.0821 117.438 58.8869 108.062 65.5337 99.2922L110.399 133.298C105.891 139.246 101.953 145.606 98.6391 152.294L48.1963 127.298Z" fill="#79C7F5"/>
<path d="M65.6318 99.1628C87.9824 69.7312 119.077 48.1308 154.458 37.4574L170.717 91.3549C146.718 98.5947 125.626 113.246 110.466 133.21L65.6318 99.1628Z" fill="#663AC3"/>
<path d="M154.05 37.581C176.036 30.8902 199.124 28.5953 221.997 30.8274C244.87 33.0595 267.079 39.7748 287.356 50.59C307.634 61.4052 325.582 76.1084 340.177 93.8601C354.772 111.612 365.728 132.065 372.419 154.05C379.11 176.036 381.405 199.124 379.173 221.997C376.941 244.87 370.225 267.079 359.41 287.356C348.595 307.634 333.892 325.582 316.14 340.177C298.388 354.772 277.935 365.728 255.95 372.419L239.559 318.561C254.473 314.023 268.346 306.592 280.387 296.692C292.428 286.792 302.401 274.617 309.737 260.863C317.073 247.108 321.628 232.044 323.142 216.529C324.656 201.015 323.1 185.354 318.561 170.441C314.023 155.527 306.592 141.654 296.692 129.613C286.792 117.572 274.617 107.599 260.863 100.263C247.108 92.9268 232.044 88.3717 216.529 86.8577C201.015 85.3436 185.354 86.9003 170.44 91.4387L154.05 37.581Z" fill="#3E80CD"/>
<line x1="155.398" y1="33.2925" x2="173.398" y2="94.2925" stroke="white" stroke-width="5"/>
<line x1="62.5" y1="96" x2="114.5" y2="135" stroke="white" stroke-width="5"/>
<line x1="238.375" y1="312.22" x2="260.375" y2="379.22" stroke="white" stroke-width="5"/>
<line x1="41.1331" y1="124.772" x2="100.133" y2="154.772" stroke="white" stroke-width="5"/>
<defs>
<filter id="filter0_d" x="0" y="0" width="410" height="410" filterUnits="userSpaceOnUse" color-interpolation-filters="sRGB">
<feFlood flood-opacity="0" result="BackgroundImageFix"/>
<feColorMatrix in="SourceAlpha" type="matrix" values="0 0 0 0 0 0 0 0 0 0 0 0 0 0 0 0 0 0 127 0"/>
<feOffset/>
<feGaussianBlur stdDeviation="7"/>
<feColorMatrix type="matrix" values="0 0 0 0 0 0 0 0 0 0 0 0 0 0 0 0 0 0 0.2 0"/>
<feBlend mode="normal" in2="BackgroundImageFix" result="effect1_dropShadow"/>
<feBlend mode="normal" in="SourceGraphic" in2="effect1_dropShadow" result="shape"/>
</filter>
</defs>
</svg>
