<svg width="327" height="62" viewBox="0 0 327 62" fill="none" xmlns="http://www.w3.org/2000/svg">
<mask id="path-1-outside-1" maskUnits="userSpaceOnUse" x="74" y="18.4171" width="253" height="29" fill="black">
<rect fill="white" x="74" y="18.4171" width="253" height="29"/>
<path d="M88.154 44.9951C86.601 44.9951 85.093 44.8151 83.63 44.455C82.1895 44.0948 80.8954 43.4646 79.7475 42.5643C78.5996 41.664 77.6881 40.4149 77.0128 38.8168C76.3376 37.2188 76 35.1819 76 32.7061C76 30.4779 76.3264 28.5872 76.9791 27.0342C77.6318 25.4587 78.5208 24.187 79.6462 23.2192C80.7716 22.2514 82.0657 21.5424 83.5287 21.0923C84.9917 20.6421 86.5335 20.4171 88.154 20.4171C89.3019 20.4171 90.416 20.5071 91.4963 20.6871C92.5992 20.8672 93.3982 21.0698 93.8934 21.2948L97.9785 24.7047L94.6024 30.2753L88.154 27.3043C87.3887 27.3043 86.6685 27.5181 85.9933 27.9458C85.3406 28.3509 84.8004 28.9586 84.3728 29.7689C83.9676 30.5566 83.7651 31.5357 83.7651 32.7061C83.7651 34.1916 83.9901 35.3395 84.4403 36.1497C84.9129 36.9375 85.5769 37.4777 86.4322 37.7703C87.31 38.0629 88.3453 38.2092 89.5382 38.2092C90.6861 38.2092 91.7664 38.0966 92.7793 37.8715C93.8146 37.624 94.7262 37.3426 95.5139 37.0275C96.3017 36.7124 96.8981 36.4423 97.3033 36.2172V42.9695C96.8531 43.1945 96.2116 43.4759 95.3789 43.8135C94.5686 44.1286 93.5558 44.4099 92.3404 44.6575C91.1475 44.8826 89.752 44.9951 88.154 44.9951Z"/>
<path d="M111.958 44.9951C110.518 44.9951 109.077 44.8263 107.637 44.4887C106.219 44.1286 104.913 43.4984 103.72 42.5981C102.55 41.6978 101.605 40.4486 100.885 38.8506C100.164 37.2526 99.8042 35.2044 99.8042 32.7061C99.8042 30.2078 100.164 28.1596 100.885 26.5616C101.605 24.9635 102.55 23.7144 103.72 22.8141C104.913 21.9138 106.219 21.2948 107.637 20.9572C109.077 20.5971 110.518 20.4171 111.958 20.4171C113.399 20.4171 114.828 20.5971 116.246 20.9572C117.686 21.3173 118.992 21.9476 120.162 22.8479C121.355 23.7481 122.312 24.9973 123.032 26.5953C123.752 28.1934 124.112 30.2303 124.112 32.7061C124.112 35.1819 123.752 37.2188 123.032 38.8168C122.312 40.4149 121.355 41.664 120.162 42.5643C118.992 43.4646 117.686 44.0948 116.246 44.455C114.828 44.8151 113.399 44.9951 111.958 44.9951ZM111.958 38.2429C113.421 38.2429 114.524 37.804 115.267 36.9262C116.01 36.0259 116.381 34.6192 116.381 32.7061C116.381 30.8155 116.01 29.42 115.267 28.5197C114.524 27.6194 113.421 27.1693 111.958 27.1693C109.032 27.1693 107.569 29.0149 107.569 32.7061C107.569 34.5967 107.929 35.9922 108.65 36.8925C109.392 37.7928 110.495 38.2429 111.958 38.2429Z"/>
<path d="M127.964 44.6575V26.1902L127.289 22.7803L127.964 20.7547H140.118C141.941 20.7547 143.505 21.0473 144.811 21.6325C146.116 22.2176 147.118 23.163 147.815 24.4684C148.513 25.7513 148.862 27.4506 148.862 29.5663C148.862 31.5245 148.536 33.1337 147.883 34.3941C147.23 35.6546 146.274 36.6111 145.013 37.2638L145.587 37.7365L147.917 40.91L149.841 42.6319V44.6575H140.894L137.181 38.4792H135.391V39.222L135.729 42.5981L135.391 44.6575H127.964ZM135.391 32.1659H137.349C138.137 32.1659 138.812 32.1322 139.375 32.0646C139.96 31.9971 140.41 31.7945 140.726 31.4569C141.041 31.0968 141.198 30.5229 141.198 29.7351C141.198 28.9023 141.029 28.3059 140.692 27.9458C140.354 27.5857 139.882 27.3718 139.274 27.3043C138.689 27.2143 138.002 27.1693 137.214 27.1693H135.054L135.391 32.1659Z"/>
<path d="M164.643 44.9951C162.685 44.9951 160.884 44.8263 159.241 44.4887C157.598 44.1286 156.169 43.4984 154.953 42.5981C153.738 41.6978 152.793 40.4486 152.117 38.8506C151.465 37.2526 151.138 35.2044 151.138 32.7061C151.138 30.2303 151.487 28.1934 152.185 26.5953C152.883 24.9973 153.828 23.7481 155.021 22.8479C156.236 21.9476 157.609 21.3173 159.14 20.9572C160.67 20.5971 162.268 20.4171 163.934 20.4171C165.037 20.4171 166.049 20.4733 166.972 20.5859C167.895 20.6984 168.728 20.8447 169.47 21.0248L174.062 23.6919L171.699 29.6338L164.238 27.3718C163.27 27.3718 162.381 27.5294 161.57 27.8445C160.76 28.1371 160.107 28.6773 159.612 29.465C159.14 30.2303 158.903 31.3219 158.903 32.7399C158.903 34.9006 159.365 36.4198 160.287 37.2976C161.233 38.1529 162.561 38.5805 164.271 38.5805C164.924 38.5805 165.464 38.5468 165.892 38.4792C166.319 38.3892 166.68 38.2879 166.972 38.1754V36.3185H164.035V30.9843H174.771L175.142 33.0099L174.4 36.4873V43.5772C174.152 43.6672 173.589 43.8247 172.712 44.0498C171.856 44.2749 170.742 44.4887 169.369 44.6913C167.996 44.8938 166.421 44.9951 164.643 44.9951Z"/>
<path d="M178.466 44.6575V26.1564L178.128 22.7803L178.466 20.7547H185.927V44.6575H178.466Z"/>
<path d="M190.639 44.6575L189.964 42.6319L190.639 39.2557V20.7547H208.026L209.714 21.7675L207.486 27.5069L204.448 27.1693H198.134V29.8702H206.473V35.4407H201.814L198.134 35.1031V38.2429H207.486L211.504 42.4968L209.512 44.6575H190.639Z"/>
<path d="M214.213 44.6575V26.1902L213.538 22.8141L214.247 20.7884H222.113L228.73 32.6048H229.405L234.875 20.7884H242.944L243.281 22.8141L242.944 26.0552V44.6575H235.482L235.584 41.7878V32.3685H235.212L233.929 35.9134L231.499 41.2814H226.097L222.113 32.3685H221.775V35.1031L222.113 44.6575H214.213Z"/>
<path d="M258.608 44.9951C257.167 44.9951 255.727 44.8263 254.287 44.4887C252.869 44.1286 251.563 43.4984 250.37 42.5981C249.2 41.6978 248.255 40.4486 247.534 38.8506C246.814 37.2526 246.454 35.2044 246.454 32.7061C246.454 30.2078 246.814 28.1596 247.534 26.5616C248.255 24.9635 249.2 23.7144 250.37 22.8141C251.563 21.9138 252.869 21.2948 254.287 20.9572C255.727 20.5971 257.167 20.4171 258.608 20.4171C260.048 20.4171 261.478 20.5971 262.896 20.9572C264.336 21.3173 265.641 21.9476 266.812 22.8479C268.005 23.7481 268.961 24.9973 269.682 26.5953C270.402 28.1934 270.762 30.2303 270.762 32.7061C270.762 35.1819 270.402 37.2188 269.682 38.8168C268.961 40.4149 268.005 41.664 266.812 42.5643C265.641 43.4646 264.336 44.0948 262.896 44.455C261.478 44.8151 260.048 44.9951 258.608 44.9951ZM258.608 38.2429C260.071 38.2429 261.174 37.804 261.917 36.9262C262.659 36.0259 263.031 34.6192 263.031 32.7061C263.031 30.8155 262.659 29.42 261.917 28.5197C261.174 27.6194 260.071 27.1693 258.608 27.1693C255.682 27.1693 254.219 29.0149 254.219 32.7061C254.219 34.5967 254.579 35.9922 255.299 36.8925C256.042 37.7928 257.145 38.2429 258.608 38.2429Z"/>
<path d="M285.215 44.9951C283.774 44.9951 282.334 44.8263 280.893 44.4887C279.475 44.1286 278.17 43.4984 276.977 42.5981C275.806 41.6978 274.861 40.4486 274.141 38.8506C273.421 37.2526 273.061 35.2044 273.061 32.7061C273.061 30.2078 273.421 28.1596 274.141 26.5616C274.861 24.9635 275.806 23.7144 276.977 22.8141C278.17 21.9138 279.475 21.2948 280.893 20.9572C282.334 20.5971 283.774 20.4171 285.215 20.4171C286.655 20.4171 288.084 20.5971 289.502 20.9572C290.943 21.3173 292.248 21.9476 293.419 22.8479C294.611 23.7481 295.568 24.9973 296.288 26.5953C297.008 28.1934 297.369 30.2303 297.369 32.7061C297.369 35.1819 297.008 37.2188 296.288 38.8168C295.568 40.4149 294.611 41.664 293.419 42.5643C292.248 43.4646 290.943 44.0948 289.502 44.455C288.084 44.8151 286.655 44.9951 285.215 44.9951ZM285.215 38.2429C286.678 38.2429 287.78 37.804 288.523 36.9262C289.266 36.0259 289.637 34.6192 289.637 32.7061C289.637 30.8155 289.266 29.42 288.523 28.5197C287.78 27.6194 286.678 27.1693 285.215 27.1693C282.289 27.1693 280.826 29.0149 280.826 32.7061C280.826 34.5967 281.186 35.9922 281.906 36.8925C282.649 37.7928 283.752 38.2429 285.215 38.2429Z"/>
<path d="M301.22 44.6575V26.1902L300.545 22.8141L301.22 20.7884H308.006L314.826 29.2962L316.446 32.0984H316.784V20.7884H324.583V22.8141L324.245 26.1902V44.6575H317.527L309.053 33.1112H308.715V35.1369L309.053 44.6575H301.22Z"/>
</mask>
<path d="M88.154 44.9951C86.601 44.9951 85.093 44.8151 83.63 44.455C82.1895 44.0948 80.8954 43.4646 79.7475 42.5643C78.5996 41.664 77.6881 40.4149 77.0128 38.8168C76.3376 37.2188 76 35.1819 76 32.7061C76 30.4779 76.3264 28.5872 76.9791 27.0342C77.6318 25.4587 78.5208 24.187 79.6462 23.2192C80.7716 22.2514 82.0657 21.5424 83.5287 21.0923C84.9917 20.6421 86.5335 20.4171 88.154 20.4171C89.3019 20.4171 90.416 20.5071 91.4963 20.6871C92.5992 20.8672 93.3982 21.0698 93.8934 21.2948L97.9785 24.7047L94.6024 30.2753L88.154 27.3043C87.3887 27.3043 86.6685 27.5181 85.9933 27.9458C85.3406 28.3509 84.8004 28.9586 84.3728 29.7689C83.9676 30.5566 83.7651 31.5357 83.7651 32.7061C83.7651 34.1916 83.9901 35.3395 84.4403 36.1497C84.9129 36.9375 85.5769 37.4777 86.4322 37.7703C87.31 38.0629 88.3453 38.2092 89.5382 38.2092C90.6861 38.2092 91.7664 38.0966 92.7793 37.8715C93.8146 37.624 94.7262 37.3426 95.5139 37.0275C96.3017 36.7124 96.8981 36.4423 97.3033 36.2172V42.9695C96.8531 43.1945 96.2116 43.4759 95.3789 43.8135C94.5686 44.1286 93.5558 44.4099 92.3404 44.6575C91.1475 44.8826 89.752 44.9951 88.154 44.9951Z" fill="#2E0066"/>
<path d="M111.958 44.9951C110.518 44.9951 109.077 44.8263 107.637 44.4887C106.219 44.1286 104.913 43.4984 103.72 42.5981C102.55 41.6978 101.605 40.4486 100.885 38.8506C100.164 37.2526 99.8042 35.2044 99.8042 32.7061C99.8042 30.2078 100.164 28.1596 100.885 26.5616C101.605 24.9635 102.55 23.7144 103.72 22.8141C104.913 21.9138 106.219 21.2948 107.637 20.9572C109.077 20.5971 110.518 20.4171 111.958 20.4171C113.399 20.4171 114.828 20.5971 116.246 20.9572C117.686 21.3173 118.992 21.9476 120.162 22.8479C121.355 23.7481 122.312 24.9973 123.032 26.5953C123.752 28.1934 124.112 30.2303 124.112 32.7061C124.112 35.1819 123.752 37.2188 123.032 38.8168C122.312 40.4149 121.355 41.664 120.162 42.5643C118.992 43.4646 117.686 44.0948 116.246 44.455C114.828 44.8151 113.399 44.9951 111.958 44.9951ZM111.958 38.2429C113.421 38.2429 114.524 37.804 115.267 36.9262C116.01 36.0259 116.381 34.6192 116.381 32.7061C116.381 30.8155 116.01 29.42 115.267 28.5197C114.524 27.6194 113.421 27.1693 111.958 27.1693C109.032 27.1693 107.569 29.0149 107.569 32.7061C107.569 34.5967 107.929 35.9922 108.65 36.8925C109.392 37.7928 110.495 38.2429 111.958 38.2429Z" fill="#2E0066"/>
<path d="M127.964 44.6575V26.1902L127.289 22.7803L127.964 20.7547H140.118C141.941 20.7547 143.505 21.0473 144.811 21.6325C146.116 22.2176 147.118 23.163 147.815 24.4684C148.513 25.7513 148.862 27.4506 148.862 29.5663C148.862 31.5245 148.536 33.1337 147.883 34.3941C147.23 35.6546 146.274 36.6111 145.013 37.2638L145.587 37.7365L147.917 40.91L149.841 42.6319V44.6575H140.894L137.181 38.4792H135.391V39.222L135.729 42.5981L135.391 44.6575H127.964ZM135.391 32.1659H137.349C138.137 32.1659 138.812 32.1322 139.375 32.0646C139.96 31.9971 140.41 31.7945 140.726 31.4569C141.041 31.0968 141.198 30.5229 141.198 29.7351C141.198 28.9023 141.029 28.3059 140.692 27.9458C140.354 27.5857 139.882 27.3718 139.274 27.3043C138.689 27.2143 138.002 27.1693 137.214 27.1693H135.054L135.391 32.1659Z" fill="#2E0066"/>
<path d="M164.643 44.9951C162.685 44.9951 160.884 44.8263 159.241 44.4887C157.598 44.1286 156.169 43.4984 154.953 42.5981C153.738 41.6978 152.793 40.4486 152.117 38.8506C151.465 37.2526 151.138 35.2044 151.138 32.7061C151.138 30.2303 151.487 28.1934 152.185 26.5953C152.883 24.9973 153.828 23.7481 155.021 22.8479C156.236 21.9476 157.609 21.3173 159.14 20.9572C160.67 20.5971 162.268 20.4171 163.934 20.4171C165.037 20.4171 166.049 20.4733 166.972 20.5859C167.895 20.6984 168.728 20.8447 169.47 21.0248L174.062 23.6919L171.699 29.6338L164.238 27.3718C163.27 27.3718 162.381 27.5294 161.57 27.8445C160.76 28.1371 160.107 28.6773 159.612 29.465C159.14 30.2303 158.903 31.3219 158.903 32.7399C158.903 34.9006 159.365 36.4198 160.287 37.2976C161.233 38.1529 162.561 38.5805 164.271 38.5805C164.924 38.5805 165.464 38.5468 165.892 38.4792C166.319 38.3892 166.68 38.2879 166.972 38.1754V36.3185H164.035V30.9843H174.771L175.142 33.0099L174.4 36.4873V43.5772C174.152 43.6672 173.589 43.8247 172.712 44.0498C171.856 44.2749 170.742 44.4887 169.369 44.6913C167.996 44.8938 166.421 44.9951 164.643 44.9951Z" fill="#2E0066"/>
<path d="M178.466 44.6575V26.1564L178.128 22.7803L178.466 20.7547H185.927V44.6575H178.466Z" fill="#2E0066"/>
<path d="M190.639 44.6575L189.964 42.6319L190.639 39.2557V20.7547H208.026L209.714 21.7675L207.486 27.5069L204.448 27.1693H198.134V29.8702H206.473V35.4407H201.814L198.134 35.1031V38.2429H207.486L211.504 42.4968L209.512 44.6575H190.639Z" fill="#2E0066"/>
<path d="M214.213 44.6575V26.1902L213.538 22.8141L214.247 20.7884H222.113L228.73 32.6048H229.405L234.875 20.7884H242.944L243.281 22.8141L242.944 26.0552V44.6575H235.482L235.584 41.7878V32.3685H235.212L233.929 35.9134L231.499 41.2814H226.097L222.113 32.3685H221.775V35.1031L222.113 44.6575H214.213Z" fill="#2E0066"/>
<path d="M258.608 44.9951C257.167 44.9951 255.727 44.8263 254.287 44.4887C252.869 44.1286 251.563 43.4984 250.37 42.5981C249.2 41.6978 248.255 40.4486 247.534 38.8506C246.814 37.2526 246.454 35.2044 246.454 32.7061C246.454 30.2078 246.814 28.1596 247.534 26.5616C248.255 24.9635 249.2 23.7144 250.37 22.8141C251.563 21.9138 252.869 21.2948 254.287 20.9572C255.727 20.5971 257.167 20.4171 258.608 20.4171C260.048 20.4171 261.478 20.5971 262.896 20.9572C264.336 21.3173 265.641 21.9476 266.812 22.8479C268.005 23.7481 268.961 24.9973 269.682 26.5953C270.402 28.1934 270.762 30.2303 270.762 32.7061C270.762 35.1819 270.402 37.2188 269.682 38.8168C268.961 40.4149 268.005 41.664 266.812 42.5643C265.641 43.4646 264.336 44.0948 262.896 44.455C261.478 44.8151 260.048 44.9951 258.608 44.9951ZM258.608 38.2429C260.071 38.2429 261.174 37.804 261.917 36.9262C262.659 36.0259 263.031 34.6192 263.031 32.7061C263.031 30.8155 262.659 29.42 261.917 28.5197C261.174 27.6194 260.071 27.1693 258.608 27.1693C255.682 27.1693 254.219 29.0149 254.219 32.7061C254.219 34.5967 254.579 35.9922 255.299 36.8925C256.042 37.7928 257.145 38.2429 258.608 38.2429Z" fill="#2E0066"/>
<path d="M285.215 44.9951C283.774 44.9951 282.334 44.8263 280.893 44.4887C279.475 44.1286 278.17 43.4984 276.977 42.5981C275.806 41.6978 274.861 40.4486 274.141 38.8506C273.421 37.2526 273.061 35.2044 273.061 32.7061C273.061 30.2078 273.421 28.1596 274.141 26.5616C274.861 24.9635 275.806 23.7144 276.977 22.8141C278.17 21.9138 279.475 21.2948 280.893 20.9572C282.334 20.5971 283.774 20.4171 285.215 20.4171C286.655 20.4171 288.084 20.5971 289.502 20.9572C290.943 21.3173 292.248 21.9476 293.419 22.8479C294.611 23.7481 295.568 24.9973 296.288 26.5953C297.008 28.1934 297.369 30.2303 297.369 32.7061C297.369 35.1819 297.008 37.2188 296.288 38.8168C295.568 40.4149 294.611 41.664 293.419 42.5643C292.248 43.4646 290.943 44.0948 289.502 44.455C288.084 44.8151 286.655 44.9951 285.215 44.9951ZM285.215 38.2429C286.678 38.2429 287.78 37.804 288.523 36.9262C289.266 36.0259 289.637 34.6192 289.637 32.7061C289.637 30.8155 289.266 29.42 288.523 28.5197C287.78 27.6194 286.678 27.1693 285.215 27.1693C282.289 27.1693 280.826 29.0149 280.826 32.7061C280.826 34.5967 281.186 35.9922 281.906 36.8925C282.649 37.7928 283.752 38.2429 285.215 38.2429Z" fill="#2E0066"/>
<path d="M301.22 44.6575V26.1902L300.545 22.8141L301.22 20.7884H308.006L314.826 29.2962L316.446 32.0984H316.784V20.7884H324.583V22.8141L324.245 26.1902V44.6575H317.527L309.053 33.1112H308.715V35.1369L309.053 44.6575H301.22Z" fill="#2E0066"/>
<path d="M88.154 44.9951C86.601 44.9951 85.093 44.8151 83.63 44.455C82.1895 44.0948 80.8954 43.4646 79.7475 42.5643C78.5996 41.664 77.6881 40.4149 77.0128 38.8168C76.3376 37.2188 76 35.1819 76 32.7061C76 30.4779 76.3264 28.5872 76.9791 27.0342C77.6318 25.4587 78.5208 24.187 79.6462 23.2192C80.7716 22.2514 82.0657 21.5424 83.5287 21.0923C84.9917 20.6421 86.5335 20.4171 88.154 20.4171C89.3019 20.4171 90.416 20.5071 91.4963 20.6871C92.5992 20.8672 93.3982 21.0698 93.8934 21.2948L97.9785 24.7047L94.6024 30.2753L88.154 27.3043C87.3887 27.3043 86.6685 27.5181 85.9933 27.9458C85.3406 28.3509 84.8004 28.9586 84.3728 29.7689C83.9676 30.5566 83.7651 31.5357 83.7651 32.7061C83.7651 34.1916 83.9901 35.3395 84.4403 36.1497C84.9129 36.9375 85.5769 37.4777 86.4322 37.7703C87.31 38.0629 88.3453 38.2092 89.5382 38.2092C90.6861 38.2092 91.7664 38.0966 92.7793 37.8715C93.8146 37.624 94.7262 37.3426 95.5139 37.0275C96.3017 36.7124 96.8981 36.4423 97.3033 36.2172V42.9695C96.8531 43.1945 96.2116 43.4759 95.3789 43.8135C94.5686 44.1286 93.5558 44.4099 92.3404 44.6575C91.1475 44.8826 89.752 44.9951 88.154 44.9951Z" stroke="white" stroke-width="4" mask="url(#path-1-outside-1)"/>
<path d="M111.958 44.9951C110.518 44.9951 109.077 44.8263 107.637 44.4887C106.219 44.1286 104.913 43.4984 103.72 42.5981C102.55 41.6978 101.605 40.4486 100.885 38.8506C100.164 37.2526 99.8042 35.2044 99.8042 32.7061C99.8042 30.2078 100.164 28.1596 100.885 26.5616C101.605 24.9635 102.55 23.7144 103.72 22.8141C104.913 21.9138 106.219 21.2948 107.637 20.9572C109.077 20.5971 110.518 20.4171 111.958 20.4171C113.399 20.4171 114.828 20.5971 116.246 20.9572C117.686 21.3173 118.992 21.9476 120.162 22.8479C121.355 23.7481 122.312 24.9973 123.032 26.5953C123.752 28.1934 124.112 30.2303 124.112 32.7061C124.112 35.1819 123.752 37.2188 123.032 38.8168C122.312 40.4149 121.355 41.664 120.162 42.5643C118.992 43.4646 117.686 44.0948 116.246 44.455C114.828 44.8151 113.399 44.9951 111.958 44.9951ZM111.958 38.2429C113.421 38.2429 114.524 37.804 115.267 36.9262C116.01 36.0259 116.381 34.6192 116.381 32.7061C116.381 30.8155 116.01 29.42 115.267 28.5197C114.524 27.6194 113.421 27.1693 111.958 27.1693C109.032 27.1693 107.569 29.0149 107.569 32.7061C107.569 34.5967 107.929 35.9922 108.65 36.8925C109.392 37.7928 110.495 38.2429 111.958 38.2429Z" stroke="white" stroke-width="4" mask="url(#path-1-outside-1)"/>
<path d="M127.964 44.6575V26.1902L127.289 22.7803L127.964 20.7547H140.118C141.941 20.7547 143.505 21.0473 144.811 21.6325C146.116 22.2176 147.118 23.163 147.815 24.4684C148.513 25.7513 148.862 27.4506 148.862 29.5663C148.862 31.5245 148.536 33.1337 147.883 34.3941C147.23 35.6546 146.274 36.6111 145.013 37.2638L145.587 37.7365L147.917 40.91L149.841 42.6319V44.6575H140.894L137.181 38.4792H135.391V39.222L135.729 42.5981L135.391 44.6575H127.964ZM135.391 32.1659H137.349C138.137 32.1659 138.812 32.1322 139.375 32.0646C139.96 31.9971 140.41 31.7945 140.726 31.4569C141.041 31.0968 141.198 30.5229 141.198 29.7351C141.198 28.9023 141.029 28.3059 140.692 27.9458C140.354 27.5857 139.882 27.3718 139.274 27.3043C138.689 27.2143 138.002 27.1693 137.214 27.1693H135.054L135.391 32.1659Z" stroke="white" stroke-width="4" mask="url(#path-1-outside-1)"/>
<path d="M164.643 44.9951C162.685 44.9951 160.884 44.8263 159.241 44.4887C157.598 44.1286 156.169 43.4984 154.953 42.5981C153.738 41.6978 152.793 40.4486 152.117 38.8506C151.465 37.2526 151.138 35.2044 151.138 32.7061C151.138 30.2303 151.487 28.1934 152.185 26.5953C152.883 24.9973 153.828 23.7481 155.021 22.8479C156.236 21.9476 157.609 21.3173 159.14 20.9572C160.67 20.5971 162.268 20.4171 163.934 20.4171C165.037 20.4171 166.049 20.4733 166.972 20.5859C167.895 20.6984 168.728 20.8447 169.47 21.0248L174.062 23.6919L171.699 29.6338L164.238 27.3718C163.27 27.3718 162.381 27.5294 161.57 27.8445C160.76 28.1371 160.107 28.6773 159.612 29.465C159.14 30.2303 158.903 31.3219 158.903 32.7399C158.903 34.9006 159.365 36.4198 160.287 37.2976C161.233 38.1529 162.561 38.5805 164.271 38.5805C164.924 38.5805 165.464 38.5468 165.892 38.4792C166.319 38.3892 166.68 38.2879 166.972 38.1754V36.3185H164.035V30.9843H174.771L175.142 33.0099L174.4 36.4873V43.5772C174.152 43.6672 173.589 43.8247 172.712 44.0498C171.856 44.2749 170.742 44.4887 169.369 44.6913C167.996 44.8938 166.421 44.9951 164.643 44.9951Z" stroke="white" stroke-width="4" mask="url(#path-1-outside-1)"/>
<path d="M178.466 44.6575V26.1564L178.128 22.7803L178.466 20.7547H185.927V44.6575H178.466Z" stroke="white" stroke-width="4" mask="url(#path-1-outside-1)"/>
<path d="M190.639 44.6575L189.964 42.6319L190.639 39.2557V20.7547H208.026L209.714 21.7675L207.486 27.5069L204.448 27.1693H198.134V29.8702H206.473V35.4407H201.814L198.134 35.1031V38.2429H207.486L211.504 42.4968L209.512 44.6575H190.639Z" stroke="white" stroke-width="4" mask="url(#path-1-outside-1)"/>
<path d="M214.213 44.6575V26.1902L213.538 22.8141L214.247 20.7884H222.113L228.73 32.6048H229.405L234.875 20.7884H242.944L243.281 22.8141L242.944 26.0552V44.6575H235.482L235.584 41.7878V32.3685H235.212L233.929 35.9134L231.499 41.2814H226.097L222.113 32.3685H221.775V35.1031L222.113 44.6575H214.213Z" stroke="white" stroke-width="4" mask="url(#path-1-outside-1)"/>
<path d="M258.608 44.9951C257.167 44.9951 255.727 44.8263 254.287 44.4887C252.869 44.1286 251.563 43.4984 250.37 42.5981C249.2 41.6978 248.255 40.4486 247.534 38.8506C246.814 37.2526 246.454 35.2044 246.454 32.7061C246.454 30.2078 246.814 28.1596 247.534 26.5616C248.255 24.9635 249.2 23.7144 250.37 22.8141C251.563 21.9138 252.869 21.2948 254.287 20.9572C255.727 20.5971 257.167 20.4171 258.608 20.4171C260.048 20.4171 261.478 20.5971 262.896 20.9572C264.336 21.3173 265.641 21.9476 266.812 22.8479C268.005 23.7481 268.961 24.9973 269.682 26.5953C270.402 28.1934 270.762 30.2303 270.762 32.7061C270.762 35.1819 270.402 37.2188 269.682 38.8168C268.961 40.4149 268.005 41.664 266.812 42.5643C265.641 43.4646 264.336 44.0948 262.896 44.455C261.478 44.8151 260.048 44.9951 258.608 44.9951ZM258.608 38.2429C260.071 38.2429 261.174 37.804 261.917 36.9262C262.659 36.0259 263.031 34.6192 263.031 32.7061C263.031 30.8155 262.659 29.42 261.917 28.5197C261.174 27.6194 260.071 27.1693 258.608 27.1693C255.682 27.1693 254.219 29.0149 254.219 32.7061C254.219 34.5967 254.579 35.9922 255.299 36.8925C256.042 37.7928 257.145 38.2429 258.608 38.2429Z" stroke="white" stroke-width="4" mask="url(#path-1-outside-1)"/>
<path d="M285.215 44.9951C283.774 44.9951 282.334 44.8263 280.893 44.4887C279.475 44.1286 278.17 43.4984 276.977 42.5981C275.806 41.6978 274.861 40.4486 274.141 38.8506C273.421 37.2526 273.061 35.2044 273.061 32.7061C273.061 30.2078 273.421 28.1596 274.141 26.5616C274.861 24.9635 275.806 23.7144 276.977 22.8141C278.17 21.9138 279.475 21.2948 280.893 20.9572C282.334 20.5971 283.774 20.4171 285.215 20.4171C286.655 20.4171 288.084 20.5971 289.502 20.9572C290.943 21.3173 292.248 21.9476 293.419 22.8479C294.611 23.7481 295.568 24.9973 296.288 26.5953C297.008 28.1934 297.369 30.2303 297.369 32.7061C297.369 35.1819 297.008 37.2188 296.288 38.8168C295.568 40.4149 294.611 41.664 293.419 42.5643C292.248 43.4646 290.943 44.0948 289.502 44.455C288.084 44.8151 286.655 44.9951 285.215 44.9951ZM285.215 38.2429C286.678 38.2429 287.78 37.804 288.523 36.9262C289.266 36.0259 289.637 34.6192 289.637 32.7061C289.637 30.8155 289.266 29.42 288.523 28.5197C287.78 27.6194 286.678 27.1693 285.215 27.1693C282.289 27.1693 280.826 29.0149 280.826 32.7061C280.826 34.5967 281.186 35.9922 281.906 36.8925C282.649 37.7928 283.752 38.2429 285.215 38.2429Z" stroke="white" stroke-width="4" mask="url(#path-1-outside-1)"/>
<path d="M301.22 44.6575V26.1902L300.545 22.8141L301.22 20.7884H308.006L314.826 29.2962L316.446 32.0984H316.784V20.7884H324.583V22.8141L324.245 26.1902V44.6575H317.527L309.053 33.1112H308.715V35.1369L309.053 44.6575H301.22Z" stroke="white" stroke-width="4" mask="url(#path-1-outside-1)"/>
<mask id="path-2-outside-2" maskUnits="userSpaceOnUse" x="76.4171" y="18" width="251" height="27" fill="black">
<rect fill="white" x="76.4171" y="18" width="251" height="27"/>
<path d="M89.571 43.5781C88.018 43.5781 86.51 43.398 85.0471 43.0379C83.6066 42.6778 82.3124 42.0476 81.1645 41.1473C80.0167 40.247 79.1051 38.9978 78.4299 37.3998C77.7547 35.8018 77.4171 33.7649 77.4171 31.289C77.4171 29.0608 77.7434 27.1702 78.3961 25.6172C79.0488 24.0417 79.9379 22.77 81.0633 21.8022C82.1886 20.8344 83.4828 20.1254 84.9458 19.6752C86.4088 19.2251 87.9505 19 89.571 19C90.7189 19 91.833 19.09 92.9134 19.2701C94.0163 19.4501 94.8153 19.6527 95.3104 19.8778L99.3955 23.2877L96.0194 28.8582L89.571 25.8873C88.8058 25.8873 88.0856 26.1011 87.4103 26.5287C86.7576 26.9339 86.2174 27.5416 85.7898 28.3518C85.3847 29.1396 85.1821 30.1187 85.1821 31.289C85.1821 32.7745 85.4072 33.9224 85.8573 34.7327C86.33 35.5204 86.994 36.0606 87.8492 36.3532C88.727 36.6458 89.7624 36.7921 90.9553 36.7921C92.1031 36.7921 93.1835 36.6796 94.1963 36.4545C95.2317 36.2069 96.1432 35.9256 96.931 35.6105C97.7187 35.2954 98.3152 35.0253 98.7203 34.8002V41.5524C98.2702 41.7775 97.6287 42.0588 96.7959 42.3964C95.9857 42.7115 94.9728 42.9929 93.7574 43.2405C92.5645 43.4655 91.1691 43.5781 89.571 43.5781Z"/>
<path d="M113.375 43.5781C111.935 43.5781 110.494 43.4093 109.054 43.0717C107.636 42.7115 106.33 42.0813 105.138 41.181C103.967 40.2807 103.022 39.0316 102.302 37.4336C101.581 35.8355 101.221 33.7874 101.221 31.289C101.221 28.7907 101.581 26.7425 102.302 25.1445C103.022 23.5465 103.967 22.2973 105.138 21.397C106.33 20.4967 107.636 19.8778 109.054 19.5402C110.494 19.1801 111.935 19 113.375 19C114.816 19 116.245 19.1801 117.663 19.5402C119.103 19.9003 120.409 20.5305 121.579 21.4308C122.772 22.3311 123.729 23.5803 124.449 25.1783C125.169 26.7763 125.529 28.8132 125.529 31.289C125.529 33.7649 125.169 35.8018 124.449 37.3998C123.729 38.9978 122.772 40.247 121.579 41.1473C120.409 42.0476 119.103 42.6778 117.663 43.0379C116.245 43.398 114.816 43.5781 113.375 43.5781ZM113.375 36.8259C114.838 36.8259 115.941 36.387 116.684 35.5092C117.427 34.6089 117.798 33.2022 117.798 31.289C117.798 29.3984 117.427 28.003 116.684 27.1027C115.941 26.2024 114.838 25.7522 113.375 25.7522C110.449 25.7522 108.986 27.5978 108.986 31.289C108.986 33.1797 109.346 34.5751 110.067 35.4754C110.809 36.3757 111.912 36.8259 113.375 36.8259Z"/>
<path d="M129.381 43.2405V24.7731L128.706 21.3633L129.381 19.3376H141.535C143.358 19.3376 144.922 19.6302 146.228 20.2154C147.533 20.8006 148.535 21.7459 149.232 23.0513C149.93 24.3343 150.279 26.0336 150.279 28.1493C150.279 30.1074 149.953 31.7167 149.3 32.9771C148.647 34.2375 147.691 35.1941 146.43 35.8468L147.004 36.3194L149.334 39.493L151.258 41.2148V43.2405H142.311L138.598 37.0622H136.808V37.8049L137.146 41.181L136.808 43.2405H129.381ZM136.808 30.7489H138.767C139.554 30.7489 140.229 30.7151 140.792 30.6476C141.377 30.5801 141.828 30.3775 142.143 30.0399C142.458 29.6798 142.615 29.1058 142.615 28.3181C142.615 27.4853 142.446 26.8888 142.109 26.5287C141.771 26.1686 141.299 25.9548 140.691 25.8873C140.106 25.7972 139.419 25.7522 138.631 25.7522H136.471L136.808 30.7489Z"/>
<path d="M166.06 43.5781C164.102 43.5781 162.301 43.4093 160.658 43.0717C159.015 42.7115 157.586 42.0813 156.37 41.181C155.155 40.2807 154.21 39.0316 153.534 37.4336C152.882 35.8355 152.555 33.7874 152.555 31.289C152.555 28.8132 152.904 26.7763 153.602 25.1783C154.3 23.5803 155.245 22.3311 156.438 21.4308C157.653 20.5305 159.026 19.9003 160.557 19.5402C162.087 19.1801 163.685 19 165.351 19C166.454 19 167.466 19.0563 168.389 19.1688C169.312 19.2813 170.145 19.4276 170.888 19.6077L175.479 22.2748L173.116 28.2168L165.655 25.9548C164.687 25.9548 163.798 26.1123 162.987 26.4274C162.177 26.72 161.524 27.2602 161.029 28.048C160.557 28.8132 160.32 29.9048 160.32 31.3228C160.32 33.4835 160.782 35.0028 161.705 35.8805C162.65 36.7358 163.978 37.1635 165.688 37.1635C166.341 37.1635 166.881 37.1297 167.309 37.0622C167.737 36.9722 168.097 36.8709 168.389 36.7583V34.9015H165.452V29.5672H176.188L176.559 31.5929L175.817 35.0703V42.1601C175.569 42.2501 175.006 42.4077 174.129 42.6328C173.273 42.8578 172.159 43.0717 170.786 43.2742C169.413 43.4768 167.838 43.5781 166.06 43.5781Z"/>
<path d="M179.883 43.2405V24.7394L179.545 21.3633L179.883 19.3376H187.344V43.2405H179.883Z"/>
<path d="M192.057 43.2405L191.381 41.2148L192.057 37.8387V19.3376H209.443L211.132 20.3504L208.903 26.0898L205.865 25.7522H199.551V28.4531H207.89V34.0237H203.231L199.551 33.6861V36.8259H208.903L212.921 41.0798L210.929 43.2405H192.057Z"/>
<path d="M215.63 43.2405V24.7731L214.955 21.397L215.664 19.3714H223.53L230.147 31.1878H230.822L236.292 19.3714H244.361L244.698 21.397L244.361 24.6381V43.2405H236.899L237.001 40.3708V30.9514H236.629L235.346 34.4963L232.916 39.8644H227.514L223.53 30.9514H223.192V33.6861L223.53 43.2405H215.63Z"/>
<path d="M260.025 43.5781C258.585 43.5781 257.144 43.4093 255.704 43.0717C254.286 42.7115 252.98 42.0813 251.787 41.181C250.617 40.2807 249.672 39.0316 248.951 37.4336C248.231 35.8355 247.871 33.7874 247.871 31.289C247.871 28.7907 248.231 26.7425 248.951 25.1445C249.672 23.5465 250.617 22.2973 251.787 21.397C252.98 20.4967 254.286 19.8778 255.704 19.5402C257.144 19.1801 258.585 19 260.025 19C261.465 19 262.895 19.1801 264.313 19.5402C265.753 19.9003 267.059 20.5305 268.229 21.4308C269.422 22.3311 270.378 23.5803 271.099 25.1783C271.819 26.7763 272.179 28.8132 272.179 31.289C272.179 33.7649 271.819 35.8018 271.099 37.3998C270.378 38.9978 269.422 40.247 268.229 41.1473C267.059 42.0476 265.753 42.6778 264.313 43.0379C262.895 43.398 261.465 43.5781 260.025 43.5781ZM260.025 36.8259C261.488 36.8259 262.591 36.387 263.334 35.5092C264.076 34.6089 264.448 33.2022 264.448 31.289C264.448 29.3984 264.076 28.003 263.334 27.1027C262.591 26.2024 261.488 25.7522 260.025 25.7522C257.099 25.7522 255.636 27.5978 255.636 31.289C255.636 33.1797 255.996 34.5751 256.716 35.4754C257.459 36.3757 258.562 36.8259 260.025 36.8259Z"/>
<path d="M286.632 43.5781C285.191 43.5781 283.751 43.4093 282.31 43.0717C280.892 42.7115 279.587 42.0813 278.394 41.181C277.224 40.2807 276.278 39.0316 275.558 37.4336C274.838 35.8355 274.478 33.7874 274.478 31.289C274.478 28.7907 274.838 26.7425 275.558 25.1445C276.278 23.5465 277.224 22.2973 278.394 21.397C279.587 20.4967 280.892 19.8778 282.31 19.5402C283.751 19.1801 285.191 19 286.632 19C288.072 19 289.501 19.1801 290.919 19.5402C292.36 19.9003 293.665 20.5305 294.836 21.4308C296.028 22.3311 296.985 23.5803 297.705 25.1783C298.426 26.7763 298.786 28.8132 298.786 31.289C298.786 33.7649 298.426 35.8018 297.705 37.3998C296.985 38.9978 296.028 40.247 294.836 41.1473C293.665 42.0476 292.36 42.6778 290.919 43.0379C289.501 43.398 288.072 43.5781 286.632 43.5781ZM286.632 36.8259C288.095 36.8259 289.197 36.387 289.94 35.5092C290.683 34.6089 291.054 33.2022 291.054 31.289C291.054 29.3984 290.683 28.003 289.94 27.1027C289.197 26.2024 288.095 25.7522 286.632 25.7522C283.706 25.7522 282.243 27.5978 282.243 31.289C282.243 33.1797 282.603 34.5751 283.323 35.4754C284.066 36.3757 285.169 36.8259 286.632 36.8259Z"/>
<path d="M302.637 43.2405V24.7731L301.962 21.397L302.637 19.3714H309.423L316.243 27.8792L317.864 30.6813H318.201V19.3714H326V21.397L325.662 24.7731V43.2405H318.944L310.47 31.6942H310.132V33.7198L310.47 43.2405H302.637Z"/>
</mask>
<path d="M89.571 43.5781C88.018 43.5781 86.51 43.398 85.0471 43.0379C83.6066 42.6778 82.3124 42.0476 81.1645 41.1473C80.0167 40.247 79.1051 38.9978 78.4299 37.3998C77.7547 35.8018 77.4171 33.7649 77.4171 31.289C77.4171 29.0608 77.7434 27.1702 78.3961 25.6172C79.0488 24.0417 79.9379 22.77 81.0633 21.8022C82.1886 20.8344 83.4828 20.1254 84.9458 19.6752C86.4088 19.2251 87.9505 19 89.571 19C90.7189 19 91.833 19.09 92.9134 19.2701C94.0163 19.4501 94.8153 19.6527 95.3104 19.8778L99.3955 23.2877L96.0194 28.8582L89.571 25.8873C88.8058 25.8873 88.0856 26.1011 87.4103 26.5287C86.7576 26.9339 86.2174 27.5416 85.7898 28.3518C85.3847 29.1396 85.1821 30.1187 85.1821 31.289C85.1821 32.7745 85.4072 33.9224 85.8573 34.7327C86.33 35.5204 86.994 36.0606 87.8492 36.3532C88.727 36.6458 89.7624 36.7921 90.9553 36.7921C92.1031 36.7921 93.1835 36.6796 94.1963 36.4545C95.2317 36.2069 96.1432 35.9256 96.931 35.6105C97.7187 35.2954 98.3152 35.0253 98.7203 34.8002V41.5524C98.2702 41.7775 97.6287 42.0588 96.7959 42.3964C95.9857 42.7115 94.9728 42.9929 93.7574 43.2405C92.5645 43.4655 91.1691 43.5781 89.571 43.5781Z" fill="#F99F44"/>
<path d="M113.375 43.5781C111.935 43.5781 110.494 43.4093 109.054 43.0717C107.636 42.7115 106.33 42.0813 105.138 41.181C103.967 40.2807 103.022 39.0316 102.302 37.4336C101.581 35.8355 101.221 33.7874 101.221 31.289C101.221 28.7907 101.581 26.7425 102.302 25.1445C103.022 23.5465 103.967 22.2973 105.138 21.397C106.33 20.4967 107.636 19.8778 109.054 19.5402C110.494 19.1801 111.935 19 113.375 19C114.816 19 116.245 19.1801 117.663 19.5402C119.103 19.9003 120.409 20.5305 121.579 21.4308C122.772 22.3311 123.729 23.5803 124.449 25.1783C125.169 26.7763 125.529 28.8132 125.529 31.289C125.529 33.7649 125.169 35.8018 124.449 37.3998C123.729 38.9978 122.772 40.247 121.579 41.1473C120.409 42.0476 119.103 42.6778 117.663 43.0379C116.245 43.398 114.816 43.5781 113.375 43.5781ZM113.375 36.8259C114.838 36.8259 115.941 36.387 116.684 35.5092C117.427 34.6089 117.798 33.2022 117.798 31.289C117.798 29.3984 117.427 28.003 116.684 27.1027C115.941 26.2024 114.838 25.7522 113.375 25.7522C110.449 25.7522 108.986 27.5978 108.986 31.289C108.986 33.1797 109.346 34.5751 110.067 35.4754C110.809 36.3757 111.912 36.8259 113.375 36.8259Z" fill="#F99F44"/>
<path d="M129.381 43.2405V24.7731L128.706 21.3633L129.381 19.3376H141.535C143.358 19.3376 144.922 19.6302 146.228 20.2154C147.533 20.8006 148.535 21.7459 149.232 23.0513C149.93 24.3343 150.279 26.0336 150.279 28.1493C150.279 30.1074 149.953 31.7167 149.3 32.9771C148.647 34.2375 147.691 35.1941 146.43 35.8468L147.004 36.3194L149.334 39.493L151.258 41.2148V43.2405H142.311L138.598 37.0622H136.808V37.8049L137.146 41.181L136.808 43.2405H129.381ZM136.808 30.7489H138.767C139.554 30.7489 140.229 30.7151 140.792 30.6476C141.377 30.5801 141.828 30.3775 142.143 30.0399C142.458 29.6798 142.615 29.1058 142.615 28.3181C142.615 27.4853 142.446 26.8888 142.109 26.5287C141.771 26.1686 141.299 25.9548 140.691 25.8873C140.106 25.7972 139.419 25.7522 138.631 25.7522H136.471L136.808 30.7489Z" fill="#F99F44"/>
<path d="M166.06 43.5781C164.102 43.5781 162.301 43.4093 160.658 43.0717C159.015 42.7115 157.586 42.0813 156.37 41.181C155.155 40.2807 154.21 39.0316 153.534 37.4336C152.882 35.8355 152.555 33.7874 152.555 31.289C152.555 28.8132 152.904 26.7763 153.602 25.1783C154.3 23.5803 155.245 22.3311 156.438 21.4308C157.653 20.5305 159.026 19.9003 160.557 19.5402C162.087 19.1801 163.685 19 165.351 19C166.454 19 167.466 19.0563 168.389 19.1688C169.312 19.2813 170.145 19.4276 170.888 19.6077L175.479 22.2748L173.116 28.2168L165.655 25.9548C164.687 25.9548 163.798 26.1123 162.987 26.4274C162.177 26.72 161.524 27.2602 161.029 28.048C160.557 28.8132 160.32 29.9048 160.32 31.3228C160.32 33.4835 160.782 35.0028 161.705 35.8805C162.65 36.7358 163.978 37.1635 165.688 37.1635C166.341 37.1635 166.881 37.1297 167.309 37.0622C167.737 36.9722 168.097 36.8709 168.389 36.7583V34.9015H165.452V29.5672H176.188L176.559 31.5929L175.817 35.0703V42.1601C175.569 42.2501 175.006 42.4077 174.129 42.6328C173.273 42.8578 172.159 43.0717 170.786 43.2742C169.413 43.4768 167.838 43.5781 166.06 43.5781Z" fill="#F99F44"/>
<path d="M179.883 43.2405V24.7394L179.545 21.3633L179.883 19.3376H187.344V43.2405H179.883Z" fill="#F99F44"/>
<path d="M192.057 43.2405L191.381 41.2148L192.057 37.8387V19.3376H209.443L211.132 20.3504L208.903 26.0898L205.865 25.7522H199.551V28.4531H207.89V34.0237H203.231L199.551 33.6861V36.8259H208.903L212.921 41.0798L210.929 43.2405H192.057Z" fill="#F99F44"/>
<path d="M215.63 43.2405V24.7731L214.955 21.397L215.664 19.3714H223.53L230.147 31.1878H230.822L236.292 19.3714H244.361L244.698 21.397L244.361 24.6381V43.2405H236.899L237.001 40.3708V30.9514H236.629L235.346 34.4963L232.916 39.8644H227.514L223.53 30.9514H223.192V33.6861L223.53 43.2405H215.63Z" fill="#F99F44"/>
<path d="M260.025 43.5781C258.585 43.5781 257.144 43.4093 255.704 43.0717C254.286 42.7115 252.98 42.0813 251.787 41.181C250.617 40.2807 249.672 39.0316 248.951 37.4336C248.231 35.8355 247.871 33.7874 247.871 31.289C247.871 28.7907 248.231 26.7425 248.951 25.1445C249.672 23.5465 250.617 22.2973 251.787 21.397C252.98 20.4967 254.286 19.8778 255.704 19.5402C257.144 19.1801 258.585 19 260.025 19C261.465 19 262.895 19.1801 264.313 19.5402C265.753 19.9003 267.059 20.5305 268.229 21.4308C269.422 22.3311 270.378 23.5803 271.099 25.1783C271.819 26.7763 272.179 28.8132 272.179 31.289C272.179 33.7649 271.819 35.8018 271.099 37.3998C270.378 38.9978 269.422 40.247 268.229 41.1473C267.059 42.0476 265.753 42.6778 264.313 43.0379C262.895 43.398 261.465 43.5781 260.025 43.5781ZM260.025 36.8259C261.488 36.8259 262.591 36.387 263.334 35.5092C264.076 34.6089 264.448 33.2022 264.448 31.289C264.448 29.3984 264.076 28.003 263.334 27.1027C262.591 26.2024 261.488 25.7522 260.025 25.7522C257.099 25.7522 255.636 27.5978 255.636 31.289C255.636 33.1797 255.996 34.5751 256.716 35.4754C257.459 36.3757 258.562 36.8259 260.025 36.8259Z" fill="#F99F44"/>
<path d="M286.632 43.5781C285.191 43.5781 283.751 43.4093 282.31 43.0717C280.892 42.7115 279.587 42.0813 278.394 41.181C277.224 40.2807 276.278 39.0316 275.558 37.4336C274.838 35.8355 274.478 33.7874 274.478 31.289C274.478 28.7907 274.838 26.7425 275.558 25.1445C276.278 23.5465 277.224 22.2973 278.394 21.397C279.587 20.4967 280.892 19.8778 282.31 19.5402C283.751 19.1801 285.191 19 286.632 19C288.072 19 289.501 19.1801 290.919 19.5402C292.36 19.9003 293.665 20.5305 294.836 21.4308C296.028 22.3311 296.985 23.5803 297.705 25.1783C298.426 26.7763 298.786 28.8132 298.786 31.289C298.786 33.7649 298.426 35.8018 297.705 37.3998C296.985 38.9978 296.028 40.247 294.836 41.1473C293.665 42.0476 292.36 42.6778 290.919 43.0379C289.501 43.398 288.072 43.5781 286.632 43.5781ZM286.632 36.8259C288.095 36.8259 289.197 36.387 289.94 35.5092C290.683 34.6089 291.054 33.2022 291.054 31.289C291.054 29.3984 290.683 28.003 289.94 27.1027C289.197 26.2024 288.095 25.7522 286.632 25.7522C283.706 25.7522 282.243 27.5978 282.243 31.289C282.243 33.1797 282.603 34.5751 283.323 35.4754C284.066 36.3757 285.169 36.8259 286.632 36.8259Z" fill="#F99F44"/>
<path d="M302.637 43.2405V24.7731L301.962 21.397L302.637 19.3714H309.423L316.243 27.8792L317.864 30.6813H318.201V19.3714H326V21.397L325.662 24.7731V43.2405H318.944L310.47 31.6942H310.132V33.7198L310.47 43.2405H302.637Z" fill="#F99F44"/>
<path d="M89.571 43.5781C88.018 43.5781 86.51 43.398 85.0471 43.0379C83.6066 42.6778 82.3124 42.0476 81.1645 41.1473C80.0167 40.247 79.1051 38.9978 78.4299 37.3998C77.7547 35.8018 77.4171 33.7649 77.4171 31.289C77.4171 29.0608 77.7434 27.1702 78.3961 25.6172C79.0488 24.0417 79.9379 22.77 81.0633 21.8022C82.1886 20.8344 83.4828 20.1254 84.9458 19.6752C86.4088 19.2251 87.9505 19 89.571 19C90.7189 19 91.833 19.09 92.9134 19.2701C94.0163 19.4501 94.8153 19.6527 95.3104 19.8778L99.3955 23.2877L96.0194 28.8582L89.571 25.8873C88.8058 25.8873 88.0856 26.1011 87.4103 26.5287C86.7576 26.9339 86.2174 27.5416 85.7898 28.3518C85.3847 29.1396 85.1821 30.1187 85.1821 31.289C85.1821 32.7745 85.4072 33.9224 85.8573 34.7327C86.33 35.5204 86.994 36.0606 87.8492 36.3532C88.727 36.6458 89.7624 36.7921 90.9553 36.7921C92.1031 36.7921 93.1835 36.6796 94.1963 36.4545C95.2317 36.2069 96.1432 35.9256 96.931 35.6105C97.7187 35.2954 98.3152 35.0253 98.7203 34.8002V41.5524C98.2702 41.7775 97.6287 42.0588 96.7959 42.3964C95.9857 42.7115 94.9728 42.9929 93.7574 43.2405C92.5645 43.4655 91.1691 43.5781 89.571 43.5781Z" stroke="#2E0066" stroke-width="1.41706" mask="url(#path-2-outside-2)"/>
<path d="M113.375 43.5781C111.935 43.5781 110.494 43.4093 109.054 43.0717C107.636 42.7115 106.33 42.0813 105.138 41.181C103.967 40.2807 103.022 39.0316 102.302 37.4336C101.581 35.8355 101.221 33.7874 101.221 31.289C101.221 28.7907 101.581 26.7425 102.302 25.1445C103.022 23.5465 103.967 22.2973 105.138 21.397C106.33 20.4967 107.636 19.8778 109.054 19.5402C110.494 19.1801 111.935 19 113.375 19C114.816 19 116.245 19.1801 117.663 19.5402C119.103 19.9003 120.409 20.5305 121.579 21.4308C122.772 22.3311 123.729 23.5803 124.449 25.1783C125.169 26.7763 125.529 28.8132 125.529 31.289C125.529 33.7649 125.169 35.8018 124.449 37.3998C123.729 38.9978 122.772 40.247 121.579 41.1473C120.409 42.0476 119.103 42.6778 117.663 43.0379C116.245 43.398 114.816 43.5781 113.375 43.5781ZM113.375 36.8259C114.838 36.8259 115.941 36.387 116.684 35.5092C117.427 34.6089 117.798 33.2022 117.798 31.289C117.798 29.3984 117.427 28.003 116.684 27.1027C115.941 26.2024 114.838 25.7522 113.375 25.7522C110.449 25.7522 108.986 27.5978 108.986 31.289C108.986 33.1797 109.346 34.5751 110.067 35.4754C110.809 36.3757 111.912 36.8259 113.375 36.8259Z" stroke="#2E0066" stroke-width="1.41706" mask="url(#path-2-outside-2)"/>
<path d="M129.381 43.2405V24.7731L128.706 21.3633L129.381 19.3376H141.535C143.358 19.3376 144.922 19.6302 146.228 20.2154C147.533 20.8006 148.535 21.7459 149.232 23.0513C149.93 24.3343 150.279 26.0336 150.279 28.1493C150.279 30.1074 149.953 31.7167 149.3 32.9771C148.647 34.2375 147.691 35.1941 146.43 35.8468L147.004 36.3194L149.334 39.493L151.258 41.2148V43.2405H142.311L138.598 37.0622H136.808V37.8049L137.146 41.181L136.808 43.2405H129.381ZM136.808 30.7489H138.767C139.554 30.7489 140.229 30.7151 140.792 30.6476C141.377 30.5801 141.828 30.3775 142.143 30.0399C142.458 29.6798 142.615 29.1058 142.615 28.3181C142.615 27.4853 142.446 26.8888 142.109 26.5287C141.771 26.1686 141.299 25.9548 140.691 25.8873C140.106 25.7972 139.419 25.7522 138.631 25.7522H136.471L136.808 30.7489Z" stroke="#2E0066" stroke-width="1.41706" mask="url(#path-2-outside-2)"/>
<path d="M166.06 43.5781C164.102 43.5781 162.301 43.4093 160.658 43.0717C159.015 42.7115 157.586 42.0813 156.37 41.181C155.155 40.2807 154.21 39.0316 153.534 37.4336C152.882 35.8355 152.555 33.7874 152.555 31.289C152.555 28.8132 152.904 26.7763 153.602 25.1783C154.3 23.5803 155.245 22.3311 156.438 21.4308C157.653 20.5305 159.026 19.9003 160.557 19.5402C162.087 19.1801 163.685 19 165.351 19C166.454 19 167.466 19.0563 168.389 19.1688C169.312 19.2813 170.145 19.4276 170.888 19.6077L175.479 22.2748L173.116 28.2168L165.655 25.9548C164.687 25.9548 163.798 26.1123 162.987 26.4274C162.177 26.72 161.524 27.2602 161.029 28.048C160.557 28.8132 160.32 29.9048 160.32 31.3228C160.32 33.4835 160.782 35.0028 161.705 35.8805C162.65 36.7358 163.978 37.1635 165.688 37.1635C166.341 37.1635 166.881 37.1297 167.309 37.0622C167.737 36.9722 168.097 36.8709 168.389 36.7583V34.9015H165.452V29.5672H176.188L176.559 31.5929L175.817 35.0703V42.1601C175.569 42.2501 175.006 42.4077 174.129 42.6328C173.273 42.8578 172.159 43.0717 170.786 43.2742C169.413 43.4768 167.838 43.5781 166.06 43.5781Z" stroke="#2E0066" stroke-width="1.41706" mask="url(#path-2-outside-2)"/>
<path d="M179.883 43.2405V24.7394L179.545 21.3633L179.883 19.3376H187.344V43.2405H179.883Z" stroke="#2E0066" stroke-width="1.41706" mask="url(#path-2-outside-2)"/>
<path d="M192.057 43.2405L191.381 41.2148L192.057 37.8387V19.3376H209.443L211.132 20.3504L208.903 26.0898L205.865 25.7522H199.551V28.4531H207.89V34.0237H203.231L199.551 33.6861V36.8259H208.903L212.921 41.0798L210.929 43.2405H192.057Z" stroke="#2E0066" stroke-width="1.41706" mask="url(#path-2-outside-2)"/>
<path d="M215.63 43.2405V24.7731L214.955 21.397L215.664 19.3714H223.53L230.147 31.1878H230.822L236.292 19.3714H244.361L244.698 21.397L244.361 24.6381V43.2405H236.899L237.001 40.3708V30.9514H236.629L235.346 34.4963L232.916 39.8644H227.514L223.53 30.9514H223.192V33.6861L223.53 43.2405H215.63Z" stroke="#2E0066" stroke-width="1.41706" mask="url(#path-2-outside-2)"/>
<path d="M260.025 43.5781C258.585 43.5781 257.144 43.4093 255.704 43.0717C254.286 42.7115 252.98 42.0813 251.787 41.181C250.617 40.2807 249.672 39.0316 248.951 37.4336C248.231 35.8355 247.871 33.7874 247.871 31.289C247.871 28.7907 248.231 26.7425 248.951 25.1445C249.672 23.5465 250.617 22.2973 251.787 21.397C252.98 20.4967 254.286 19.8778 255.704 19.5402C257.144 19.1801 258.585 19 260.025 19C261.465 19 262.895 19.1801 264.313 19.5402C265.753 19.9003 267.059 20.5305 268.229 21.4308C269.422 22.3311 270.378 23.5803 271.099 25.1783C271.819 26.7763 272.179 28.8132 272.179 31.289C272.179 33.7649 271.819 35.8018 271.099 37.3998C270.378 38.9978 269.422 40.247 268.229 41.1473C267.059 42.0476 265.753 42.6778 264.313 43.0379C262.895 43.398 261.465 43.5781 260.025 43.5781ZM260.025 36.8259C261.488 36.8259 262.591 36.387 263.334 35.5092C264.076 34.6089 264.448 33.2022 264.448 31.289C264.448 29.3984 264.076 28.003 263.334 27.1027C262.591 26.2024 261.488 25.7522 260.025 25.7522C257.099 25.7522 255.636 27.5978 255.636 31.289C255.636 33.1797 255.996 34.5751 256.716 35.4754C257.459 36.3757 258.562 36.8259 260.025 36.8259Z" stroke="#2E0066" stroke-width="1.41706" mask="url(#path-2-outside-2)"/>
<path d="M286.632 43.5781C285.191 43.5781 283.751 43.4093 282.31 43.0717C280.892 42.7115 279.587 42.0813 278.394 41.181C277.224 40.2807 276.278 39.0316 275.558 37.4336C274.838 35.8355 274.478 33.7874 274.478 31.289C274.478 28.7907 274.838 26.7425 275.558 25.1445C276.278 23.5465 277.224 22.2973 278.394 21.397C279.587 20.4967 280.892 19.8778 282.31 19.5402C283.751 19.1801 285.191 19 286.632 19C288.072 19 289.501 19.1801 290.919 19.5402C292.36 19.9003 293.665 20.5305 294.836 21.4308C296.028 22.3311 296.985 23.5803 297.705 25.1783C298.426 26.7763 298.786 28.8132 298.786 31.289C298.786 33.7649 298.426 35.8018 297.705 37.3998C296.985 38.9978 296.028 40.247 294.836 41.1473C293.665 42.0476 292.36 42.6778 290.919 43.0379C289.501 43.398 288.072 43.5781 286.632 43.5781ZM286.632 36.8259C288.095 36.8259 289.197 36.387 289.94 35.5092C290.683 34.6089 291.054 33.2022 291.054 31.289C291.054 29.3984 290.683 28.003 289.94 27.1027C289.197 26.2024 288.095 25.7522 286.632 25.7522C283.706 25.7522 282.243 27.5978 282.243 31.289C282.243 33.1797 282.603 34.5751 283.323 35.4754C284.066 36.3757 285.169 36.8259 286.632 36.8259Z" stroke="#2E0066" stroke-width="1.41706" mask="url(#path-2-outside-2)"/>
<path d="M302.637 43.2405V24.7731L301.962 21.397L302.637 19.3714H309.423L316.243 27.8792L317.864 30.6813H318.201V19.3714H326V21.397L325.662 24.7731V43.2405H318.944L310.47 31.6942H310.132V33.7198L310.47 43.2405H302.637Z" stroke="#2E0066" stroke-width="1.41706" mask="url(#path-2-outside-2)"/>
<circle cx="31" cy="31" r="31" fill="white"/>
<mask id="mask0" mask-type="alpha" maskUnits="userSpaceOnUse" x="1" y="1" width="60" height="60">
<circle cx="31" cy="31" r="30" fill="#C4C4C4"/>
</mask>
<g mask="url(#mask0)">
<path d="M48.1471 54.7886C55.3937 49.4841 60.1024 40.8978 60.1024 31.2079C60.1024 15.0985 47.0882 2.03926 31.0345 2.03926C14.9807 2.03926 1.96659 15.0985 1.96659 31.2079C1.96659 39.3106 5.2591 46.6417 10.5748 51.9275C10.4996 51.9481 10.4264 51.9699 10.3555 51.9931C8.11913 52.7233 7.02722 53.4545 6.55381 53.9972C6.14773 53.669 5.69223 53.2345 5.19545 52.7607C2.67577 50.3572 -0.905806 46.9409 -4.48738 51.2419C-7.24726 55.5429 -5.79549 59.5443 -1.69592 63.7884C0.283145 65.8373 2.87927 67.9427 5.91653 70.1657C5.84717 71.448 8.06667 92.9018 14.3784 93.595C16.154 93.595 18.1469 92.3242 18.9214 91.6888C19.3878 92.2802 20.432 93.3157 21.9039 94.2579C22.8761 94.8802 24.0349 95.4618 25.3372 95.8478C25.3622 95.8907 25.3905 95.9403 25.4224 95.9959C26.0086 97.0204 27.7574 100.076 30.8165 100.076C32.1306 100.076 36.1995 99.1568 38.9663 96.4024C39.1469 96.2225 39.3236 96.0375 39.4956 95.8478C41.2844 95.4666 45.8953 94.2813 50.0291 92.5899C50.8961 93.0058 59.566 96.9916 66.1205 88.7081C72.6749 80.4247 63.7276 73.9781 60.1556 83.8212C60.826 81.4875 61.3555 76.0369 58.1095 72.9037C54.8634 69.7706 53.6127 68.3634 53.393 68.0515C55.3421 67.3135 59.0757 65.209 61.868 61.7436C62.835 60.5435 63.6891 59.1801 64.3171 57.6538C67.3689 50.2368 63.6582 46.5283 59.7047 47.9147C57.8243 48.5741 57.1364 49.5707 56.1334 51.0238C55.6091 51.7835 54.9986 52.6679 54.0866 53.6941C53.0755 54.8319 51.6937 56.1441 49.6476 57.6538C49.6292 57.7061 49.6093 57.7583 49.588 57.8105L48.4338 54.7991L48.1471 54.7886Z" fill="white"/>
<ellipse cx="31.069" cy="31.7275" rx="29.1715" ry="29.2725" fill="#D3F1FD"/>
<path d="M4.17603 65.3649C-5.93904 58.3326 -3.72961 51.8891 -2.90107 49.9146C-4.24744 50.1686 -6.55535 52.7552 -5.76643 57.0162C-4.82742 62.0878 2.35785 67.8822 5.83311 70.1455L6.14381 71.843C6.62713 72.097 7.80779 72.7506 8.66395 73.3326C9.29013 73.7582 9.45751 76.3433 10.0448 79.6374C10.4613 81.9732 11.1819 84.6827 12.0126 87.1547C14.0149 93.1132 18.0886 91.0346 18.8135 91.8661C19.5385 92.6975 23.9229 95.5381 25.2002 95.746C25.4764 96.6813 28.3763 100.215 31.1035 100.111C33.2854 100.028 37.7434 97.1663 39.6996 95.746L50.1254 92.6282C50.8964 93.8406 55.8561 95.0185 60.2059 93.0439C66.3322 90.2629 68.0656 85.3649 68.1116 83.1363C63.5546 90.4804 58.1346 90.8961 57.5132 90.03C56.8918 89.164 57.5477 88.0208 57.6858 87.3279C58.6524 82.6166 58.1346 79.6721 58.1346 80.642C58.1346 81.612 55.0276 86.4619 52.0241 87.5358C49.0207 88.6097 45.2923 88.3672 43.7387 85.3534C42.4959 82.9423 40.206 82.0393 39.2163 81.8891C38.9401 81.9122 39.2094 81.6467 42.4959 80.3995C46.6041 78.8406 52.6801 77.9746 54.0955 76.9353C55.2278 76.1039 54.176 73.4711 53.5086 72.2587C53.428 73.6328 51.237 76.5958 43.1173 77.455C34.9977 78.3141 32.0702 73.5635 31.6214 71.0808C31.3797 71.1963 30.7514 71.5104 30.1714 71.843C29.4465 72.2587 29.9298 73.9215 30.8964 74.9954C31.6697 75.8545 32.7836 77.9631 33.2439 78.9099C32.4384 77.455 29.9919 74.8152 26.6501 75.8961C22.4729 77.2471 22.0587 80.8845 22.6455 79.9492C23.2324 79.0139 26.6847 77.2125 29.481 77.455C31.718 77.649 33.1979 80.6998 33.6582 82.2009C32.9102 82.7898 31.1173 84.3141 29.9298 85.6998C28.4453 87.4319 28.3763 92.3164 28.8941 90.0647C29.4119 87.8129 30.9654 86.358 33.6582 84.1755C36.3509 81.9931 42.1852 84.037 41.9781 86.8776C41.771 89.7182 39.2508 95.5728 33.0023 96.0231C26.7537 96.4734 26.8227 95.2263 26.9954 93.4596C27.168 91.6928 25.8906 92.455 25.2002 92.5243C24.5097 92.5935 18.2957 91.3118 18.0886 85.4226C17.8814 79.5335 20.5742 77.3857 21.1265 74.7875L21.1366 74.7401C21.6828 72.1707 22.0062 70.6491 24.7169 68.0323C27.2025 65.9538 30.206 67.1663 37.214 66.0231C47.2946 63.8753 48.8826 58.4711 49.2969 58.4711C49.6283 58.4711 49.8722 59.0023 49.9528 59.2679C50.4016 60.0416 51.3268 62.0462 51.4372 63.8753C51.5477 65.7044 52.3118 67.224 52.6801 67.7552L53.5086 67.9284C61.4488 64.0485 63.6927 58.4711 64.8665 55.9769C65.0621 54.3949 65.3774 51.612 65.0736 53.1363C63.2439 59.8568 56.9263 62.5243 55.718 62.5935C54.5097 62.6628 52.9217 62.0739 52.2313 60.8961C51.6789 59.9538 50.6432 59.0947 50.1944 58.7829L49.1588 57.9861C47.8469 59.3372 43.2002 62.2679 35.1081 63.1824C24.9931 64.3256 19.3314 60.4457 17.8124 59.5797C16.5972 58.8868 16.9378 57.4434 17.26 56.8083L16.1553 53.1363L13.4626 51.5427C13.313 51.6351 12.5167 51.8753 10.5282 52.097C8.53967 52.3187 7.0529 53.4596 6.55808 54.0023C7.5017 54.7182 9.61677 56.3233 10.5282 57.0162C12.4614 61.0346 13.3935 67.0277 11.3222 68.0323C9.25083 69.037 6.79974 67.0277 4.17603 65.3649Z" fill="#BBA6D4"/>
<path d="M35.6605 25.873C32.733 24.5427 28.9171 24.9723 27.3751 25.3533C20.4706 14.3718 16.2243 14.06 14.7399 14.06C13.2554 14.06 10.5627 17.94 10.5627 24.7644C10.5627 31.5889 14.3601 35.6074 14.7399 35.9885C15.1196 36.3695 14.0149 37.963 13.5316 39.7298C13.0483 41.4965 11.6674 43.1247 10.1139 44.06C8.56035 44.9954 9.42342 45.8961 10.9424 46.6236C12.4614 47.351 9.49246 47.836 10.1139 48.4249C30.4131 66.8545 48.9861 51.8891 50.6087 50.7113C51.8996 49.7743 50.7253 48.8052 49.9654 48.4311C49.9602 48.4286 49.961 48.4209 49.9662 48.4184C54.6768 46.1381 51.7462 45.8943 49.9528 44.06C48.5166 42.5912 47.7894 39.06 47.6052 37.4781C53.5086 33.0092 54.0954 18.8406 50.367 15.6189C46.6386 12.3972 38.1461 22.582 35.6605 25.873Z" fill="#F99F44"/>
<path d="M14.0149 46.5196C12.3855 46.1871 11.6099 46.9353 11.4258 47.3511C11.2071 47.3511 10.6317 47.5035 10.0794 48.1132C9.38894 48.8753 20.8159 57.3972 30.8619 57.5012C40.9079 57.6051 48.7445 51.9584 50.229 51.0924C51.4166 50.3996 51.046 49.3949 50.7123 48.9792L49.4695 48.1132C46.6386 46.8314 42.6686 50.2758 38.1116 49.1871C34.4867 48.321 34.4522 44.545 34.4522 40.4919C34.4522 35.9885 34.5213 33.321 30.8619 33.321C29.3569 33.321 28.57 34.1785 28.1691 35.6767C27.5953 37.8214 27.7513 41.1335 27.2025 43.8868C26.6414 46.702 25.4419 48.7714 22.1277 48.7714C18.8136 48.7714 16.0518 46.9353 14.0149 46.5196Z" fill="white"/>
<path d="M15.2232 15.7229C13.3728 15.7229 11.8975 18.7483 11.3912 20.261C11.84 16.6928 13.2554 13.9561 14.5327 13.9561C20.5742 13.9561 26.3049 23.6905 27.4787 25.0762C30.3785 24.6051 34.0724 25.2725 35.5569 25.6651C36.8803 24.0947 40.3486 20.261 43.6352 17.4896C47.7433 14.0254 49.6075 15.03 50.6777 15.7229C45.5684 16.1386 39.5615 23.1709 38.4223 24.903C36.8688 27.0508 36.489 27.7436 35.3843 27.7436C34.2796 27.7436 33.5201 27.3626 31.1035 27.3626C28.6869 27.3626 27.9965 27.6051 27.0644 27.224C26.1323 26.843 25.5109 25.5612 24.6478 24.0369C21.9551 19.4296 17.5362 15.7229 15.2232 15.7229Z" fill="white"/>
<path d="M13.9113 24.5219C13.5316 17.1085 15.5684 17.7667 16.0517 17.7667L19.1588 20.261L19.5385 29.3025L17.0184 32.0393C15.9827 30.9884 13.9113 28.0139 13.9113 24.5219Z" fill="#FF8283"/>
<path d="M17.26 32.1432C20.0218 29.0254 23.102 28.575 23.4741 26.3926C23.8461 24.2102 20.9198 20.9569 18.3647 19.0485C17.412 18.3369 16.0196 17.4219 15.8106 17.5585C15.8102 17.5588 15.8099 17.559 15.8096 17.5594C15.7131 17.6676 17.9174 19.2582 18.9171 20.4688C18.054 25.9769 18.779 27.709 19.1933 29.3372C16.0517 32.1432 17.1066 32.3164 17.26 32.1432Z" fill="black"/>
<path d="M49.237 25.9093C50.152 18.5431 48.0729 19.0512 47.5909 19.016L44.3116 21.2773L43.2789 30.2674L45.5944 33.1805C46.7034 32.2079 48.9844 29.392 49.237 25.9093Z" fill="#FF8283"/>
<path d="M45.3459 33.2665C42.8169 29.9558 39.7774 29.2823 39.5642 27.0785C39.351 24.8747 42.5049 21.8431 45.1913 20.1259C46.193 19.4856 47.6479 18.6744 47.8464 18.8259C47.8468 18.8262 47.8471 18.8264 47.8474 18.8268C47.9358 18.9418 45.6222 20.3676 44.5376 21.5022C45 27.0587 44.1516 28.7334 43.6207 30.3271C46.551 33.3545 45.4864 33.4504 45.3459 33.2665Z" fill="black"/>
<path d="M23.4396 41.3233C22.3478 40.495 21.0302 40.4155 20.1678 40.5284C19.9681 40.5546 19.9615 40.8007 20.1515 40.8677C22.0466 41.5363 22.8123 42.2277 23.0943 42.6051C21.493 42.7486 20.6733 43.201 20.3409 43.6672C20.2701 43.7665 20.3796 43.8728 20.4956 43.8355C21.2216 43.6018 22.3144 43.5796 23.0943 43.6097C23.9919 43.6443 24.3717 44.4065 24.8895 43.9561C25.4074 43.5058 24.7859 42.3448 23.4396 41.3233Z" fill="black"/>
<path d="M41.5293 43.0208C41.5293 44.9531 40.3855 46.5196 38.9746 46.5196C37.5637 46.5196 36.42 44.9531 36.42 43.0208C36.42 41.0884 37.5637 39.5219 38.9746 39.5219C40.3855 39.5219 41.5293 41.0884 41.5293 43.0208Z" fill="black"/>
<path d="M38.9746 42.6744C38.9746 43.3057 38.6191 43.8175 38.1806 43.8175C37.7421 43.8175 37.3866 43.3057 37.3866 42.6744C37.3866 42.043 37.7421 41.5312 38.1806 41.5312C38.6191 41.5312 38.9746 42.043 38.9746 42.6744Z" fill="white"/>
<path d="M28.031 46.9007C28.031 48.0647 29.481 48.8637 30.206 49.1178C30.1944 49.2217 30.1714 49.4573 30.1714 49.5681C29.6743 50.1501 28.7675 50.2725 28.3763 50.261C26.2359 50.261 26.9608 48.9099 26.2359 48.9099C26.1323 48.9099 25.7871 48.9446 25.7871 49.776C25.7871 51.4388 27.4442 52.6513 27.7203 52.6513C27.8239 53.1709 28.5144 55.4919 30.5512 55.4919C32.1806 55.4919 33.1173 53.7136 33.382 52.8245C35.3498 52.4434 36.0402 49.2217 35.1427 49.2217C34.7284 49.2217 34.6709 49.5912 34.6939 49.776C34.5558 50.0069 34.0448 50.4688 33.1058 50.4688C32.1668 50.4688 31.3567 49.8683 31.069 49.5681V49.1178C32.6916 48.8406 33.7618 48.0439 33.7272 47.1085C33.6927 46.1732 31.863 46.2078 30.7238 46.1386C29.5845 46.0693 28.031 46.1039 28.031 46.9007Z" fill="black"/>
<path d="M30.5166 53.3787C30.2444 53.3787 30.2181 52.481 30.2395 52.013C30.2398 52.0064 30.2315 52.0035 30.2272 52.0084C29.7873 52.5117 29.1267 52.6997 28.7506 52.7445C28.6767 52.7533 28.6197 52.8145 28.6365 52.8872C28.7511 53.3837 29.3947 54.6259 30.5166 54.6259C31.6298 54.6259 32.2998 53.4308 32.4275 53.0072C32.447 52.9427 32.4013 52.8858 32.3357 52.8712C31.6085 52.7093 31.071 52.244 30.8741 52.0079C30.8699 52.0029 30.8618 52.0058 30.8618 52.0123C30.8599 52.4801 30.789 53.3787 30.5166 53.3787Z" fill="#ED3580"/>
<path fill-rule="evenodd" clip-rule="evenodd" d="M42.3403 73.3117C41.7644 71.3085 39.9123 70.0421 37.8019 70.7213C36.7648 71.0551 35.8205 71.8932 35.3979 72.9781C34.9646 74.0903 35.0946 75.4245 36.1465 76.672L36.1667 76.696L36.1902 76.717C37.2624 77.6777 38.5747 78.0246 39.946 77.7953C40.7452 77.6616 41.481 77.0135 41.9396 76.2165C42.4064 75.4053 42.6395 74.3526 42.3403 73.3117ZM38.0761 71.5789C39.6251 71.0804 41.0181 71.9618 41.4779 73.5613C41.6965 74.3218 41.5326 75.1225 41.1623 75.7662C40.7837 76.4241 40.2421 76.8326 39.7985 76.9068C38.6943 77.0915 37.6677 76.8215 36.8114 76.066C35.9839 75.0701 35.9274 74.0927 36.2339 73.306C36.5535 72.4856 37.2835 71.834 38.0761 71.5789Z" fill="#2E0066"/>
<path fill-rule="evenodd" clip-rule="evenodd" d="M47.7044 65.5627C48.3472 65.5488 48.9292 65.6 49.3208 65.7915C49.5614 65.9091 49.8264 66.1374 50.0879 66.4025C50.3593 66.6777 50.6618 67.029 50.9779 67.4319C51.6105 68.2383 52.314 69.272 52.953 70.3641C53.5912 71.4548 54.1727 72.6164 54.5543 73.6778C54.9272 74.7148 55.1432 75.7452 54.9447 76.5269C54.7437 77.318 54.1306 77.7064 53.3477 77.965C52.7752 78.154 52.0235 78.3014 51.1266 78.4772L51.1257 78.4773L51.1181 78.4788C50.821 78.537 50.5081 78.5984 50.1806 78.6654C48.6814 78.9722 46.7925 79.4114 44.4831 80.2324C42.5103 81.0137 40.6508 81.6714 39.1712 82.1024C38.4313 82.3179 37.7778 82.4793 37.2482 82.5703C36.9835 82.6157 36.742 82.645 36.5316 82.6532C36.328 82.6611 36.1227 82.6509 35.9458 82.5976C35.664 82.5128 35.3691 82.2808 35.099 82.0271C34.8119 81.7574 34.4916 81.4029 34.1563 80.9953C33.4846 80.1787 32.7288 79.1188 32.0253 78.0238C31.3218 76.9288 30.6635 75.7877 30.1899 74.8069C29.9534 74.3171 29.759 73.8589 29.6284 73.4615C29.5029 73.0795 29.4171 72.6982 29.4488 72.3862L29.4611 72.2647L29.5329 72.1662C30.2245 71.2164 32.58 69.1713 36.7377 67.9826C39.7225 67.0046 42.8958 66.196 45.3254 65.8086C46.2284 65.6646 47.039 65.577 47.7044 65.5627ZM46.2473 66.5853C46.8622 67.3451 47.5994 68.2796 48.2182 69.1143C48.6177 69.6531 48.9745 70.1591 49.2174 70.5528C49.3374 70.7471 49.4397 70.9301 49.5042 71.0837C49.5355 71.1582 49.568 71.2491 49.582 71.3436C49.5925 71.4143 49.6144 71.6232 49.4579 71.7978C49.3573 71.9099 49.2322 71.978 49.1306 72.0214C49.0247 72.0667 48.91 72.0995 48.8008 72.1248C48.5956 72.1723 48.3591 72.2045 48.1516 72.2328L48.1515 72.2328L48.1188 72.2372C47.9527 72.2599 47.8083 72.2803 47.6886 72.3036C47.7369 72.3859 47.7965 72.4826 47.8674 72.5944C47.9525 72.7286 48.0536 72.884 48.1647 73.055L48.1651 73.0556L48.1654 73.056C48.3662 73.3649 48.6 73.7245 48.8328 74.1022C49.4718 75.1388 50.1949 76.4516 50.4582 77.6907C50.6504 77.6525 50.8339 77.6165 51.0093 77.5821L51.0098 77.582C51.8826 77.4108 52.5526 77.2794 53.0671 77.1094C53.745 76.8856 53.9879 76.6468 54.0749 76.3045C54.2017 75.8052 54.0756 75 53.71 73.9835C53.3533 72.9914 52.8002 71.8817 52.179 70.8201C51.5585 69.7598 50.8777 68.7602 50.2727 67.9891C49.9699 67.6032 49.6902 67.2797 49.4499 67.0361C49.1998 66.7825 49.0237 66.6481 48.9277 66.6012C48.7456 66.5121 48.3555 66.4495 47.7237 66.4632C47.3021 66.4723 46.8053 66.5139 46.2473 66.5853ZM49.579 77.8708C49.3535 76.8138 48.7131 75.6202 48.0694 74.5759C47.8397 74.2033 47.6214 73.8677 47.4257 73.5669C47.3121 73.3923 47.2062 73.2294 47.1101 73.0779C46.9846 72.88 46.874 72.6981 46.7987 72.5497C46.7616 72.4766 46.7246 72.3954 46.7002 72.3148C46.6838 72.2609 46.6349 72.0947 46.7053 71.9182C46.7781 71.7356 46.9215 71.6337 47.0191 71.58C47.122 71.5234 47.2356 71.4865 47.3363 71.4602C47.5374 71.4077 47.783 71.3741 47.9979 71.3448L48.0109 71.343C48.2291 71.3132 48.4243 71.2866 48.5856 71.2502C48.5501 71.1859 48.5065 71.1115 48.4544 71.027C48.2319 70.6667 47.8935 70.1853 47.4981 69.6519C46.7714 68.6718 45.8746 67.5462 45.2137 66.7395C42.8738 67.1326 39.86 67.9067 37.0082 68.8415L36.9999 68.8442L36.9916 68.8466C33.1609 69.9401 31.0084 71.7667 30.3423 72.5879C30.3525 72.7164 30.3927 72.9113 30.4808 73.1794C30.5945 73.5253 30.7708 73.9443 30.9977 74.4142C31.4509 75.3528 32.0893 76.4612 32.7797 77.5357C33.4699 78.6101 34.2051 79.6396 34.8485 80.422C35.1708 80.8138 35.464 81.1362 35.7124 81.3695C35.9778 81.6188 36.1403 81.7158 36.2037 81.7349C36.2414 81.7463 36.3317 81.7596 36.4968 81.7531C36.655 81.747 36.8552 81.724 37.0967 81.6825C37.5796 81.5996 38.1973 81.4482 38.921 81.2374C40.3666 80.8163 42.2009 80.1681 44.1609 79.3917L44.1682 79.3888L44.1757 79.3862C46.3282 78.6205 48.1242 78.1792 49.579 77.8708Z" fill="#2E0066"/>
<path fill-rule="evenodd" clip-rule="evenodd" d="M9.65395 51.8784C4.50916 46.5212 1.34522 39.2353 1.34522 31.2079C1.34522 14.7541 14.6376 1.41571 31.0345 1.41571C47.4315 1.41571 60.7238 14.7541 60.7238 31.2079C60.7238 40.8181 56.1892 49.3656 49.1499 54.8133C49.2561 55.2924 49.4732 56.213 49.6758 56.9298C51.4129 55.5985 52.6191 54.4335 53.5183 53.4175C54.4086 52.4116 54.9864 51.5705 55.501 50.8213L55.501 50.8212C55.7442 50.4671 55.9734 50.1335 56.2147 49.8128C56.9656 48.815 57.7701 48.0529 59.2979 47.515C61.4382 46.7614 63.5784 47.3879 64.739 49.2706C65.8811 51.1234 65.9999 54.0709 64.453 57.8456C63.8092 59.4168 62.9351 60.8164 61.9495 62.0446C59.3648 65.2653 55.9931 67.3325 53.9003 68.2507C54.0884 68.4631 54.3517 68.7506 54.7061 69.1238C55.4432 69.9002 56.5577 71.0302 58.1702 72.5929C59.8908 74.2605 60.5914 76.5248 60.7858 78.6311C60.8604 79.4404 60.8613 80.234 60.8143 80.9735C61.4895 79.9825 62.2467 79.2928 63.032 78.8788C64.413 78.1507 65.8439 78.3005 66.9161 79.1187C69.0614 80.7558 69.5228 84.7578 66.1852 88.993C62.8266 93.2548 58.8997 94.3781 55.6989 94.3646C52.8214 94.3525 50.5456 93.4234 49.8025 93.0848C45.808 94.7061 41.4242 95.8515 39.5635 96.2598C39.4183 96.4176 39.2699 96.5722 39.1188 96.7232C37.6838 98.1577 35.9217 99.1052 34.3614 99.6941C32.8084 100.28 31.4136 100.527 30.6893 100.527C28.9132 100.527 27.5608 99.5852 26.6139 98.585C25.7696 97.6932 25.2104 96.7142 24.9341 96.2288C23.6608 95.8297 22.5284 95.2527 21.575 94.6399C20.3144 93.8297 19.3535 92.9484 18.7824 92.3114C18.366 92.6151 17.7982 92.9756 17.1569 93.2886C16.3157 93.6992 15.3067 94.0485 14.3257 94.0485H14.3011L14.2766 94.0458C13.3614 93.9449 12.5509 93.4684 11.8417 92.7661C11.1341 92.0654 10.507 91.1207 9.94993 90.0329C8.83594 87.8575 7.96293 85.0312 7.29525 82.2142C6.62632 79.3919 6.15785 76.5542 5.86089 74.3427C5.71235 73.2365 5.60645 72.2849 5.53975 71.5678C5.49374 71.0732 5.46458 70.6727 5.45523 70.4096C2.50177 68.2311 -0.0422094 66.1524 -1.99863 64.1188C-4.06299 61.973 -5.50473 59.8452 -6.06052 57.6689C-6.6223 55.4691 -6.26682 53.2671 -4.83233 51.0225L-4.81731 50.999L-4.79951 50.9775C-3.67748 49.6246 -2.5125 48.9516 -1.33063 48.7968C-0.15715 48.6431 0.956072 49.0108 1.95981 49.5837C2.96235 50.156 3.89192 50.9539 4.71029 51.7147C4.99422 51.9786 5.26151 52.2347 5.51405 52.4766C5.86086 52.8088 6.17985 53.1144 6.47595 53.3772C6.77596 53.0366 7.1634 52.7763 7.5827 52.5694C8.1683 52.2805 8.85583 52.0762 9.54616 51.9049C9.58202 51.896 9.61795 51.8872 9.65395 51.8784ZM59.6191 31.2079C59.6191 38.4395 56.9521 45.0462 52.5513 50.0914C52.5446 50.0765 52.5379 50.0615 52.5312 50.0464C52.5203 50.0218 52.5093 49.9969 52.4983 49.9718C52.2954 49.5109 52.0564 48.9681 51.472 48.858C51.3801 48.7308 51.2744 48.6133 51.1617 48.506C51.8435 48.1322 52.3344 47.7938 52.6497 47.4675C52.8779 47.2314 53.062 46.9535 53.1176 46.6256C53.1763 46.2793 53.0757 45.9762 52.9215 45.7351C52.7764 45.5083 52.5735 45.3185 52.3792 45.16C52.1815 44.9988 51.9517 44.8379 51.7288 44.6823L51.7167 44.6739C51.2588 44.3543 50.7935 44.0295 50.3964 43.6233C49.7892 43.0024 49.2831 41.8768 48.9039 40.6295C48.5835 39.5756 48.3751 38.5087 48.267 37.748C49.7185 36.5449 50.8253 34.8117 51.6259 32.8686C52.4805 30.7942 53.0028 28.441 53.2168 26.1387C53.4307 23.8373 53.3388 21.5618 52.9474 19.6403C52.5612 17.7438 51.8618 16.0876 50.7726 15.1464C49.5825 14.1181 48.0653 14.23 46.6122 14.8213C45.1565 15.4138 43.6056 16.5419 42.1378 17.8351C39.4041 20.2435 36.8184 23.3512 35.4586 25.1123C34.0052 24.5484 32.4141 24.3584 31.0029 24.3479C29.6908 24.3381 28.5006 24.4834 27.6663 24.6503C24.2954 19.3597 21.5319 16.5562 19.3762 15.0742C17.1439 13.5396 15.5828 13.4365 14.7399 13.4365C14.1183 13.4365 13.5198 13.8238 13.018 14.3356C12.4956 14.8684 11.9834 15.63 11.5328 16.5866C10.6297 18.5039 9.9413 21.273 9.9413 24.7644C9.9413 31.3928 13.4001 35.472 14.1829 36.3072C14.181 36.3153 14.179 36.324 14.1766 36.3335C14.1331 36.5072 14.0361 36.7528 13.8896 37.0907C13.8479 37.1871 13.8028 37.2891 13.7556 37.3962C13.4885 38.0015 13.1505 38.7675 12.9324 39.5647C12.4984 41.1514 11.2349 42.658 9.79421 43.5254C9.35981 43.7869 9.00864 44.0944 8.81911 44.473C8.61086 44.8889 8.63413 45.3176 8.81798 45.6941C8.98625 46.0387 9.27709 46.3202 9.58326 46.5483C9.84302 46.7418 10.1464 46.9208 10.4704 47.0855C10.4548 47.0946 10.4384 47.1041 10.4215 47.1139L10.4065 47.1226C10.3308 47.1663 10.2444 47.2162 10.1573 47.2694C9.52719 47.5582 8.87409 48.1828 9.35442 49.2564C9.70206 50.0333 10.654 50.8095 11.6204 51.4267L11.6164 51.4277C11.3896 51.483 11.1575 51.5361 10.9212 51.5892C5.69026 46.3908 2.44994 39.1791 2.44994 31.2079C2.44994 15.3663 15.2477 2.52426 31.0345 2.52426C46.8213 2.52426 59.6191 15.3663 59.6191 31.2079ZM13.5662 52.4781L12.772 53.275C12.4067 52.9702 12.049 52.6564 11.6994 52.334C11.7426 52.3237 11.7857 52.3133 11.8287 52.3028C12.1286 52.2296 12.4266 52.1508 12.7138 52.062C13.035 52.2319 13.3284 52.3731 13.5662 52.4781ZM21.904 57.0571C20.9726 56.5289 19.706 55.8104 18.3561 54.9592C25.4612 58.5579 32.0824 58.6925 37.495 57.5307C39.7004 57.0573 41.7014 56.3694 43.4486 55.6187C41.2104 56.8199 38.6386 57.9205 35.9022 58.6097C35.8677 58.9561 28.3072 59.8222 23.4396 58.0208C23.4633 57.9416 22.8604 57.5996 21.904 57.0571ZM50.2366 49.3475C47.0034 51.6034 40.1212 56.3233 30.5512 56.3233C22.9278 56.3233 14.6804 50.8858 11.326 48.0228C11.412 47.9671 11.5006 47.9048 11.5817 47.837C11.6976 47.7401 11.8688 47.5753 11.9526 47.336C12.0569 47.0385 11.9905 46.7373 11.8072 46.5019C11.6538 46.3048 11.4315 46.1669 11.2101 46.0608C10.8512 45.8889 10.5509 45.716 10.3242 45.547C10.0898 45.3724 9.9772 45.2338 9.93401 45.1454C9.90641 45.0889 9.91027 45.0715 9.92965 45.0328C9.96775 44.9567 10.0913 44.8009 10.4336 44.5947C12.1 43.5915 13.5983 41.8417 14.1309 39.8949C14.3222 39.1956 14.6166 38.5271 14.8844 37.9189C14.9339 37.8065 14.9824 37.6963 15.0292 37.5883C15.1718 37.2594 15.31 36.9247 15.382 36.6373C15.4181 36.493 15.4479 36.322 15.4371 36.1473C15.4258 35.9665 15.3668 35.7357 15.1793 35.5475C14.8523 35.2194 11.1841 31.3509 11.1841 24.7644C11.1841 21.4314 11.8421 18.8483 12.6564 17.1195C13.0646 16.2531 13.5039 15.6182 13.9039 15.2102C14.3245 14.7813 14.6193 14.6836 14.7399 14.6836C15.3815 14.6836 16.6857 14.7363 18.6738 16.1031C20.6887 17.4882 23.4225 20.2353 26.8496 25.6861L27.0887 26.0663L27.5237 25.9588C28.2445 25.7807 29.5325 25.5841 30.9937 25.595C32.4578 25.6059 34.0483 25.8249 35.4042 26.441L35.8561 26.6464L36.1558 26.2496C37.3879 24.6183 40.1033 21.2871 42.9577 18.7723C44.3898 17.5106 45.8164 16.491 47.0793 15.977C48.3449 15.462 49.2875 15.5089 49.9616 16.0915C50.7366 16.7611 51.362 18.0841 51.7298 19.89C52.0925 21.6709 52.184 23.8209 51.9794 26.0229C51.7748 28.2242 51.2765 30.4524 50.4773 32.3921C49.6761 34.3369 48.5889 35.9524 47.231 36.9803L46.9468 37.1955L46.9881 37.5504C47.0839 38.3733 47.3185 39.6888 47.7152 40.9935C48.1046 42.2744 48.6803 43.6489 49.5092 44.4968C49.9893 44.9877 50.5374 45.37 50.9754 45.6756L51.0191 45.7061C51.2496 45.867 51.4401 46.0012 51.5953 46.1278C51.7539 46.2572 51.8367 46.348 51.8756 46.4088C51.8809 46.4171 51.8847 46.4236 51.8873 46.4286C51.8764 46.4528 51.8446 46.5091 51.7575 46.5993C51.4816 46.8849 50.8717 47.2878 49.6963 47.8568C49.4801 47.9615 49.36 48.168 49.3428 48.3722C49.3245 48.5883 49.4233 48.8588 49.6917 48.9909C49.8842 49.0857 50.0791 49.2119 50.2366 49.3475ZM10.4003 52.6286C10.1847 52.6775 9.97139 52.7272 9.76165 52.7793C9.08748 52.9466 8.47568 53.1325 7.97877 53.3777C7.64052 53.5446 7.37391 53.73 7.1791 53.9399C7.38579 54.088 7.64657 54.2683 7.94617 54.4754L7.94842 54.4769L7.94922 54.4775L7.96448 54.488C8.12728 54.6006 8.30134 54.7209 8.48424 54.8482C9.17585 55.3297 9.97277 55.8966 10.6903 56.4717C10.924 56.4508 11.2298 56.4622 11.5665 56.5128C11.8981 56.5626 12.2811 56.6536 12.6887 56.8049L12.8619 54.7689C12.0026 54.1005 11.1808 53.3858 10.4003 52.6286ZM13.7088 55.4037L13.5297 57.5088L13.4375 58.4026C13.6537 58.8784 14.1882 59.568 15.1971 60.3295C16.2667 61.1368 17.844 62.005 20.0635 62.7666C22.6028 63.6379 25.9765 64.3675 30.3786 64.708C34.043 64.9915 38.3853 64.1683 41.9922 62.7593C43.7935 62.0556 45.395 61.2122 46.6277 60.3015C47.8059 59.4312 48.6072 58.5291 48.9587 57.6645C48.7558 57.0332 48.5154 56.0578 48.363 55.4017C43.4867 58.9248 37.5021 61 31.0345 61C24.5681 61 18.5846 58.9256 13.7088 55.4037ZM10.8192 46.8481C10.8192 46.8481 10.8185 46.8489 10.817 46.8506C10.8183 46.8489 10.8192 46.8481 10.8192 46.8481ZM49.4442 58.6833C48.9335 59.5182 48.1344 60.3069 47.1599 61.0268C45.8477 61.9962 44.1716 62.8745 42.3179 63.5986C38.6147 65.0452 34.1365 65.9021 30.3096 65.6061C26.2079 65.2887 22.9622 64.6365 20.4274 63.8344C21.4118 75.5719 17.5082 81.3254 14.8283 83.7694C15.1338 84.8056 16.3139 87.4831 19.2049 91.4196C19.5809 91.8966 20.3822 92.7106 21.5154 93.5142C21.9533 91.6576 22.9269 89.128 24.5982 86.8383C26.4366 84.3198 29.1376 82.0687 32.9139 81.3577C32.4482 80.3529 31.8048 79.3964 30.9662 78.7189C30.1964 78.0969 29.2624 77.7089 28.1306 77.7252C26.9913 77.7416 24.924 78.1478 22.1622 80.5728C22.1622 80.5728 22.5765 79.291 23.47 78.4985C24.3635 77.706 26.7612 76.8442 28.1177 76.8246C29.4817 76.805 30.6152 77.2789 31.5291 78.0174C33.1569 79.3325 34.0877 81.4819 34.5013 83.2165C35.6851 82.7554 36.9942 82.5424 38.2279 82.8745L38.2481 82.8799L38.2677 82.8872C39.9388 83.5091 41.1268 84.3871 41.8898 85.4472C42.6543 86.5093 42.9693 87.7228 42.9459 88.9728C42.9069 91.0513 41.9351 93.2404 40.5242 95.109C42.7134 94.5668 46.3216 93.5398 49.6211 92.1865C54.1653 89.6765 56.4069 85.9761 57.3714 82.3599C58.3237 78.7894 58.0286 75.3038 57.4578 73.1546C55.8866 71.6301 54.7904 70.5184 54.0562 69.7451C53.4264 69.0817 53.0504 68.6545 52.8716 68.4266C52.7804 68.3745 52.7012 68.3092 52.6361 68.2479C52.5306 68.1486 52.428 68.0269 52.3309 67.895C52.1363 67.6306 51.9404 67.2929 51.7661 66.9279C51.4233 66.2099 51.1266 65.3071 51.1266 64.5681C51.1266 63.4528 50.7896 62.1126 50.3497 60.8673C50.0605 60.0484 49.7329 59.2876 49.4442 58.6833ZM53.2199 67.5611C55.0476 66.8196 58.2572 64.9616 60.8165 62.0005C56.0092 60.4562 54.0767 56.9773 53.5533 54.7047C52.6588 55.6346 51.5203 56.6644 50.0117 57.8046C50.3634 58.4909 50.8119 59.4798 51.1957 60.5664C51.6477 61.8458 52.0242 63.3001 52.0242 64.5681C52.0242 65.111 52.2568 65.8709 52.5756 66.5387C52.7321 66.8665 52.9002 67.1523 53.053 67.3599C53.1157 67.4452 53.172 67.5119 53.2199 67.5611ZM56.2821 51.2733L56.2822 51.2732C56.5148 50.9351 56.7261 50.6279 56.931 50.3556C57.6027 49.463 58.2723 48.8306 59.5951 48.3649C61.3903 47.7328 63.0648 48.2668 63.9756 49.7444C64.9049 51.2519 65.114 53.8645 63.6229 57.5031C63.0561 58.8862 62.2972 60.1346 61.4333 61.2478C56.1744 59.7122 54.5288 55.7773 54.3179 53.8691C55.1748 52.8829 55.7785 52.0053 56.2821 51.2733ZM58.6819 74.6887C59.0026 76.8791 59.0079 79.7079 58.2385 82.5928C57.4744 85.4574 55.9451 88.379 53.2073 90.7764C53.9697 90.3853 54.6902 90.0061 55.2002 89.7183C54.194 90.9299 52.693 91.8104 51.3381 92.1991C51.1673 92.3119 50.9929 92.423 50.8149 92.5323C51.8128 92.9154 53.5864 93.455 55.7027 93.4639C58.6641 93.4764 62.3149 92.4519 65.4811 88.4343C68.6682 84.3901 67.9386 81.0305 66.3727 79.8357C65.5894 79.2379 64.5346 79.104 63.4494 79.6761C62.3489 80.2563 61.6804 80.9131 60.8143 83.3095C60.8143 83.3095 60.4887 83.9504 60.0679 84.4873C59.6471 85.0243 59.1013 85.3534 59.1013 85.3534C59.7227 83.1709 60.075 80.697 59.892 78.7142C59.7637 77.3237 59.4052 75.9126 58.6819 74.6887ZM33.6663 83.5909C33.5685 83.1494 33.4351 82.6813 33.2642 82.2096C29.6717 82.8285 27.0947 84.9423 25.3223 87.3705C23.6292 89.6901 22.6879 92.2748 22.3171 94.0434C23.1307 94.542 24.0653 95.0016 25.0959 95.3353C25.2821 94.7157 25.6699 93.8513 25.9942 93.3903C25.8736 93.8574 25.7167 94.8727 25.8081 95.947C26.1003 96.4533 26.579 97.2404 27.2647 97.9647C28.1216 98.8698 29.2547 99.6259 30.6893 99.6259C31.2731 99.6259 32.5576 99.4127 34.0454 98.8511C35.5259 98.2923 37.1661 97.4038 38.4853 96.0851C38.6598 95.9108 38.8304 95.7313 38.9965 95.5474C40.7766 93.5772 42.0075 91.1401 42.0484 88.9559C42.0687 87.8739 41.7979 86.8579 41.1622 85.9746C40.5278 85.0931 39.5073 84.3126 37.9755 83.7392C36.8449 83.4417 35.5645 83.6986 34.3637 84.253C32.8963 84.9305 31.6457 86.0076 31.0685 86.8419C31.0687 86.8423 31.0689 86.8426 31.069 86.843C30.9284 87.0133 30.7839 87.1823 30.6398 87.3499C29.9615 88.1391 29.6322 88.5222 28.7906 90.6189C28.7104 89.9638 28.9335 88.1965 30.3247 86.3489L30.3195 86.3453C30.9526 85.4213 32.2058 84.3317 33.6663 83.5909ZM18.2268 91.6031C15.7649 88.1964 14.5515 85.7029 14.0874 84.3904C13.571 84.7859 13.1412 85.0371 12.8619 85.1709L11.9709 85.5976L12.2363 84.6434C12.395 84.0729 12.5457 83.3521 12.6895 82.6282C12.7219 82.4655 12.7539 82.3024 12.7856 82.1411L12.7857 82.1404C12.8828 81.6462 12.9766 81.1687 13.0658 80.7702C12.6464 79.507 12.3542 77.8155 12.2049 76.3193C12.1275 75.5434 12.0875 74.8094 12.0893 74.2028C12.0904 73.8567 12.1047 73.5299 12.1401 73.2536C10.2913 72.7994 8.8525 72.279 7.79065 71.8009C7.2262 71.5467 6.76252 71.3019 6.39814 71.0822C6.40818 71.2045 6.41991 71.3386 6.43345 71.4841C6.4989 72.1878 6.60337 73.1272 6.75043 74.2224C7.04466 76.4136 7.50831 79.2204 8.16848 82.0058C8.82992 84.7965 9.68303 87.541 10.7483 89.6212C11.2808 90.6612 11.8566 91.5154 12.4722 92.125C13.0786 92.7255 13.7036 93.0697 14.3505 93.1477C15.1304 93.1418 15.9872 92.858 16.7643 92.4787C17.3424 92.1965 17.8542 91.8725 18.2268 91.6031ZM13.4885 78.8336C14.6645 73.0391 14.6369 68.9754 13.9796 65.7892C13.2623 62.3115 11.7891 59.8411 10.2196 57.2475C9.50561 56.6689 8.69179 56.0889 7.97265 55.5883C7.79902 55.4675 7.62941 55.3502 7.46751 55.2383L7.46673 55.2378L7.46561 55.237C7.20148 55.0545 6.95792 54.8861 6.75101 54.7394C6.23601 55.9044 5.35439 57.5211 4.14051 59.1465C2.83484 60.8948 1.12772 62.676 -0.9445 63.9097C0.944035 65.8004 3.35803 67.7523 6.16734 69.8168L6.18742 69.8316L6.20574 69.8485C6.43624 70.0609 7.06287 70.486 8.15812 70.9791C9.09239 71.3998 10.3513 71.8626 11.9624 72.28C12.4914 72.4171 12.9742 72.681 13.4281 72.9862C13.6685 73.1478 14.0495 73.4019 14.0495 73.4019L12.9869 73.5058C12.9565 73.5912 12.9588 73.6166 12.9675 73.7098C12.9751 73.7923 12.9877 73.9279 12.9869 74.2055C12.9852 74.7741 13.0229 75.4764 13.0981 76.2296C13.1834 77.0852 13.3156 77.9929 13.4885 78.8336ZM-1.58958 63.2442C-3.47304 61.2389 -4.71068 59.3263 -5.19104 57.4453C-5.68337 55.5175 -5.3919 53.5779 -4.0918 51.5323C-3.07987 50.3197 -2.11057 49.8073 -1.21448 49.6899C-0.304745 49.5708 0.608068 49.8484 1.51601 50.3666C2.42515 50.8856 3.2929 51.6249 4.10032 52.3754C4.35543 52.6126 4.60777 52.8542 4.85373 53.0897L4.8545 53.0904L4.85474 53.0907C5.26606 53.4845 5.65953 53.8613 6.01828 54.1715C5.54914 55.2792 4.67036 56.9352 3.42224 58.6064C2.11869 60.3518 0.430435 62.0895 -1.58958 63.2442ZM11.3566 57.3927C12.7955 59.7875 14.166 62.2489 14.8586 65.6066C15.6167 69.2818 15.5567 73.9923 13.9688 80.8479C13.8748 81.2535 13.7755 81.7593 13.6686 82.3035L13.6685 82.3037L13.6682 82.3054C13.6361 82.4688 13.6033 82.6357 13.5698 82.8044C13.5033 83.1388 13.4341 83.4796 13.3621 83.8093C13.5659 83.6612 13.7911 83.484 14.0317 83.2747C16.5024 81.1252 20.6098 75.5763 19.4989 63.5231C17.3481 62.7593 15.7696 61.8886 14.6576 61.0493C13.5076 60.1813 12.8298 59.3262 12.5611 58.6347L12.5217 58.5332L12.6035 57.74C12.1729 57.5558 11.7682 57.4538 11.4335 57.4035C11.4073 57.3996 11.3816 57.396 11.3566 57.3927Z" fill="#2E0066"/>
<path opacity="0.5" d="M56.5417 32.9143C46.6338 12.3023 35.483 10.7434 35.7592 9.04596C32.7903 5.52038 41.697 3.6418 50.7419 14.173C59.7868 24.7042 57.819 35.3046 56.5417 32.9143Z" fill="white"/>
</g>
</svg>
