<svg width="62" height="62" viewBox="0 0 62 62" fill="none" xmlns="http://www.w3.org/2000/svg">
<circle cx="31" cy="31" r="31" fill="white"/>
<mask id="mask0" mask-type="alpha" maskUnits="userSpaceOnUse" x="1" y="1" width="60" height="60">
<circle cx="31" cy="31" r="30" fill="#C4C4C4"/>
</mask>
<g mask="url(#mask0)">
<ellipse cx="31.069" cy="31.7275" rx="29.1715" ry="29.2725" fill="#D3F1FD"/>
<path d="M35.6605 25.873C32.733 24.5427 28.9171 24.9723 27.3751 25.3533C20.4706 14.3718 16.2243 14.06 14.7399 14.06C13.2554 14.06 10.5627 17.94 10.5627 24.7644C10.5627 31.5889 14.3601 35.6074 14.7399 35.9885C15.1196 36.3695 14.0149 37.963 13.5316 39.7298C13.0483 41.4965 11.6674 43.1247 10.1139 44.06C8.56035 44.9954 9.42342 45.8961 10.9424 46.6236C12.4614 47.351 9.49246 47.836 10.1139 48.4249C30.4131 66.8545 48.9861 51.8891 50.6087 50.7113C51.8996 49.7743 50.7253 48.8052 49.9654 48.4311C49.9602 48.4286 49.961 48.4209 49.9662 48.4184C54.6768 46.1381 51.7462 45.8943 49.9528 44.06C48.5166 42.5912 47.7894 39.06 47.6052 37.4781C53.5086 33.0092 54.0954 18.8406 50.367 15.6189C46.6386 12.3972 38.1461 22.582 35.6605 25.873Z" fill="#F99F44"/>
<path d="M14.0149 46.5196C12.3855 46.1871 11.6099 46.9353 11.4258 47.3511C11.2071 47.3511 10.6317 47.5035 10.0794 48.1132C9.38894 48.8753 20.8159 57.3972 30.8619 57.5012C40.9079 57.6051 48.7445 51.9584 50.229 51.0924C51.4166 50.3996 51.046 49.3949 50.7123 48.9792L49.4695 48.1132C46.6386 46.8314 42.6686 50.2758 38.1116 49.1871C34.4867 48.321 34.4522 44.545 34.4522 40.4919C34.4522 35.9885 34.5213 33.321 30.8619 33.321C29.3569 33.321 28.57 34.1785 28.1691 35.6767C27.5953 37.8214 27.7513 41.1335 27.2025 43.8868C26.6414 46.702 25.4419 48.7714 22.1277 48.7714C18.8136 48.7714 16.0518 46.9353 14.0149 46.5196Z" fill="white"/>
<path d="M15.2232 15.7229C13.3728 15.7229 11.8975 18.7483 11.3912 20.261C11.84 16.6928 13.2554 13.9561 14.5327 13.9561C20.5742 13.9561 26.3049 23.6905 27.4787 25.0762C30.3785 24.6051 34.0724 25.2725 35.5569 25.6651C36.8803 24.0947 40.3486 20.261 43.6352 17.4896C47.7433 14.0254 49.6075 15.03 50.6777 15.7229C45.5684 16.1386 39.5615 23.1709 38.4223 24.903C36.8688 27.0508 36.489 27.7436 35.3843 27.7436C34.2796 27.7436 33.5201 27.3626 31.1035 27.3626C28.6869 27.3626 27.9965 27.6051 27.0644 27.224C26.1323 26.843 25.5109 25.5612 24.6478 24.0369C21.9551 19.4296 17.5362 15.7229 15.2232 15.7229Z" fill="white"/>
<path d="M13.9113 24.5219C13.5316 17.1085 15.5684 17.7667 16.0517 17.7667L19.1588 20.261L19.5385 29.3025L17.0184 32.0393C15.9827 30.9884 13.9113 28.0139 13.9113 24.5219Z" fill="#FF8283"/>
<path d="M17.26 32.1432C20.0218 29.0254 23.102 28.575 23.4741 26.3926C23.8461 24.2102 20.9198 20.9569 18.3647 19.0485C17.412 18.3369 16.0196 17.4219 15.8106 17.5585C15.8102 17.5588 15.8099 17.559 15.8096 17.5594C15.7131 17.6676 17.9174 19.2582 18.9171 20.4688C18.054 25.9769 18.779 27.709 19.1933 29.3372C16.0517 32.1432 17.1066 32.3164 17.26 32.1432Z" fill="black"/>
<path d="M49.237 25.9093C50.152 18.5431 48.0729 19.0512 47.5909 19.016L44.3116 21.2773L43.2789 30.2674L45.5944 33.1805C46.7034 32.2079 48.9844 29.392 49.237 25.9093Z" fill="#FF8283"/>
<path d="M23.4396 41.3233C22.3478 40.495 21.0302 40.4155 20.1678 40.5284C19.9681 40.5546 19.9615 40.8007 20.1515 40.8677C22.0466 41.5363 22.8123 42.2277 23.0943 42.6051C21.493 42.7486 20.6733 43.201 20.3409 43.6672C20.2701 43.7665 20.3796 43.8728 20.4956 43.8355C21.2216 43.6018 22.3144 43.5796 23.0943 43.6097C23.9919 43.6443 24.3717 44.4065 24.8895 43.9561C25.4074 43.5058 24.7859 42.3448 23.4396 41.3233Z" fill="black"/>
<path d="M41.5293 43.0208C41.5293 44.9531 40.3855 46.5196 38.9746 46.5196C37.5637 46.5196 36.42 44.9531 36.42 43.0208C36.42 41.0884 37.5637 39.5219 38.9746 39.5219C40.3855 39.5219 41.5293 41.0884 41.5293 43.0208Z" fill="black"/>
<path d="M38.9746 42.6744C38.9746 43.3057 38.6191 43.8175 38.1806 43.8175C37.7421 43.8175 37.3866 43.3057 37.3866 42.6744C37.3866 42.043 37.7421 41.5312 38.1806 41.5312C38.6191 41.5312 38.9746 42.043 38.9746 42.6744Z" fill="white"/>
<path d="M28.031 46.9007C28.031 48.0647 29.481 48.8637 30.206 49.1178C30.1944 49.2217 30.1714 49.4573 30.1714 49.5681C29.6743 50.1501 28.7675 50.2725 28.3763 50.261C26.2359 50.261 26.9608 48.9099 26.2359 48.9099C26.1323 48.9099 25.7871 48.9446 25.7871 49.776C25.7871 51.4388 27.4442 52.6513 27.7203 52.6513C27.8239 53.1709 28.5144 55.4919 30.5512 55.4919C32.1806 55.4919 33.1173 53.7136 33.382 52.8245C35.3498 52.4434 36.0402 49.2217 35.1427 49.2217C34.7284 49.2217 34.6709 49.5912 34.6939 49.776C34.5558 50.0069 34.0448 50.4688 33.1058 50.4688C32.1668 50.4688 31.3567 49.8683 31.069 49.5681V49.1178C32.6916 48.8406 33.7618 48.0439 33.7272 47.1085C33.6927 46.1732 31.863 46.2078 30.7238 46.1386C29.5845 46.0693 28.031 46.1039 28.031 46.9007Z" fill="black"/>
<path fill-rule="evenodd" clip-rule="evenodd" d="M42.3403 73.3117C41.7644 71.3085 39.9123 70.0421 37.8019 70.7213C36.7648 71.0551 35.8205 71.8932 35.3979 72.9781C34.9646 74.0903 35.0946 75.4245 36.1465 76.672L36.1667 76.696L36.1902 76.717C37.2624 77.6777 38.5747 78.0246 39.946 77.7953C40.7452 77.6616 41.481 77.0135 41.9396 76.2165C42.4064 75.4053 42.6395 74.3526 42.3403 73.3117ZM38.0761 71.5789C39.6251 71.0804 41.0181 71.9618 41.4779 73.5613C41.6965 74.3218 41.5326 75.1225 41.1623 75.7662C40.7837 76.4241 40.2421 76.8326 39.7985 76.9068C38.6943 77.0915 37.6677 76.8215 36.8114 76.066C35.9839 75.0701 35.9274 74.0927 36.2339 73.306C36.5535 72.4856 37.2835 71.834 38.0761 71.5789Z" fill="#2E0066"/>
<path fill-rule="evenodd" clip-rule="evenodd" d="M47.7044 65.5627C48.3472 65.5488 48.9292 65.6 49.3208 65.7915C49.5614 65.9091 49.8264 66.1374 50.0879 66.4025C50.3593 66.6777 50.6618 67.029 50.9779 67.4319C51.6105 68.2383 52.314 69.272 52.953 70.3641C53.5912 71.4548 54.1727 72.6164 54.5543 73.6778C54.9272 74.7148 55.1432 75.7452 54.9447 76.5269C54.7437 77.318 54.1306 77.7064 53.3477 77.965C52.7752 78.154 52.0235 78.3014 51.1266 78.4772L51.1257 78.4773L51.1181 78.4788C50.821 78.537 50.5081 78.5984 50.1806 78.6654C48.6814 78.9722 46.7925 79.4114 44.4831 80.2324C42.5103 81.0137 40.6508 81.6714 39.1712 82.1024C38.4313 82.3179 37.7778 82.4793 37.2482 82.5703C36.9835 82.6157 36.742 82.645 36.5316 82.6532C36.328 82.6611 36.1227 82.6509 35.9458 82.5976C35.664 82.5128 35.3691 82.2808 35.099 82.0271C34.8119 81.7574 34.4916 81.4029 34.1563 80.9953C33.4846 80.1787 32.7288 79.1188 32.0253 78.0238C31.3218 76.9288 30.6635 75.7877 30.1899 74.8069C29.9534 74.3171 29.759 73.8589 29.6284 73.4615C29.5029 73.0795 29.4171 72.6982 29.4488 72.3862L29.4611 72.2647L29.5329 72.1662C30.2245 71.2164 32.58 69.1713 36.7377 67.9826C39.7225 67.0046 42.8958 66.196 45.3254 65.8086C46.2284 65.6646 47.039 65.577 47.7044 65.5627ZM46.2473 66.5853C46.8622 67.3451 47.5994 68.2796 48.2182 69.1143C48.6177 69.6531 48.9745 70.1591 49.2174 70.5528C49.3374 70.7471 49.4397 70.9301 49.5042 71.0837C49.5355 71.1582 49.568 71.2491 49.582 71.3436C49.5925 71.4143 49.6144 71.6232 49.4579 71.7978C49.3573 71.9099 49.2322 71.978 49.1306 72.0214C49.0247 72.0667 48.91 72.0995 48.8008 72.1248C48.5956 72.1723 48.3591 72.2045 48.1516 72.2328L48.1515 72.2328L48.1188 72.2372C47.9527 72.2599 47.8083 72.2803 47.6886 72.3036C47.7369 72.3859 47.7965 72.4826 47.8674 72.5944C47.9525 72.7286 48.0536 72.884 48.1647 73.055L48.1651 73.0556L48.1654 73.056C48.3662 73.3649 48.6 73.7245 48.8328 74.1022C49.4718 75.1388 50.1949 76.4516 50.4582 77.6907C50.6504 77.6525 50.8339 77.6165 51.0093 77.5821L51.0098 77.582C51.8826 77.4108 52.5526 77.2794 53.0671 77.1094C53.745 76.8856 53.9879 76.6468 54.0749 76.3045C54.2017 75.8052 54.0756 75 53.71 73.9835C53.3533 72.9914 52.8002 71.8817 52.179 70.8201C51.5585 69.7598 50.8777 68.7602 50.2727 67.9891C49.9699 67.6032 49.6902 67.2797 49.4499 67.0361C49.1998 66.7825 49.0237 66.6481 48.9277 66.6012C48.7456 66.5121 48.3555 66.4495 47.7237 66.4632C47.3021 66.4723 46.8053 66.5139 46.2473 66.5853ZM49.579 77.8708C49.3535 76.8138 48.7131 75.6202 48.0694 74.5759C47.8397 74.2033 47.6214 73.8677 47.4257 73.5669C47.3121 73.3923 47.2062 73.2294 47.1101 73.0779C46.9846 72.88 46.874 72.6981 46.7987 72.5497C46.7616 72.4766 46.7246 72.3954 46.7002 72.3148C46.6838 72.2609 46.6349 72.0947 46.7053 71.9182C46.7781 71.7356 46.9215 71.6337 47.0191 71.58C47.122 71.5234 47.2356 71.4865 47.3363 71.4602C47.5374 71.4077 47.783 71.3741 47.9979 71.3448L48.0109 71.343C48.2291 71.3132 48.4243 71.2866 48.5856 71.2502C48.5501 71.1859 48.5065 71.1115 48.4544 71.027C48.2319 70.6667 47.8935 70.1853 47.4981 69.6519C46.7714 68.6718 45.8746 67.5462 45.2137 66.7395C42.8738 67.1326 39.86 67.9067 37.0082 68.8415L36.9999 68.8442L36.9916 68.8466C33.1609 69.9401 31.0084 71.7667 30.3423 72.5879C30.3525 72.7164 30.3927 72.9113 30.4808 73.1794C30.5945 73.5253 30.7708 73.9443 30.9977 74.4142C31.4509 75.3528 32.0893 76.4612 32.7797 77.5357C33.4699 78.6101 34.2051 79.6396 34.8485 80.422C35.1708 80.8138 35.464 81.1362 35.7124 81.3695C35.9778 81.6188 36.1403 81.7158 36.2037 81.7349C36.2414 81.7463 36.3317 81.7596 36.4968 81.7531C36.655 81.747 36.8552 81.724 37.0967 81.6825C37.5796 81.5996 38.1973 81.4482 38.921 81.2374C40.3666 80.8163 42.2009 80.1681 44.1609 79.3917L44.1682 79.3888L44.1757 79.3862C46.3282 78.6205 48.1242 78.1792 49.579 77.8708Z" fill="#2E0066"/>
<path fill-rule="evenodd" clip-rule="evenodd" d="M9.65395 51.8784C4.50916 46.5212 1.34522 39.2353 1.34522 31.2079C1.34522 14.7541 14.6376 1.41571 31.0345 1.41571C47.4315 1.41571 60.7238 14.7541 60.7238 31.2079C60.7238 40.8181 56.1892 49.3656 49.1499 54.8133C49.2561 55.2924 49.4732 56.213 49.6758 56.9298C51.4129 55.5985 52.6191 54.4335 53.5183 53.4175C54.4086 52.4116 54.9864 51.5705 55.501 50.8213L55.501 50.8212C55.7442 50.4671 55.9734 50.1335 56.2147 49.8128C56.9656 48.815 57.7701 48.0529 59.2979 47.515C61.4382 46.7614 63.5784 47.3879 64.739 49.2706C65.8811 51.1234 65.9999 54.0709 64.453 57.8456C63.8092 59.4168 62.9351 60.8164 61.9495 62.0446C59.3648 65.2653 55.9931 67.3325 53.9003 68.2507C54.0884 68.4631 54.3517 68.7506 54.7061 69.1238C55.4432 69.9002 56.5577 71.0302 58.1702 72.5929C59.8908 74.2605 60.5914 76.5248 60.7858 78.6311C60.8604 79.4404 60.8613 80.234 60.8143 80.9735C61.4895 79.9825 62.2467 79.2928 63.032 78.8788C64.413 78.1507 65.8439 78.3005 66.9161 79.1187C69.0614 80.7558 69.5228 84.7578 66.1852 88.993C62.8266 93.2548 58.8997 94.3781 55.6989 94.3646C52.8214 94.3525 50.5456 93.4234 49.8025 93.0848C45.808 94.7061 41.4242 95.8515 39.5635 96.2598C39.4183 96.4176 39.2699 96.5722 39.1188 96.7232C37.6838 98.1577 35.9217 99.1052 34.3614 99.6941C32.8084 100.28 31.4136 100.527 30.6893 100.527C28.9132 100.527 27.5608 99.5852 26.6139 98.585C25.7696 97.6932 25.2104 96.7142 24.9341 96.2288C23.6608 95.8297 22.5284 95.2527 21.575 94.6399C20.3144 93.8297 19.3535 92.9484 18.7824 92.3114C18.366 92.6151 17.7982 92.9756 17.1569 93.2886C16.3157 93.6992 15.3067 94.0485 14.3257 94.0485H14.3011L14.2766 94.0458C13.3614 93.9449 12.5509 93.4684 11.8417 92.7661C11.1341 92.0654 10.507 91.1207 9.94993 90.0329C8.83594 87.8575 7.96293 85.0312 7.29525 82.2142C6.62632 79.3919 6.15785 76.5542 5.86089 74.3427C5.71235 73.2365 5.60645 72.2849 5.53975 71.5678C5.49374 71.0732 5.46458 70.6727 5.45523 70.4096C2.50177 68.2311 -0.0422094 66.1524 -1.99863 64.1188C-4.06299 61.973 -5.50473 59.8452 -6.06052 57.6689C-6.6223 55.4691 -6.26682 53.2671 -4.83233 51.0225L-4.81731 50.999L-4.79951 50.9775C-3.67748 49.6246 -2.5125 48.9516 -1.33063 48.7968C-0.15715 48.6431 0.956072 49.0108 1.95981 49.5837C2.96235 50.156 3.89192 50.9539 4.71029 51.7147C4.99422 51.9786 5.26151 52.2347 5.51405 52.4766C5.86086 52.8088 6.17985 53.1144 6.47595 53.3772C6.77596 53.0366 7.1634 52.7763 7.5827 52.5694C8.1683 52.2805 8.85583 52.0762 9.54616 51.9049C9.58202 51.896 9.61795 51.8872 9.65395 51.8784ZM59.6191 31.2079C59.6191 38.4395 56.9521 45.0462 52.5513 50.0914C52.5446 50.0765 52.5379 50.0615 52.5312 50.0464C52.5203 50.0218 52.5093 49.9969 52.4983 49.9718C52.2954 49.5109 52.0564 48.9681 51.472 48.858C51.3801 48.7308 51.2744 48.6133 51.1617 48.506C51.8435 48.1322 52.3344 47.7938 52.6497 47.4675C52.8779 47.2314 53.062 46.9535 53.1176 46.6256C53.1763 46.2793 53.0757 45.9762 52.9215 45.7351C52.7764 45.5083 52.5735 45.3185 52.3792 45.16C52.1815 44.9988 51.9517 44.8379 51.7288 44.6823L51.7167 44.6739C51.2588 44.3543 50.7935 44.0295 50.3964 43.6233C49.7892 43.0024 49.2831 41.8768 48.9039 40.6295C48.5835 39.5756 48.3751 38.5087 48.267 37.748C49.7185 36.5449 50.8253 34.8117 51.6259 32.8686C52.4805 30.7942 53.0028 28.441 53.2168 26.1387C53.4307 23.8373 53.3388 21.5618 52.9474 19.6403C52.5612 17.7438 51.8618 16.0876 50.7726 15.1464C49.5825 14.1181 48.0653 14.23 46.6122 14.8213C45.1565 15.4138 43.6056 16.5419 42.1378 17.8351C39.4041 20.2435 36.8184 23.3512 35.4586 25.1123C34.0052 24.5484 32.4141 24.3584 31.0029 24.3479C29.6908 24.3381 28.5006 24.4834 27.6663 24.6503C24.2954 19.3597 21.5319 16.5562 19.3762 15.0742C17.1439 13.5396 15.5828 13.4365 14.7399 13.4365C14.1183 13.4365 13.5198 13.8238 13.018 14.3356C12.4956 14.8684 11.9834 15.63 11.5328 16.5866C10.6297 18.5039 9.9413 21.273 9.9413 24.7644C9.9413 31.3928 13.4001 35.472 14.1829 36.3072C14.181 36.3153 14.179 36.324 14.1766 36.3335C14.1331 36.5072 14.0361 36.7528 13.8896 37.0907C13.8479 37.1871 13.8028 37.2891 13.7556 37.3962C13.4885 38.0015 13.1505 38.7675 12.9324 39.5647C12.4984 41.1514 11.2349 42.658 9.79421 43.5254C9.35981 43.7869 9.00864 44.0944 8.81911 44.473C8.61086 44.8889 8.63413 45.3176 8.81798 45.6941C8.98625 46.0387 9.27709 46.3202 9.58326 46.5483C9.84302 46.7418 10.1464 46.9208 10.4704 47.0855C10.4548 47.0946 10.4384 47.1041 10.4215 47.1139L10.4065 47.1226C10.3308 47.1663 10.2444 47.2162 10.1573 47.2694C9.52719 47.5582 8.87409 48.1828 9.35442 49.2564C9.70206 50.0333 10.654 50.8095 11.6204 51.4267L11.6164 51.4277C11.3896 51.483 11.1575 51.5361 10.9212 51.5892C5.69026 46.3908 2.44994 39.1791 2.44994 31.2079C2.44994 15.3663 15.2477 2.52426 31.0345 2.52426C46.8213 2.52426 59.6191 15.3663 59.6191 31.2079ZM13.5662 52.4781L12.772 53.275C12.4067 52.9702 12.049 52.6564 11.6994 52.334C11.7426 52.3237 11.7857 52.3133 11.8287 52.3028C12.1286 52.2296 12.4266 52.1508 12.7138 52.062C13.035 52.2319 13.3284 52.3731 13.5662 52.4781ZM21.904 57.0571C20.9726 56.5289 19.706 55.8104 18.3561 54.9592C25.4612 58.5579 32.0824 58.6925 37.495 57.5307C39.7004 57.0573 41.7014 56.3694 43.4486 55.6187C41.2104 56.8199 38.6386 57.9205 35.9022 58.6097C35.8677 58.9561 28.3072 59.8222 23.4396 58.0208C23.4633 57.9416 22.8604 57.5996 21.904 57.0571ZM50.2366 49.3475C47.0034 51.6034 40.1212 56.3233 30.5512 56.3233C22.9278 56.3233 14.6804 50.8858 11.326 48.0228C11.412 47.9671 11.5006 47.9048 11.5817 47.837C11.6976 47.7401 11.8688 47.5753 11.9526 47.336C12.0569 47.0385 11.9905 46.7373 11.8072 46.5019C11.6538 46.3048 11.4315 46.1669 11.2101 46.0608C10.8512 45.8889 10.5509 45.716 10.3242 45.547C10.0898 45.3724 9.9772 45.2338 9.93401 45.1454C9.90641 45.0889 9.91027 45.0715 9.92965 45.0328C9.96775 44.9567 10.0913 44.8009 10.4336 44.5947C12.1 43.5915 13.5983 41.8417 14.1309 39.8949C14.3222 39.1956 14.6166 38.5271 14.8844 37.9189C14.9339 37.8065 14.9824 37.6963 15.0292 37.5883C15.1718 37.2594 15.31 36.9247 15.382 36.6373C15.4181 36.493 15.4479 36.322 15.4371 36.1473C15.4258 35.9665 15.3668 35.7357 15.1793 35.5475C14.8523 35.2194 11.1841 31.3509 11.1841 24.7644C11.1841 21.4314 11.8421 18.8483 12.6564 17.1195C13.0646 16.2531 13.5039 15.6182 13.9039 15.2102C14.3245 14.7813 14.6193 14.6836 14.7399 14.6836C15.3815 14.6836 16.6857 14.7363 18.6738 16.1031C20.6887 17.4882 23.4225 20.2353 26.8496 25.6861L27.0887 26.0663L27.5237 25.9588C28.2445 25.7807 29.5325 25.5841 30.9937 25.595C32.4578 25.6059 34.0483 25.8249 35.4042 26.441L35.8561 26.6464L36.1558 26.2496C37.3879 24.6183 40.1033 21.2871 42.9577 18.7723C44.3898 17.5106 45.8164 16.491 47.0793 15.977C48.3449 15.462 49.2875 15.5089 49.9616 16.0915C50.7366 16.7611 51.362 18.0841 51.7298 19.89C52.0925 21.6709 52.184 23.8209 51.9794 26.0229C51.7748 28.2242 51.2765 30.4524 50.4773 32.3921C49.6761 34.3369 48.5889 35.9524 47.231 36.9803L46.9468 37.1955L46.9881 37.5504C47.0839 38.3733 47.3185 39.6888 47.7152 40.9935C48.1046 42.2744 48.6803 43.6489 49.5092 44.4968C49.9893 44.9877 50.5374 45.37 50.9754 45.6756L51.0191 45.7061C51.2496 45.867 51.4401 46.0012 51.5953 46.1278C51.7539 46.2572 51.8367 46.348 51.8756 46.4088C51.8809 46.4171 51.8847 46.4236 51.8873 46.4286C51.8764 46.4528 51.8446 46.5091 51.7575 46.5993C51.4816 46.8849 50.8717 47.2878 49.6963 47.8568C49.4801 47.9615 49.36 48.168 49.3428 48.3722C49.3245 48.5883 49.4233 48.8588 49.6917 48.9909C49.8842 49.0857 50.0791 49.2119 50.2366 49.3475ZM10.4003 52.6286C10.1847 52.6775 9.97139 52.7272 9.76165 52.7793C9.08748 52.9466 8.47568 53.1325 7.97877 53.3777C7.64052 53.5446 7.37391 53.73 7.1791 53.9399C7.38579 54.088 7.64657 54.2683 7.94617 54.4754L7.94842 54.4769L7.94922 54.4775L7.96448 54.488C8.12728 54.6006 8.30134 54.7209 8.48424 54.8482C9.17585 55.3297 9.97277 55.8966 10.6903 56.4717C10.924 56.4508 11.2298 56.4622 11.5665 56.5128C11.8981 56.5626 12.2811 56.6536 12.6887 56.8049L12.8619 54.7689C12.0026 54.1005 11.1808 53.3858 10.4003 52.6286ZM13.7088 55.4037L13.5297 57.5088L13.4375 58.4026C13.6537 58.8784 14.1882 59.568 15.1971 60.3295C16.2667 61.1368 17.844 62.005 20.0635 62.7666C22.6028 63.6379 25.9765 64.3675 30.3786 64.708C34.043 64.9915 38.3853 64.1683 41.9922 62.7593C43.7935 62.0556 45.395 61.2122 46.6277 60.3015C47.8059 59.4312 48.6072 58.5291 48.9587 57.6645C48.7558 57.0332 48.5154 56.0578 48.363 55.4017C43.4867 58.9248 37.5021 61 31.0345 61C24.5681 61 18.5846 58.9256 13.7088 55.4037ZM10.8192 46.8481C10.8192 46.8481 10.8185 46.8489 10.817 46.8506C10.8183 46.8489 10.8192 46.8481 10.8192 46.8481ZM49.4442 58.6833C48.9335 59.5182 48.1344 60.3069 47.1599 61.0268C45.8477 61.9962 44.1716 62.8745 42.3179 63.5986C38.6147 65.0452 34.1365 65.9021 30.3096 65.6061C26.2079 65.2887 22.9622 64.6365 20.4274 63.8344C21.4118 75.5719 17.5082 81.3254 14.8283 83.7694C15.1338 84.8056 16.3139 87.4831 19.2049 91.4196C19.5809 91.8966 20.3822 92.7106 21.5154 93.5142C21.9533 91.6576 22.9269 89.128 24.5982 86.8383C26.4366 84.3198 29.1376 82.0687 32.9139 81.3577C32.4482 80.3529 31.8048 79.3964 30.9662 78.7189C30.1964 78.0969 29.2624 77.7089 28.1306 77.7252C26.9913 77.7416 24.924 78.1478 22.1622 80.5728C22.1622 80.5728 22.5765 79.291 23.47 78.4985C24.3635 77.706 26.7612 76.8442 28.1177 76.8246C29.4817 76.805 30.6152 77.2789 31.5291 78.0174C33.1569 79.3325 34.0877 81.4819 34.5013 83.2165C35.6851 82.7554 36.9942 82.5424 38.2279 82.8745L38.2481 82.8799L38.2677 82.8872C39.9388 83.5091 41.1268 84.3871 41.8898 85.4472C42.6543 86.5093 42.9693 87.7228 42.9459 88.9728C42.9069 91.0513 41.9351 93.2404 40.5242 95.109C42.7134 94.5668 46.3216 93.5398 49.6211 92.1865C54.1653 89.6765 56.4069 85.9761 57.3714 82.3599C58.3237 78.7894 58.0286 75.3038 57.4578 73.1546C55.8866 71.6301 54.7904 70.5184 54.0562 69.7451C53.4264 69.0817 53.0504 68.6545 52.8716 68.4266C52.7804 68.3745 52.7012 68.3092 52.6361 68.2479C52.5306 68.1486 52.428 68.0269 52.3309 67.895C52.1363 67.6306 51.9404 67.2929 51.7661 66.9279C51.4233 66.2099 51.1266 65.3071 51.1266 64.5681C51.1266 63.4528 50.7896 62.1126 50.3497 60.8673C50.0605 60.0484 49.7329 59.2876 49.4442 58.6833ZM53.2199 67.5611C55.0476 66.8196 58.2572 64.9616 60.8165 62.0005C56.0092 60.4562 54.0767 56.9773 53.5533 54.7047C52.6588 55.6346 51.5203 56.6644 50.0117 57.8046C50.3634 58.4909 50.8119 59.4798 51.1957 60.5664C51.6477 61.8458 52.0242 63.3001 52.0242 64.5681C52.0242 65.111 52.2568 65.8709 52.5756 66.5387C52.7321 66.8665 52.9002 67.1523 53.053 67.3599C53.1157 67.4452 53.172 67.5119 53.2199 67.5611ZM56.2821 51.2733L56.2822 51.2732C56.5148 50.9351 56.7261 50.6279 56.931 50.3556C57.6027 49.463 58.2723 48.8306 59.5951 48.3649C61.3903 47.7328 63.0648 48.2668 63.9756 49.7444C64.9049 51.2519 65.114 53.8645 63.6229 57.5031C63.0561 58.8862 62.2972 60.1346 61.4333 61.2478C56.1744 59.7122 54.5288 55.7773 54.3179 53.8691C55.1748 52.8829 55.7785 52.0053 56.2821 51.2733ZM58.6819 74.6887C59.0026 76.8791 59.0079 79.7079 58.2385 82.5928C57.4744 85.4574 55.9451 88.379 53.2073 90.7764C53.9697 90.3853 54.6902 90.0061 55.2002 89.7183C54.194 90.9299 52.693 91.8104 51.3381 92.1991C51.1673 92.3119 50.9929 92.423 50.8149 92.5323C51.8128 92.9154 53.5864 93.455 55.7027 93.4639C58.6641 93.4764 62.3149 92.4519 65.4811 88.4343C68.6682 84.3901 67.9386 81.0305 66.3727 79.8357C65.5894 79.2379 64.5346 79.104 63.4494 79.6761C62.3489 80.2563 61.6804 80.9131 60.8143 83.3095C60.8143 83.3095 60.4887 83.9504 60.0679 84.4873C59.6471 85.0243 59.1013 85.3534 59.1013 85.3534C59.7227 83.1709 60.075 80.697 59.892 78.7142C59.7637 77.3237 59.4052 75.9126 58.6819 74.6887ZM33.6663 83.5909C33.5685 83.1494 33.4351 82.6813 33.2642 82.2096C29.6717 82.8285 27.0947 84.9423 25.3223 87.3705C23.6292 89.6901 22.6879 92.2748 22.3171 94.0434C23.1307 94.542 24.0653 95.0016 25.0959 95.3353C25.2821 94.7157 25.6699 93.8513 25.9942 93.3903C25.8736 93.8574 25.7167 94.8727 25.8081 95.947C26.1003 96.4533 26.579 97.2404 27.2647 97.9647C28.1216 98.8698 29.2547 99.6259 30.6893 99.6259C31.2731 99.6259 32.5576 99.4127 34.0454 98.8511C35.5259 98.2923 37.1661 97.4038 38.4853 96.0851C38.6598 95.9108 38.8304 95.7313 38.9965 95.5474C40.7766 93.5772 42.0075 91.1401 42.0484 88.9559C42.0687 87.8739 41.7979 86.8579 41.1622 85.9746C40.5278 85.0931 39.5073 84.3126 37.9755 83.7392C36.8449 83.4417 35.5645 83.6986 34.3637 84.253C32.8963 84.9305 31.6457 86.0076 31.0685 86.8419C31.0687 86.8423 31.0689 86.8426 31.069 86.843C30.9284 87.0133 30.7839 87.1823 30.6398 87.3499C29.9615 88.1391 29.6322 88.5222 28.7906 90.6189C28.7104 89.9638 28.9335 88.1965 30.3247 86.3489L30.3195 86.3453C30.9526 85.4213 32.2058 84.3317 33.6663 83.5909ZM18.2268 91.6031C15.7649 88.1964 14.5515 85.7029 14.0874 84.3904C13.571 84.7859 13.1412 85.0371 12.8619 85.1709L11.9709 85.5976L12.2363 84.6434C12.395 84.0729 12.5457 83.3521 12.6895 82.6282C12.7219 82.4655 12.7539 82.3024 12.7856 82.1411L12.7857 82.1404C12.8828 81.6462 12.9766 81.1687 13.0658 80.7702C12.6464 79.507 12.3542 77.8155 12.2049 76.3193C12.1275 75.5434 12.0875 74.8094 12.0893 74.2028C12.0904 73.8567 12.1047 73.5299 12.1401 73.2536C10.2913 72.7994 8.8525 72.279 7.79065 71.8009C7.2262 71.5467 6.76252 71.3019 6.39814 71.0822C6.40818 71.2045 6.41991 71.3386 6.43345 71.4841C6.4989 72.1878 6.60337 73.1272 6.75043 74.2224C7.04466 76.4136 7.50831 79.2204 8.16848 82.0058C8.82992 84.7965 9.68303 87.541 10.7483 89.6212C11.2808 90.6612 11.8566 91.5154 12.4722 92.125C13.0786 92.7255 13.7036 93.0697 14.3505 93.1477C15.1304 93.1418 15.9872 92.858 16.7643 92.4787C17.3424 92.1965 17.8542 91.8725 18.2268 91.6031ZM13.4885 78.8336C14.6645 73.0391 14.6369 68.9754 13.9796 65.7892C13.2623 62.3115 11.7891 59.8411 10.2196 57.2475C9.50561 56.6689 8.69179 56.0889 7.97265 55.5883C7.79902 55.4675 7.62941 55.3502 7.46751 55.2383L7.46673 55.2378L7.46561 55.237C7.20148 55.0545 6.95792 54.8861 6.75101 54.7394C6.23601 55.9044 5.35439 57.5211 4.14051 59.1465C2.83484 60.8948 1.12772 62.676 -0.9445 63.9097C0.944035 65.8004 3.35803 67.7523 6.16734 69.8168L6.18742 69.8316L6.20574 69.8485C6.43624 70.0609 7.06287 70.486 8.15812 70.9791C9.09239 71.3998 10.3513 71.8626 11.9624 72.28C12.4914 72.4171 12.9742 72.681 13.4281 72.9862C13.6685 73.1478 14.0495 73.4019 14.0495 73.4019L12.9869 73.5058C12.9565 73.5912 12.9588 73.6166 12.9675 73.7098C12.9751 73.7923 12.9877 73.9279 12.9869 74.2055C12.9852 74.7741 13.0229 75.4764 13.0981 76.2296C13.1834 77.0852 13.3156 77.9929 13.4885 78.8336ZM-1.58958 63.2442C-3.47304 61.2389 -4.71068 59.3263 -5.19104 57.4453C-5.68337 55.5175 -5.3919 53.5779 -4.0918 51.5323C-3.07987 50.3197 -2.11057 49.8073 -1.21448 49.6899C-0.304745 49.5708 0.608068 49.8484 1.51601 50.3666C2.42515 50.8856 3.2929 51.6249 4.10032 52.3754C4.35543 52.6126 4.60777 52.8542 4.85373 53.0897L4.8545 53.0904L4.85474 53.0907C5.26606 53.4845 5.65953 53.8613 6.01828 54.1715C5.54914 55.2792 4.67036 56.9352 3.42224 58.6064C2.11869 60.3518 0.430435 62.0895 -1.58958 63.2442ZM11.3566 57.3927C12.7955 59.7875 14.166 62.2489 14.8586 65.6066C15.6167 69.2818 15.5567 73.9923 13.9688 80.8479C13.8748 81.2535 13.7755 81.7593 13.6686 82.3035L13.6685 82.3037L13.6682 82.3054C13.6361 82.4688 13.6033 82.6357 13.5698 82.8044C13.5033 83.1388 13.4341 83.4796 13.3621 83.8093C13.5659 83.6612 13.7911 83.484 14.0317 83.2747C16.5024 81.1252 20.6098 75.5763 19.4989 63.5231C17.3481 62.7593 15.7696 61.8886 14.6576 61.0493C13.5076 60.1813 12.8298 59.3262 12.5611 58.6347L12.5217 58.5332L12.6035 57.74C12.1729 57.5558 11.7682 57.4538 11.4335 57.4035C11.4073 57.3996 11.3816 57.396 11.3566 57.3927Z" fill="#2E0066"/>
<path opacity="0.5" d="M56.5417 32.9143C46.6338 12.3023 35.483 10.7434 35.7592 9.04596C32.7903 5.52038 41.697 3.6418 50.7419 14.173C59.7868 24.7042 57.819 35.3046 56.5417 32.9143Z" fill="white"/>
</g>
</svg>
