<svg width="24" height="24" viewBox="0 0 24 24" fill="none" xmlns="http://www.w3.org/2000/svg">
<path d="M5.89029 8.75702C6.2143 3.2669 12.4154 1.57936 15.4755 1.42186C12.2129 4.66193 15.4755 7.76699 17.253 8.50951C19.0306 9.25203 20.4481 10.4671 19.9756 12.4471C19.5976 14.0311 18.003 13.9771 17.253 13.7521C19.9081 14.5696 23.5982 17.4647 21.9331 20.0073C19.1802 24.2111 8.72535 23.9898 3.66274 22.1448C-1.39987 20.2998 1.5702 16.4522 2.83022 15.2822C1.7052 9.76954 3.61774 9.72454 5.89029 8.75702Z" fill="#825C3C"/>
<path d="M8.20813 9.61201C8.10013 6.26394 11.7932 3.05687 13.6532 1.87184C9.06315 2.72686 6.5431 5.89943 6.18309 9.207C5.40307 9.147 3.66754 9.522 2.96552 11.502C2.26351 13.4821 3.34803 14.6521 3.97804 14.9896C-0.0720416 16.8797 1.45049 20.1572 2.71802 21.5598L9.64817 23.1798C7.71312 22.6848 3.84304 21.0828 3.84304 18.6347C3.84304 16.1866 5.64308 15.3946 6.5431 15.3046L5.35058 14.9896C3.64054 11.322 6.61059 10.1745 8.20813 9.61201Z" fill="#926747"/>
<path d="M13.3652 7.02446C12.3031 4.91842 13.0576 2.74187 13.5677 1.91685C14.3252 1.69185 15.7637 1.37684 15.4577 1.91685C13.3427 5.80943 15.3227 7.51947 18.4278 9.40951C21.5328 11.2996 18.5178 13.7071 19.4178 14.3146C20.3178 14.9221 22.2753 16.0472 21.9153 18.9497C21.6273 21.2718 18.4053 22.6623 16.8302 23.0673C17.7678 22.3773 19.6428 20.4752 19.6428 18.3872C19.6428 16.2992 18.0828 14.8021 17.3027 14.3146C17.4827 14.3071 17.8698 14.1301 17.9778 13.4821C18.5628 10.467 14.6927 9.65702 13.3652 7.02446Z" fill="#6B4B32"/>
<path d="M9.40789 15.1921C9.92981 15.1921 10.3529 14.6985 10.3529 14.0896C10.3529 13.4807 9.92981 12.9871 9.40789 12.9871C8.88597 12.9871 8.46287 13.4807 8.46287 14.0896C8.46287 14.6985 8.88597 15.1921 9.40789 15.1921Z" fill="black"/>
<path d="M14.673 14.0896C14.673 14.6985 14.2499 15.1921 13.728 15.1921C13.2061 15.1921 12.783 14.6985 12.783 14.0896C12.783 13.4807 13.2061 12.9871 13.728 12.9871C14.2499 12.9871 14.673 13.4807 14.673 14.0896Z" fill="black"/>
<path d="M14.0279 18.3189C14.3257 18.116 14.4026 17.7101 14.1997 17.4123C13.9968 17.1145 13.5909 17.0375 13.2931 17.2404C11.9434 18.16 10.4614 17.6999 9.90738 17.359C9.60047 17.1701 9.19855 17.2658 9.00968 17.5727C8.82081 17.8796 8.9165 18.2815 9.22342 18.4704C10.0344 18.9695 12.1015 19.6314 14.0279 18.3189Z" fill="black"/>
<path fill-rule="evenodd" clip-rule="evenodd" d="M16.5584 0.64143C15.6986 0.393868 14.5521 0.480559 13.3977 0.756457C12.2152 1.03908 10.9134 1.54693 9.69475 2.25364C7.42266 3.57129 5.24163 5.7078 4.94051 8.54916C4.47672 8.63761 4.02082 8.78916 3.59831 9.0172C2.71913 9.4917 2.01136 10.2863 1.71479 11.4374C1.45853 12.4321 1.52463 13.6305 1.95502 15.0402C1.55944 15.2822 1.19573 15.6009 0.897592 16.0149C0.403728 16.7007 0.137695 17.5813 0.137695 18.6572C0.137695 20.0941 0.74414 21.188 1.68781 21.9743C2.59941 22.7339 3.80064 23.1893 5.01354 23.4729C7.26479 23.9994 9.84358 23.9938 11.4088 23.9903C11.5279 23.9901 11.6412 23.9898 11.7479 23.9898C13.3063 23.9898 16.0361 23.8895 18.3836 23.2458C19.5543 22.9248 20.7032 22.4496 21.5643 21.725C22.4537 20.9766 23.0413 19.9517 22.9977 18.6298C22.922 16.3332 21.7784 14.9306 20.5122 14.0961C20.7324 13.724 20.8933 13.276 20.9723 12.8117C21.1239 11.9195 21.0016 10.8351 20.3211 9.78829C19.9467 9.21236 19.3843 8.87621 18.9002 8.59949C18.8272 8.55778 18.7539 8.51639 18.6801 8.47474C18.2327 8.22204 17.7683 7.95972 17.2542 7.55983C15.2809 6.02504 15.0314 4.83873 15.1705 4.09696C15.326 3.2676 16.0343 2.56451 16.7323 2.17763C17.0257 2.01503 17.1858 1.69979 17.1612 1.38121C17.1358 1.05144 16.9116 0.743124 16.5584 0.64143ZM6.69016 14.5883C5.86671 14.3766 4.6718 14.2363 3.51821 14.4565C3.17733 13.2962 3.17318 12.4506 3.32718 11.8528C3.49961 11.1835 3.88733 10.7533 4.38912 10.4825C4.91164 10.2004 5.58187 10.0822 6.27245 10.1241C6.96422 10.1661 7.60543 10.3647 8.05098 10.6372C8.44321 10.8771 8.95567 10.7536 9.19558 10.3614C9.43549 9.96918 9.312 9.45673 8.91977 9.21682C8.27284 8.82112 7.46062 8.56824 6.62931 8.48303C6.94826 6.51708 8.52666 4.85582 10.5301 3.694C11.6107 3.06732 12.7617 2.62039 13.7847 2.37588C13.9171 2.34425 14.0457 2.31639 14.1702 2.29213C13.8725 2.72373 13.6401 3.22426 13.534 3.79012C13.2339 5.39032 14.0012 7.1391 16.2319 8.87413C16.8501 9.3549 17.4248 9.67879 17.8727 9.93118C17.943 9.9708 18.0102 10.0087 18.0739 10.0451C18.5754 10.3317 18.7959 10.497 18.9251 10.6958C19.3552 11.3573 19.4196 12.0102 19.3308 12.5327C19.2857 12.798 19.2016 13.0244 19.1098 13.194C19.0768 13.255 19.0443 13.3058 19.0146 13.3465C18.3925 13.1126 17.8425 12.9828 17.5148 12.9055C17.4336 12.8863 17.3656 12.8703 17.314 12.8567C16.8692 12.7403 16.4142 13.0064 16.2977 13.4512C16.1812 13.896 16.4473 14.351 16.8921 14.4675C16.9709 14.4881 17.061 14.5098 17.1605 14.5338C17.7427 14.6743 18.6477 14.8926 19.4972 15.423C20.4404 16.0119 21.277 16.9664 21.3336 18.6846C21.3575 19.4102 21.062 19.9716 20.4923 20.4509C19.8945 20.954 19.0085 21.3479 17.9432 21.64C15.8187 22.2226 13.2721 22.3248 11.7479 22.3248C11.6451 22.3248 11.5379 22.325 11.4268 22.3251C9.83868 22.3277 7.44476 22.3315 5.39269 21.8516C4.29648 21.5953 3.38126 21.2181 2.75368 20.6952C2.15818 20.199 1.80273 19.5604 1.80273 18.6572C1.80273 17.8611 1.99608 17.3388 2.24872 16.988C2.50283 16.6351 2.86522 16.3889 3.31535 16.2295C4.24962 15.8986 5.44446 15.9872 6.2755 16.2009C6.7208 16.3154 7.17461 16.0473 7.28912 15.602C7.40362 15.1567 7.13546 14.7029 6.69016 14.5883Z" fill="black"/>
</svg>
