<svg width="142" height="64" viewBox="0 0 142 64" fill="none" xmlns="http://www.w3.org/2000/svg">
<g filter="url(#filter0_d)">
<rect width="138" height="60" rx="8" transform="matrix(-1 0 0 1 140 0)" fill="white"/>
</g>
<path d="M35.836 37C35.716 37 35.614 36.958 35.53 36.874C35.446 36.79 35.404 36.688 35.404 36.568V24.85C35.404 24.718 35.44 24.61 35.512 24.526C35.596 24.442 35.704 24.4 35.836 24.4H41.056C42.46 24.4 43.504 24.712 44.188 25.336C44.884 25.948 45.232 26.788 45.232 27.856C45.232 28.48 45.076 29.014 44.764 29.458C44.464 29.89 44.11 30.202 43.702 30.394C44.206 30.622 44.626 30.994 44.962 31.51C45.31 32.026 45.484 32.614 45.484 33.274C45.484 34.39 45.106 35.29 44.35 35.974C43.606 36.658 42.556 37 41.2 37H35.836ZM40.732 29.566C41.356 29.566 41.83 29.416 42.154 29.116C42.478 28.816 42.64 28.414 42.64 27.91C42.64 27.394 42.478 26.998 42.154 26.722C41.83 26.434 41.356 26.29 40.732 26.29H37.906V29.566H40.732ZM40.912 35.092C41.536 35.092 42.022 34.924 42.37 34.588C42.718 34.24 42.892 33.802 42.892 33.274C42.892 32.734 42.718 32.296 42.37 31.96C42.022 31.612 41.536 31.438 40.912 31.438H37.906V35.092H40.912ZM51.0018 37.18C49.8978 37.18 49.0278 36.82 48.3918 36.1C47.7558 35.368 47.4378 34.378 47.4378 33.13V28.072C47.4378 27.952 47.4798 27.85 47.5638 27.766C47.6478 27.682 47.7498 27.64 47.8698 27.64H49.4538C49.5858 27.64 49.6878 27.682 49.7598 27.766C49.8438 27.838 49.8858 27.94 49.8858 28.072V33.022C49.8858 34.51 50.5398 35.254 51.8478 35.254C52.4718 35.254 52.9638 35.056 53.3238 34.66C53.6958 34.264 53.8818 33.718 53.8818 33.022V28.072C53.8818 27.952 53.9238 27.85 54.0078 27.766C54.0918 27.682 54.1938 27.64 54.3138 27.64H55.8978C56.0298 27.64 56.1318 27.682 56.2038 27.766C56.2878 27.838 56.3298 27.94 56.3298 28.072V36.568C56.3298 36.688 56.2878 36.79 56.2038 36.874C56.1318 36.958 56.0298 37 55.8978 37H54.4398C54.3198 37 54.2178 36.958 54.1338 36.874C54.0498 36.79 54.0078 36.688 54.0078 36.568V35.83C53.3358 36.73 52.3338 37.18 51.0018 37.18ZM60.3995 40.42C60.3035 40.42 60.2195 40.384 60.1475 40.312C60.0755 40.24 60.0395 40.156 60.0395 40.06C60.0395 39.952 60.0635 39.856 60.1115 39.772L61.5155 36.442L58.0595 28.288C58.0115 28.18 57.9875 28.096 57.9875 28.036C57.9995 27.928 58.0415 27.838 58.1135 27.766C58.1855 27.682 58.2755 27.64 58.3835 27.64H59.8415C60.0695 27.64 60.2315 27.754 60.3275 27.982L62.7215 33.868L65.1875 27.982C65.2835 27.754 65.4455 27.64 65.6735 27.64H67.1135C67.2095 27.64 67.2935 27.676 67.3655 27.748C67.4495 27.82 67.4915 27.904 67.4915 28C67.4915 28.084 67.4675 28.18 67.4195 28.288L62.3255 40.078C62.2175 40.306 62.0495 40.42 61.8215 40.42H60.3995Z" fill="black"/>
<path fill-rule="evenodd" clip-rule="evenodd" d="M88.3155 21.75C87.9369 19.8 89.4511 18 91.4196 18C93.1609 18 94.5994 19.425 94.5994 21.15V25.05C95.0536 25.05 95.5079 24.975 95.9621 24.975C96.4164 24.975 96.795 24.975 97.2492 25.05V21.15C97.2492 19.425 98.6877 18 100.429 18C102.397 18 103.912 19.8 103.609 21.75L102.776 26.325C105.729 27.6 108 29.85 108 32.625V34.35C108 36.675 106.486 38.625 104.29 39.9C102.095 41.25 99.2177 42 95.9621 42C92.7066 42 89.8297 41.25 87.6341 39.9C85.5142 38.625 84 36.675 84 34.35V32.625C84 29.85 86.1956 27.6 89.1483 26.325L88.3155 21.75ZM101.64 26.925L102.625 21.525C102.852 20.175 101.868 18.9 100.429 18.9C99.2177 18.9 98.2334 19.875 98.2334 21.075V26.025C97.9306 25.95 97.5521 25.95 97.2492 25.95C96.795 25.95 96.4164 25.875 95.9621 25.875C95.5079 25.875 95.0536 25.875 94.5994 25.95C94.2965 25.95 93.918 26.025 93.6151 26.025V21.15C93.6151 19.95 92.6309 18.975 91.4196 18.975C90.0568 18.975 88.9968 20.25 89.2997 21.6L90.2839 27C87.1041 28.2 84.9842 30.3 84.9842 32.7V34.425C84.9842 38.1 89.9054 41.1 95.9621 41.1C102.019 41.1 106.94 38.1 106.94 34.425V32.7C107.016 30.225 104.896 28.125 101.64 26.925Z" fill="#633001"/>
<path d="M107.016 34.35C107.016 38.025 102.095 41.025 96.0379 41.025C89.9811 41.025 85.0599 38.025 85.0599 34.35V32.625H107.091V34.35H107.016Z" fill="#FEDC90"/>
<path fill-rule="evenodd" clip-rule="evenodd" d="M89.2997 21.6001C88.9968 20.2501 90.0568 18.9751 91.4196 18.9751C92.6309 18.9751 93.6151 19.9501 93.6151 21.1501V26.1001C94.3722 26.0251 95.1293 25.9501 95.9621 25.9501C96.7192 25.9501 97.4763 26.0251 98.2334 26.1001V21.1501C98.2334 19.9501 99.2177 18.9751 100.429 18.9751C101.792 18.9751 102.852 20.2501 102.625 21.6001L101.64 27.0001C104.82 28.2001 107.016 30.3001 107.016 32.7001C107.016 36.3751 102.095 39.3751 96.0379 39.3751C89.9811 39.3751 85.0599 36.3751 85.0599 32.7001C85.0599 30.3001 87.1798 28.2001 90.3596 27.0001L89.2997 21.6001Z" fill="#D1884F"/>
<path d="M92.9338 32.175C92.9338 33.15 92.4038 33.975 91.7224 33.975C91.041 33.975 90.511 33.15 90.511 32.175C90.511 31.2 91.041 30.375 91.7224 30.375C92.4038 30.375 92.9338 31.2 92.9338 32.175Z" fill="#633001"/>
<path d="M101.338 32.175C101.338 33.15 100.808 33.975 100.126 33.975C99.4448 33.975 98.9148 33.15 98.9148 32.175C98.9148 31.2 99.4448 30.375 100.126 30.375C100.808 30.375 101.338 31.2 101.338 32.175Z" fill="#633001"/>
<defs>
<filter id="filter0_d" x="0" y="0" width="142" height="64" filterUnits="userSpaceOnUse" color-interpolation-filters="sRGB">
<feFlood flood-opacity="0" result="BackgroundImageFix"/>
<feColorMatrix in="SourceAlpha" type="matrix" values="0 0 0 0 0 0 0 0 0 0 0 0 0 0 0 0 0 0 127 0"/>
<feOffset dy="2"/>
<feGaussianBlur stdDeviation="1"/>
<feColorMatrix type="matrix" values="0 0 0 0 0 0 0 0 0 0 0 0 0 0 0 0 0 0 0.15 0"/>
<feBlend mode="normal" in2="BackgroundImageFix" result="effect1_dropShadow"/>
<feBlend mode="normal" in="SourceGraphic" in2="effect1_dropShadow" result="shape"/>
</filter>
</defs>
</svg>
