<svg width="266" height="416" viewBox="0 0 266 416" fill="none" xmlns="http://www.w3.org/2000/svg">
<path d="M141.883 318.39L140.69 318.944L140.263 320.188C137.183 329.161 136.172 350.164 156.706 362.501C165.517 367.794 171.425 375.511 175.282 382.014C177.203 385.253 178.594 388.155 179.581 390.273C179.687 390.5 179.791 390.724 179.892 390.942C180.244 391.701 180.561 392.384 180.815 392.885C180.971 393.193 181.18 393.586 181.42 393.926C181.528 394.079 181.762 394.398 182.123 394.694C182.388 394.911 183.472 395.733 184.986 395.327C185.89 395.085 186.442 394.517 186.721 394.134C186.993 393.762 187.128 393.409 187.193 393.212C187.322 392.82 187.362 392.462 187.38 392.277C187.418 391.864 187.414 391.397 187.402 390.983C187.379 390.176 187.306 389.071 187.224 387.82L187.207 387.56C187.025 384.783 186.788 381.047 186.786 376.922C186.782 368.479 187.782 359.192 191.591 353.305C197.589 344.036 197.88 333.997 195.821 325.759C193.802 317.68 189.385 310.816 185.215 307.88C183.898 306.953 182.308 306.603 180.865 306.485C179.377 306.364 177.724 306.465 176.022 306.695C172.614 307.158 168.606 308.198 164.539 309.483C156.383 312.059 147.543 315.764 141.883 318.39Z" stroke="white" stroke-width="6.17436"/>
<path d="M201.709 237.731L200.097 238.352L199.783 240.051L192.627 278.841L191.698 283.877L196.585 282.348C200.66 281.072 203.532 281.217 205.693 282.093C207.875 282.978 209.811 284.802 211.625 287.821C213.45 290.86 215.014 294.882 216.535 299.802C217.863 304.096 219.112 308.915 220.477 314.181C220.673 314.936 220.871 315.701 221.072 316.475C222.266 321.066 228.629 321.843 230.686 317.341C243.922 288.37 242.19 266.54 236.125 250.704C232.677 241.7 226.239 237.439 219.486 236.03C212.932 234.663 206.227 235.989 201.709 237.731Z" fill="white" stroke="white" stroke-width="6.17436"/>
<path d="M197.531 281.078C207.8 248.021 212.182 209.85 197.341 154.462C188.96 123.183 175.77 97.4923 161.18 77.2267C146.129 56.3197 129.572 41.1643 115.233 31.5981C108.069 26.8182 101.402 23.3962 95.7027 21.3619C90.1425 19.3772 85.0242 18.5387 81.2152 19.5593C77.4514 20.5678 73.6736 23.936 70.1792 28.4172C66.5803 33.0324 62.9007 39.326 59.466 47.0006C52.5907 62.363 46.5694 83.5432 44.1928 108.591C41.7071 134.789 43.2038 165.269 51.9212 197.805C58.3181 221.864 69.5418 247.362 85.2342 269.71C83.6018 270.133 81.8343 270.683 80.0734 271.375C76.3518 272.836 72.211 275.101 69.6501 278.53C66.7008 282.479 62.984 290.83 66.0911 303.085C69.1704 315.231 78.8637 330.872 101.886 349.805C103.983 351.53 106.583 351.184 108.257 349.983C109.917 348.792 111.068 346.487 110.227 343.978C107.188 334.906 104.843 324.229 105.622 316.142C106.01 312.117 107.136 309.124 108.932 307.214C110.391 305.663 112.578 304.526 116.018 304.387C116.347 305.087 116.676 305.81 117.017 306.559L117.088 306.714C117.723 308.11 118.401 309.591 119.153 311.046C120.655 313.952 122.553 316.952 125.361 319.362C130.912 324.127 139.078 325.849 152.088 322.751C155.439 327.733 158.947 331.916 161.852 334.936C163.478 336.627 164.954 337.993 166.141 338.944C166.725 339.411 167.307 339.833 167.846 340.144C168.111 340.296 168.452 340.473 168.836 340.605C169.106 340.697 169.936 340.966 170.921 340.702C171.846 340.454 172.42 339.878 172.66 339.615C172.951 339.295 173.172 338.955 173.334 338.676C173.662 338.112 173.956 337.433 174.219 336.729C174.755 335.296 175.306 333.367 175.815 331.1C176.755 326.907 177.599 321.34 177.909 315.172C179.497 314.18 181.199 313.354 183.047 312.457C183.381 312.295 183.719 312.131 184.063 311.963C186.692 310.676 189.6 309.175 192.056 306.875C197.215 302.046 199.561 294.569 197.531 281.078Z" fill="white" stroke="white" stroke-width="6.17436"/>
<path d="M151.793 354.294C139.994 345.19 141.036 328.701 143.032 321.595L155.769 320.007L167.583 329.984L172.485 315.528L182.604 310.992C183.173 310.839 185.763 312.409 191.574 319.905C198.838 329.276 194.643 345.003 187.555 356.759C181.885 366.164 181.978 380.523 182.734 386.527C179.813 375.627 166.543 365.675 151.793 354.294Z" fill="#FFD553"/>
<path d="M156.81 359.358C142.978 351.624 141.578 337.16 142.607 330.894C143.89 335.684 150.324 340.928 159.016 345.933C167.707 350.938 174.181 366.438 172.99 361.99C171.798 357.543 171.299 345.575 177.67 334.701C182.766 326.001 179.915 316.131 177.852 312.283L181.462 311.316C182.789 311.938 186.407 314.758 190.262 321.059C195.08 328.935 195.024 342.903 187.026 353.48C182.774 359.104 183.108 383.133 181.928 389.316C180.563 386.626 170.643 367.093 156.81 359.358Z" fill="#F05A28"/>
<path d="M181.27 341.6C177.396 348.373 173.772 364.36 172.444 371.507L183.206 388.243C180.414 375.031 190.887 351.096 193.776 336.74C196.087 325.254 187.217 312.589 182.773 309.504L180.706 311.567C185.763 319.267 186.111 333.134 181.27 341.6Z" fill="#BD2F3F"/>
<path d="M158.388 360.195C139.561 348.885 140.468 329.707 143.274 321.531C154.439 316.349 178.121 306.937 183.529 310.745C190.289 315.505 199.95 335.186 189.09 351.969C180.403 365.395 185.249 392.426 184.278 392.686C183.308 392.946 177.214 371.506 158.388 360.195Z" stroke="#2E0066" stroke-width="3.52279"/>
<path d="M53.5105 193.731C44.8218 161.305 45.9764 122.857 47.6398 107.687C53.2936 104.225 70.8782 95.6191 95.9863 88.8914C121.094 82.1638 148.131 78.8134 158.511 77.9792C198.737 143.501 194.839 161.704 201.045 184.866C207.554 215.978 200.608 262.378 194.322 281.221C150.573 303.53 141.358 300.523 118.089 302.378C80.3884 265.385 64.3714 234.265 53.5105 193.731Z" fill="white"/>
<ellipse cx="122.758" cy="169.701" rx="52.9764" ry="52.8949" transform="rotate(-15 122.758 169.701)" fill="#01AAFF"/>
<path d="M194.413 281.562C162.655 300.585 130.464 303.078 118.339 301.946C119.251 305.352 122.656 313.42 128.975 318.444C136.874 324.725 149.929 321.592 176.081 312.759C202.234 303.926 195.259 286.081 194.413 281.562Z" fill="#00B4F7"/>
<path d="M97.4421 88.8664C72.8799 95.4478 53.7948 105.186 47.3226 109.232C50.6524 82.5416 62.3609 27.8074 82.5565 22.396C102.752 16.9846 142.078 58.0441 159.217 79.2502C148.86 79.7134 122.004 82.285 97.4421 88.8664Z" fill="#EB1D1F"/>
<path opacity="0.5" d="M57.5278 182.797C37.7408 108.951 67.4103 45.9243 84.7183 23.6415C79.3059 34.827 68.4915 58.8746 68.5333 65.5807C68.5751 88.9341 91.3484 78.4055 106.235 76.6527C133.457 73.4474 152.716 76.3672 158.943 78.2278L154.849 79.3247C41.1969 101.381 59.0287 154.285 61.9643 155.688C63.5528 156.448 70.1647 149.024 76.2487 141.503C78.491 137.643 81.1238 134.244 84.0099 131.528C81.9487 134.285 79.1591 137.905 76.2487 141.503C69.6436 152.875 66.4272 168.251 70.1066 181.982C81.5151 224.559 119.689 227.839 137.087 223.177C111.371 237.734 93.1184 226.926 88.6836 228.115C84.2487 229.303 88.1209 235.567 90.1483 239.04C111.628 274.172 136.223 279.994 164.879 272.316C187.804 266.173 200.336 254.54 203.736 249.492L197.118 279.376C196.724 279.725 194.208 281.616 187.297 286.388C178.658 292.354 151.299 300.78 143.861 301.677C137.911 302.396 128.643 301.739 124.753 301.321C110.589 292.582 77.3147 256.643 57.5278 182.797Z" fill="#BBA6D4"/>
<path d="M144.952 300.291C139.695 280.671 144.967 263.049 148.261 256.691C153.775 258.62 167.541 272.699 172.287 290.411C178.274 312.755 173.367 331.74 170.165 338.439C163.951 333.897 150.209 319.91 144.952 300.291Z" fill="#EB1D1F"/>
<path d="M68.5182 298.867C65.3714 278.39 81.584 272.123 90.0836 271.549L115.244 301.315C91.5467 308.394 107.203 343.627 107.751 345.671C108.189 347.306 106.418 347.975 105.478 348.105C94.4691 340.224 71.6649 319.344 68.5182 298.867Z" fill="#EB1D1F" stroke="#2E0066" stroke-width="0.704557"/>
<path d="M233.334 252.149C227.247 236.256 211.196 237.758 202.911 240.952L195.754 279.742C213.886 274.066 217.779 291.534 224.151 316.038C224.64 317.917 227.162 318.164 227.969 316.398C240.881 288.138 239.086 267.168 233.334 252.149Z" fill="#EB1D1F" stroke="#2E0066" stroke-width="3.52279"/>
<path d="M194.462 281.183L192.781 280.656L192.657 281.051L192.722 281.46L194.462 281.183ZM158.766 79.3707L157.336 80.3998L158.766 79.3707ZM47.3575 109.223L49.111 109.389L47.3575 109.223ZM54.9953 197.349L56.6976 196.896L56.6967 196.893L54.9953 197.349ZM90.6287 272.133L90.857 273.879L93.8218 273.492L92.0456 271.086L90.6287 272.133ZM72.215 280.717L70.8037 279.663L70.8037 279.663L72.215 280.717ZM103.938 347.761L102.82 349.122L103.938 347.761ZM107.391 345.299L105.721 345.859L107.391 345.299ZM118.046 301.658L119.616 300.859L119.154 299.952L118.138 299.899L118.046 301.658ZM119.908 305.597L121.511 304.867L119.908 305.597ZM153.555 319.558L155.04 318.611L154.346 317.523L153.099 317.857L153.555 319.558ZM174.982 313.817L173.958 312.384L173.251 312.889L173.222 313.756L174.982 313.817ZM181.805 310.013L182.573 311.598L182.573 311.598L181.805 310.013ZM118.046 301.658L116.912 303.006L117.316 303.345L117.839 303.408L118.046 301.658ZM192.749 156.057C207.444 210.899 202.941 248.276 192.781 280.656L196.142 281.71C206.493 248.723 211.028 210.663 196.152 155.145L192.749 156.057ZM157.336 80.3998C171.6 100.212 184.527 125.372 192.749 156.057L196.152 155.145C187.815 124.029 174.696 98.4832 160.195 78.3416L157.336 80.3998ZM82.5614 24.5829C84.8998 23.9563 88.846 24.3703 94.1641 26.2685C99.4028 28.1384 105.713 31.3548 112.634 35.9717C126.468 45.2016 142.609 59.9434 157.336 80.3998L160.195 78.3416C145.233 57.5578 128.789 42.5155 114.589 33.0412C107.491 28.3059 100.922 24.9401 95.3483 22.9508C89.8543 20.9897 85.0565 20.2673 81.6496 21.1802L82.5614 24.5829ZM49.111 109.389C51.4414 84.8284 57.3389 64.167 63.9829 49.3215C67.3065 41.8951 70.7988 35.9646 74.094 31.739C77.4487 27.4369 80.3984 25.1625 82.5614 24.5829L81.6496 21.1802C78.3236 22.0714 74.7722 25.1405 71.316 29.5727C67.8001 34.0814 64.1717 40.2757 60.7674 47.8825C53.9554 63.1035 47.9679 84.1418 45.604 109.056L49.111 109.389ZM56.6967 196.893C48.1392 164.956 46.6755 135.057 49.111 109.389L45.604 109.056C43.1319 135.11 44.6198 165.432 53.294 197.805L56.6967 196.893ZM92.0456 271.086C75.2686 248.367 63.33 221.843 56.6976 196.896L53.2931 197.801C60.028 223.134 72.1465 250.07 89.2118 273.179L92.0456 271.086ZM73.6262 281.771C75.377 279.427 78.5036 277.576 81.9367 276.228C85.3265 274.897 88.766 274.152 90.857 273.879L90.4004 270.386C88.0577 270.692 84.3354 271.502 80.6493 272.949C77.0065 274.379 73.1431 276.531 70.8037 279.663L73.6262 281.771ZM105.057 346.401C82.4596 327.817 73.61 312.993 70.8823 302.234C68.1704 291.537 71.4605 284.671 73.6263 281.771L70.8037 279.663C68.0686 283.326 64.4685 291.27 67.4675 303.1C70.4507 314.866 79.9133 330.284 102.82 349.122L105.057 346.401ZM105.721 345.859C105.761 345.979 105.75 346.061 105.725 346.13C105.694 346.214 105.626 346.309 105.522 346.383C105.418 346.458 105.32 346.483 105.255 346.483C105.21 346.484 105.149 346.476 105.057 346.401L102.82 349.122C104.375 350.401 106.302 350.159 107.576 349.246C108.841 348.338 109.689 346.612 109.061 344.739L105.721 345.859ZM118.138 299.899C112.563 299.609 108.373 301.169 105.492 304.232C102.667 307.235 101.328 311.443 100.887 316.017C100.008 325.143 102.622 336.609 105.721 345.859L109.061 344.739C106.005 335.619 103.587 324.726 104.394 316.355C104.796 312.18 105.98 308.855 108.058 306.646C110.078 304.498 113.17 303.169 117.955 303.417L118.138 299.899ZM121.511 304.867C120.903 303.532 120.283 302.168 119.616 300.859L116.477 302.458C117.102 303.686 117.691 304.979 118.305 306.327L121.511 304.867ZM153.099 317.857C141.156 321.057 134.453 319.926 130.242 317.237C125.943 314.491 123.797 309.888 121.511 304.867L118.305 306.327C120.51 311.172 123.026 316.808 128.346 320.206C133.755 323.66 141.63 324.577 154.011 321.26L153.099 317.857ZM169.758 336.359C170.012 336.291 170.215 336.305 170.312 336.317C170.416 336.33 170.481 336.352 170.496 336.357C170.522 336.366 170.482 336.355 170.36 336.284C170.122 336.147 169.755 335.893 169.262 335.499C168.287 334.718 166.969 333.507 165.437 331.915C162.38 328.736 158.56 324.129 155.04 318.611L152.07 320.506C155.725 326.235 159.692 331.024 162.898 334.357C164.499 336.021 165.932 337.345 167.061 338.249C167.62 338.696 168.143 339.072 168.6 339.336C168.825 339.466 169.084 339.598 169.356 339.691C169.563 339.761 170.078 339.92 170.669 339.762L169.758 336.359ZM173.222 313.756C172.999 320.245 172.132 326.114 171.175 330.379C170.695 332.516 170.201 334.215 169.769 335.372C169.55 335.957 169.367 336.35 169.234 336.579C169.166 336.695 169.14 336.719 169.164 336.693C169.177 336.678 169.224 336.629 169.306 336.569C169.386 336.512 169.538 336.418 169.758 336.359L170.669 339.762C171.23 339.611 171.594 339.256 171.77 339.063C171.975 338.838 172.143 338.584 172.279 338.35C172.554 337.878 172.818 337.277 173.069 336.605C173.576 335.248 174.112 333.382 174.612 331.15C175.616 326.677 176.512 320.591 176.742 313.877L173.222 313.756ZM181.036 308.428C178.745 309.538 176.258 310.739 173.958 312.384L176.006 315.25C178.025 313.807 180.241 312.728 182.573 311.598L181.036 308.428ZM192.722 281.46C194.373 291.815 193.221 297.512 190.998 301.06C188.757 304.64 185.237 306.391 181.036 308.428L182.573 311.598C186.635 309.629 191.123 307.498 193.984 302.93C196.864 298.331 197.909 291.617 196.201 280.906L192.722 281.46ZM172.228 156.445C179.536 183.721 163.316 211.77 135.992 219.092L136.904 222.494C166.102 214.671 183.444 184.693 175.631 155.533L172.228 156.445ZM109.524 120.309C136.848 112.988 164.919 129.17 172.228 156.445L175.631 155.533C167.817 126.374 137.81 109.083 108.612 116.907L109.524 120.309ZM73.288 182.956C65.9795 155.68 82.1996 127.631 109.524 120.309L108.612 116.907C79.4135 124.73 62.0719 154.708 69.8852 183.868L73.288 182.956ZM135.992 219.092C108.668 226.413 80.5964 210.231 73.288 182.956L69.8852 183.868C77.6986 213.027 107.706 230.318 136.904 222.494L135.992 219.092ZM48.2867 110.719C62.8691 101.663 105.603 82.9116 158.825 81.1311L158.707 77.6103C104.817 79.4132 61.4885 98.3737 46.4283 107.726L48.2867 110.719ZM119.18 300.31C109.086 291.82 100.023 281.889 92.0456 271.086L89.2118 273.179C97.3314 284.174 106.58 294.315 116.912 303.006L119.18 300.31ZM144.345 298.374C135.204 300.178 126.272 300.861 118.254 299.909L117.839 303.408C126.331 304.416 135.65 303.68 145.027 301.83L144.345 298.374ZM193.591 279.652C187.293 283.235 179.948 286.811 172.098 289.959L173.41 293.229C181.405 290.023 188.894 286.377 195.333 282.714L193.591 279.652ZM146.408 299.73C144.179 289.417 144.548 278.924 145.752 270.928C146.354 266.932 147.158 263.602 147.929 261.266C148.316 260.091 148.68 259.215 148.982 258.646C149.135 258.358 149.245 258.2 149.302 258.132C149.402 258.012 149.261 258.246 148.856 258.354L147.944 254.951C147.267 255.133 146.822 255.605 146.595 255.878C146.325 256.202 146.085 256.591 145.871 256.994C145.439 257.807 145.004 258.889 144.583 260.162C143.739 262.723 142.894 266.253 142.269 270.403C141.019 278.698 140.623 289.637 142.964 300.474L146.408 299.73ZM148.856 258.354C148.406 258.475 148.135 258.314 148.312 258.384C148.404 258.42 148.589 258.511 148.877 258.694C149.445 259.056 150.226 259.656 151.178 260.498C153.071 262.173 155.502 264.683 158.046 267.821C163.144 274.111 168.564 282.764 171.053 292.05L174.455 291.138C171.795 281.209 166.062 272.117 160.782 265.603C158.136 262.339 155.573 259.682 153.512 257.86C152.487 256.953 151.552 256.221 150.77 255.723C150.382 255.476 149.984 255.255 149.597 255.104C149.296 254.986 148.65 254.762 147.944 254.951L148.856 258.354ZM142.985 300.558C144.941 307.858 148.36 314.69 152.07 320.506L155.04 318.611C151.463 313.004 148.225 306.504 146.387 299.647L142.985 300.558ZM171.053 292.05C172.954 299.146 173.461 306.777 173.222 313.756L176.742 313.877C176.99 306.666 176.473 298.667 174.455 291.138L171.053 292.05Z" fill="#2E0066"/>
<path d="M165.405 158.273C171.705 181.787 157.723 205.968 134.167 212.28C110.611 218.591 86.4111 204.641 80.1108 181.128C73.8104 157.615 87.7931 133.434 111.349 127.122C134.905 120.81 159.105 134.76 165.405 158.273Z" fill="#2E0066" stroke="#2E0066" stroke-width="3.52279"/>
<mask id="mask0" mask-type="alpha" maskUnits="userSpaceOnUse" x="76" y="123" width="94" height="94">
<ellipse cx="122.758" cy="169.7" rx="46.6192" ry="46.5475" transform="rotate(-15 122.758 169.7)" fill="#C4C4C4"/>
</mask>
<g mask="url(#mask0)">
<path d="M153.326 213.068L118.967 222.268C118.967 222.268 116.321 224.251 115.207 212.123C114.766 207.346 116.409 204.32 116.976 200.611C117.058 200.059 117.121 199.493 117.148 198.903C117.148 198.903 117.148 198.903 117.147 198.9C117.198 197.755 117.12 196.523 116.836 195.141C116.776 194.845 116.705 194.54 116.625 194.227L141.327 187.613C141.404 187.886 141.483 188.15 141.567 188.406C142.032 189.834 142.613 191.002 143.273 192.014C143.574 192.474 143.889 192.905 144.217 193.313C146.563 196.242 149.501 198.042 151.51 202.399C156.61 213.463 153.326 213.068 153.326 213.068Z" fill="#F99B28"/>
<path d="M153.711 213.604C153.475 213.667 153.293 213.648 153.259 213.646L153.398 212.492C153.398 212.492 153.386 212.491 153.367 212.489C153.393 212.489 153.492 212.478 153.588 212.328C153.84 211.934 154.398 210.062 150.98 202.646C149.676 199.822 147.941 198.076 146.264 196.39C144.235 194.35 142.14 192.245 140.927 188.326L117.325 194.645C118.236 198.646 117.475 201.515 116.738 204.295C116.129 206.594 115.499 208.969 115.784 212.07C116.532 220.201 117.95 221.54 118.371 221.758C118.528 221.84 118.616 221.801 118.642 221.787C118.626 221.795 118.617 221.805 118.617 221.805L119.315 222.735C119.252 222.781 118.694 223.175 117.929 222.839C116.299 222.117 115.217 218.632 114.622 212.178C114.317 208.876 114.976 206.399 115.608 204.004C116.375 201.114 117.098 198.383 116.055 194.38L115.909 193.821L141.727 186.908L141.88 187.465C142.982 191.448 144.975 193.453 147.082 195.576C148.832 197.334 150.64 199.154 152.027 202.163C154.739 208.046 155.551 211.607 154.497 213.047C154.256 213.386 153.957 213.538 153.711 213.604Z" fill="#2E0066"/>
<path d="M112.051 213.594C112.051 213.594 106.744 212.237 106.291 207.031C105.906 202.63 109.315 200.495 111.269 199.641C111.903 199.363 112.633 199.75 112.755 200.431C113.236 203.126 113.909 209.478 120.481 211.181L112.05 213.591L112.051 213.594Z" fill="#F99B28"/>
<path d="M153.319 202.542C153.319 202.542 157.235 198.715 155.023 193.98C153.154 189.976 149.133 189.831 147.014 190.067C146.325 190.143 145.887 190.843 146.122 191.494C147.054 194.068 148.589 200.342 143.75 205.1L153.318 202.539L153.319 202.542Z" fill="#F99B28"/>
<g opacity="0.4">
<g opacity="0.4">
<g opacity="0.4">
<path opacity="0.4" d="M121.619 211.033L119.037 211.724C113.95 209.454 112.44 204.189 112.008 201.763C111.885 201.082 111.159 200.693 110.522 200.973C109.411 201.458 107.831 202.355 106.746 203.849C107.703 201.54 109.862 200.259 111.274 199.644C111.908 199.369 112.638 199.756 112.76 200.434C113.237 203.13 115.047 209.33 121.619 211.033Z" fill="white"/>
</g>
</g>
</g>
<path d="M121.619 211.033L112.051 213.595C112.051 213.595 106.748 212.236 106.291 207.031C106.121 205.106 106.679 203.615 107.523 202.475C107.381 203.66 107.557 204.977 108.294 206.374C110.729 210.997 116.15 210.208 116.15 210.208L117.596 209.091C118.684 209.928 120.006 210.615 121.619 211.033Z" fill="white"/>
<path d="M112.054 214.195L111.904 214.156C111.847 214.141 106.193 212.629 105.709 207.082C105.295 202.346 108.869 200.055 111.035 199.106C111.504 198.902 112.03 198.923 112.479 199.163C112.928 199.404 113.238 199.828 113.327 200.327C113.773 202.836 114.554 209.463 120.823 211.089L112.054 214.195ZM112.055 212.992L119.632 210.963C114.205 208.593 112.623 203.005 112.18 200.537C112.156 200.389 112.062 200.264 111.929 200.19C111.797 200.12 111.641 200.113 111.502 200.173C109.622 200.992 106.521 202.969 106.869 206.981C107.248 211.305 111.234 212.742 112.055 212.992Z" fill="#2E0066"/>
<path d="M153.617 203.063L153.727 202.955C153.769 202.914 157.908 198.779 155.552 193.733C153.541 189.425 149.299 189.226 146.949 189.487C146.44 189.544 145.995 189.825 145.727 190.258C145.458 190.691 145.402 191.213 145.575 191.69C146.334 193.783 148.313 198.424 145.719 202.592C143.881 205.546 150.509 203.494 153.617 203.063ZM153.013 202.022L146.345 203.807C149.859 199.043 147.524 193.657 146.673 191.298C146.62 191.158 146.639 191.003 146.717 190.873C146.796 190.746 146.928 190.662 147.078 190.644C149.116 190.414 152.791 190.577 154.497 194.226C156.332 198.159 153.599 201.395 153.013 202.022Z" fill="#2E0066"/>
<g opacity="0.3">
<g opacity="0.3">
<g opacity="0.3">
<path opacity="0.3" d="M121.619 211.032L112.05 213.594C112.05 213.594 106.747 212.235 106.29 207.03C106.195 205.931 106.334 204.973 106.631 204.142C106.653 204.207 106.674 204.273 106.7 204.341C108.432 209.269 113.912 209.276 113.912 209.276L116.318 207.925C117.595 209.286 119.313 210.435 121.619 211.032Z" fill="#6B184E"/>
</g>
</g>
<g opacity="0.3">
<g opacity="0.3">
<path opacity="0.3" d="M121.973 211.032L112.05 213.689L112.026 213.684C111.973 213.672 106.653 212.25 106.199 207.04C106.107 205.997 106.224 205.011 106.545 204.113L106.634 203.856L106.715 204.116C106.737 204.182 106.758 204.247 106.783 204.312C108.418 208.961 113.498 209.177 113.885 209.186L116.329 207.813L116.377 207.864C117.799 209.371 119.57 210.408 121.637 210.945L121.973 211.032ZM112.048 213.501L121.268 211.033C119.328 210.473 117.659 209.469 116.296 208.04L113.933 209.365L113.91 209.363C113.853 209.363 108.385 209.301 106.632 204.424C106.387 205.226 106.301 206.099 106.381 207.018C106.81 211.934 111.673 213.395 112.048 213.501Z" fill="#2E0066"/>
</g>
</g>
</g>
<path d="M142.549 198.062C140.504 202.231 142.33 207.919 142.33 207.919L125.867 212.327C125.867 212.327 124.607 206.487 120.746 203.9C118.612 202.467 117.577 200.616 117.106 198.915C117.106 198.915 117.106 198.915 117.105 198.912C117.156 197.766 117.077 196.532 116.795 195.156C116.856 194.527 116.95 194.144 116.95 194.144L140.952 187.718C140.952 187.718 141.191 187.966 141.525 188.422C141.991 189.85 142.572 191.018 143.231 192.029C143.651 193.722 143.659 195.803 142.549 198.062Z" fill="white"/>
<g opacity="0.3">
<g opacity="0.3">
<path opacity="0.3" d="M144.181 193.328C137.237 201.14 126.859 203.919 116.937 200.623C117.019 200.071 117.082 199.505 117.109 198.915C117.109 198.915 117.109 198.915 117.108 198.911C117.121 198.649 117.124 198.381 117.122 198.107C117.118 197.642 117.091 197.16 117.037 196.663C126.026 198.885 135.469 196.443 142.19 190.124C142.372 190.519 142.561 190.889 142.761 191.242C142.913 191.513 143.074 191.775 143.235 192.025C143.534 192.49 143.852 192.92 144.181 193.328Z" fill="#2E0066"/>
</g>
</g>
<g opacity="0.3">
<g opacity="0.3">
<g opacity="0.3">
<path opacity="0.3" d="M116.385 218.328C116.1 218.404 115.811 218.467 115.525 218.51C113.733 218.786 112.192 218.383 111.183 217.375C109.55 215.744 108.492 213.177 108.544 210.994L108.545 210.926L122.088 207.3L121.802 207.553C121.507 207.817 121.391 208.257 121.463 208.862C121.497 209.173 121.563 209.516 121.631 209.885C121.895 211.288 122.224 213.035 121.324 214.769C120.499 216.347 118.506 217.76 116.385 218.328ZM108.724 211.062C108.695 213.187 109.727 215.659 111.309 217.243C112.274 218.211 113.761 218.595 115.496 218.329C117.867 217.965 120.249 216.429 121.161 214.681C122.031 213.004 121.708 211.293 121.451 209.915C121.382 209.546 121.315 209.195 121.279 208.881C121.22 208.363 121.286 207.951 121.48 207.647L108.724 211.062Z" fill="#2E0066"/>
</g>
</g>
</g>
<g opacity="0.3">
<g opacity="0.3">
<g opacity="0.3">
<path opacity="0.3" d="M153.336 208.431C151.215 208.999 148.783 208.774 147.277 207.813C145.631 206.765 145.042 205.088 144.567 203.737C144.442 203.387 144.327 203.053 144.201 202.767C143.96 202.208 143.64 201.884 143.252 201.803L142.878 201.727L156.421 198.1L156.456 198.159C157.596 200.023 157.961 202.775 157.363 205.003C156.994 206.381 155.861 207.5 154.171 208.155C153.902 208.265 153.621 208.355 153.336 208.431ZM143.575 201.728C143.894 201.891 144.162 202.214 144.367 202.697C144.494 202.989 144.61 203.323 144.735 203.677C145.199 205 145.779 206.642 147.372 207.66C149.035 208.718 151.863 208.86 154.103 207.989C155.739 207.356 156.834 206.277 157.185 204.957C157.763 202.795 157.419 200.134 156.331 198.313L143.575 201.728Z" fill="#2E0066"/>
</g>
</g>
</g>
<g opacity="0.3">
<g opacity="0.3">
<path opacity="0.3" d="M123.159 207.089L121.094 207.642C120.475 207.807 120.271 208.298 120.336 208.935C120.453 210.088 121.108 211.796 120.12 213.497C118.72 215.913 113.832 217.719 111.641 215.696C111.02 215.121 110.522 214.416 110.17 213.668C110.226 213.721 110.282 213.774 110.337 213.827C112.527 215.85 117.416 214.044 118.815 211.628C119.799 209.925 119.146 208.22 119.032 207.066C119.03 207.059 119.028 207.052 119.031 207.047C118.96 206.292 119.755 205.755 120.445 206.078L122.447 207.02C122.447 207.02 122.168 206.737 121.746 206.332C122.533 206.734 123.159 207.089 123.159 207.089Z" fill="#2E0066"/>
</g>
</g>
<g opacity="0.3">
<g opacity="0.3">
<path opacity="0.3" d="M142.067 202.023L144.136 201.469C144.755 201.304 145.177 201.627 145.439 202.211C145.915 203.268 146.203 205.074 147.91 206.053C150.331 207.447 155.468 206.568 156.352 203.722C156.603 202.914 156.682 202.054 156.612 201.231C156.59 201.304 156.568 201.378 156.547 201.451C155.662 204.297 150.525 205.177 148.104 203.783C146.4 202.799 146.113 200.996 145.633 199.94C145.632 199.933 145.63 199.926 145.625 199.924C145.308 199.234 144.352 199.167 143.916 199.791L142.653 201.607C142.653 201.607 142.754 201.223 142.916 200.66C142.432 201.403 142.067 202.023 142.067 202.023Z" fill="#2E0066"/>
</g>
</g>
<g opacity="0.3">
<g opacity="0.3">
<g opacity="0.3">
<path opacity="0.3" d="M137.803 139.91C137.229 139.906 136.678 140.084 136.159 140.47C129.697 145.28 126.942 153.747 125.924 157.994C125.615 159.287 124.26 160.041 122.993 159.632C122.993 159.632 124.874 146.135 133.743 139.531C134.969 138.62 136.392 138.863 137.803 139.91Z" fill="white"/>
</g>
</g>
<g opacity="0.3">
<g opacity="0.3">
<path opacity="0.3" d="M124.317 159.741C123.877 159.859 123.407 159.849 122.969 159.707C122.932 159.695 122.911 159.659 122.916 159.62C122.936 159.483 124.903 146.012 133.7 139.464C134.891 138.578 136.329 138.708 137.855 139.844C137.883 139.863 137.893 139.902 137.883 139.935C137.873 139.967 137.841 139.991 137.807 139.989C137.237 139.987 136.701 140.168 136.211 140.533C129.843 145.272 127.086 153.518 126.006 158.011C125.853 158.649 125.434 159.198 124.861 159.52C124.688 159.619 124.503 159.691 124.317 159.741ZM123.081 159.576C123.649 159.739 124.264 159.672 124.779 159.384C125.324 159.081 125.699 158.582 125.846 157.978C126.927 153.463 129.701 145.178 136.11 140.409C136.563 140.074 137.051 139.883 137.568 139.842C136.175 138.881 134.87 138.794 133.792 139.597C125.369 145.864 123.243 158.536 123.081 159.576Z" fill="#2E0066"/>
</g>
</g>
</g>
<path d="M138.781 161.355C137.455 159.966 134.472 158.866 132.031 158.155C129.83 157.511 128.651 155.139 129.443 152.99C130.838 149.211 133.08 146.126 134.671 144.241C135.615 143.124 137.389 143.314 138.078 144.603C139.145 146.6 140.417 149.77 140.638 153.839C140.878 158.237 138.988 161.225 138.988 161.225" fill="#FF6C6C"/>
<path d="M138.803 161.433C138.775 161.441 138.747 161.433 138.726 161.412C137.393 160.014 134.339 158.914 132.011 158.233C130.932 157.92 130.058 157.192 129.552 156.192C129.048 155.195 128.981 154.018 129.37 152.966C130.764 149.194 132.991 146.113 134.614 144.193C135.071 143.65 135.769 143.369 136.479 143.446C137.189 143.519 137.815 143.942 138.153 144.569C139.202 146.529 140.497 149.727 140.725 153.836C140.962 158.208 139.083 161.238 139.06 161.267C139.036 161.303 138.987 161.316 138.95 161.292C138.914 161.268 138.901 161.219 138.925 161.183C138.943 161.151 140.8 158.165 140.561 153.846C140.338 149.766 139.05 146.592 138.011 144.645C137.7 144.063 137.121 143.673 136.462 143.605C135.794 143.535 135.169 143.789 134.736 144.296C133.121 146.206 130.905 149.273 129.521 153.023C129.147 154.033 129.212 155.162 129.696 156.123C130.181 157.087 131.02 157.784 132.055 158.086C134.402 158.769 137.483 159.884 138.841 161.306C138.872 161.339 138.871 161.389 138.838 161.42C138.831 161.422 138.817 161.429 138.803 161.433Z" fill="#2E0066"/>
<path d="M135.445 157.17C135.487 157.929 135.464 158.646 135.399 159.317C134.296 158.861 133.11 158.471 132.03 158.155C129.826 157.512 128.65 155.139 129.442 152.987C130.234 150.839 131.301 148.914 132.366 147.306C132.573 147.472 132.75 147.681 132.885 147.934C133.952 149.93 135.226 153.104 135.445 157.17Z" fill="#FF6C6C"/>
<path d="M135.424 159.394C135.407 159.399 135.387 159.397 135.374 159.389C134.407 158.99 133.278 158.601 132.014 158.232C130.935 157.919 130.062 157.195 129.555 156.191C129.05 155.191 128.984 154.017 129.372 152.962C130.076 151.059 131.062 149.141 132.307 147.263C132.321 147.244 132.34 147.231 132.362 147.229C132.384 147.227 132.408 147.232 132.423 147.247C132.644 147.424 132.825 147.647 132.96 147.9C134.006 149.86 135.306 153.061 135.528 157.167C135.568 157.878 135.552 158.604 135.482 159.326C135.481 159.353 135.465 159.376 135.441 159.386C135.439 159.39 135.431 159.392 135.424 159.394ZM132.389 147.429C131.176 149.272 130.21 151.151 129.522 153.016C129.149 154.029 129.214 155.158 129.698 156.119C130.186 157.082 131.022 157.78 132.057 158.082C133.283 158.437 134.383 158.816 135.332 159.205C135.392 158.527 135.404 157.843 135.37 157.18C135.148 153.104 133.862 149.925 132.819 147.979C132.706 147.765 132.562 147.582 132.389 147.429Z" fill="#2E0066"/>
<g opacity="0.3">
<g opacity="0.3">
<g opacity="0.3">
<path opacity="0.3" d="M93.1045 153.695C93.5788 153.369 94.1344 153.205 94.7787 153.232C102.831 153.565 109.883 159.012 113.12 161.943C114.106 162.837 115.648 162.698 116.467 161.644C116.467 161.644 107.298 151.553 96.2453 151.094C94.7162 151.03 93.678 152.037 93.1045 153.695Z" fill="white"/>
</g>
</g>
<g opacity="0.3">
<g opacity="0.3">
<path opacity="0.3" d="M115.266 162.535C115.136 162.57 115 162.595 114.863 162.605C114.208 162.664 113.553 162.445 113.069 162.003C109.642 158.897 102.712 153.639 94.7788 153.312C94.1689 153.287 93.6211 153.437 93.1538 153.762C93.125 153.781 93.087 153.78 93.0593 153.761C93.0307 153.738 93.0213 153.703 93.0313 153.671C93.6538 151.872 94.7649 150.954 96.2516 151.015C107.214 151.471 116.438 161.492 116.529 161.591C116.555 161.618 116.556 161.663 116.534 161.695C116.215 162.108 115.766 162.401 115.266 162.535ZM93.89 153.245C94.1714 153.17 94.4721 153.138 94.785 153.152C102.769 153.485 109.736 158.767 113.177 161.884C113.636 162.302 114.232 162.5 114.85 162.443C115.439 162.391 115.987 162.101 116.363 161.647C115.645 160.881 106.737 151.607 96.2409 151.172C94.8947 151.115 93.8665 151.92 93.2608 153.5C93.4578 153.391 93.6684 153.304 93.89 153.245Z" fill="#2E0066"/>
</g>
</g>
</g>
<path d="M104.392 171.96C104.702 170.065 106.549 167.477 108.161 165.515C109.616 163.746 109.251 161.118 107.383 159.791C104.095 157.453 100.504 156.166 98.1297 155.509C96.7207 155.119 95.3645 156.275 95.5198 157.726C95.7642 159.973 96.5051 163.312 98.6156 166.796C100.9 170.565 104.145 171.966 104.145 171.966" fill="#FF6C6C"/>
<path d="M104.415 172.038C104.404 172.041 104.392 172.04 104.381 172.04C104.338 172.033 104.308 171.992 104.315 171.948C104.632 170.01 106.551 167.353 108.104 165.468C108.789 164.634 109.089 163.587 108.946 162.52C108.804 161.457 108.219 160.485 107.34 159.864C104.082 157.54 100.522 156.257 98.1102 155.586C97.467 155.409 96.8042 155.553 96.2947 155.986C95.7912 156.414 95.5306 157.059 95.6014 157.717C95.8386 159.909 96.5674 163.259 98.6842 166.753C100.925 170.454 104.145 171.877 104.175 171.892C104.215 171.911 104.234 171.955 104.219 171.997C104.199 172.036 104.155 172.055 104.113 172.04C104.08 172.026 100.816 170.584 98.5487 166.838C96.4173 163.318 95.6829 159.947 95.4445 157.736C95.3675 157.028 95.6476 156.329 96.1947 155.866C96.7382 155.405 97.4722 155.246 98.1563 155.435C100.58 156.109 104.157 157.4 107.436 159.729C108.349 160.379 108.959 161.389 109.105 162.496C109.253 163.611 108.943 164.702 108.228 165.566C106.687 167.437 104.787 170.066 104.476 171.973C104.47 172.005 104.446 172.03 104.415 172.038Z" fill="#2E0066"/>
<path d="M104.788 166.625C105.181 167.276 105.605 167.858 106.037 168.373C106.689 167.375 107.453 166.385 108.163 165.519C109.619 163.749 109.253 161.121 107.386 159.794C105.517 158.464 103.548 157.476 101.763 156.751C101.688 157.004 101.66 157.279 101.691 157.563C101.938 159.806 102.678 163.141 104.788 166.625Z" fill="#FF6C6C"/>
<path d="M106.058 168.451C106.055 168.452 106.048 168.454 106.044 168.454C106.019 168.458 105.993 168.446 105.977 168.427C105.511 167.872 105.088 167.278 104.721 166.67C102.591 163.154 101.855 159.779 101.613 157.569C101.581 157.281 101.607 156.996 101.689 156.726C101.695 156.705 101.712 156.686 101.732 156.677C101.752 156.667 101.774 156.665 101.796 156.675C103.883 157.526 105.779 158.552 107.433 159.729C108.346 160.38 108.956 161.389 109.103 162.5C109.251 163.615 108.94 164.702 108.226 165.57C107.39 166.586 106.675 167.545 106.106 168.419C106.095 168.433 106.079 168.445 106.058 168.451ZM101.818 156.857C101.762 157.082 101.745 157.316 101.77 157.55C102.009 159.745 102.74 163.091 104.857 166.584C105.202 167.157 105.596 167.71 106.027 168.237C106.59 167.384 107.287 166.453 108.1 165.464C108.785 164.63 109.085 163.584 108.942 162.517C108.8 161.453 108.215 160.482 107.339 159.856C105.721 158.703 103.863 157.693 101.818 156.857Z" fill="#2E0066"/>
<path d="M151.248 173.763C149.052 173.389 146.474 170.68 145.549 169.213C145.017 168.367 143.849 166.725 142.959 165.489C149.58 155.242 139.82 135.282 134.225 139.445C127.909 144.148 125.134 152.346 124.063 156.674C120.945 156.911 118.894 157.712 118.894 157.712C118.894 157.712 116.691 158.216 113.934 159.826C110.612 156.858 103.684 151.622 95.7924 151.295C88.7967 151.006 92.0514 173.151 103.399 177.775C103.363 179.285 103.329 181.238 103.365 182.217C103.43 183.948 102.825 187.64 101.223 189.186C100.276 190.097 100.511 191.046 101.498 191.507C102.132 191.804 103.078 191.9 104.218 191.655C104.308 191.638 104.403 191.613 104.496 191.592C104.496 191.592 104.496 191.592 104.493 191.596C104.439 191.66 103.99 192.194 102.843 193.583C101.723 194.947 103.239 195.831 105.988 196.34C108.737 196.848 112.676 198.786 113.436 199.019C113.88 199.156 116.321 200.119 120.417 200.237C123.327 200.322 127.077 199.976 131.534 198.603C142.255 195.296 146.226 189.379 146.719 188.759C147.213 188.141 149.374 184.318 151.362 182.354C153.348 180.386 154.1 178.801 152.403 178.308C150.554 177.769 149.912 177.595 149.912 177.595C150.001 177.563 150.087 177.529 150.168 177.496C151.253 177.055 151.985 176.442 152.34 175.839C152.887 174.896 152.548 173.983 151.248 173.763Z" fill="#F99B28"/>
<g opacity="0.4">
<g opacity="0.4">
<g opacity="0.4">
<path opacity="0.4" d="M134.836 141.394C129.502 145.364 127.357 152.285 126.173 156.953C125.829 158.301 124.723 159.323 123.346 159.545C121.26 159.881 119.713 160.352 119.713 160.352C119.713 160.352 118.125 160.845 116.171 161.77C114.907 162.369 113.405 162.169 112.357 161.243C108.749 158.05 103.06 153.524 96.3982 153.247C92.6838 153.091 91.8571 159.261 93.5959 165.774C91.0513 158.548 91.6179 150.943 95.7362 151.115C103.629 151.442 110.557 156.679 113.879 159.647C116.637 158.036 118.84 157.533 118.84 157.533C118.84 157.533 120.891 156.731 124.01 156.494C125.084 152.161 127.855 143.962 134.173 139.259C137.48 136.798 142.237 142.758 144.215 150.163C141.979 143.805 137.816 139.178 134.836 141.394Z" fill="white"/>
</g>
</g>
</g>
<path d="M104.332 191.628C104.382 191.618 104.434 191.604 104.483 191.591C104.483 191.591 104.483 191.591 104.481 191.596C104.472 191.605 104.457 191.621 104.438 191.648C104.4 191.644 104.363 191.635 104.332 191.628Z" fill="#982E20"/>
<path d="M104.457 191.727C104.446 191.729 104.435 191.729 104.423 191.728C104.399 191.723 104.38 191.721 104.356 191.716L104.316 191.708C104.281 191.702 104.253 191.669 104.251 191.632C104.252 191.594 104.278 191.564 104.312 191.552C104.355 191.544 104.4 191.532 104.446 191.519C104.478 191.511 104.518 191.523 104.54 191.547C104.558 191.572 104.571 191.606 104.555 191.633C104.553 191.637 104.548 191.646 104.544 191.647C104.541 191.651 104.538 191.652 104.535 191.657C104.533 191.661 104.527 191.667 104.527 191.667L104.498 191.7C104.486 191.711 104.474 191.722 104.457 191.727Z" fill="#2E0066"/>
<path d="M151.427 182.627C149.44 184.595 147.279 188.415 146.784 189.033C146.291 189.653 142.32 195.571 131.598 198.877C127.14 200.251 123.391 200.597 120.48 200.512C116.389 200.397 113.943 199.431 113.499 199.294C112.742 199.06 108.803 197.122 106.05 196.615C103.298 196.107 101.782 195.223 102.906 193.858C104.052 192.469 104.501 191.935 104.556 191.871C104.558 191.867 104.558 191.867 104.558 191.867C104.467 191.891 104.371 191.913 104.281 191.93C104.597 191.702 104.957 191.471 105.358 191.235C108.613 189.326 114.606 192.779 120.075 188.442C124.273 185.115 118.837 174.572 119.201 171.279C119.203 171.244 119.21 171.213 119.212 171.178C119.628 167.766 123.914 166.441 126.184 169.029C126.206 169.054 126.227 169.078 126.25 169.106C128.409 171.618 129.868 183.387 135.209 183.773C142.172 184.278 145.175 178.052 148.94 177.796C149.407 177.765 149.834 177.756 150.225 177.764C150.143 177.797 150.055 177.832 149.969 177.863C149.969 177.863 150.607 178.038 152.46 178.576C154.166 179.074 153.414 180.659 151.427 182.627Z" fill="white"/>
<path d="M114.101 160.45C113.83 160.522 113.533 160.41 113.381 160.154C113.201 159.849 113.303 159.457 113.611 159.28C116.235 157.747 118.359 157.189 118.706 157.104C119.035 156.982 121.052 156.265 124.02 156.042C124.375 156.015 124.68 156.279 124.707 156.632C124.734 156.986 124.468 157.29 124.114 157.317C121.141 157.538 119.148 158.305 119.127 158.311C119.1 158.322 119.068 158.33 119.037 158.339C119.016 158.344 116.884 158.847 114.257 160.382C114.208 160.41 114.154 160.435 114.101 160.45Z" fill="#2E0066"/>
<path d="M124.476 200.311C123.56 200.507 122.623 200.627 121.682 200.676C120.742 200.713 119.802 200.705 118.861 200.63C116.986 200.482 115.137 200.153 113.313 199.634C113.211 199.605 113.04 199.546 112.94 199.509C112.826 199.464 112.712 199.419 112.606 199.376L111.962 199.109L110.689 198.581C109.842 198.236 108.994 197.911 108.137 197.625C107.709 197.48 107.28 197.355 106.852 197.236C106.64 197.188 106.423 197.125 106.212 197.084L105.893 197.019L105.543 196.951C105.073 196.859 104.603 196.748 104.129 196.6C103.654 196.445 103.177 196.269 102.693 195.955C102.454 195.793 102.202 195.586 102 195.268C101.898 195.111 101.822 194.913 101.785 194.705C101.748 194.497 101.759 194.284 101.799 194.096C101.885 193.712 102.065 193.442 102.243 193.207C102.293 193.141 102.325 193.106 102.362 193.058L102.472 192.923L102.692 192.658L103.574 191.591L103.685 191.456L103.7 191.441L103.705 191.432L103.679 191.461C103.641 191.517 103.609 191.581 103.59 191.65C103.553 191.792 103.574 191.929 103.622 192.037C103.674 192.147 103.761 192.244 103.891 192.31C103.956 192.342 104.034 192.363 104.111 192.368C104.149 192.369 104.186 192.367 104.219 192.366C104.234 192.365 104.262 192.358 104.262 192.358L104.252 192.361L104.065 192.396C103.813 192.44 103.558 192.471 103.297 192.485C102.777 192.515 102.241 192.482 101.695 192.331C101.422 192.254 101.147 192.143 100.884 191.976C100.621 191.81 100.359 191.579 100.169 191.266C99.9794 190.952 99.8818 190.545 99.9261 190.176C99.966 189.805 100.106 189.485 100.279 189.229L100.414 189.042L100.557 188.872L100.707 188.715C100.736 188.685 100.745 188.675 100.762 188.655L100.809 188.605C100.869 188.533 100.94 188.473 100.997 188.393L101.172 188.159C101.619 187.49 101.94 186.678 102.174 185.837C102.417 184.998 102.574 184.121 102.654 183.254L102.68 182.928L102.691 182.605C102.693 182.499 102.691 182.394 102.69 182.29L102.682 181.938C102.676 181.466 102.68 181.003 102.687 180.538C102.699 179.61 102.734 178.687 102.766 177.765C102.776 177.424 103.066 177.155 103.409 177.168C103.747 177.179 104.01 177.458 104.006 177.794C103.992 178.711 103.99 179.633 103.99 180.547C103.992 181.001 103.99 181.46 104.005 181.907L104.016 182.246C104.019 182.37 104.024 182.5 104.023 182.621L104.012 182.988L103.989 183.352C103.912 184.316 103.758 185.263 103.504 186.199C103.249 187.132 102.894 188.058 102.318 188.931L102.083 189.249C102.006 189.356 101.904 189.455 101.814 189.554L101.682 189.695L101.59 189.787L101.51 189.884L101.441 189.978C101.357 190.101 101.318 190.221 101.31 190.306C101.3 190.395 101.321 190.457 101.362 190.54C101.414 190.62 101.498 190.71 101.625 190.789C101.752 190.868 101.908 190.932 102.079 190.98C102.425 191.075 102.822 191.104 103.222 191.08C103.422 191.068 103.627 191.043 103.829 191.008L103.979 190.979L103.99 190.976L104.055 190.966C104.103 190.961 104.155 190.958 104.209 190.962C104.312 190.968 104.418 190.997 104.513 191.043C104.699 191.132 104.825 191.279 104.902 191.438C104.979 191.598 105.002 191.799 104.949 191.993C104.922 192.091 104.879 192.181 104.824 192.26L104.788 192.307L104.783 192.316L104.768 192.331L104.657 192.466L103.777 193.529L103.347 194.047C103.245 194.175 103.171 194.304 103.163 194.374C103.154 194.41 103.152 194.433 103.157 194.451C103.163 194.472 103.165 194.494 103.189 194.529C103.231 194.6 103.334 194.704 103.477 194.801C103.763 194.995 104.154 195.158 104.558 195.286C104.962 195.419 105.39 195.522 105.825 195.612L106.156 195.678L106.515 195.755C106.755 195.803 106.985 195.873 107.219 195.931C107.68 196.063 108.133 196.205 108.578 196.36C109.468 196.671 110.338 197.021 111.193 197.382L112.469 197.935L113.096 198.207C113.203 198.254 113.304 198.294 113.402 198.336C113.516 198.381 113.562 198.398 113.682 198.438C114.535 198.709 115.416 198.928 116.301 199.124C117.184 199.323 118.08 199.474 118.976 199.61C119.873 199.735 120.778 199.82 121.683 199.863C122.589 199.91 123.498 199.881 124.408 199.833L124.415 199.831C124.545 199.823 124.659 199.924 124.664 200.054C124.669 200.184 124.587 200.289 124.476 200.311Z" fill="#2E0066"/>
<path d="M143.471 165.127C143.994 165.84 144.517 166.55 145.027 167.274C145.283 167.638 145.535 167.999 145.786 168.372L146.154 168.931C146.263 169.098 146.387 169.264 146.509 169.426C147.021 170.083 147.606 170.704 148.23 171.259C148.855 171.817 149.529 172.321 150.233 172.685C150.322 172.736 150.41 172.766 150.5 172.809C150.59 172.849 150.677 172.893 150.767 172.918L151.034 173.012L151.299 173.073L151.363 173.089L151.463 173.108C151.531 173.123 151.597 173.132 151.664 173.156C151.798 173.191 151.938 173.236 152.074 173.294C152.347 173.412 152.628 173.589 152.859 173.858C153.092 174.123 153.239 174.489 153.269 174.839C153.299 175.191 153.223 175.513 153.114 175.794C152.887 176.354 152.521 176.761 152.137 177.1C151.745 177.435 151.322 177.702 150.882 177.914C150.772 177.97 150.661 178.018 150.549 178.067L150.529 178.076L150.519 178.079C150.515 178.08 150.505 178.086 150.529 178.076C150.586 178.049 150.647 178.011 150.698 177.959C150.802 177.856 150.853 177.722 150.86 177.608C150.87 177.492 150.844 177.379 150.776 177.269C150.714 177.162 150.586 177.065 150.471 177.031L151.084 177.206L152.36 177.578L152.52 177.626L152.601 177.649L152.701 177.683C152.833 177.726 152.973 177.783 153.109 177.855C153.381 177.997 153.692 178.244 153.866 178.611C154.047 178.976 154.042 179.368 153.984 179.67C153.923 179.976 153.818 180.233 153.7 180.468C153.463 180.933 153.173 181.315 152.876 181.681C152.577 182.043 152.26 182.38 151.939 182.702L151.82 182.821L151.711 182.933L151.495 183.156C151.356 183.31 151.214 183.468 151.076 183.629C149.977 184.931 149.012 186.392 148.061 187.865L147.702 188.423C147.579 188.611 147.462 188.796 147.314 189.001C147.275 189.053 147.231 189.113 147.197 189.156L147.092 189.286L146.872 189.548C146.723 189.723 146.576 189.89 146.421 190.06C145.813 190.73 145.166 191.354 144.494 191.955C143.146 193.14 141.688 194.199 140.139 195.087C139.986 195.177 139.787 195.122 139.697 194.969C139.617 194.829 139.653 194.654 139.775 194.557L139.777 194.553C140.464 194.008 141.149 193.467 141.807 192.9C142.465 192.329 143.111 191.747 143.726 191.142C144.348 190.539 144.94 189.907 145.507 189.263C145.648 189.101 145.785 188.937 145.918 188.773L146.115 188.525L146.217 188.396L146.296 188.285C146.406 188.131 146.524 187.942 146.642 187.76L146.994 187.203C147.939 185.709 148.908 184.206 150.069 182.801C150.219 182.625 150.368 182.454 150.522 182.281L150.763 182.028L150.884 181.902L150.997 181.789C151.297 181.487 151.579 181.175 151.84 180.857C152.097 180.536 152.333 180.206 152.496 179.884C152.573 179.724 152.633 179.566 152.656 179.443C152.678 179.313 152.663 179.242 152.644 179.213C152.627 179.18 152.582 179.124 152.468 179.064C152.411 179.035 152.347 179.007 152.269 178.982L152.211 178.964L152.133 178.94L151.974 178.896L150.704 178.533L150.046 178.341C149.878 178.292 149.706 178.157 149.612 178.002C149.518 177.847 149.48 177.677 149.49 177.505C149.505 177.335 149.579 177.146 149.722 177.006C149.793 176.935 149.873 176.88 149.957 176.842L150.01 176.816C150.101 176.773 150.193 176.737 150.279 176.692C150.633 176.522 150.961 176.314 151.24 176.074C151.515 175.834 151.742 175.556 151.846 175.295C151.897 175.165 151.918 175.046 151.91 174.958C151.898 174.871 151.876 174.805 151.817 174.739C151.761 174.671 151.663 174.599 151.535 174.544C151.467 174.517 151.396 174.49 151.319 174.47C151.282 174.457 151.238 174.45 151.198 174.442L151.038 174.406L150.656 174.316L150.299 174.194C150.175 174.156 150.067 174.102 149.955 174.053C149.843 174 149.726 173.956 149.623 173.897C148.764 173.447 148.014 172.885 147.334 172.262C146.651 171.641 146.028 170.965 145.464 170.225C145.327 170.036 145.19 169.847 145.059 169.642L144.705 169.094C144.468 168.732 144.22 168.37 143.973 168.011C143.475 167.291 142.976 166.568 142.47 165.85C142.271 165.572 142.341 165.185 142.619 164.987C142.887 164.791 143.27 164.854 143.471 165.127Z" fill="#2E0066"/>
<path d="M140.641 153.835C140.882 158.233 138.991 161.221 138.991 161.221L138.784 161.359C138.044 160.584 136.79 159.9 135.402 159.321C134.299 158.864 133.113 158.475 132.033 158.159C129.828 157.516 128.653 155.143 129.444 152.991C130.237 150.843 131.304 148.918 132.369 147.309C133.177 146.089 133.988 145.052 134.672 144.242C135.616 143.124 137.387 143.315 138.075 144.601C139.149 146.596 140.419 149.771 140.641 153.835Z" fill="#FFD3A6"/>
<g opacity="0.3">
<path d="M135.446 157.17C135.488 157.93 135.465 158.646 135.4 159.318C134.298 158.861 133.111 158.472 132.031 158.156C129.827 157.513 128.652 155.14 129.443 152.988C130.235 150.84 131.303 148.915 132.368 147.306C132.575 147.473 132.751 147.681 132.887 147.934C133.954 149.931 135.227 153.105 135.446 157.17Z" fill="#9F6431"/>
</g>
<path d="M138.545 161.581C138.185 161.253 137.761 160.979 137.322 160.732C136.88 160.489 136.419 160.263 135.948 160.066C135.473 159.87 134.993 159.682 134.507 159.512C134.017 159.346 133.522 159.185 133.029 159.035C132.78 158.963 132.529 158.887 132.281 158.818L131.907 158.716L131.719 158.664C131.655 158.648 131.598 158.633 131.52 158.609C130.923 158.434 130.361 158.111 129.918 157.669C129.479 157.226 129.129 156.681 128.952 156.078C128.773 155.479 128.735 154.832 128.86 154.215L128.916 153.986L128.946 153.873L128.977 153.778L129.099 153.392L129.349 152.622L129.64 151.867L129.788 151.49L129.952 151.118L130.282 150.38L130.651 149.661C130.771 149.418 130.9 149.184 131.038 148.952C131.172 148.721 131.296 148.481 131.442 148.253C132.003 147.336 132.627 146.459 133.306 145.63C133.988 144.801 134.713 144.017 135.545 143.324C135.622 143.258 135.738 143.269 135.8 143.346C135.856 143.414 135.856 143.512 135.802 143.579L135.797 143.587C135.136 144.385 134.52 145.238 133.95 146.105C133.658 146.536 133.394 146.983 133.128 147.426L132.739 148.098L132.372 148.783C131.893 149.697 131.446 150.628 131.069 151.586L130.924 151.945L130.791 152.307L130.526 153.033L130.293 153.768L130.177 154.134L130.148 154.224L130.128 154.305L130.091 154.461C129.923 155.296 130.199 156.199 130.797 156.813C131.094 157.121 131.471 157.344 131.88 157.478C131.926 157.496 131.996 157.515 132.058 157.536L132.25 157.593L132.633 157.713C132.888 157.791 133.142 157.881 133.394 157.964C134.407 158.313 135.408 158.714 136.374 159.208C136.855 159.455 137.331 159.726 137.781 160.041C138.234 160.352 138.668 160.706 139.04 161.137C139.16 161.274 139.14 161.482 139.003 161.601C138.874 161.711 138.687 161.705 138.567 161.594L138.545 161.581Z" fill="#2E0066"/>
<path d="M98.6203 166.796C100.901 170.561 104.146 171.967 104.146 171.967L104.395 171.964C104.567 170.907 105.219 169.638 106.038 168.378C106.69 167.38 107.454 166.389 108.164 165.523C109.62 163.753 109.254 161.125 107.387 159.798C105.518 158.468 103.549 157.48 101.764 156.755C100.409 156.204 99.1558 155.802 98.1292 155.517C96.7203 155.127 95.3631 156.28 95.522 157.73C95.7663 159.977 96.5063 163.313 98.6203 166.796Z" fill="#FFD3A6"/>
<g opacity="0.3">
<path d="M104.788 166.625C105.182 167.276 105.605 167.858 106.038 168.374C106.69 167.376 107.453 166.386 108.164 165.519C109.619 163.749 109.254 161.122 107.386 159.795C105.518 158.464 103.549 157.476 101.764 156.751C101.688 157.004 101.66 157.279 101.691 157.564C101.938 159.806 102.678 163.142 104.788 166.625Z" fill="#9F6431"/>
</g>
<path d="M104.071 171.908C104.134 171.342 104.292 170.807 104.489 170.292C104.687 169.777 104.925 169.288 105.182 168.813C105.705 167.865 106.301 166.969 106.945 166.108C107.107 165.896 107.268 165.68 107.434 165.47L107.681 165.156L107.805 164.998C107.847 164.946 107.893 164.892 107.92 164.851C108.183 164.51 108.366 164.111 108.442 163.692C108.589 162.849 108.311 161.949 107.698 161.354L107.579 161.247L107.519 161.191L107.443 161.133L107.138 160.895L106.532 160.422L105.903 159.974L105.591 159.749L105.27 159.538C104.417 158.958 103.524 158.441 102.609 157.953L101.921 157.592L101.22 157.257C100.748 157.042 100.278 156.822 99.7934 156.632C98.8348 156.234 97.846 155.879 96.8495 155.593L96.8415 155.591C96.7439 155.565 96.6901 155.463 96.7168 155.365C96.7428 155.28 96.8232 155.228 96.9081 155.235C97.9873 155.337 99.029 155.581 100.059 155.88C101.087 156.184 102.096 156.557 103.078 157.001C103.325 157.107 103.563 157.236 103.805 157.351C104.047 157.467 104.287 157.587 104.522 157.719L105.232 158.104L105.923 158.529L106.266 158.741L106.6 158.971L107.266 159.432L107.907 159.926L108.227 160.175L108.307 160.236L108.396 160.314L108.57 160.47C109.022 160.906 109.353 161.464 109.547 162.062C109.738 162.661 109.76 163.306 109.646 163.919C109.528 164.533 109.246 165.116 108.852 165.598C108.801 165.664 108.761 165.709 108.717 165.758L108.591 165.905L108.339 166.201C108.17 166.401 108.009 166.602 107.843 166.8C107.519 167.207 107.202 167.615 106.891 168.029C106.583 168.442 106.294 168.869 106.01 169.299C105.73 169.731 105.479 170.174 105.249 170.623C105.028 171.077 104.831 171.539 104.721 172.012L104.718 172.017C104.679 172.193 104.501 172.304 104.324 172.261C104.16 172.226 104.054 172.07 104.071 171.908Z" fill="#2E0066"/>
<path d="M143.133 166.109C142.964 166.154 142.778 166.133 142.622 166.028C142.325 165.836 142.238 165.442 142.429 165.143C147.031 158.024 143.373 145.367 138.55 140.876C137.504 139.9 135.971 138.95 134.617 139.959C128.488 144.521 125.769 152.486 124.694 156.831C124.609 157.173 124.262 157.383 123.918 157.298C123.575 157.213 123.365 156.867 123.451 156.524C124.568 152.015 127.406 143.732 133.855 138.934C135.464 137.736 137.445 138.093 139.43 139.941C141.948 142.286 144.228 146.868 145.241 151.615C146.437 157.213 145.823 162.261 143.51 165.839C143.418 165.976 143.281 166.069 143.133 166.109Z" fill="#2E0066"/>
<path d="M103.561 178.401C103.431 178.436 103.286 178.429 103.154 178.374C99.2009 176.763 95.8124 172.956 93.6138 167.654C91.7535 163.163 91.0289 158.071 91.7693 154.688C92.3587 152.008 93.7962 150.578 95.8201 150.66C103.868 150.994 110.891 156.249 114.359 159.355C114.622 159.589 114.644 159.997 114.409 160.259C114.174 160.521 113.766 160.544 113.503 160.31C110.161 157.321 103.412 152.259 95.7643 151.942C94.0602 151.872 93.3334 153.548 93.0236 154.965C91.7553 160.737 95.2819 173.79 103.641 177.195C103.967 177.329 104.124 177.701 103.993 178.029C103.911 178.217 103.747 178.351 103.561 178.401Z" fill="#2E0066"/>
<g opacity="0.3">
<g opacity="0.3">
<path opacity="0.3" d="M151.357 182.346C149.37 184.315 147.208 188.135 146.713 188.752C146.22 189.373 142.249 195.291 131.526 198.598C127.068 199.973 123.319 200.319 120.408 200.233C116.316 200.118 113.871 199.156 113.427 199.019C112.671 198.785 108.731 196.847 105.978 196.34C103.225 195.832 101.712 194.944 102.832 193.58C103.008 193.363 103.171 193.169 103.314 192.999C109.659 195.399 120.31 198.266 130.455 195.136C140.599 192.006 147.783 183.642 151.67 178.085C151.886 178.147 152.128 178.218 152.397 178.296C154.091 178.79 153.339 180.375 151.357 182.346Z" fill="#2E0066"/>
</g>
</g>
<path d="M118.994 181.32C118.618 179.048 117.011 177.422 115.406 177.687C113.801 177.952 112.805 180.009 113.181 182.28C113.557 184.552 115.163 186.178 116.768 185.913C118.374 185.648 119.37 183.591 118.994 181.32Z" fill="#2E0066"/>
<path d="M117.599 180.885C117.473 180.123 116.978 179.571 116.494 179.651C116.01 179.731 115.72 180.413 115.846 181.175C115.972 181.936 116.467 182.489 116.951 182.409C117.435 182.329 117.725 181.646 117.599 180.885Z" fill="white"/>
<path d="M117.033 182.486C117.012 182.491 116.991 182.497 116.969 182.499C116.702 182.544 116.429 182.426 116.198 182.168C115.978 181.923 115.82 181.574 115.758 181.189C115.693 180.804 115.73 180.422 115.86 180.12C115.997 179.802 116.216 179.604 116.482 179.559C116.749 179.514 117.022 179.633 117.253 179.89C117.474 180.136 117.631 180.484 117.693 180.87C117.759 181.254 117.722 181.636 117.592 181.938C117.466 182.231 117.269 182.423 117.033 182.486ZM116.465 179.748C116.282 179.797 116.128 179.951 116.026 180.192C115.911 180.464 115.878 180.807 115.935 181.16C115.992 181.513 116.133 181.829 116.332 182.05C116.52 182.259 116.735 182.355 116.937 182.324C117.14 182.292 117.311 182.13 117.423 181.87C117.538 181.599 117.571 181.256 117.514 180.903C117.457 180.55 117.316 180.234 117.117 180.013C116.929 179.804 116.714 179.708 116.512 179.739C116.497 179.74 116.479 179.744 116.465 179.748Z" fill="#2E0066"/>
<path d="M136.281 180.023C137.804 179.451 138.381 177.24 137.57 175.085C136.759 172.93 134.867 171.647 133.344 172.219C131.821 172.791 131.244 175.002 132.055 177.157C132.866 179.312 134.758 180.595 136.281 180.023Z" fill="#2E0066"/>
<path d="M134.371 177.08C134.83 176.907 134.982 176.182 134.71 175.459C134.438 174.737 133.845 174.291 133.386 174.464C132.927 174.636 132.775 175.362 133.047 176.084C133.318 176.806 133.911 177.252 134.371 177.08Z" fill="white"/>
<path d="M134.342 177.188C134.103 177.252 133.84 177.184 133.585 176.993C133.32 176.793 133.098 176.484 132.962 176.119C132.673 175.35 132.849 174.571 133.355 174.379C133.862 174.187 134.509 174.66 134.798 175.428C134.937 175.793 134.975 176.173 134.907 176.496C134.836 176.835 134.659 177.074 134.405 177.168C134.384 177.174 134.364 177.183 134.342 177.188ZM133.134 176.054C133.261 176.388 133.461 176.669 133.697 176.846C133.923 177.015 134.152 177.067 134.344 176.996C134.535 176.923 134.672 176.732 134.731 176.457C134.792 176.166 134.757 175.822 134.629 175.488C134.376 174.812 133.83 174.391 133.419 174.546C133.009 174.704 132.877 175.379 133.134 176.054Z" fill="#2E0066"/>
<path d="M124.804 187.01C125.144 188.279 126.966 188.724 127.835 188.789C127.853 188.905 127.897 189.169 127.929 189.29C127.554 190.07 126.768 191.112 126.336 191.215C123.99 191.843 123.77 190.566 122.975 190.779C122.862 190.81 122.277 191.037 122.736 191.855C123.744 193.65 127.079 193.607 129.33 193.004C136.14 191.179 135.747 187.559 134.149 187.987C133.457 188.173 133.699 189.485 131.58 190.053C130.551 190.328 129.316 189.269 128.913 189.026L128.781 188.535C130.478 187.756 131.418 186.573 131.107 185.563C130.796 184.554 128.801 185.129 127.532 185.388C126.263 185.647 124.571 186.141 124.804 187.01Z" fill="#2E0066"/>
<path d="M116.244 173.214C115.049 173.095 111.877 174.897 111.304 175.797C110.15 176.816 109.698 175.813 109.973 175.265C110.248 174.717 112.291 173.131 114.434 172.227C116.576 171.323 117.44 173.332 116.244 173.214Z" fill="#2E0066"/>
<path d="M129.039 168.887C129.876 168.119 133.282 167.814 134.221 168.231C135.665 168.418 135.443 167.341 134.928 167.046C134.412 166.751 131.979 166.599 129.853 167.061C127.727 167.523 128.202 169.656 129.039 168.887Z" fill="#2E0066"/>
<path d="M100.969 196.27C99.7705 194.801 101.05 193.614 101.84 193.205C104.833 199.253 121.283 201.924 121.269 202.385C127.88 202.988 136.941 199.419 136.869 198.981C144.863 194.537 150.681 187.197 152.591 184.082C152.103 183.512 151.404 182.281 152.512 181.911C153.898 181.448 154.448 182.99 155.066 183.419C152.831 188.904 142.957 200.364 129.708 203.32C119.108 205.686 109.748 202.29 106.393 200.297L107.237 198.837C105.647 198.594 102.168 197.739 100.969 196.27Z" fill="#2E0066"/>
<path d="M157.841 157.237C163.163 177.098 151.352 197.522 131.457 202.852C111.563 208.183 91.1228 196.401 85.801 176.54C80.4792 156.679 92.2903 136.256 112.185 130.925C132.079 125.595 152.519 137.376 157.841 157.237Z" stroke="white" stroke-width="1.4102"/>
<ellipse opacity="0.2" rx="37.1955" ry="37.146" transform="matrix(-1 0.000384604 -0.000385098 1 121.595 166.726)" fill="#D3F1FD"/>
<path opacity="0.5" d="M89.1156 168.245C101.759 142.084 115.978 140.1 115.626 137.946C119.414 133.471 108.058 131.092 96.5199 144.46C84.9819 157.828 87.4858 171.279 89.1156 168.245Z" fill="white"/>
<path d="M150.349 208.462C151.139 207.894 151.319 206.794 150.752 206.004C150.184 205.214 149.083 205.034 148.293 205.601L150.349 208.462ZM154.998 199.638C154.342 200.356 154.392 201.47 155.111 202.126C155.829 202.782 156.943 202.732 157.599 202.014L154.998 199.638ZM118.238 213.522C117.271 213.418 116.402 214.117 116.298 215.084C116.193 216.051 116.892 216.92 117.859 217.025L118.238 213.522ZM107.733 214.773C108.653 215.088 109.654 214.597 109.969 213.676C110.284 212.756 109.793 211.754 108.873 211.44L107.733 214.773ZM107.496 212.822L106.895 214.477L106.895 214.477L107.496 212.822ZM80.9755 181.625C74.776 158.488 88.5349 134.694 111.714 128.483L110.802 125.08C85.7487 131.794 70.8683 157.516 77.5727 182.537L80.9755 181.625ZM111.714 128.483C134.893 122.272 158.706 135.999 164.905 159.136L168.308 158.225C161.603 133.203 135.855 118.367 110.802 125.08L111.714 128.483ZM148.293 205.601C144.146 208.581 139.398 210.877 134.167 212.278L135.078 215.681C140.727 214.168 145.862 211.686 150.349 208.462L148.293 205.601ZM164.905 159.136C168.879 173.967 164.655 189.067 154.998 199.638L157.599 202.014C168.031 190.594 172.606 174.265 168.308 158.225L164.905 159.136ZM134.167 212.278C128.813 213.713 123.429 214.084 118.238 213.522L117.859 217.025C123.477 217.632 129.298 217.23 135.078 215.681L134.167 212.278ZM108.873 211.44C108.613 211.351 108.355 211.26 108.097 211.166L106.895 214.477C107.173 214.578 107.452 214.677 107.733 214.773L108.873 211.44ZM108.097 211.166C95.2273 206.491 84.7821 195.832 80.9755 181.625L77.5727 182.537C81.69 197.903 92.9912 209.427 106.895 214.477L108.097 211.166Z" fill="#2E0066"/>
</g>
<path d="M120.949 208.684C120.309 208.855 120.098 209.363 120.165 210.022C120.286 211.214 120.963 212.982 119.94 214.741C118.493 217.241 113.435 219.108 111.171 217.019C109.268 215.261 108.513 212.329 109.335 210.596C111.097 206.88 115.464 205.567 119.024 206.275C120.317 206.531 123.085 208.112 123.085 208.112L120.949 208.684Z" fill="white"/>
<path d="M115.799 218.25C115.493 218.332 115.184 218.399 114.876 218.443C113.185 218.697 111.726 218.349 110.763 217.463C108.711 215.57 107.827 212.377 108.791 210.341C110.699 206.314 115.443 204.951 119.143 205.687C120.515 205.961 123.27 207.522 123.385 207.589C123.852 207.855 123.762 208.553 123.243 208.692L121.105 209.265C120.945 209.308 120.704 209.372 120.765 209.963C120.787 210.19 120.835 210.457 120.889 210.742C121.096 211.893 121.381 213.465 120.466 215.044C119.632 216.473 117.797 217.715 115.799 218.25ZM114.721 207.015C112.701 207.556 110.855 208.801 109.88 210.855C109.151 212.396 109.946 215.069 111.579 216.58C112.269 217.216 113.374 217.453 114.694 217.255C116.628 216.963 118.659 215.754 119.417 214.446C120.11 213.249 119.893 212.032 119.699 210.96C119.643 210.652 119.589 210.363 119.562 210.086C119.459 209.064 119.905 208.341 120.79 208.105L121.459 207.925C120.566 207.472 119.511 206.988 118.905 206.867C117.583 206.606 116.111 206.643 114.721 207.015Z" fill="#2E0066"/>
<path d="M144.454 202.387C145.095 202.216 145.532 202.55 145.803 203.154C146.295 204.247 146.593 206.116 148.359 207.129C150.863 208.57 156.177 207.661 157.093 204.72C157.862 202.247 157.048 199.33 155.469 198.24C152.084 195.903 147.645 196.947 144.916 199.339C143.924 200.207 142.318 202.959 142.318 202.959L144.454 202.387Z" fill="white"/>
<path d="M153.701 208.099C151.703 208.634 149.489 208.48 148.059 207.653C146.477 206.743 145.933 205.24 145.54 204.139C145.445 203.869 145.353 203.614 145.257 203.402C145.014 202.86 144.77 202.926 144.614 202.967L142.475 203.54C141.956 203.679 141.529 203.119 141.8 202.655C141.867 202.54 143.47 199.808 144.523 198.889C147.359 196.403 152.149 195.213 155.816 197.747C157.669 199.028 158.502 202.236 157.672 204.901C157.282 206.152 156.193 207.183 154.601 207.804C154.304 207.918 154.007 208.017 153.701 208.099ZM143.629 201.987L144.299 201.807C145.183 201.57 145.931 201.973 146.354 202.91C146.468 203.163 146.566 203.44 146.672 203.735C147.041 204.76 147.458 205.924 148.661 206.613C149.971 207.367 152.335 207.399 154.157 206.686C155.4 206.201 156.237 205.44 156.516 204.545C157.178 202.419 156.525 199.704 155.123 198.738C151.963 196.554 147.793 197.616 145.311 199.794C144.847 200.202 144.177 201.148 143.629 201.987Z" fill="#2E0066"/>
</svg>
